<?xml version="1.0" encoding="utf-8"?>
<!-- Generator: Adobe Illustrator 19.0.0, SVG Export Plug-In . SVG Version: 6.00 Build 0)  -->
<svg version="1.1" id="layer" xmlns="http://www.w3.org/2000/svg" xmlns:xlink="http://www.w3.org/1999/xlink" x="0px" y="0px"
	 viewBox="-153 -46 652 652" style="enable-background:new -153 -46 652 652;" xml:space="preserve">
<style type="text/css">
	.st0{fill:#1592D2;}
</style>
<path class="st0" d="M-49.2,260.8c5.2-0.4,10-1.5,14.5-3.4c4.5-1.9,8.2-4.7,11.1-8.3c2.9-3.6,4.3-8.4,4.3-14.4c0-9-3-15.9-9-20.7
	c-6-4.8-12.9-7.2-20.6-7.2c-10.8,0-18.9,3.5-24.4,10.6c-5.5,7.1-8.1,16-7.9,26.8h-40.6c0.4-10.8,2.3-20.6,5.8-29.5
	c3.5-8.9,8.4-16.5,14.7-22.8c6.3-6.4,13.8-11.3,22.6-14.7c8.8-3.5,18.6-5.2,29.4-5.2c8.4,0,16.8,1.3,25.2,3.8
	c8.4,2.5,15.9,6.2,22.6,11.2c6.7,5,12.1,11.1,16.3,18.3c4.2,7.2,6.3,15.5,6.3,24.9c0,10.2-2.4,19.2-7.3,27
	c-4.9,7.8-12.2,13.1-21.9,15.9v0.6c11.5,2.6,20.6,8.2,27.2,16.8c6.6,8.6,9.9,18.9,9.9,30.9c0,11-2.2,20.8-6.5,29.4
	c-4.3,8.6-10,15.8-17.2,21.6c-7.2,5.8-15.5,10.2-24.9,13.2c-9.4,3-19.2,4.5-29.4,4.5c-11.8,0-22.6-1.7-32.3-5.1
	c-9.7-3.4-18-8.4-24.7-14.9c-6.8-6.5-12.1-14.5-15.8-23.9c-3.7-9.4-5.4-20.2-5.2-32.4h40.6c0.2,5.6,1.1,10.9,2.7,16
	c1.6,5.1,3.9,9.5,6.9,13.2c3,3.7,6.8,6.6,11.3,8.8c4.5,2.2,9.9,3.3,16.1,3.3c9.6,0,17.7-2.9,24.3-8.8c6.6-5.9,9.9-13.9,9.9-24.1
	c0-8-1.6-14.1-4.8-18.2c-3.2-4.2-7.2-7.2-12-9.1c-4.8-1.9-10-3-15.7-3.3c-5.7-0.3-11.1-0.5-16.3-0.5v-30.2
	C-59.3,261.2-54.4,261.2-49.2,260.8 M222,239.9v83.7l36.6-43.6L222,239.9z"/>
<path d="M152.6,199.1c-46.1,0-85,37.5-85,81.8c0,44.4,39.2,81.9,85.6,81.9c22.8,0,46.1-9.6,63.9-26.4l4.6-4.3V368l-1.2,0.8
	c-19.5,13.2-43.1,20.5-66.4,20.5c-64,0-116.1-48.3-116.1-107.6c0-60.2,52.1-109.2,116.1-109.2c25,0,46.7,6.7,66.5,20.5l1.2,0.8v36
	l-4.6-4.5C199.8,208.7,176.3,199.1,152.6,199.1 M443.7,387.9l-86.1-105.2l86.1-104.9H398L334.8,255l-63.2-77.2H226l86.1,104.9
	L226,387.9h45.2l63.6-77.5l63.6,77.5H443.7z M449.4,376.1c0,6.5,5.2,11.8,11.8,11.8c6.6,0,11.8-5.2,11.8-11.8
	c0-6.5-5.2-11.8-11.8-11.8C454.6,364.3,449.4,369.5,449.4,376.1 M471.3,376.1c0,5.6-4.6,10-10,10c-5.4,0-10-4.4-10-10
	c0-5.6,4.6-10,10-10C466.7,366.1,471.3,370.5,471.3,376.1 M463,376.5c2.3-0.1,4.1-1,4.1-3.5c0-2.8-2.3-3.4-4.6-3.4h-5.6v12.9h1.8
	v-5.9h2.2l3.9,5.9h2.2L463,376.5z M458.7,374.7v-3.3h3.4c1.4,0,3.1,0.2,3.1,1.6c0,2.1-2.8,1.8-4.4,1.8H458.7z"/>
</svg>
