<?xml version="1.0" encoding="utf-8"?>

<svg version="1.0" id="by_pacocaetano" xmlns="http://www.w3.org/2000/svg" xmlns:xlink="http://www.w3.org/1999/xlink" x="0px"
	 y="0px" viewBox="0 0 282.9 103.4" style="enable-background:new 0 0 282.9 103.4;" xml:space="preserve">
<style type="text/css">
	.st0{fill:#213666;}
</style>
<g>
	<path class="st0" d="M25.8,0.1c0.5,0,0.9,0,1.2,0c8.5,0,16.9,0,25.4,0C75.8,0.2,96.7,17,102,39.7c6.7,28.6-10.9,56.4-39.7,62.7
		c-3,0.7-6.2,1-9.3,1c-8.7,0.1-17.3,0-26,0c-0.4,0-0.7,0-1.1,0c-0.2-2.2,0.3-4.3,1-6.4c2.7-7.7,10-12.8,18.2-12.9
		c3.6,0,7.1,0.1,10.6-0.3C68.9,82.3,80,72.5,83.1,59.6c4.6-18.7-7.7-37.1-26.8-40c-3.2-0.5-6.5-0.4-9.7-0.3c-5.1,0-9.8-1.1-13.7-4.4
		c-4.6-3.8-7-8.8-7.2-14.9L25.8,0.1z M33.9,6.4c2.2,3.5,5,5.6,8.8,6.3c1.9,0.3,3.9,0.2,5.8,0.3c3.7,0.2,7.4,0,11,0.8
		c26.9,5.5,39.7,36.1,24.8,59c-6.7,10.3-16.4,16.1-28.7,17.4c-3.5,0.4-7,0.1-10.5,0.3c-4.3,0.1-7.8,2-10.4,5.5
		c-0.2,0.3-0.4,0.6-0.6,1.1c0.4,0,0.6,0,0.8,0c6,0,12,0,18,0c2.6,0,5.3-0.3,7.8-0.8C86,91.2,101.8,66.5,96,41.4
		C91.9,23.9,77.5,10.3,59.9,7.2c-4.4-0.8-8.8-0.7-13.3-0.7C42.5,6.5,38.4,6.5,33.9,6.4L33.9,6.4z"/>
	<path class="st0" d="M0,77.5V58.2h26.6c-1-4.4-1-8.7,0-13H0V25.9c0.5,0,0.9,0,1.4,0c16.8,0,33.6,0,50.3,0
		C65,25.9,76.1,36,77.4,49.2c1.4,14-8.6,26.5-22.7,28.1c-1,0.1-2.1,0.2-3.1,0.2c-16.8,0-33.6,0-50.3,0C0.9,77.5,0.5,77.5,0,77.5
		L0,77.5z M6.3,38.8c0.6,0,1.1,0,1.5,0c14.5,0,29.1,0,43.6,0c8,0,14,6.7,13,14.6c-0.9,7.4-7.9,12.3-15.4,10.9
		c-7.1-1.3-11.8-8.8-9.8-15.9c0.3-1.1,0.7-2.1,1.2-3.3c-2,0-4,0-5.9,0c-0.9,0-1.3,0.3-1.5,1.2c-3.5,12.1,5.4,24.4,18,24.8
		c10.6,0.4,19.6-7.7,20.3-18.1c0.7-11.5-8.2-20.8-19.7-20.8c-14.5,0-29.1,0-43.6,0c-0.5,0-0.9,0-1.5,0v6.6L6.3,38.8z M34.2,71.1
		c-1.5-1.9-3-3.7-4.4-5.6c-0.5-0.7-1-0.9-1.7-0.9c-6.8,0-13.6,0-20.5,0c-0.4,0-0.8,0-1.3,0V71h27.9V71.1z M51.7,58.2
		c3.6,0,6.6-2.9,6.6-6.5s-2.9-6.5-6.5-6.6c-3.6,0-6.5,2.9-6.5,6.5c0,3.7,2.8,6.5,6.5,6.5L51.7,58.2z"/>
	<g id="qtNyKx-3">
		<g>
			<path class="st0" d="M130.1,57.8h19.6v4.5H135v9.2h13.3v4.3H135v9.8h15.1v4.5h-20L130.1,57.8L130.1,57.8z"/>
			<path class="st0" d="M179,66.5h4.8v4.6l0,0c0.2-0.4,0.3-0.7,0.5-1.1c1.2-2.3,3.2-3.7,5.8-3.9c2.3-0.2,4.5,0.2,6.5,1.4
				c2,1.3,3.2,3.2,4,5.4c0.8,2.3,0.9,4.7,0.7,7.2c-0.1,1.7-0.5,3.4-1.3,5c-1.7,3.5-4.6,5.3-8.5,5.4c-1.8,0-3.4-0.3-4.8-1.4
				c-1.2-0.9-2.1-2.1-2.6-3.5c0,0,0-0.1-0.1-0.2v14.1h-4.8V66.4L179,66.5z M183.8,78.3c0,1.5,0,2.9,0,4.4c0,0.1,0,0.3,0,0.4
				c0.5,1.2,1.3,2.2,2.6,2.7c1.5,0.7,3.2,0.8,4.8,0.6c0.9-0.1,1.8-0.4,2.6-0.9c1.4-0.9,2-2.3,2.3-3.8c0.3-1.6,0.3-3.2,0.2-4.9
				c0-0.9-0.2-1.8-0.4-2.6c-0.5-2.3-2-3.6-4.3-4.1c-1.1-0.2-2.1-0.2-3.2,0c-2.1,0.3-3.7,1.2-4.6,3.2c0,0.2-0.1,0.4-0.1,0.6
				C183.7,75.4,183.7,76.8,183.8,78.3L183.8,78.3z"/>
			<path class="st0" d="M151.8,20.1c-0.8-0.5-1.6-1-2.4-1.5c-2.8-1.6-5.8-2-8.9-1.3c-3.4,0.8-5.5,3-6.3,6.3
				c-0.3,1.2-0.4,2.4-0.4,3.6c0,1.9,0,3.8,0.2,5.6c0.4,2.1,1.1,3.9,2.5,5.5c1.3,1.4,3,2.1,4.8,2.4c3.7,0.6,6.9-0.3,9.9-2.5
				c0.2-0.1,0.3-0.2,0.5-0.4c0.5,1.4,1,2.7,1.5,4.1c-0.7,0.6-1.6,1.2-2.4,1.6c-4.4,2.3-8.9,2.6-13.5,0.9c-3.6-1.3-5.9-4-7.3-7.5
				c-0.8-2.1-1.2-4.4-1.3-6.7c-0.1-2.9,0-5.7,0.9-8.5c0.7-2.2,1.7-4.1,3.3-5.7c1.7-1.7,3.7-2.8,6-3.3c4.8-1.1,9.2-0.5,13.3,2.3
				c0.3,0.2,0.6,0.4,0.8,0.6c0,0,0.1,0.2,0.1,0.3c-0.4,1.3-0.9,2.6-1.4,3.9l0,0L151.8,20.1z"/>
			<path class="st0" d="M236.2,34.8h-15.6c0.1,1.8,0.3,3.6,1.5,5c0.9,1.1,2.1,1.6,3.5,1.7c3.2,0.3,6.1-0.4,8.9-2.1c0,0,0,0,0.2,0
				c0.1,0.5,0.3,1.1,0.4,1.6c0.2,0.7,0.3,1.3,0.5,2c0,0.3,0,0.4-0.2,0.6c-1.2,0.8-2.5,1.3-3.9,1.6c-2.6,0.6-5.2,0.7-7.8,0.2
				c-3.6-0.7-6-2.8-7.1-6.3c-1.2-3.9-1.2-7.8,0.3-11.6c1.5-3.8,4.3-5.8,8.4-6.2c1.7-0.2,3.4,0,5.1,0.6c2.2,0.8,3.6,2.3,4.6,4.4
				c1,2,1.3,4.2,1.4,6.4c0,0.8,0,1.5,0,2.3L236.2,34.8z M231.7,31.2c0-1.2-0.2-2.3-0.7-3.4c-0.6-1.4-1.8-2.3-3.3-2.6
				c-1.1-0.2-2.2-0.2-3.3,0.1c-1.3,0.4-2.4,1.2-2.9,2.4c-0.3,0.6-0.5,1.3-0.6,2c-0.1,0.5-0.1,0.9-0.2,1.4h11.1L231.7,31.2z"/>
			<path class="st0" d="M241.8,79.7h-15.6c0.1,1.8,0.3,3.6,1.5,5c0.9,1.1,2.1,1.6,3.5,1.7c3.2,0.3,6.1-0.4,8.9-2.1c0,0,0,0,0.2,0
				c0.1,0.5,0.3,1.1,0.4,1.6c0.1,0.6,0.3,1.3,0.4,1.9c0,0.3,0,0.5-0.3,0.6c-1.2,0.8-2.5,1.2-3.9,1.6c-2.6,0.6-5.2,0.7-7.8,0.2
				c-3.6-0.7-6-2.8-7.1-6.3c-1.2-3.9-1.2-7.8,0.3-11.6c1.5-3.8,4.3-5.8,8.4-6.2c1.7-0.2,3.4,0,5.1,0.6c2.2,0.8,3.6,2.3,4.6,4.4
				c1,2,1.3,4.2,1.4,6.4c0,0.8,0,1.5,0,2.3V79.7z M237.4,76.1c0-1.3-0.3-2.5-0.9-3.6c-0.6-1.2-1.6-2-3-2.3c-0.7-0.1-1.5-0.2-2.3-0.1
				c-3.1,0.2-4.9,2.3-5,6h11H237.4z"/>
			<path class="st0" d="M155.7,33.3c0-2.5,0.5-5,1.7-7.2c1.7-2.9,4.2-4.5,7.5-5c2.1-0.3,4.2-0.2,6.2,0.5c3.1,1.1,5.1,3.2,6.2,6.2
				c0.9,2.4,1.1,4.9,0.8,7.4c-0.2,1.8-0.7,3.5-1.5,5c-1.6,2.8-4,4.5-7.2,5.1c-2.2,0.4-4.5,0.3-6.6-0.4c-3.2-1.1-5.2-3.4-6.3-6.5
				c-0.6-1.7-0.8-3.4-0.8-5.2L155.7,33.3z M173.3,33.4c0-1.2,0-2.4-0.3-3.6c-0.5-2-1.6-3.5-3.6-4.3c-1.4-0.5-2.8-0.5-4.2-0.2
				c-2.3,0.6-3.5,2.1-4.1,4.3c-0.4,1.6-0.4,3.2-0.3,4.9c0,0.8,0.1,1.7,0.3,2.5c0.4,1.7,1.3,3,2.8,3.8c0.8,0.5,1.8,0.6,2.7,0.7
				c3.1,0.1,5.4-1.2,6.3-4.4c0.4-1.3,0.4-2.5,0.4-3.8L173.3,33.4z"/>
			<path class="st0" d="M239.6,33.8c0-2.9,0.4-5.2,1.6-7.4c1.7-3,4.2-4.7,7.6-5.1c2.1-0.3,4.2-0.2,6.2,0.5c3.1,1.1,5.1,3.2,6.2,6.2
				c0.9,2.4,1.1,4.9,0.8,7.4c-0.2,1.8-0.7,3.5-1.5,5.1c-1.6,2.8-4,4.5-7.1,5.1c-2.2,0.4-4.5,0.3-6.7-0.4c-3.2-1.1-5.2-3.3-6.3-6.5
				c-0.6-1.7-0.8-3.4-0.8-4.8L239.6,33.8z M244.6,33.4c0,1.5,0,2.9,0.5,4.3c0.7,1.9,2,3.3,4,3.7c1.2,0.3,2.5,0.3,3.7,0
				c1.3-0.3,2.4-1.1,3.1-2.2c0.6-0.9,0.9-1.8,1.1-2.8c0.2-1.3,0.2-2.5,0.2-3.8c0-0.9-0.1-1.8-0.3-2.7c-0.4-1.7-1.3-3.1-2.9-4
				c-1.2-0.6-2.4-0.7-3.7-0.6c-2.5,0.2-4.3,1.6-5.1,3.9c-0.5,1.4-0.6,2.8-0.5,4.3L244.6,33.4z"/>
			<path class="st0" d="M175.3,66.5c-2.8,3.9-5.6,7.8-8.4,11.6c2.8,4,5.6,8,8.4,12H175c-1.6,0-3.3,0-4.9,0c-0.2,0-0.4,0-0.5-0.3
				c-1.8-2.6-3.7-5.2-5.5-7.8c0,0-0.1-0.2-0.2-0.3c-0.5,0.7-0.9,1.3-1.3,1.9c-1.4,2-2.8,4.1-4.2,6.1c-0.1,0.2-0.3,0.3-0.5,0.3
				c-1.5,0-3.1,0-4.6,0h-0.4c0-0.1,0.1-0.2,0.2-0.3c2.7-3.8,5.4-7.6,8.2-11.4c0.1-0.2,0.2-0.3,0-0.5c-2.6-3.7-5.2-7.4-7.9-11.1
				c0,0-0.1-0.2-0.2-0.3c0.1,0,0.2,0,0.3,0c1.6,0,3.2,0,4.8,0c0.2,0,0.4,0,0.5,0.3c1.8,2.5,3.5,5,5.3,7.5c0,0,0.1,0.2,0.2,0.3
				c0.4-0.6,0.8-1.1,1.1-1.7c1.4-2,2.8-4.1,4.2-6.1c0.1-0.2,0.3-0.3,0.5-0.3c1.6,0,3.2,0,4.9,0L175.3,66.5z"/>
			<path class="st0" d="M266.4,39.6c1.5,0.7,3,1.3,4.6,1.6c1.7,0.3,3.3,0.4,5,0c0.9-0.2,1.7-0.5,2-1.5c0.5-1.4,0.3-2.9-1.5-3.5
				c-1.1-0.4-2.3-0.7-3.4-1c-1.4-0.4-2.8-0.7-4.1-1.4c-2.1-1.1-3.3-2.8-3.3-5.2c-0.1-3.7,2.1-6.5,5.9-7.3c3.7-0.7,7.2-0.2,10.5,1.7
				c0.3,0.1,0.3,0.3,0.3,0.6c-0.3,1.2-0.5,2.3-0.8,3.5c0,0,0,0.1,0,0.2c-0.6-0.3-1.1-0.6-1.7-0.9c-2.3-1.1-4.7-1.4-7.2-0.9
				c-0.4,0-0.9,0.2-1.3,0.4c-0.8,0.4-1.2,1.2-1.2,2.1s0.3,1.8,1.3,2.1c1,0.4,2.1,0.7,3.2,1c1.6,0.4,3.1,0.7,4.6,1.4
				c2.4,1.1,3.5,3,3.6,5.6c0,1.9-0.4,3.7-1.7,5.1c-1.1,1.2-2.6,1.9-4.2,2.2c-3.5,0.6-6.9,0.2-10.1-1.2c-0.4-0.2-0.8-0.4-1.2-0.7
				c0,0-0.1-0.2-0.1-0.3C265.9,42,266.2,40.8,266.4,39.6L266.4,39.6z"/>
			<path class="st0" d="M261,72.2c-0.6-0.3-1.1-0.6-1.7-0.9c-2.3-1.1-4.7-1.3-7.2-0.9c-0.4,0-0.9,0.2-1.3,0.4
				c-0.8,0.4-1.2,1.2-1.2,2.1s0.3,1.8,1.3,2.1c1,0.4,2.1,0.7,3.2,1c1.5,0.4,2.9,0.7,4.3,1.2c2.5,1,3.8,2.9,3.9,5.6
				c0,2.1-0.4,3.9-1.9,5.4c-1.1,1.1-2.5,1.7-4,2c-3.5,0.6-6.9,0.2-10.1-1.2c-0.4-0.2-0.8-0.4-1.2-0.7l-0.1-0.2
				c0.3-1.2,0.6-2.5,0.9-3.6c1.1,0.4,2.2,0.9,3.3,1.2c2,0.6,4,0.8,6,0.4c0.3,0,0.6-0.1,0.9-0.3c1.1-0.4,1.6-1.3,1.6-2.5
				s-0.6-2-1.7-2.3c-1.2-0.4-2.5-0.7-3.7-1.1c-1.3-0.3-2.6-0.7-3.8-1.3c-2.1-1.1-3.3-2.8-3.3-5.2c-0.1-3.7,2.1-6.5,5.9-7.3
				c3.7-0.7,7.2-0.2,10.5,1.7c0.3,0.1,0.3,0.3,0.2,0.6c-0.3,1.2-0.5,2.3-0.8,3.5C261,71.9,261,72,261,72.2L261,72.2z"/>
			<path class="st0" d="M281.6,72.2c-0.6-0.3-1.1-0.6-1.7-0.9c-2.3-1.1-4.7-1.3-7.2-0.9c-0.4,0-0.9,0.2-1.3,0.4
				c-0.8,0.4-1.2,1.2-1.2,2.1s0.3,1.8,1.3,2.1c1,0.4,2.1,0.7,3.2,1c1.5,0.4,2.9,0.7,4.3,1.2c2.5,1,3.8,2.9,3.9,5.6
				c0,2.1-0.4,3.9-1.9,5.4c-1.1,1.1-2.5,1.7-4,2c-3.5,0.6-6.9,0.2-10.1-1.2c-0.4-0.2-0.8-0.4-1.2-0.7l-0.1-0.2
				c0.3-1.2,0.6-2.5,0.9-3.6c1.1,0.4,2.2,0.9,3.3,1.2c2,0.6,4,0.8,6,0.4c0.3,0,0.6-0.1,0.9-0.3c1.1-0.4,1.6-1.3,1.6-2.5
				s-0.6-2-1.7-2.3c-1.2-0.4-2.5-0.7-3.7-1.1c-1.3-0.3-2.6-0.7-3.8-1.3c-2.1-1.1-3.3-2.8-3.3-5.2c-0.1-3.7,2.1-6.5,5.9-7.3
				c3.7-0.7,7.2-0.2,10.5,1.7c0.3,0.1,0.3,0.3,0.2,0.6c-0.3,1.2-0.5,2.3-0.8,3.5C281.6,71.9,281.6,72,281.6,72.2L281.6,72.2z"/>
			<path class="st0" d="M196.3,25.6c-0.9,0-1.7,0-2.6,0.1c-0.9,0-1.8,0.2-2.6,0.5c-1.2,0.3-2,1.1-2.5,2.1c-0.4,0.8-0.6,1.6-0.6,2.5
				c0,4.6,0,9.2,0,13.9v0.4h-4.8V21.5h4.8v5.2c0.7-1.7,1.4-3.4,3-4.5c1.6-1,3.4-1.2,5.3-1.2L196.3,25.6L196.3,25.6z"/>
			<path class="st0" d="M205.3,45.2h-4.8V21.6h4.8v5.2c0.8-1.9,1.5-3.8,3.5-4.7c1.5-0.8,3.1-0.9,4.8-0.9v4.6c-0.4,0-0.7,0-1.1,0
				c-1.1,0-2.2,0.2-3.3,0.3c-1.6,0.3-2.8,1.2-3.5,2.7c-0.3,0.6-0.4,1.2-0.4,1.9c0,4.7,0,9.4,0,14.1S205.3,45.1,205.3,45.2z"/>
			<path class="st0" d="M211,71.6c1.4-4.3,3.7-5.7,8.3-5.6v4.6c-0.5,0-1.1,0-1.6,0c-1.2,0-2.4,0.1-3.6,0.5c-1.1,0.4-1.9,1.1-2.5,2.2
				c-0.4,0.8-0.6,1.6-0.6,2.5c0,4.6,0,9.2,0,13.8s0,0.3,0,0.4h-4.8V66.4h4.8L211,71.6L211,71.6z"/>
		</g>
	</g>
</g>
</svg>
