<?xml version="1.0" standalone="no"?>
<!DOCTYPE svg PUBLIC "-//W3C//DTD SVG 20010904//EN" "http://www.w3.org/TR/2001/REC-SVG-20010904/DTD/svg10.dtd">
<svg xmlns="http://www.w3.org/2000/svg" version="1.0" width="3840.000000pt" height="2160.000000pt" viewBox="0 0 3840.000000 2160.000000" preserveAspectRatio="xMidYMid meet">
<metadata>
Created by potrace 1.16, written by Peter Selinger 2001-2019
<meta name="Producer" content="Online-Convert"/></metadata>
<g transform="translate(0.000000,2160.000000) scale(0.100000,-0.100000)" fill="#000000" stroke="none">
<path d="M19150 14935 l0 -45 -45 0 -45 0 0 -50 0 -50 45 0 c44 0 45 0 45 -33 0 -26 -6 -37 -25 -47 -83 -44 -87 -182 -8 -238 66 -46 162 -27 203 40 39 65 17 165 -45 198 -19 10 -25 21 -25 47 0 33 1 33 45 33 l45 0 0 50 0 50 -45 0 -45 0 0 45 0 45 -50 0 -50 0 0 -45z"/>
<path d="M18351 14394 c-194 -52 -350 -206 -407 -399 -26 -90 -23 -231 7 -320 l24 -70 183 -3 183 -2 -33 29 c-19 16 -47 53 -62 81 -101 186 33 410 246 410 l67 0 -20 -47 c-59 -138 -64 -296 -12 -430 l16 -43 183 0 184 0 -41 37 c-57 52 -81 104 -87 191 -4 66 -2 78 28 138 44 90 131 151 218 153 l32 1 0 -260 0 -260 140 0 140 0 0 260 0 260 33 -1 c86 -2 173 -63 217 -153 30 -60 32 -72 28 -138 -6 -87 -30 -139 -87 -191 l-41 -37 184 0 184 0 15 38 c21 52 37 144 37 212 0 62 -29 191 -55 239 l-16 31 68 0 c88 0 154 -30 211 -95 101 -114 90 -294 -23 -393 l-36 -32 184 0 183 0 17 48 c131 371 -143 763 -533 762 -86 0 -182 -20 -242 -51 l-40 -21 -57 25 c-85 38 -148 46 -371 46 -223 0 -286 -8 -371 -46 l-57 -25 -40 21 c-96 49 -270 65 -381 35z"/>
<path d="M18053 13491 c-96 -70 -97 -214 -1 -283 45 -32 153 -33 195 -2 51 38 73 81 73 144 0 102 -68 170 -170 170 -47 0 -64 -5 -97 -29z"/>
<path d="M18595 13501 c-101 -61 -122 -183 -46 -264 37 -41 73 -57 127 -57 172 0 237 229 90 315 -53 31 -127 34 -171 6z"/>
<path d="M19103 13491 c-54 -39 -76 -89 -71 -157 8 -98 83 -160 184 -152 98 8 160 83 152 184 -8 95 -73 154 -171 154 -44 0 -62 -6 -94 -29z"/>
<path d="M19633 13495 c-146 -88 -80 -315 91 -315 145 0 227 170 133 276 -16 19 -43 42 -58 50 -44 22 -117 18 -166 -11z"/>
<path d="M20160 13498 c-56 -38 -80 -82 -80 -148 0 -96 58 -160 153 -168 102 -8 177 53 185 152 9 106 -54 177 -162 184 -51 3 -66 0 -96 -20z"/>
<path d="M18350 12945 l0 -145 850 0 850 0 0 145 0 145 -850 0 -850 0 0 -145z"/>
<path d="M16935 12700 c-9 -14 3 -191 22 -320 67 -475 278 -907 613 -1254 132 -136 227 -215 385 -321 271 -181 576 -300 906 -352 159 -25 517 -25 678 0 1035 163 1827 1008 1919 2047 5 52 8 120 8 150 l-1 55 -425 0 -425 0 -6 -125 c-7 -143 -28 -258 -71 -380 -38 -109 -118 -264 -175 -342 l-45 -61 -38 115 c-44 133 -63 173 -135 283 -165 253 -433 433 -731 491 -117 23 -311 23 -428 0 -215 -42 -410 -144 -573 -299 l-63 -60 0 191 0 192 -704 0 c-473 0 -707 -3 -711 -10z m1131 -750 c0 -256 4 -492 8 -525 17 -138 56 -251 154 -448 2 -4 -27 11 -64 34 -352 214 -640 557 -799 949 -47 115 -99 300 -120 423 l-6 37 413 -2 413 -3 1 -465z m1344 441 c165 -44 286 -117 408 -246 66 -69 90 -104 135 -197 58 -118 81 -200 93 -330 l7 -77 -59 -37 c-72 -46 -224 -124 -243 -124 -8 0 -11 6 -6 18 4 9 12 56 18 103 37 288 -161 564 -448 624 -129 27 -248 11 -373 -51 -151 -74 -265 -228 -299 -403 -57 -290 136 -589 423 -657 97 -23 378 -14 519 16 341 73 618 228 863 485 214 224 359 503 420 805 l19 95 137 3 c75 1 136 0 136 -2 0 -32 -49 -242 -74 -320 -246 -748 -891 -1278 -1665 -1367 -57 -6 -167 -9 -245 -7 -125 4 -152 8 -236 37 -290 97 -506 339 -571 636 -19 87 -17 264 4 360 11 48 40 125 74 193 45 93 69 128 135 197 131 139 287 226 464 260 102 19 263 13 364 -14z m-85 -572 c240 -120 187 -480 -77 -527 -163 -29 -312 87 -326 254 -10 133 72 254 199 293 53 16 151 7 204 -20z"/>
<path d="M12225 10405 c-614 -67 -1079 -323 -1469 -806 -270 -335 -450 -749 -512 -1179 -23 -160 -16 -474 14 -613 84 -384 311 -731 612 -932 350 -234 806 -307 1365 -219 428 67 775 205 1147 456 l88 58 24 -48 c72 -142 194 -256 361 -337 184 -90 349 -124 630 -130 833 -18 1309 314 1490 1040 18 71 52 240 75 375 71 413 67 665 -14 882 -47 124 -90 192 -181 283 -162 161 -379 246 -706 276 -147 14 -410 6 -554 -16 -594 -91 -943 -434 -1100 -1079 -14 -55 -23 -101 -21 -103 2 -2 75 43 162 100 393 257 649 377 935 438 141 31 426 34 506 6 79 -28 127 -68 159 -134 26 -53 29 -69 32 -185 4 -141 -6 -223 -69 -542 -43 -218 -92 -379 -144 -471 -33 -59 -105 -136 -156 -168 -57 -35 -153 -59 -259 -64 -130 -7 -228 8 -300 44 -153 78 -176 297 -80 755 53 248 55 262 44 256 -389 -223 -725 -416 -849 -490 -440 -260 -802 -407 -1170 -474 -154 -28 -493 -25 -634 5 -197 42 -362 126 -451 229 -120 141 -179 361 -167 631 18 397 195 798 474 1073 106 105 197 170 328 233 340 165 692 212 1005 134 104 -26 267 -102 336 -157 l52 -41 31 162 c64 323 111 571 111 578 0 12 -147 65 -272 99 -320 85 -577 107 -873 75z"/>
<path d="M18028 9495 c-241 -33 -447 -112 -616 -235 -24 -17 -46 -29 -49 -27 -2 3 3 43 11 89 9 47 16 92 16 101 0 16 -32 17 -384 17 l-383 0 -16 -87 c-18 -99 -182 -1019 -347 -1953 -60 -344 -113 -637 -116 -652 l-6 -28 417 0 c323 0 417 3 420 13 3 6 57 305 120 662 64 358 129 722 144 810 16 88 42 233 58 323 l28 163 48 14 c159 47 456 92 675 102 78 3 142 9 142 14 0 8 107 617 116 662 l6 27 -94 -1 c-51 -1 -137 -7 -190 -14z"/>
<path d="M20025 9503 c-273 -32 -489 -107 -662 -228 -36 -25 -67 -44 -70 -42 -2 3 4 49 15 103 l19 99 -381 3 c-209 1 -383 -1 -387 -5 -6 -7 -36 -167 -105 -563 -8 -47 -44 -247 -79 -445 -35 -198 -84 -475 -109 -615 -25 -140 -77 -434 -116 -652 -38 -219 -70 -407 -70 -418 0 -20 6 -20 415 -20 228 0 415 2 415 5 0 3 22 130 50 283 27 152 104 583 170 957 66 374 124 691 129 705 8 27 29 34 228 75 170 35 323 54 490 62 l142 6 5 26 c3 14 28 161 56 326 28 165 53 310 55 323 5 22 4 22 -87 21 -51 -1 -106 -4 -123 -6z"/>
<path d="M21305 9495 c-380 -49 -668 -194 -870 -436 -84 -100 -129 -173 -189 -301 -85 -180 -127 -337 -183 -673 -35 -216 -37 -243 -38 -450 0 -199 2 -229 23 -310 97 -374 359 -579 832 -652 167 -26 593 -23 861 6 230 24 560 78 575 94 3 3 23 114 44 248 22 134 42 256 46 272 5 26 4 27 -33 27 -21 0 -90 -4 -153 -9 -63 -6 -180 -12 -260 -16 -80 -3 -156 -8 -170 -11 -14 -2 -151 -5 -305 -5 -311 -1 -399 9 -504 57 -65 29 -114 75 -139 133 -20 44 -19 223 0 321 l13 65 892 3 c838 2 892 3 897 20 12 39 55 314 65 416 71 715 -209 1110 -850 1201 -127 18 -414 18 -554 0z m397 -598 c158 -49 232 -157 230 -342 -1 -79 -17 -219 -28 -236 -5 -9 -964 -13 -964 -4 0 23 54 227 72 268 51 124 139 226 233 275 42 21 128 48 180 56 54 8 229 -3 277 -17z"/>
<path d="M24210 9499 c-268 -31 -486 -106 -667 -231 -89 -61 -223 -200 -284 -293 -86 -131 -154 -283 -203 -454 -32 -111 -114 -502 -128 -606 -16 -125 -13 -405 6 -512 72 -412 337 -651 811 -729 150 -25 483 -25 645 0 220 33 398 91 540 176 209 126 342 276 455 514 89 187 124 312 180 641 67 397 77 544 49 734 -67 454 -350 695 -894 761 -99 12 -402 11 -510 -1z m379 -645 c101 -29 155 -78 187 -166 22 -63 28 -208 15 -328 -15 -129 -92 -513 -127 -635 -66 -231 -170 -360 -330 -410 -68 -22 -264 -31 -348 -16 -76 13 -149 46 -183 83 -12 13 -32 46 -45 73 -21 46 -23 63 -22 215 1 160 3 174 58 440 31 151 66 306 78 345 80 267 203 387 425 413 94 11 227 5 292 -14z"/>
<path d="M26853 9495 c-602 -67 -895 -337 -894 -824 0 -213 37 -333 145 -477 108 -144 256 -238 576 -367 342 -137 414 -178 451 -254 18 -37 21 -55 16 -109 -7 -73 -22 -107 -69 -150 -86 -82 -169 -99 -478 -97 -135 0 -303 6 -375 12 -226 19 -465 34 -469 30 -5 -4 -86 -466 -86 -486 0 -16 18 -21 174 -48 286 -49 420 -59 766 -60 269 0 345 3 440 18 339 55 539 143 706 312 78 78 99 106 137 186 52 109 75 190 86 309 21 232 -26 420 -142 562 -94 114 -287 233 -532 328 -332 129 -407 164 -465 216 -81 73 -76 205 11 278 72 61 165 77 422 75 207 -2 340 -10 685 -40 68 -6 126 -8 129 -5 8 8 84 458 81 481 -2 15 -16 23 -53 32 -99 25 -353 63 -505 77 -201 18 -600 18 -757 1z"/>
</g>
</svg>
