<?xml version="1.0" encoding="UTF-8"?>
<svg version="1.1" xmlns="http://www.w3.org/2000/svg" width="950" height="335">
<path d="M0 0 C-0.49816437 10.90034891 -2.92540297 21.52035114 -5.0625 32.1875 C-5.44387503 34.11252812 -5.82473877 36.03765761 -6.20507812 37.96289062 C-7.13082453 42.6431173 -8.06349206 47.32191533 -9 52 C-10.04551025 51.73662842 -11.09102051 51.47325684 -12.16821289 51.2019043 C-23.27923414 48.40883556 -23.27923414 48.40883556 -34.4375 45.8125 C-35.14841797 45.64814453 -35.85933594 45.48378906 -36.59179688 45.31445312 C-56.08052401 40.9502504 -78.05003427 40.72191905 -95.61328125 51.328125 C-109.70217483 61.19726813 -116.01556641 77.09517877 -119.078125 93.484375 C-123.00861493 117.94117714 -121.3288137 146.18569139 -106.59375 166.97265625 C-97.86369153 178.07780415 -86.86095188 183.5589481 -73 186 C-54.64660212 187.2356669 -37.44968878 184.93705672 -19.92260742 179.6262207 C-16.13962641 178.49301775 -12.93451359 177.89260633 -9 178 C-7.71160779 184.45824431 -6.43063424 190.91792824 -5.15478516 197.37866211 C-4.7199663 199.57594022 -4.28345602 201.77288432 -3.84521484 203.96948242 C-3.21526256 207.12852887 -2.59142102 210.28873012 -1.96875 213.44921875 C-1.67345398 214.91979988 -1.67345398 214.91979988 -1.37219238 216.42008972 C-1.19200562 217.34066666 -1.01181885 218.26124359 -0.82617188 219.2097168 C-0.58634583 220.4188398 -0.58634583 220.4188398 -0.3416748 221.65238953 C0.01931217 224.13269181 0.05872927 226.49708147 0 229 C-11.68413664 232.2603854 -23.35067714 235.25450951 -35.3125 237.3125 C-36.69610718 237.55081543 -36.69610718 237.55081543 -38.10766602 237.79394531 C-75.36312605 243.94070782 -115.34858041 240.88955232 -147.625 219.9375 C-169.15776431 204.22585846 -181.89959838 183.63630864 -189.3125 158.375 C-189.55516602 157.55306152 -189.79783203 156.73112305 -190.04785156 155.88427734 C-193.7968762 142.38619782 -194.4081949 128.91151388 -194.375 115 C-194.37445618 114.14105133 -194.37391235 113.28210266 -194.37335205 112.39712524 C-194.33418317 98.92350001 -193.60325428 86.05454883 -190 73 C-189.79101074 72.22011719 -189.58202148 71.44023437 -189.36669922 70.63671875 C-181.5020025 42.21776971 -164.11994545 18.52497492 -138.3203125 3.875 C-95.79602746 -19.24321078 -44.67221594 -12.49062199 0 0 Z " fill="#D7272F" transform="translate(194,73)"/>
<path d="M0 0 C0 22.11 0 44.22 0 67 C13.86 67 27.72 67 42 67 C42 84.49 42 101.98 42 120 C28.14 120 14.28 120 0 120 C0.0628849 136.58563172 0.1380704 153.17105273 0.23571491 169.75650978 C0.28065966 177.45761369 0.32007734 185.15867148 0.34643555 192.85986328 C0.36942637 199.57307976 0.40283642 206.28615017 0.44870156 212.99925077 C0.47261932 216.55303633 0.4913575 220.10667735 0.49761391 223.66054153 C0.50479757 227.6301381 0.53524528 231.59937275 0.56762695 235.56884766 C0.56619186 236.74417053 0.56475677 237.91949341 0.5632782 239.13043213 C0.64897043 246.54766289 1.33671419 251.20989106 6.625 256.75 C17.20087144 263.80058096 29.96679773 260.52318271 42 260 C42 276.17 42 292.34 42 309 C13.30935464 315.37569897 -23.95282767 318.9804718 -50 303 C-61.06938999 295.46075201 -66.61766538 282.89927312 -69.09518433 270.04168701 C-70.6288825 260.34038303 -70.26160151 250.50108694 -70.22705078 240.70800781 C-70.22648592 238.45996099 -70.22680469 236.2119138 -70.22793579 233.96386719 C-70.22850739 227.89035863 -70.21678441 221.81692978 -70.20278788 215.74343967 C-70.19024823 209.38534008 -70.18910747 203.02723847 -70.18673706 196.66912842 C-70.1812359 186.00694241 -70.16876077 175.34478773 -70.15087891 164.68261719 C-70.13248904 153.70605615 -70.11834779 142.72950304 -70.10986328 131.75292969 C-70.10933783 131.07504738 -70.10881239 130.39716507 -70.10827102 129.69874087 C-70.10566073 126.29762029 -70.10313336 122.89649965 -70.10064721 119.49537897 C-70.07995197 91.33023244 -70.04460935 63.16511804 -70 35 C-69.11524994 34.54378769 -68.23049988 34.08757538 -67.31893921 33.61753845 C-63.98754351 31.89962221 -60.65638261 30.18125109 -57.32528687 28.4627533 C-55.89269145 27.72376093 -54.46003521 26.98488648 -53.02731323 26.24613953 C-44.87923209 22.04467953 -36.73634479 17.83462225 -28.625 13.5625 C-27.85593323 13.15751282 -27.08686646 12.75252563 -26.29449463 12.33526611 C-22.57788375 10.37621823 -18.87446777 8.39445139 -15.1796875 6.39453125 C-14.39384277 5.97163818 -13.60799805 5.54874512 -12.79833984 5.11303711 C-11.30876611 4.31065466 -9.82191903 3.50318126 -8.33837891 2.68969727 C-3.33614202 0 -3.33614202 0 0 0 Z " fill="#D7272F" transform="translate(443,0)"/>
<path d="M0 0 C0 22.11 0 44.22 0 67 C14.19 67 28.38 67 43 67 C43 84.49 43 101.98 43 120 C28.81 120 14.62 120 0 120 C0.04035711 136.12544751 0.0972139 152.25055358 0.18390274 168.37580681 C0.22363388 175.86382255 0.25605631 183.35173411 0.27099609 190.83984375 C0.2840435 197.37001415 0.31108634 203.89995473 0.35461307 210.42999566 C0.37715904 213.88446767 0.39291485 217.33865696 0.39188385 220.79320908 C0.39099326 224.65908668 0.42136276 228.52439093 0.45410156 232.39013672 C0.4490712 233.52302628 0.44404083 234.65591583 0.43885803 235.82313538 C0.53058967 242.84842448 1.5171641 248.80733136 5 255 C9.81627373 259.48025463 13.07075439 259.46016764 20 261 C27.59 260.67 35.18 260.34 43 260 C43 276.17 43 292.34 43 309 C18.79107564 313.84178487 -11.04291045 317.36164871 -35 310 C-35.92167969 309.7215625 -36.84335937 309.443125 -37.79296875 309.15625 C-48.02729974 305.56417014 -57.29866563 297.90982802 -62.4375 288.31640625 C-69.17786176 273.21077409 -69.42590194 258.50809478 -69.34057617 242.29736328 C-69.33972858 240.02931734 -69.34020762 237.76127057 -69.34190369 235.4932251 C-69.3427599 229.37434132 -69.32519493 223.25563611 -69.30418181 217.13679361 C-69.28535236 210.72799506 -69.28365965 204.31919183 -69.28010559 197.91036987 C-69.27185852 187.16595815 -69.25315519 176.42162399 -69.22631836 165.67724609 C-69.19872241 154.61735353 -69.17751604 143.5574787 -69.16479492 132.49755859 C-69.16400675 131.81422774 -69.16321858 131.13089689 -69.16240653 130.42685904 C-69.15849102 126.99831164 -69.15469999 123.56976412 -69.15097082 120.14121652 C-69.11994124 91.76076632 -69.06693872 63.38038666 -69 35 C-65.30437251 33.07175717 -61.60873049 31.14354217 -57.91308594 29.21533203 C-56.35066666 28.40011833 -56.35066666 28.40011833 -54.75668335 27.56843567 C-49.63513815 24.89627549 -44.51342451 22.2244423 -39.390625 19.5546875 C-29.50319276 14.4010988 -19.62325969 9.23385335 -9.76074219 4.03271484 C-9.02887695 3.64680176 -8.29701172 3.26088867 -7.54296875 2.86328125 C-6.90383545 2.52594971 -6.26470215 2.18861816 -5.60620117 1.84106445 C-2.09027576 0 -2.09027576 0 0 0 Z " fill="#D7272F" transform="translate(298,0)"/>
<path d="M0 0 C19.47 0 38.94 0 59 0 C59 3.63 59 7.26 59 11 C44.15 11 29.3 11 14 11 C14 19.91 14 28.82 14 38 C26.54 38 39.08 38 52 38 C52 41.96 52 45.92 52 50 C39.46 50 26.92 50 14 50 C14 59.9 14 69.8 14 80 C28.85 80 43.7 80 59 80 C59 83.63 59 87.26 59 91 C39.53 91 20.06 91 0 91 C0 60.97 0 30.94 0 0 Z " fill="#000000" transform="translate(525,220)"/>
<path d="M0 0 C7.55107221 4.09625974 11.05999582 9.77465362 13.74609375 17.734375 C16.68586401 29.88204637 16.53543132 44.62405133 10.93359375 55.921875 C6.46893693 62.58496371 1.79230909 66.65949987 -6.1875 68.37890625 C-15.26747191 69.81092955 -21.13714308 67.45288252 -29.06640625 62.921875 C-29.39640625 72.161875 -29.72640625 81.401875 -30.06640625 90.921875 C-34.35640625 90.921875 -38.64640625 90.921875 -43.06640625 90.921875 C-43.06640625 60.891875 -43.06640625 30.861875 -43.06640625 -0.078125 C-39.10640625 -0.078125 -35.14640625 -0.078125 -31.06640625 -0.078125 C-31.06640625 1.571875 -31.06640625 3.221875 -31.06640625 4.921875 C-30.38578125 4.48875 -29.70515625 4.055625 -29.00390625 3.609375 C-19.76005147 -1.70092455 -10.27597349 -3.61295374 0 0 Z M-25.375 11.4453125 C-26.25857178 11.90599121 -27.14214355 12.36666992 -28.05249023 12.84130859 C-28.71708252 13.19789551 -29.3816748 13.55448242 -30.06640625 13.921875 C-30.21480435 19.40271137 -30.32364388 24.88237742 -30.39599609 30.36474609 C-30.42615703 32.22921111 -30.46709316 34.09353437 -30.51904297 35.95751953 C-30.59189342 38.63870178 -30.62586743 41.31800823 -30.65234375 44 C-30.68331146 44.83243225 -30.71427917 45.6648645 -30.7461853 46.52252197 C-30.7475118 48.8071067 -30.68444083 50.72168627 -30.06640625 52.921875 C-24.89001159 57.45510152 -20.20728487 58.22366599 -13.5703125 58.13671875 C-8.94221271 57.7396119 -6.15086292 55.97534719 -2.87890625 52.796875 C2.87129981 43.67585849 3.4781779 33.14738728 1.2421875 22.6875 C-0.67557564 16.74965596 -2.79211983 13.2884408 -8.06640625 9.921875 C-14.40673599 7.80843175 -19.46496367 8.3254432 -25.375 11.4453125 Z " fill="#000000" transform="translate(703.06640625,244.078125)"/>
<path d="M0 0 C0.83821289 0.00902344 1.67642578 0.01804688 2.54003906 0.02734375 C9.84919586 0.23267316 15.06594858 1.24647249 20.57421875 6.2734375 C26.45273512 12.49774895 27.89905647 18.11309097 27.75 26.625 C27.74935547 27.33591797 27.74871094 28.04683594 27.74804688 28.77929688 C27.72142875 31.92319308 27.56313537 34.43559388 26.5625 37.4375 C11.3825 37.4375 -3.7975 37.4375 -19.4375 37.4375 C-16.81384637 49.06894633 -16.81384637 49.06894633 -9 56.75 C1.33479653 61.64542993 12.65200942 59.19827081 23.5625 57.4375 C24.0575 61.8925 24.0575 61.8925 24.5625 66.4375 C11.81043097 71.58307171 -3.9069907 72.32203507 -16.75 66.875 C-23.01518252 63.29110322 -28.00413145 57.56336982 -30.375 50.75 C-30.75891631 49.32015786 -31.11692264 47.8828617 -31.4375 46.4375 C-31.664375 45.48875 -31.89125 44.54 -32.125 43.5625 C-33.25307899 32.28171006 -32.55506388 20.76936038 -25.87890625 11.18359375 C-18.88841517 2.71543789 -10.77774477 -0.13834249 0 0 Z M-13.25 13.75 C-17.20464031 18.60855809 -18.39692526 22.19405158 -19.4375 28.4375 C-7.8875 28.4375 3.6625 28.4375 15.5625 28.4375 C16.09364328 18.96589634 16.09364328 18.96589634 11.5625 12.4375 C3.89079723 6.08094627 -6.0250455 7.80948185 -13.25 13.75 Z " fill="#000000" transform="translate(800.4375,242.5625)"/>
<path d="M0 0 C5.02487647 -0.78388073 10.05868415 -1.46400026 15 0 C19.39306428 3.70124314 22.08276173 8.1069112 25 13 C26.37475895 15.10432417 27.7497339 17.20850724 29.125 19.3125 C30.08987306 20.87097008 31.05093951 22.43185038 32 24 C35.02143262 21.17604663 37.17602252 18.34610118 39.3125 14.8125 C39.92480469 13.8534375 40.53710938 12.894375 41.16796875 11.90625 C42.334726 10.05536003 43.46672574 8.18176041 44.55078125 6.28125 C46.21375939 3.67330414 47.51131602 1.84975793 50 0 C54.43413406 -0.73815596 58.55127988 -0.54187418 63 0 C61.34911628 5.29129397 58.01087031 9.35840284 54.75 13.75 C53.0540249 16.05028806 51.36352454 18.35363359 49.68945312 20.66992188 C48.53454697 22.26275776 47.36034004 23.8417297 46.16992188 25.40820312 C45.60337891 26.18615234 45.03683594 26.96410156 44.453125 27.765625 C43.93395508 28.45946289 43.41478516 29.15330078 42.87988281 29.86816406 C41.74466293 32.01495753 41.74466293 32.01495753 42.62451172 34.43505859 C44.10740883 37.20029059 45.73690453 39.71505918 47.5546875 42.2734375 C48.25207031 43.2634375 48.94945312 44.2534375 49.66796875 45.2734375 C50.39628906 46.29695313 51.12460937 47.32046875 51.875 48.375 C60.58587052 60.65436667 60.58587052 60.65436667 64 67 C51.13858966 68.50719652 51.13858966 68.50719652 46.5390625 65.265625 C44.42060048 62.61970917 42.7117774 59.92670416 41 57 C39.79535657 55.10460675 38.57273754 53.22156734 37.34912109 51.33837891 C36.54304778 50.08666634 35.74872187 48.8272978 34.96728516 47.56005859 C33.03255367 44.22409573 33.03255367 44.22409573 30 42 C29.74734375 42.70511719 29.4946875 43.41023438 29.234375 44.13671875 C27.37429182 48.45140538 24.72837577 52.12387723 22.0546875 55.97265625 C20.01586732 58.86222814 20.01586732 58.86222814 18.6328125 61.55859375 C17.24416404 63.97794712 16.31106965 65.4168263 14 67 C9.26063113 67.65883603 4.75108258 67.46859993 0 67 C1.38441509 64.08539882 2.96443758 61.46157909 4.79296875 58.8046875 C5.33816162 58.01078613 5.88335449 57.21688477 6.44506836 56.39892578 C7.0200708 55.56603027 7.59507324 54.73313477 8.1875 53.875 C8.76959229 53.02276855 9.35168457 52.17053711 9.95141602 51.29248047 C12.40161823 47.71433151 14.84863733 44.14780745 17.484375 40.703125 C18.12890625 39.85234375 18.7734375 39.0015625 19.4375 38.125 C19.99308594 37.42632812 20.54867187 36.72765625 21.12109375 36.0078125 C22.27674921 33.97030245 22.27674921 33.97030245 21.24536133 31.64501953 C20.02260627 29.0480134 18.67955396 26.95895375 16.953125 24.671875 C16.355 23.87136719 15.756875 23.07085937 15.140625 22.24609375 C14.20476563 21.01052734 14.20476563 21.01052734 13.25 19.75 C0 2.14883475 0 2.14883475 0 0 Z " fill="#000000" transform="translate(589,244)"/>
<path d="M0 0 C1.04220703 -0.00773438 2.08441406 -0.01546875 3.15820312 -0.0234375 C9.47797694 -0.00756864 15.07431283 0.64025792 21.1875 2.25 C20.8575 5.55 20.5275 8.85 20.1875 12.25 C17.96 11.755 17.96 11.755 15.6875 11.25 C10.73254381 10.36312068 5.89666638 9.96799382 0.875 9.875 C-0.44113281 9.84664062 -1.75726562 9.81828125 -3.11328125 9.7890625 C-7.40339273 10.3236276 -9.54650687 11.45199978 -12.8125 14.25 C-13.72916667 17.75 -13.72916667 17.75 -12.8125 21.25 C-7.85904683 26.42152972 -0.55797065 28.27515741 5.99609375 30.71875 C12.73124656 33.33950334 18.70329428 36.25366906 22.625 42.5625 C23.98633646 49.0666631 23.83199254 54.58512277 20.51953125 60.4609375 C16.31350647 66.11008515 10.21893646 68.54293052 3.42578125 69.734375 C-7.57734534 70.73332374 -19.071884 69.935154 -29.8125 67.25 C-29.1525 63.95 -28.4925 60.65 -27.8125 57.25 C-26.47316406 57.47816406 -25.13382813 57.70632813 -23.75390625 57.94140625 C-21.96103873 58.23239522 -20.16806407 58.52272465 -18.375 58.8125 C-17.49650391 58.96396484 -16.61800781 59.11542969 -15.71289062 59.27148438 C-8.47748795 60.4195372 -1.98607108 60.83678554 4.6875 57.5 C7.29290926 55.46740659 7.29290926 55.46740659 8.25 52.8125 C8.16424474 49.2965344 7.47158862 47.94937746 5.1875 45.25 C0.85148082 42.66506549 -3.61923067 40.93758237 -8.33032227 39.13793945 C-23.01700034 33.48504267 -23.01700034 33.48504267 -26.98828125 27.46875 C-29.18239449 21.56232193 -28.7619219 14.33142494 -26.1875 8.6875 C-18.39678577 0.69176698 -10.62109401 -0.07795298 0 0 Z " fill="#000000" transform="translate(866.8125,242.75)"/>
<path d="M0 0 C1.54977539 -0.00483398 1.54977539 -0.00483398 3.13085938 -0.00976562 C9.40397457 0.03393562 14.99315983 0.72396571 21.0625 2.3125 C20.7325 5.2825 20.4025 8.2525 20.0625 11.3125 C17.0625 12.3125 17.0625 12.3125 13.3125 11.375 C8.9829426 10.33533655 4.75017794 10.05138706 0.3125 10 C-0.94046875 9.98324219 -2.1934375 9.96648437 -3.484375 9.94921875 C-7.18160519 10.33818075 -9.01226526 11.06596181 -11.9375 13.3125 C-14.19391931 16.05082802 -14.19391931 16.05082802 -13.8125 18.75 C-12.6902734 22.03652076 -11.65218377 23.09592335 -8.9375 25.3125 C-5.76309483 26.82791392 -2.48686792 28.03558251 0.8125 29.25 C16.26090439 34.96866008 16.26090439 34.96866008 21 40.625 C23.52703412 47.01690984 23.50148284 51.93643745 21.0625 58.2734375 C18.4220706 63.65743808 14.06685109 66.35090923 8.6796875 68.5234375 C-3.28702796 72.13131291 -17.9310105 70.31412237 -29.9375 67.3125 C-29.6075 64.3425 -29.2775 61.3725 -28.9375 58.3125 C-25.74027986 57.24675995 -25.09085822 57.34715493 -22 58.1875 C-13.55585594 60.19539093 -5.20386288 61.41238608 3.0625 58.3125 C5.64959872 56.72723019 5.64959872 56.72723019 7.0625 54.3125 C7.72916667 51.3125 7.72916667 51.3125 7.0625 48.3125 C4.29992334 44.98340417 1.6994357 43.51134564 -2.3125 42 C-7.07556062 40.09477575 -11.75280652 38.0965241 -16.375 35.875 C-17.50808594 35.34003906 -18.64117188 34.80507813 -19.80859375 34.25390625 C-23.8136526 31.76886974 -26.88599543 28.81993397 -28.75 24.375 C-29.31307622 18.1811616 -29.0121966 13.84695388 -25.9375 8.3125 C-18.45094474 0.65183881 -10.27543682 -0.15965564 0 0 Z " fill="#000000" transform="translate(926.9375,242.6875)"/>
<path d="M0 0 C0 3.63 0 7.26 0 11 C-1.50240234 11.36351562 -1.50240234 11.36351562 -3.03515625 11.734375 C-9.872119 13.44082597 -16.03577424 15.11631811 -22 19 C-22.66 19 -23.32 19 -24 19 C-24 35.17 -24 51.34 -24 68 C-27.96 68 -31.92 68 -36 68 C-36 45.89 -36 23.78 -36 1 C-32.37 1 -28.74 1 -25 1 C-24.67 3.64 -24.34 6.28 -24 9 C-21.30454741 9 -20.75135095 8.01099597 -18.8125 6.1875 C-12.87707988 1.00013903 -7.70930187 -0.40575273 0 0 Z " fill="#000000" transform="translate(767,243)"/>
</svg>
