<?xml version="1.0" encoding="UTF-8"?>
<!-- Generator: https://ezgif.com/webp-to-svg -->
<svg version="1.1" xmlns="http://www.w3.org/2000/svg" width="474" height="146">
<path d="M0 0 C156.42 0 312.84 0 474 0 C474 48.18 474 96.36 474 146 C317.58 146 161.16 146 0 146 C0 97.82 0 49.64 0 0 Z " fill="#FCBE1D" transform="translate(0,0)"/>
<path d="M0 0 C1.45 0.03 1.45 0.03 2.94 0.06 C4.44 3.43 4.94 5.27 4.94 9.06 C4.28 9.06 3.62 9.06 2.94 9.06 C2.88 10.83 2.84 12.6 2.81 14.38 C2.78 15.85 2.78 15.85 2.74 17.36 C2.73 20.29 2.73 20.29 4.94 23.06 C11.28 26.81 17.37 27.21 24.6 27.27 C25.71 27.28 25.71 27.28 26.84 27.3 C29.28 27.33 31.71 27.35 34.15 27.38 C35.84 27.4 37.54 27.42 39.23 27.44 C43.68 27.5 48.13 27.55 52.58 27.59 C57.13 27.65 61.67 27.7 66.21 27.76 C75.12 27.86 84.03 27.96 92.94 28.06 C92.94 29.05 92.94 30.04 92.94 31.06 C95.91 30.73 98.88 30.4 101.94 30.06 C101.94 31.71 101.94 33.36 101.94 35.06 C107.88 34.57 107.88 34.57 113.94 34.06 C113.94 33.4 113.94 32.74 113.94 32.06 C113.28 31.73 112.62 31.4 111.94 31.06 C112.94 30.06 112.94 30.06 116.25 30 C118.37 30.02 120.48 30.06 122.6 30.1 C123.63 30.11 123.63 30.11 124.69 30.12 C125.62 30.14 125.62 30.14 126.58 30.16 C129.18 30.09 129.18 30.09 132.69 29.56 C136.86 29.02 140.95 28.93 145.16 28.96 C146.15 28.97 146.15 28.97 147.16 28.97 C149.58 28.97 152.01 28.99 154.44 29 C162.61 29.03 162.61 29.03 170.94 29.06 C170.94 48.2 170.94 67.34 170.94 87.06 C14.52 87.06 -141.9 87.06 -303.06 87.06 C-303.06 67.26 -303.06 47.46 -303.06 27.06 C-284.25 27.06 -265.44 27.06 -246.06 27.06 C-245.4 25.74 -244.74 24.42 -244.06 23.06 C-242.74 23.72 -241.42 24.38 -240.06 25.06 C-240.06 25.72 -240.06 26.38 -240.06 27.06 C-212.01 27.39 -183.96 27.72 -155.06 28.06 C-155.06 27.4 -155.06 26.74 -155.06 26.06 C-152.42 26.06 -149.78 26.06 -147.06 26.06 C-147.06 25.4 -147.06 24.74 -147.06 24.06 C-145.77 23.56 -144.48 23.06 -143.19 22.56 C-142.11 22.14 -142.11 22.14 -141.01 21.72 C-139.06 21.06 -139.06 21.06 -137.06 21.06 C-136.73 20.07 -136.4 19.08 -136.06 18.06 C-132.4 18.06 -128.73 18.06 -125.06 18.06 C-125.06 19.71 -125.06 21.36 -125.06 23.06 C-126.05 23.06 -127.04 23.06 -128.06 23.06 C-127.73 24.71 -127.4 26.36 -127.06 28.06 C-131.68 28.06 -136.3 28.06 -141.06 28.06 C-141.06 29.05 -141.06 30.04 -141.06 31.06 C-140.07 30.4 -139.08 29.74 -138.06 29.06 C-135.73 28.98 -133.39 28.97 -131.06 29.06 C-131.06 29.72 -131.06 30.38 -131.06 31.06 C-130.4 31.06 -129.74 31.06 -129.06 31.06 C-129.06 33.7 -129.06 36.34 -129.06 39.06 C-133.01 39.24 -135.66 39.16 -139.06 37.06 C-139.06 37.72 -139.06 38.38 -139.06 39.06 C-138.4 39.06 -137.74 39.06 -137.06 39.06 C-137.06 39.72 -137.06 40.38 -137.06 41.06 C-138.05 41.06 -139.04 41.06 -140.06 41.06 C-140.22 42.18 -140.22 42.18 -140.38 43.31 C-141.11 46.26 -142.01 47.85 -144.06 50.06 C-144.72 50.06 -145.38 50.06 -146.06 50.06 C-146.43 51.52 -146.43 51.52 -146.81 53 C-147.43 54.52 -147.43 54.52 -148.06 56.06 C-150.19 56.94 -150.19 56.94 -152.06 57.06 C-152.25 57.93 -152.25 57.93 -152.44 58.81 C-153.08 61.12 -153.94 62.95 -155.06 65.06 C-155.6 66.14 -156.13 67.21 -156.69 68.31 C-157.14 69.22 -157.59 70.13 -158.06 71.06 C-160.04 71.06 -162.02 71.06 -164.06 71.06 C-163.73 73.04 -163.4 75.02 -163.06 77.06 C-161.15 77.09 -159.23 77.11 -157.31 77.12 C-156.25 77.14 -155.18 77.15 -154.08 77.16 C-151.53 77.08 -149.48 76.81 -147.06 76.06 C-147.06 75.4 -147.06 74.74 -147.06 74.06 C-145.74 74.06 -144.42 74.06 -143.06 74.06 C-143.06 71.75 -143.06 69.44 -143.06 67.06 C-139.1 67.06 -135.14 67.06 -131.06 67.06 C-131.06 68.05 -131.06 69.04 -131.06 70.06 C-133.54 70.56 -133.54 70.56 -136.06 71.06 C-136.06 73.37 -136.06 75.68 -136.06 78.06 C-131.44 77.73 -126.82 77.4 -122.06 77.06 C-121.73 75.41 -121.4 73.76 -121.06 72.06 C-118.09 72.39 -115.12 72.72 -112.06 73.06 C-111.73 74.38 -111.4 75.7 -111.06 77.06 C-109.58 77.09 -108.1 77.11 -106.62 77.12 C-105.8 77.14 -104.98 77.15 -104.13 77.16 C-102.07 77.3 -102.07 77.3 -101.06 76.06 C-99.21 75.99 -97.35 75.98 -95.5 76 C-93.98 76.01 -93.98 76.01 -92.43 76.03 C-91.65 76.04 -90.87 76.05 -90.06 76.06 C-89.79 75.32 -89.52 74.57 -89.23 73.8 C-88.14 71.25 -87.05 69.39 -85.31 67.25 C-84.84 66.65 -84.37 66.04 -83.89 65.42 C-82.06 64.06 -82.06 64.06 -76.06 64.06 C-76.72 68.02 -77.38 71.98 -78.06 76.06 C-75.09 76.06 -72.12 76.06 -69.06 76.06 C-68.73 75.4 -68.4 74.74 -68.06 74.06 C-67.4 74.06 -66.74 74.06 -66.06 74.06 C-66.17 73.05 -66.17 73.05 -66.27 72.02 C-66.44 69.26 -66.49 66.79 -66.06 64.06 C-61.68 60.06 -61.68 60.06 -58.06 60.06 C-58.08 61.56 -58.08 61.56 -58.1 63.09 C-58.11 64.38 -58.12 65.67 -58.12 67 C-58.14 68.93 -58.14 68.93 -58.16 70.9 C-58.43 73.93 -58.43 73.93 -57.06 75.06 C-54.79 75.19 -52.52 75.24 -50.25 75.25 C-49.01 75.26 -47.76 75.28 -46.48 75.29 C-43.26 75.08 -41.79 74.61 -39.06 73.06 C-38.07 73.06 -37.08 73.06 -36.06 73.06 C-36.06 71.08 -36.06 69.1 -36.06 67.06 C-37.09 67.56 -38.12 68.05 -39.19 68.56 C-42.59 70.04 -45.33 70.34 -49.06 70.06 C-49.9 67.21 -50.31 65.64 -49.13 62.85 C-44.96 56.86 -40.21 50.44 -33.06 48.06 C-29.44 47.94 -29.44 47.94 -26.06 48.06 C-25.73 48.39 -25.4 48.72 -25.06 49.06 C-23.15 48.96 -23.15 48.96 -21 48.62 C-19.7 48.44 -18.4 48.25 -17.06 48.06 C-16.73 48.72 -16.4 49.38 -16.06 50.06 C-16.54 50.5 -17.01 50.93 -17.5 51.38 C-19.3 53.09 -19.3 53.09 -20.06 56.06 C-21.05 56.06 -22.04 56.06 -23.06 56.06 C-23.03 57.7 -23.03 57.7 -23 59.38 C-23.73 65.9 -28.82 70.4 -33.06 75.06 C-28.96 75.15 -24.85 75.2 -20.75 75.25 C-19.58 75.28 -18.42 75.3 -17.21 75.33 C-16.09 75.34 -14.98 75.35 -13.82 75.36 C-12.79 75.37 -11.76 75.39 -10.7 75.4 C-8.01 75.29 -8.01 75.29 -6.2 73.54 C-5.64 72.81 -5.64 72.81 -5.06 72.06 C-4.58 73.48 -4.1 74.9 -3.62 76.31 C-3.22 77.5 -3.22 77.5 -2.82 78.7 C-2.14 80.81 -1.57 82.91 -1.06 85.06 C-0.4 85.06 0.26 85.06 0.94 85.06 C0.94 83.74 0.94 82.42 0.94 81.06 C0.28 81.06 -0.38 81.06 -1.06 81.06 C-1.06 80.07 -1.06 79.08 -1.06 78.06 C0.18 78 1.42 77.94 2.7 77.88 C4.34 77.79 5.98 77.71 7.62 77.62 C8.44 77.59 9.26 77.55 10.1 77.51 C14.13 77.29 17.99 77.02 21.94 76.06 C22.02 75.46 22.1 74.87 22.19 74.25 C23.14 71.47 24.51 70.63 26.94 69.06 C26.94 70.38 26.94 71.7 26.94 73.06 C28.26 73.06 29.58 73.06 30.94 73.06 C30.88 71.76 30.88 71.76 30.81 70.44 C30.94 66.94 31.7 64.32 32.94 61.06 C30.3 61.06 27.66 61.06 24.94 61.06 C24.94 61.72 24.94 62.38 24.94 63.06 C23.62 63.39 22.3 63.72 20.94 64.06 C20.94 65.05 20.94 66.04 20.94 67.06 C20.28 67.06 19.62 67.06 18.94 67.06 C18.94 66.4 18.94 65.74 18.94 65.06 C17.95 65.06 16.96 65.06 15.94 65.06 C15.4 61 15.86 58.73 18.27 55.52 C19.27 54.29 20.29 53.08 21.31 51.88 C22.32 50.65 23.33 49.43 24.34 48.21 C24.79 47.67 25.24 47.14 25.7 46.59 C26.87 45.15 27.91 43.61 28.94 42.06 C23.36 42.89 23.36 42.89 19.19 46.19 C18.77 46.81 18.36 47.42 17.94 48.06 C16.62 48.06 15.3 48.06 13.94 48.06 C13.94 45.75 13.94 43.44 13.94 41.06 C10.31 39.41 6.68 37.76 2.94 36.06 C2.94 35.07 2.94 34.08 2.94 33.06 C2.28 33.06 1.62 33.06 0.94 33.06 C0.94 32.07 0.94 31.08 0.94 30.06 C0.28 30.06 -0.38 30.06 -1.06 30.06 C-1.06 32.04 -1.06 34.02 -1.06 36.06 C-0.4 36.06 0.26 36.06 0.94 36.06 C0.94 37.05 0.94 38.04 0.94 39.06 C0.35 39.08 -0.25 39.09 -0.86 39.11 C-5.27 39.37 -7.5 39.62 -11.06 42.44 C-13.21 44.96 -13.21 44.96 -14.06 48.06 C-14.72 48.06 -15.38 48.06 -16.06 48.06 C-16.39 46.41 -16.72 44.76 -17.06 43.06 C-24.99 41.44 -31.08 41.07 -38.2 45.11 C-40.74 46.41 -43.24 46.78 -46.06 47.06 C-46.39 48.05 -46.72 49.04 -47.06 50.06 C-48.38 50.39 -49.7 50.72 -51.06 51.06 C-51.06 48.09 -51.06 45.12 -51.06 42.06 C-52.05 41.73 -53.04 41.4 -54.06 41.06 C-53.73 40.07 -53.4 39.08 -53.06 38.06 C-53.72 37.73 -54.38 37.4 -55.06 37.06 C-55.06 37.72 -55.06 38.38 -55.06 39.06 C-56.71 39.06 -58.36 39.06 -60.06 39.06 C-60.39 38.07 -60.72 37.08 -61.06 36.06 C-61.72 36.06 -62.38 36.06 -63.06 36.06 C-63.06 35.07 -63.06 34.08 -63.06 33.06 C-64.38 32.73 -65.7 32.4 -67.06 32.06 C-66.73 31.4 -66.4 30.74 -66.06 30.06 C-62.43 30.06 -58.8 30.06 -55.06 30.06 C-55.06 29.4 -55.06 28.74 -55.06 28.06 C-54.02 28.1 -52.98 28.14 -51.9 28.18 C-47.99 28.3 -44.09 28.34 -40.18 28.35 C-38.49 28.37 -36.81 28.41 -35.12 28.47 C-25.79 29.1 -25.79 29.1 -17.41 25.79 C-13.62 21.67 -11.29 16.78 -9 11.71 C-7.62 9.29 -5.59 9.07 -3.06 8.06 C-1.72 6.05 -1.72 6.05 -1.06 4.06 C-2.05 3.07 -3.04 2.08 -4.06 1.06 C-3.06 0.06 -3.06 0.06 0 0 Z " fill="#FDC908" transform="translate(303.0625,58.9375)"/>
<path d="M0 0 C156.42 0 312.84 0 474 0 C474 20.46 474 40.92 474 62 C459.21 62.03 459.21 62.03 444.12 62.06 C439.45 62.08 439.45 62.08 434.69 62.09 C432.23 62.09 429.78 62.1 427.32 62.1 C425.39 62.11 425.39 62.11 423.43 62.11 C422.21 62.11 420.99 62.11 419.73 62.11 C418.14 62.12 418.14 62.12 416.52 62.12 C414 62 414 62 412 61 C409.39 60.93 406.82 60.91 404.21 60.94 C403.43 60.94 402.66 60.95 401.86 60.95 C398.53 60.97 395.2 60.99 391.87 61.02 C389.44 61.04 387.02 61.05 384.59 61.06 C383.48 61.07 383.48 61.07 382.34 61.09 C377.47 61.11 372.82 60.69 368 60 C368 59.34 368 58.68 368 58 C372.95 57.51 372.95 57.51 378 57 C375.69 56.67 373.38 56.34 371 56 C371.23 54.37 371.48 52.75 371.75 51.12 C371.89 50.22 372.03 49.32 372.17 48.38 C373 46 373 46 374.66 44.69 C377.76 43.78 380.52 43.81 383.75 43.88 C384.92 43.89 386.09 43.91 387.3 43.93 C388.19 43.95 389.08 43.98 390 44 C390 45.32 390 46.64 390 48 C390.66 48 391.32 48 392 48 C392 48.66 392 49.32 392 50 C391.34 50 390.68 50 390 50 C390.66 50.99 391.32 51.98 392 53 C392.66 50.03 393.32 47.06 394 44 C393.34 44 392.68 44 392 44 C392 42.68 392 41.36 392 40 C391.34 40 390.68 40 390 40 C390 38.68 390 37.36 390 36 C389.34 36 388.68 36 388 36 C388 37.32 388 38.64 388 40 C387.01 40 386.02 40 385 40 C385 40.66 385 41.32 385 42 C384.01 42 383.02 42 382 42 C382 41.01 382 40.02 382 39 C382.99 39 383.98 39 385 39 C385 36.69 385 34.38 385 32 C385.66 31.67 386.32 31.34 387 31 C387.46 30.07 387.46 30.07 387.94 29.12 C389.04 26.93 390.2 25.64 392 24 C393.36 22.87 393.36 22.87 393.06 19.94 C393.03 18.48 393.03 18.48 393 17 C392.34 17.33 391.68 17.66 391 18 C389.58 18.11 388.15 18.17 386.72 18.19 C385.39 18.21 385.39 18.21 384.04 18.24 C383.08 18.25 382.12 18.27 381.14 18.28 C380.15 18.3 379.17 18.32 378.15 18.34 C375 18.4 371.84 18.45 368.69 18.5 C364.55 18.57 360.4 18.64 356.26 18.72 C354.83 18.74 354.83 18.74 353.38 18.76 C352.48 18.78 351.59 18.79 350.67 18.81 C349.49 18.83 349.49 18.83 348.3 18.85 C345.76 19.02 343.45 19.31 341 20 C339.63 22.48 339.63 22.48 339 25 C338.67 24.01 338.34 23.02 338 22 C337.34 22 336.68 22 336 22 C336 22.66 336 23.32 336 24 C333.69 24.33 331.38 24.66 329 25 C329.66 23.02 330.32 21.04 331 19 C325.04 18.85 319.09 18.77 313.12 18.77 C311.1 18.76 309.07 18.72 307.05 18.67 C295.08 17.82 295.08 17.82 284.71 22.57 C282.39 25.63 280.65 28.54 279 32 C275.29 38.92 275.29 38.92 272 41 C265.73 42.09 259.31 41.51 253 41 C256.51 35.68 260.09 30.41 263.72 25.17 C264.34 24.27 264.34 24.27 264.97 23.36 C265.98 21.91 266.99 20.45 268 19 C262.04 18.85 256.09 18.77 250.12 18.77 C248.1 18.76 246.07 18.72 244.05 18.67 C233.18 17.91 233.18 17.91 223.21 21.24 C220.73 23.76 219.19 26.3 217.49 29.42 C217 30.27 216.51 31.12 216 32 C215.01 32 214.02 32 213 32 C213 32.66 213 33.32 213 34 C211.68 34.33 210.36 34.66 209 35 C209 35.66 209 36.32 209 37 C208.34 37 207.68 37 207 37 C207 38.65 207 40.3 207 42 C205.68 42.66 204.36 43.32 203 44 C203 44.99 203 45.98 203 47 C202.01 47 201.02 47 200 47 C199.67 41.39 199.34 35.78 199 30 C197.35 29.34 195.7 28.68 194 28 C190.71 25.79 188.29 23.86 187 20 C181.47 17.81 176.24 17.71 170.35 17.74 C169.41 17.74 168.46 17.73 167.49 17.73 C164.4 17.72 161.3 17.73 158.2 17.73 C156.05 17.73 153.89 17.73 151.73 17.73 C147.22 17.73 142.71 17.73 138.19 17.74 C132.4 17.75 126.61 17.74 120.83 17.73 C116.37 17.72 111.92 17.73 107.47 17.73 C105.34 17.73 103.2 17.73 101.07 17.73 C98.09 17.72 95.11 17.73 92.13 17.74 C91.25 17.74 90.36 17.73 89.45 17.73 C88.24 17.74 88.24 17.74 87 17.75 C86.29 17.75 85.59 17.75 84.86 17.75 C82.67 17.91 82.67 17.91 80 20 C79.5 21.48 79.5 21.48 79 23 C78.34 23 77.68 23 77 23 C76.73 23.58 76.46 24.16 76.19 24.75 C74.98 27.03 73.59 28.97 72 31 C71.34 30.67 70.68 30.34 70 30 C69.86 30.72 69.71 31.44 69.56 32.19 C69.04 34.79 68.52 37.4 68 40 C69.4 40 69.4 40 70.83 39.99 C79.66 39.97 88.49 39.96 97.31 39.95 C101.85 39.94 106.39 39.94 110.93 39.92 C115.31 39.91 119.69 39.91 124.08 39.91 C125.74 39.9 127.41 39.9 129.08 39.89 C131.42 39.89 133.77 39.89 136.12 39.89 C136.8 39.88 137.48 39.88 138.18 39.88 C142.87 39.89 147.36 40.35 152 41 C151.34 42.65 150.68 44.3 150 46 C149.34 46 148.68 46 148 46 C147.34 47.65 146.68 49.3 146 51 C145.01 51 144.02 51 143 51 C143.33 53.31 143.66 55.62 144 58 C144.99 58.33 145.98 58.66 147 59 C147 59.66 147 60.32 147 61 C140.4 61 133.8 61 127 61 C127.33 59.68 127.66 58.36 128 57 C128.99 56.67 129.98 56.34 131 56 C132.03 53.21 132.03 53.21 132.69 49.94 C133.06 48.28 133.06 48.28 133.45 46.59 C133.63 45.74 133.81 44.88 134 44 C128.31 43.9 122.62 43.86 116.92 43.88 C114.99 43.88 113.05 43.86 111.12 43.82 C100.02 43.23 100.02 43.23 90.05 47.1 C88.01 49.64 86.48 52.11 85 55 C83.85 56.54 83.85 56.54 82.68 58.1 C82.08 58.93 81.49 59.77 80.88 60.62 C79.88 61.99 79.88 61.99 78.87 63.38 C77.68 65.04 76.53 66.73 75.41 68.44 C71.89 73.67 71.89 73.67 69.07 74.71 C67.12 75 67.12 75 64 75 C64 74.01 64 73.02 64 72 C42.88 72 21.76 72 0 72 C0 48.24 0 24.48 0 0 Z " fill="#FDC909" transform="translate(0,0)"/>
<path d="M0 0 C1.72 0 3.45 0.01 5.17 0.03 C6.53 0.04 6.53 0.04 7.92 0.04 C10.83 0.05 13.73 0.08 16.63 0.1 C18.6 0.11 20.57 0.12 22.53 0.13 C27.36 0.15 32.18 0.19 37.01 0.23 C37.01 1.55 37.01 2.87 37.01 4.23 C36.35 4.23 35.69 4.23 35.01 4.23 C34.67 5.28 34.67 5.28 34.32 6.35 C33.01 9.23 33.01 9.23 30.45 12.29 C27.72 15.14 27.72 15.14 27.01 19.23 C44.83 19.23 62.65 19.23 81.01 19.23 C79 23.24 77.25 25.21 74.01 28.23 C73.16 29.03 72.32 29.84 71.45 30.66 C62.3 38.14 51.26 41.48 39.64 41.59 C38.84 41.61 38.05 41.62 37.23 41.64 C34.63 41.68 32.03 41.72 29.43 41.75 C27.61 41.77 25.8 41.8 23.98 41.83 C20.18 41.88 16.39 41.93 12.59 41.97 C7.73 42.02 2.86 42.1 -2 42.19 C-5.75 42.25 -9.5 42.29 -13.24 42.34 C-15.04 42.36 -16.83 42.39 -18.63 42.42 C-21.13 42.46 -23.63 42.49 -26.14 42.51 C-27.25 42.53 -27.25 42.53 -28.38 42.56 C-32.54 42.57 -34.97 42.19 -37.99 39.23 C-38.65 40.22 -39.31 41.21 -39.99 42.23 C-42.4 42.59 -42.4 42.59 -45.45 42.57 C-46.59 42.57 -47.73 42.57 -48.91 42.57 C-50.76 42.54 -50.76 42.54 -52.65 42.52 C-53.92 42.52 -55.18 42.51 -56.48 42.51 C-59.84 42.49 -63.19 42.47 -66.55 42.43 C-69.98 42.4 -73.4 42.39 -76.83 42.37 C-83.55 42.34 -90.27 42.29 -96.99 42.23 C-96.99 37.61 -96.99 32.99 -96.99 28.23 C-75.87 28.23 -54.75 28.23 -32.99 28.23 C-32.99 29.22 -32.99 30.21 -32.99 31.23 C-25.17 29.41 -22.47 25.49 -18.16 18.96 C-15.91 15.62 -13.5 12.4 -11.12 9.16 C-10.64 8.51 -10.16 7.85 -9.67 7.18 C-4.62 0.26 -4.62 0.26 0 0 Z " fill="#D51731" transform="translate(96.99072265625,43.77294921875)"/>
<path d="M0 0 C0.95 0.01 1.9 0.01 2.88 0.02 C5.92 0.04 8.95 0.09 11.99 0.14 C14.05 0.16 16.1 0.18 18.16 0.2 C23.21 0.24 28.25 0.31 33.3 0.39 C31.79 4.39 30.05 7.11 27.3 10.39 C25.87 12.32 24.46 14.26 23.05 16.2 C22.34 17.18 21.64 18.15 20.91 19.16 C20.38 19.9 19.85 20.63 19.3 21.39 C25.33 22.5 31.39 23.44 37.3 21.39 C43.33 16.67 47.33 9.83 51.3 3.39 C51.96 2.4 52.62 1.41 53.3 0.39 C55.17 0.03 55.17 0.03 57.48 0.05 C58.77 0.05 58.77 0.05 60.08 0.05 C61.01 0.07 61.94 0.08 62.9 0.1 C63.85 0.1 64.81 0.11 65.79 0.11 C68.83 0.13 71.88 0.17 74.93 0.2 C76.99 0.22 79.05 0.23 81.11 0.24 C86.18 0.28 91.24 0.33 96.3 0.39 C94.76 3.56 93.02 6.3 90.93 9.14 C90.22 10.1 89.52 11.06 88.79 12.05 C86.97 14.51 85.13 16.95 83.28 19.39 C82.76 20.08 82.23 20.77 81.69 21.49 C80.67 22.85 79.64 24.2 78.6 25.56 C77.87 26.52 77.87 26.52 77.13 27.5 C76.71 28.05 76.28 28.61 75.84 29.19 C74.28 31.27 74.28 31.27 73.42 33.32 C70.63 38.94 70.63 38.94 67.14 40.12 C64.37 40.38 61.69 40.38 58.91 40.3 C57.87 40.3 56.82 40.3 55.75 40.3 C52.3 40.3 48.85 40.23 45.41 40.17 C43.01 40.16 40.62 40.15 38.23 40.14 C31.94 40.11 25.65 40.03 19.36 39.94 C12.94 39.86 6.51 39.82 0.09 39.78 C-12.51 39.7 -25.1 39.56 -37.7 39.39 C-37.7 38.73 -37.7 38.07 -37.7 37.39 C-37.04 37.39 -36.38 37.39 -35.7 37.39 C-35.45 36.85 -35.2 36.31 -34.94 35.75 C-29.37 25.17 -21.2 15.61 -14 6.11 C-12.61 4.39 -12.61 4.39 -11.64 2.2 C-8.34 -0.88 -4.33 -0.1 0 0 Z " fill="#D61633" transform="translate(234.69921875,18.609375)"/>
<path d="M0 0 C2.09 0.02 4.18 0.03 6.27 0.04 C10.63 0.07 14.98 0.15 19.34 0.28 C24.91 0.43 30.47 0.51 36.04 0.55 C41.38 0.59 46.72 0.66 52.06 0.75 C53.07 0.76 54.08 0.78 55.11 0.79 C78.2 1.17 78.2 1.17 85.01 7.11 C88.37 10.82 90 14.55 90.9 19.39 C90.12 24.57 87.34 28.43 84.4 32.7 C83.97 33.74 83.97 33.74 83.53 34.79 C82.09 37.59 81.03 38.93 78.4 40.7 C72.1 42.09 65.42 41.45 59.02 41.2 C57.22 41.16 55.42 41.13 53.61 41.09 C49.21 41.01 44.8 40.87 40.4 40.7 C40.4 36.14 41.11 35.29 43.77 31.77 C46.37 28.31 47.75 25.83 49.4 21.7 C21.68 21.7 -6.04 21.7 -34.6 21.7 C-29.89 2.84 -17.5 -0.64 0 0 Z " fill="#D41730" transform="translate(104.6015625,17.296875)"/>
<path d="M0 0 C0.97 -0 1.93 -0 2.93 -0 C6.11 0 9.29 0.06 12.47 0.13 C14.68 0.14 16.9 0.15 19.11 0.16 C24.92 0.19 30.73 0.27 36.54 0.36 C42.47 0.44 48.4 0.48 54.33 0.52 C65.97 0.6 77.6 0.74 89.23 0.91 C87.78 5.56 86.06 8.88 83.11 12.78 C82.38 13.75 81.66 14.72 80.91 15.71 C80.36 16.44 79.8 17.16 79.23 17.91 C80.22 18.9 80.22 18.9 81.23 19.91 C81.23 19.25 81.23 18.59 81.23 17.91 C104.33 17.91 127.43 17.91 151.23 17.91 C151.23 19.89 151.23 21.87 151.23 23.91 C127.14 23.91 103.05 23.91 78.23 23.91 C78.23 23.25 78.23 22.59 78.23 21.91 C77.57 21.91 76.91 21.91 76.23 21.91 C76.23 22.57 76.23 23.23 76.23 23.91 C66.62 23.95 57.02 23.99 47.41 24.01 C42.95 24.02 38.49 24.04 34.03 24.06 C29.72 24.08 25.41 24.09 21.09 24.1 C19.45 24.1 17.82 24.11 16.18 24.12 C-6.77 24.27 -6.77 24.27 -14.77 17.91 C-15.77 16.91 -15.77 16.91 -16.21 13.35 C-16.12 8.77 -14.49 6.12 -11.69 2.59 C-8.17 -0.5 -4.49 -0.14 0 0 Z " fill="#CD1A27" transform="translate(322.76904296875,62.091796875)"/>
<path d="M0 0 C2.21 0.09 4.42 0.16 6.63 0.23 C12.01 0.42 17.38 0.7 22.75 1.06 C22.34 1.6 21.93 2.15 21.51 2.71 C20.97 3.42 20.44 4.14 19.88 4.87 C19.35 5.58 18.82 6.29 18.27 7.02 C16.33 9.63 14.51 12.31 12.69 15 C-0.5 34.31 -0.5 34.31 -6.25 40.06 C-7.69 40.16 -9.14 40.18 -10.59 40.18 C-11.97 40.18 -11.97 40.18 -13.38 40.18 C-14.38 40.17 -15.38 40.17 -16.41 40.16 C-17.43 40.16 -18.45 40.16 -19.5 40.16 C-22.77 40.15 -26.04 40.14 -29.31 40.12 C-31.52 40.12 -33.74 40.12 -35.95 40.11 C-41.38 40.1 -46.82 40.08 -52.25 40.06 C-50.12 36.84 -48 33.64 -45.66 30.57 C-45.18 29.95 -44.71 29.32 -44.22 28.68 C-43.27 27.43 -42.32 26.19 -41.38 24.95 C-40.89 24.31 -40.41 23.67 -39.91 23.01 C-39.35 22.3 -38.78 21.59 -38.21 20.86 C-36.57 18.52 -35.32 16.3 -34.02 13.77 C-25.7 -1.46 -16.25 -1.09 0 0 Z " fill="#D61632" transform="translate(369.25,17.9375)"/>
<path d="M0 0 C30.03 0 60.06 0 91 0 C89.09 3.82 86.95 6.77 84.34 10.1 C82.82 12.06 82.82 12.06 82 15 C80.87 16.67 80.87 16.67 79 18 C75.91 18.36 75.91 18.36 72.05 18.34 C71.35 18.34 70.64 18.34 69.92 18.34 C67.6 18.34 65.28 18.32 62.96 18.29 C61.35 18.29 59.74 18.28 58.13 18.28 C53.89 18.27 49.65 18.24 45.42 18.21 C41.09 18.18 36.77 18.16 32.45 18.15 C23.96 18.11 15.48 18.06 7 18 C7 17.67 7 17.34 7 17 C7.83 16.99 8.67 16.98 9.53 16.97 C17.39 16.87 25.25 16.77 33.1 16.66 C37.14 16.61 41.18 16.55 45.22 16.5 C49.12 16.46 53.02 16.4 56.91 16.35 C58.4 16.33 59.89 16.31 61.38 16.29 C63.46 16.27 65.54 16.24 67.62 16.21 C69.4 16.18 69.4 16.18 71.22 16.16 C73.96 16.19 73.96 16.19 76 15 C52.24 15 28.48 15 4 15 C3.67 13.68 3.34 12.36 3 11 C2.34 11 1.68 11 1 11 C1.59 7.98 2.23 4.98 3 2 C2.01 2 1.02 2 0 2 C0 1.34 0 0.68 0 0 Z " fill="#D81534" transform="translate(317,65)"/>
<path d="M0 0 C2.66 -0.14 5.28 -0.12 7.95 -0.05 C8.92 -0.04 9.89 -0.04 10.9 -0.03 C14 -0 17.11 0.06 20.22 0.12 C22.32 0.15 24.43 0.17 26.54 0.19 C31.7 0.25 36.87 0.33 42.03 0.44 C41.64 1.01 41.25 1.57 40.84 2.16 C37.23 7.46 37.23 7.46 34.27 13.13 C32.32 16.93 30.63 20.04 27.03 22.44 C19.79 24.57 11.91 23.66 4.47 23.25 C2.39 23.18 0.31 23.13 -1.77 23.07 C-6.84 22.93 -11.9 22.71 -16.97 22.44 C-14.52 18.07 -12.13 14.17 -8.91 10.31 C-5.98 6.84 -5.98 6.84 -3.97 2.82 C-1.97 0.44 -1.97 0.44 0 0 Z " fill="#D61632" transform="translate(193.96873474121094,62.56256103515625)"/>
<path d="M0 0 C1.14 0.01 1.14 0.01 2.3 0.01 C3.59 0.01 3.59 0.01 4.91 0.01 C5.84 0.02 6.77 0.03 7.73 0.05 C8.68 0.05 9.63 0.05 10.61 0.05 C13.66 0.06 16.71 0.09 19.75 0.12 C21.81 0.13 23.88 0.13 25.94 0.14 C31 0.16 36.06 0.2 41.13 0.24 C38.53 4.15 35.89 8.01 33.13 11.8 C32.47 12.71 31.81 13.62 31.13 14.56 C30.47 15.44 29.81 16.33 29.13 17.24 C28.63 18.11 28.13 18.98 27.61 19.88 C24.37 22.96 22.46 22.81 18.12 22.81 C17.2 22.78 16.28 22.76 15.33 22.73 C14.38 22.72 13.43 22.71 12.46 22.71 C9.43 22.68 6.4 22.62 3.38 22.55 C1.32 22.53 -0.73 22.51 -2.78 22.48 C-7.81 22.43 -12.84 22.34 -17.87 22.24 C-13.66 14.73 -13.66 14.73 -11.37 11.78 C-10.72 10.95 -10.72 10.95 -10.06 10.1 C-9.63 9.55 -9.2 9 -8.75 8.43 C-8.08 7.57 -8.08 7.57 -7.41 6.7 C-2.44 0.31 -2.44 0.31 0 0 Z " fill="#D71634" transform="translate(257.8729553222656,62.759490966796875)"/>
<path d="M0 0 C1.1 0 2.2 0 3.34 0 C4.52 0.02 5.71 0.03 6.93 0.05 C8.15 0.05 9.37 0.06 10.62 0.06 C14.51 0.08 18.41 0.11 22.3 0.15 C24.93 0.17 27.57 0.18 30.21 0.19 C36.67 0.23 43.14 0.28 49.61 0.34 C49.61 5.29 49.61 10.24 49.61 15.34 C28.49 15.34 7.37 15.34 -14.39 15.34 C-14.72 14.02 -15.05 12.7 -15.39 11.34 C-14.73 11.34 -14.07 11.34 -13.39 11.34 C-13.39 10.35 -13.39 9.36 -13.39 8.34 C-11.08 5.84 -11.08 5.84 -8.39 3.34 C-7.73 2.53 -7.73 2.53 -7.06 1.71 C-4.69 -0.23 -3.03 -0.02 0 0 Z " fill="#FDB62C" transform="translate(424.389404296875,61.659423828125)"/>
<path d="M0 0 C21.12 0 42.24 0 64 0 C64 0.99 64 1.98 64 3 C66.97 2.5 66.97 2.5 70 2 C68.34 5.59 66.34 8.82 64 12 C63.01 12.33 62.02 12.66 61 13 C60.34 12.34 59.68 11.68 59 11 C58.34 11.99 57.68 12.98 57 14 C54.6 14.36 54.6 14.36 51.54 14.34 C50.4 14.34 49.26 14.34 48.08 14.34 C46.23 14.32 46.23 14.32 44.34 14.29 C43.07 14.29 41.81 14.28 40.51 14.28 C37.15 14.27 33.8 14.24 30.44 14.21 C27.01 14.18 23.59 14.16 20.16 14.15 C13.44 14.11 6.72 14.06 0 14 C0 9.38 0 4.76 0 0 Z " fill="#F79529" transform="translate(0,72)"/>
<path d="M0 0 C2.94 -0.08 5.87 -0.14 8.81 -0.19 C9.65 -0.21 10.48 -0.24 11.34 -0.26 C12.14 -0.27 12.94 -0.28 13.77 -0.29 C14.88 -0.32 14.88 -0.32 16.01 -0.34 C18.58 0.1 19.46 0.92 21 3 C20.74 9.02 18.47 12.6 14.19 16.69 C11 19 11 19 5 21 C4.34 25.29 3.68 29.58 3 34 C0.03 34 -2.94 34 -6 34 C-4.12 25.38 -4.12 25.38 -3 22 C-5.87 22.07 -5.87 22.07 -9 23 C-11.15 25.5 -11.15 25.5 -12.88 28.56 C-16.38 33.8 -16.38 33.8 -19.29 34.73 C-21.5 34.69 -21.5 34.69 -25 34 C-25 33.34 -25 32.68 -25 32 C-24.34 32 -23.68 32 -23 32 C-22.74 31.44 -22.48 30.88 -22.22 30.31 C-18.02 22.36 -11.76 15.32 -6.24 8.24 C-3.91 5.26 -3.91 5.26 -2 2 C-1.34 2 -0.68 2 0 2 C0 1.34 0 0.68 0 0 Z " fill="#CF1C29" transform="translate(230,101)"/>
<path d="M0 0 C0.75 0.19 1.51 0.37 2.28 0.56 C0.89 3.67 -0.51 6.77 -1.91 9.88 C-2.32 10.79 -2.73 11.7 -3.15 12.64 C-5.69 18.29 -8.25 23.94 -10.84 29.57 C-11.82 31.7 -11.82 31.7 -12.72 34.56 C-15.36 34.56 -18 34.56 -20.72 34.56 C-18.84 28.81 -18.84 28.81 -17.72 26.56 C-25.21 26.28 -25.21 26.28 -31.79 29.19 C-32.89 30.46 -33.98 31.74 -35.05 33.04 C-37.16 34.97 -38.34 35.03 -41.16 35 C-42.33 34.86 -43.51 34.71 -44.72 34.56 C-44.72 32.56 -44.72 32.56 -43.32 31.15 C-42.67 30.61 -42.02 30.06 -41.34 29.5 C-40.23 28.55 -40.23 28.55 -39.1 27.59 C-38.32 26.92 -37.53 26.25 -36.72 25.56 C-35.21 24.26 -33.71 22.95 -32.22 21.62 C-31.38 20.89 -30.54 20.15 -29.68 19.38 C-27.29 17.19 -25.14 14.84 -22.98 12.43 C-10.38 -1.41 -10.38 -1.41 0 0 Z " fill="#C52719" transform="translate(213.71875,100.4375)"/>
<path d="M0 0 C1.6 0.03 3.2 0.09 4.8 0.19 C6.02 0.21 6.02 0.21 7.26 0.24 C13.19 0.43 13.19 0.43 16.68 2.75 C16.68 9.58 14.65 12.96 9.91 17.84 C4.77 22.26 0.38 22.75 -6.26 22.75 C-10.41 22.96 -11.83 23.26 -14.81 26.26 C-16.3 28.27 -17.76 30.3 -19.21 32.34 C-21.32 34.75 -21.32 34.75 -23.65 35.48 C-25.88 35.44 -25.88 35.44 -29.32 34.75 C-28.79 34.05 -28.79 34.05 -28.26 33.34 C-24.23 27.98 -20.24 22.59 -16.26 17.19 C-15.66 16.38 -15.06 15.57 -14.44 14.73 C-13.85 13.93 -13.27 13.14 -12.66 12.31 C-12.08 11.54 -11.51 10.77 -10.91 9.98 C-9.31 7.82 -9.31 7.82 -8.09 5.63 C-5.87 1.85 -4.3 0.34 0 0 Z " fill="#C22614" transform="translate(170.3203125,100.24609375)"/>
<path d="M0 0 C0.92 0.01 1.83 0.01 2.78 0.02 C4.26 0.02 4.26 0.02 5.78 0.03 C6.82 0.03 7.86 0.04 8.93 0.05 C10.5 0.06 10.5 0.06 12.1 0.06 C14.69 0.08 17.28 0.09 19.87 0.11 C18.87 2.11 17.87 4.11 16.87 6.11 C13.52 6.31 10.21 6.38 6.86 6.33 C4.42 6.33 4.42 6.33 0.87 7.11 C-1.7 10 -1.7 10 -3.13 13.11 C0.83 13.11 4.79 13.11 8.87 13.11 C8.21 14.43 7.55 15.75 6.87 17.11 C6.37 18.6 6.37 18.6 5.87 20.11 C0.59 20.11 -4.69 20.11 -10.13 20.11 C-10.79 21.43 -11.45 22.75 -12.13 24.11 C-12.46 24.77 -12.79 25.43 -13.13 26.11 C-8.84 26.44 -4.55 26.77 -0.13 27.11 C-2.13 32.11 -2.13 32.11 -4.13 34.11 C-6.56 34.34 -6.56 34.34 -9.58 34.31 C-10.65 34.3 -11.73 34.3 -12.84 34.29 C-14.53 34.26 -14.53 34.26 -16.26 34.24 C-17.39 34.23 -18.53 34.22 -19.7 34.21 C-22.51 34.19 -25.32 34.15 -28.13 34.11 C-24.56 29.34 -20.97 24.58 -17.32 19.86 C-13.11 14.41 -8.96 8.91 -4.85 3.38 C-2.39 0.13 -2.39 0.13 0 0 Z " fill="#C83215" transform="translate(297.133056640625,100.886474609375)"/>
<path d="M0 0 C0.5 1.48 0.5 1.48 1 3 C-0.41 5.2 -1.82 7.16 -3.44 9.19 C-3.87 9.75 -4.31 10.31 -4.75 10.88 C-5.83 12.26 -6.91 13.63 -8 15 C-7.01 15.99 -7.01 15.99 -6 17 C-6 16.34 -6 15.68 -6 15 C17.1 15 40.2 15 64 15 C64 16.98 64 18.96 64 21 C39.91 21 15.82 21 -9 21 C-9 20.34 -9 19.68 -9 19 C-9.66 19 -10.32 19 -11 19 C-11 19.66 -11 20.32 -11 21 C-35.75 21 -60.5 21 -86 21 C-86 20.67 -86 20.34 -86 20 C-85.13 20.03 -84.26 20.06 -83.36 20.09 C-75.09 20.35 -66.83 20.52 -58.56 20.59 C-54.31 20.63 -50.07 20.7 -45.82 20.86 C-27.73 22.25 -27.73 22.25 -11.03 17.05 C-6.01 12.16 -2.64 6.47 0 0 Z " fill="#F4852D" transform="translate(410,65)"/>
<path d="M0 0 C2 1.25 2 1.25 2.81 3.38 C2.87 3.99 2.94 4.61 3 5.25 C0.19 6.81 0.19 6.81 -3 8.25 C-3.99 7.92 -4.98 7.59 -6 7.25 C-11.3 6.85 -14.57 7.27 -19 10.25 C-24.93 16.09 -24.93 16.09 -29 23.25 C-29 24.57 -29 25.89 -29 27.25 C-24.97 27.43 -22.52 27.19 -19 25.25 C-18.01 25.25 -17.02 25.25 -16 25.25 C-16 27.23 -16 29.21 -16 31.25 C-22.61 35.03 -29.52 35 -37 34.25 C-39 32.25 -39 32.25 -39.44 29.19 C-38.87 24.05 -36.74 20.56 -34 16.25 C-33.34 16.25 -32.68 16.25 -32 16.25 C-31.77 15.69 -31.55 15.14 -31.31 14.56 C-29.62 11.59 -27.53 9.53 -25 7.25 C-24.34 7.25 -23.68 7.25 -23 7.25 C-22.67 6.26 -22.34 5.27 -22 4.25 C-14.95 -0.72 -8.28 -2.07 0 0 Z " fill="#C32A13" transform="translate(283,100.75)"/>
<path d="M0 0 C-1.48 3.3 -3.38 5.85 -5.69 8.62 C-12.48 16.88 -12.48 16.88 -18 26 C-14.04 26.33 -10.08 26.66 -6 27 C-8 31 -8 31 -10 34 C-12.25 34.34 -12.25 34.34 -15.01 34.29 C-15.99 34.28 -16.98 34.27 -18 34.26 C-19.03 34.24 -20.06 34.21 -21.12 34.19 C-22.69 34.17 -22.69 34.17 -24.28 34.15 C-26.85 34.11 -29.43 34.06 -32 34 C-30.36 30.59 -28.42 27.76 -26.12 24.75 C-25.33 23.71 -24.54 22.66 -23.72 21.59 C-23.29 21.02 -22.85 20.45 -22.41 19.86 C-20.87 17.83 -19.36 15.78 -17.84 13.73 C-17.31 13.01 -16.78 12.28 -16.23 11.54 C-15.17 10.11 -14.12 8.69 -13.07 7.26 C-12.59 6.6 -12.1 5.95 -11.6 5.27 C-11.17 4.69 -10.74 4.11 -10.3 3.51 C-7.13 -0.17 -4.57 -0.2 0 0 Z " fill="#C22E11" transform="translate(332,101)"/>
<path d="M0 0 C23.43 0 46.86 0 71 0 C70.01 1.65 69.02 3.3 68 5 C65.06 5.6 65.06 5.6 61.42 5.57 C60.75 5.57 60.09 5.57 59.41 5.57 C57.21 5.57 55.02 5.53 52.83 5.49 C51.31 5.48 49.79 5.47 48.27 5.47 C44.27 5.45 40.27 5.4 36.27 5.34 C32.19 5.29 28.11 5.27 24.03 5.24 C16.02 5.19 8.01 5.11 0 5 C0 3.35 0 1.7 0 0 Z " fill="#C62A16" transform="translate(0,63)"/>
<path d="M0 0 C1.14 0.01 1.14 0.01 2.3 0.01 C3.59 0.01 3.59 0.01 4.91 0.01 C5.84 0.02 6.77 0.03 7.73 0.05 C8.68 0.05 9.63 0.05 10.61 0.05 C13.66 0.06 16.71 0.09 19.75 0.12 C21.81 0.13 23.88 0.13 25.94 0.14 C31 0.16 36.06 0.2 41.13 0.24 C38.53 4.15 35.89 8.01 33.13 11.8 C32.47 12.71 31.81 13.62 31.13 14.56 C30.47 15.44 29.81 16.33 29.13 17.24 C28.63 18.11 28.13 18.98 27.61 19.88 C24.37 22.96 22.46 22.81 18.12 22.81 C17.2 22.78 16.28 22.76 15.33 22.73 C14.38 22.72 13.43 22.71 12.46 22.71 C9.43 22.68 6.4 22.62 3.38 22.55 C1.32 22.53 -0.73 22.51 -2.78 22.48 C-7.81 22.43 -12.84 22.34 -17.87 22.24 C-13.66 14.73 -13.66 14.73 -11.37 11.78 C-10.72 10.95 -10.72 10.95 -10.06 10.1 C-9.63 9.55 -9.2 9 -8.75 8.43 C-8.08 7.57 -8.08 7.57 -7.41 6.7 C-2.44 0.31 -2.44 0.31 0 0 Z M-0.87 2.24 C-1.2 4.22 -1.53 6.2 -1.87 8.24 C-3.02 8.4 -3.02 8.4 -4.19 8.55 C-7.18 9.32 -7.91 9.94 -9.87 12.24 C-11.07 14.24 -11.07 14.24 -12.06 16.37 C-12.4 17.07 -12.75 17.77 -13.1 18.5 C-13.94 20.08 -13.94 20.08 -13.87 21.24 C-1.33 21.24 11.21 21.24 24.13 21.24 C24.46 17.28 24.79 13.32 25.13 9.24 C25.46 7.59 25.79 5.94 26.13 4.24 C27.45 3.58 28.77 2.92 30.13 2.24 C19.9 2.24 9.67 2.24 -0.87 2.24 Z " fill="#CC2122" transform="translate(257.8729553222656,62.759490966796875)"/>
<path d="M0 0 C20.13 0 40.26 0 61 0 C61 1.65 61 3.3 61 5 C39.88 5 18.76 5 -3 5 C-3 4.34 -3 3.68 -3 3 C-2.34 3 -1.68 3 -1 3 C-0.67 2.01 -0.34 1.02 0 0 Z " fill="#C82C16" transform="translate(413,72)"/>
<path d="M0 0 C21.12 0 42.24 0 64 0 C63.01 1.65 62.02 3.3 61 5 C58.32 5.6 58.32 5.6 55.06 5.57 C53.23 5.57 53.23 5.57 51.36 5.57 C50.04 5.54 48.72 5.51 47.36 5.49 C46 5.48 44.64 5.47 43.27 5.47 C39.69 5.45 36.1 5.4 32.52 5.34 C28.86 5.29 25.2 5.27 21.54 5.24 C14.36 5.19 7.18 5.11 0 5 C0 3.35 0 1.7 0 0 Z " fill="#C72B16" transform="translate(0,72)"/>
<path d="M0 0 C0.95 0.01 1.9 0.01 2.88 0.02 C5.92 0.04 8.95 0.09 11.99 0.14 C14.05 0.16 16.1 0.18 18.16 0.2 C23.21 0.24 28.25 0.31 33.3 0.39 C31.55 5.27 31.55 5.27 29.3 6.39 C29.3 5.07 29.3 3.75 29.3 2.39 C17.42 2.39 5.54 2.39 -6.7 2.39 C-6.7 3.38 -6.7 4.37 -6.7 5.39 C-8.12 5.48 -8.12 5.48 -9.57 5.58 C-10.61 5.85 -11.64 6.11 -12.7 6.39 C-13.79 8.6 -13.79 8.6 -14.7 11.39 C-16.18 13.22 -17.74 14.93 -19.36 16.64 C-20.83 18.56 -21.28 20.03 -21.7 22.39 C-22.36 22.39 -23.02 22.39 -23.7 22.39 C-23.7 23.38 -23.7 24.37 -23.7 25.39 C-24.69 25.39 -25.68 25.39 -26.7 25.39 C-27.13 26.5 -27.13 26.5 -27.57 27.64 C-29.27 31.79 -30.47 34.16 -33.7 37.39 C-0.04 37.39 33.62 37.39 68.3 37.39 C68.3 36.4 68.3 35.41 68.3 34.39 C69.29 34.39 70.28 34.39 71.3 34.39 C70.64 36.04 69.98 37.69 69.3 39.39 C33.99 39.39 -1.32 39.39 -37.7 39.39 C-37.7 38.73 -37.7 38.07 -37.7 37.39 C-37.04 37.39 -36.38 37.39 -35.7 37.39 C-35.45 36.85 -35.2 36.31 -34.94 35.75 C-29.37 25.17 -21.2 15.61 -14 6.11 C-12.61 4.39 -12.61 4.39 -11.64 2.2 C-8.34 -0.88 -4.33 -0.1 0 0 Z " fill="#C62D12" transform="translate(234.69921875,18.609375)"/>
<path d="M0 0 C2.94 -0.08 5.87 -0.14 8.81 -0.19 C9.65 -0.21 10.48 -0.24 11.34 -0.26 C12.14 -0.27 12.94 -0.28 13.77 -0.29 C14.88 -0.32 14.88 -0.32 16.01 -0.34 C18.58 0.1 19.46 0.92 21 3 C20.81 7.37 19.6 10.5 17 14 C16.01 14.33 15.02 14.66 14 15 C15.12 12.67 16.26 10.62 17.75 8.5 C19.26 6.13 19.26 6.13 18.55 3.89 C17.03 1.62 17.03 1.62 13.52 1.39 C12.14 1.32 10.76 1.28 9.38 1.25 C8.32 1.21 8.32 1.21 7.23 1.16 C5.49 1.09 3.75 1.04 2 1 C1.67 2.32 1.34 3.64 1 5 C1.66 4.67 2.32 4.34 3 4 C8.24 3.58 8.24 3.58 11 4 C13.06 5.81 13.06 5.81 14 8 C13.67 8.99 13.34 9.98 13 11 C12.34 10.67 11.68 10.34 11 10 C11 9.01 11 8.02 11 7 C6.94 6.43 6.94 6.43 3 7 C0.51 9.38 -1.26 12.04 -3 15 C-3.33 14.01 -3.66 13.02 -4 12 C-2.56 9.81 -2.56 9.81 -1 8 C-4.11 8.67 -4.11 8.67 -5.19 11.06 C-5.46 11.7 -5.72 12.34 -6 13 C-6.66 13 -7.32 13 -8 13 C-9.47 15.75 -10.22 17.9 -11 21 C-8.03 21 -5.06 21 -2 21 C-2 24.3 -2 27.6 -2 31 C-0.68 31 0.64 31 2 31 C2.33 29.68 2.66 28.36 3 27 C3 29.31 3 31.62 3 34 C0.03 34 -2.94 34 -6 34 C-4.12 25.38 -4.12 25.38 -3 22 C-5.87 22.07 -5.87 22.07 -9 23 C-11.15 25.5 -11.15 25.5 -12.88 28.56 C-16.38 33.8 -16.38 33.8 -19.29 34.73 C-21.5 34.69 -21.5 34.69 -25 34 C-25 33.34 -25 32.68 -25 32 C-24.34 32 -23.68 32 -23 32 C-22.74 31.44 -22.48 30.88 -22.22 30.31 C-18.02 22.36 -11.76 15.32 -6.24 8.24 C-3.91 5.26 -3.91 5.26 -2 2 C-1.34 2 -0.68 2 0 2 C0 1.34 0 0.68 0 0 Z " fill="#C02C0F" transform="translate(230,101)"/>
<path d="M0 0 C0.96 0 1.91 0 2.9 0.01 C3.98 0.01 5.06 0.01 6.18 0.01 C7.94 0.01 7.94 0.01 9.74 0.02 C10.94 0.02 12.13 0.03 13.37 0.03 C17.21 0.03 21.05 0.05 24.89 0.06 C27.49 0.06 30.09 0.07 32.68 0.07 C39.07 0.08 45.45 0.1 51.83 0.12 C51.83 1.77 51.83 3.42 51.83 5.12 C33.02 5.12 14.21 5.12 -5.17 5.12 C-2.68 0.15 -2.68 0.15 0 0 Z " fill="#C3181C" transform="translate(422.17030334472656,62.87974548339844)"/>
<path d="M0 0 C22.44 0 44.88 0 68 0 C68 1.32 68 2.64 68 4 C44.9 4 21.8 4 -2 4 C-1.34 2.68 -0.68 1.36 0 0 Z " fill="#C31D14" transform="translate(406,81)"/>
<path d="M0 0 C2.21 0.09 4.42 0.16 6.63 0.23 C12.01 0.42 17.38 0.7 22.75 1.06 C22.34 1.6 21.93 2.15 21.51 2.71 C20.97 3.42 20.44 4.14 19.88 4.87 C19.35 5.58 18.82 6.29 18.27 7.02 C16.33 9.63 14.51 12.31 12.69 15 C-0.5 34.31 -0.5 34.31 -6.25 40.06 C-7.69 40.16 -9.14 40.18 -10.59 40.18 C-11.97 40.18 -11.97 40.18 -13.38 40.18 C-14.38 40.17 -15.38 40.17 -16.41 40.16 C-17.43 40.16 -18.45 40.16 -19.5 40.16 C-22.77 40.15 -26.04 40.14 -29.31 40.12 C-31.52 40.12 -33.74 40.12 -35.95 40.11 C-41.38 40.1 -46.82 40.08 -52.25 40.06 C-50.12 36.84 -48 33.64 -45.66 30.57 C-45.18 29.95 -44.71 29.32 -44.22 28.68 C-43.27 27.43 -42.32 26.19 -41.38 24.95 C-40.89 24.31 -40.41 23.67 -39.91 23.01 C-39.35 22.3 -38.78 21.59 -38.21 20.86 C-36.57 18.52 -35.32 16.3 -34.02 13.77 C-25.7 -1.46 -16.25 -1.09 0 0 Z M-30.82 11.95 C-32.46 14.95 -32.46 14.95 -32.25 18.06 C-32.91 18.06 -33.57 18.06 -34.25 18.06 C-34.25 19.05 -34.25 20.04 -34.25 21.06 C-34.85 21.32 -35.44 21.57 -36.05 21.83 C-41.75 25.03 -44.36 31.1 -46.25 37.06 C-47.74 37.56 -47.74 37.56 -49.25 38.06 C-49.25 38.39 -49.25 38.72 -49.25 39.06 C-43.32 39.16 -37.4 39.23 -31.47 39.28 C-29.45 39.3 -27.44 39.33 -25.42 39.36 C-22.52 39.41 -19.63 39.44 -16.73 39.45 C-15.83 39.47 -14.92 39.49 -13.99 39.52 C-9.12 39.65 -9.12 39.65 -5.16 37.16 C-4.12 35.14 -4.12 35.14 -4.25 33.06 C-3.59 33.06 -2.93 33.06 -2.25 33.06 C0.05 30.5 0.75 29.58 0.75 26.06 C1.41 26.06 2.07 26.06 2.75 26.06 C4.81 23.24 4.81 23.24 5.69 20.44 C6.04 19.65 6.39 18.87 6.75 18.06 C7.74 17.73 8.73 17.4 9.75 17.06 C9.75 15.74 9.75 14.42 9.75 13.06 C10.74 12.73 11.73 12.4 12.75 12.06 C12.75 11.4 12.75 10.74 12.75 10.06 C13.41 10.06 14.07 10.06 14.75 10.06 C17.03 7.25 17.03 7.25 16.75 4.06 C17.74 3.73 18.73 3.4 19.75 3.06 C19.75 2.73 19.75 2.4 19.75 2.06 C13.95 1.74 8.16 1.5 2.35 1.35 C0.39 1.28 -1.58 1.19 -3.55 1.08 C-16.1 0.38 -24.04 0.47 -30.82 11.95 Z " fill="#BF2E0C" transform="translate(369.25,17.9375)"/>
<path d="M0 0 C1.49 0.01 2.98 0.02 4.46 0.04 C5.22 0.04 5.98 0.04 6.76 0.05 C8.64 0.06 10.52 0.08 12.4 0.1 C12.4 0.76 12.4 1.42 12.4 2.1 C13.06 2.1 13.72 2.1 14.4 2.1 C14.76 5.23 14.58 6.79 12.96 9.54 C9.02 13.48 4.38 17.92 -1.38 18.27 C-2.11 18.21 -2.84 18.15 -3.6 18.1 C-3.6 17.44 -3.6 16.78 -3.6 16.1 C-2.63 15.79 -1.66 15.48 -0.66 15.16 C2.24 14.4 2.24 14.4 3.4 13.1 C2.41 13.59 2.41 13.59 1.4 14.1 C-0.14 14.17 -1.68 14.18 -3.22 14.16 C-4.45 14.15 -4.45 14.15 -5.7 14.13 C-6.64 14.12 -6.64 14.12 -7.6 14.1 C-2.96 5.61 -2.96 5.61 -0.6 4.1 C2.08 3.56 4.67 3.32 7.4 3.1 C5.61 3.21 3.82 3.34 2.03 3.47 C1.03 3.54 0.03 3.61 -1 3.68 C-3.75 3.86 -3.75 3.86 -5.6 6.1 C-4.53 0.12 -4.53 0.12 0 0 Z " fill="#D51A2F" transform="translate(170.59765625,102.90234375)"/>
<path d="M0 0 C18.81 0 37.62 0 57 0 C56.34 1.32 55.68 2.64 55 4 C36.85 4 18.7 4 0 4 C0 2.68 0 1.36 0 0 Z " fill="#C91D1C" transform="translate(0,81)"/>
<path d="M0 0 C2.66 -0.14 5.28 -0.12 7.95 -0.05 C8.92 -0.04 9.89 -0.04 10.9 -0.03 C14 -0 17.11 0.06 20.22 0.12 C22.32 0.15 24.43 0.17 26.54 0.19 C31.7 0.25 36.87 0.33 42.03 0.44 C41.64 1.01 41.25 1.57 40.84 2.16 C37.23 7.46 37.23 7.46 34.27 13.13 C32.32 16.93 30.63 20.04 27.03 22.44 C19.79 24.57 11.91 23.66 4.47 23.25 C2.39 23.18 0.31 23.13 -1.77 23.07 C-6.84 22.93 -11.9 22.71 -16.97 22.44 C-14.52 18.07 -12.13 14.17 -8.91 10.31 C-5.98 6.84 -5.98 6.84 -3.97 2.82 C-1.97 0.44 -1.97 0.44 0 0 Z M-0.97 2.44 C-1.3 3.76 -1.63 5.08 -1.97 6.44 C-3.63 7.78 -5.3 9.11 -6.97 10.44 C-6.97 11.43 -6.97 12.42 -6.97 13.44 C-7.59 13.71 -8.21 13.97 -8.84 14.25 C-11.27 15.39 -11.27 15.39 -12.97 18.44 C-12.97 19.43 -12.97 20.42 -12.97 21.44 C-7.75 21.51 -2.54 21.57 2.67 21.6 C4.45 21.62 6.22 21.64 8 21.66 C10.55 21.7 13.1 21.72 15.64 21.73 C16.84 21.75 16.84 21.75 18.05 21.78 C22.3 21.82 22.3 21.82 26.06 20.04 C27.2 18.47 27.2 18.47 27.03 16.44 C27.69 16.44 28.35 16.44 29.03 16.44 C30.66 14.51 32.17 12.59 33.66 10.56 C34.08 10.01 34.5 9.45 34.93 8.88 C37.29 5.97 37.29 5.97 38.03 2.44 C25.16 2.44 12.29 2.44 -0.97 2.44 Z " fill="#BF280B" transform="translate(193.96873474121094,62.56256103515625)"/>
<path d="M0 0 C0.86 0.01 1.72 0.02 2.61 0.02 C3.52 0.02 4.43 0.01 5.37 0 C8.39 -0.01 11.41 -0 14.43 0.01 C16.53 0.01 18.64 0 20.74 -0 C25.15 -0.01 29.56 0 33.97 0.02 C39.61 0.04 45.25 0.03 50.88 0.01 C55.23 -0.01 59.57 -0 63.92 0.01 C66 0.01 68.07 0.01 70.15 -0 C73.07 -0.01 75.98 0 78.9 0.02 C79.75 0.02 80.6 0.01 81.47 0 C88.16 0.09 95.14 1.51 100.37 5.95 C103.66 9.71 105.31 13.39 106.21 18.23 C105.08 25.7 99.64 32.03 94.71 37.54 C94.71 34.54 94.71 34.54 96.71 31.54 C97.42 29.22 98.09 26.89 98.71 24.54 C100.03 24.21 101.35 23.88 102.71 23.54 C102.79 18.71 102.66 14.31 101.71 9.54 C100.06 9.54 98.41 9.54 96.71 9.54 C96.71 8.22 96.71 6.9 96.71 5.54 C85.18 2.39 74.29 2.1 62.42 2.14 C60.49 2.14 58.57 2.14 56.65 2.13 C52.65 2.13 48.65 2.14 44.65 2.15 C39.52 2.17 34.39 2.16 29.26 2.14 C25.3 2.13 21.35 2.13 17.39 2.14 C15.5 2.14 13.6 2.14 11.71 2.13 C9.08 2.13 6.45 2.14 3.81 2.15 C2.64 2.14 2.64 2.14 1.45 2.14 C-2.72 2.15 -2.72 2.15 -6.3 4.07 C-6.63 4.55 -6.95 5.04 -7.29 5.54 C-7.95 5.21 -8.61 4.88 -9.29 4.54 C-7.18 0.14 -4.62 0.07 0 0 Z " fill="#C02810" transform="translate(89.29100036621094,18.4578857421875)"/>
<path d="M0 0 C0.31 2.62 0.31 2.62 0 6 C-1.2 7.46 -2.41 8.91 -3.7 10.28 C-5.72 12.95 -6.35 15.93 -7.13 19.14 C-7.56 20.06 -7.56 20.06 -8 21 C-10.03 21.64 -10.03 21.64 -12 22 C-12.33 22.66 -12.66 23.32 -13 24 C-7.72 24 -2.44 24 3 24 C3 24.33 3 24.66 3 25 C-3.27 25 -9.54 25 -16 25 C-12.48 19.68 -8.91 14.41 -5.28 9.17 C-4.86 8.57 -4.45 7.98 -4.03 7.36 C-3.02 5.91 -2.01 4.45 -1 3 C-6.98 2.87 -12.95 2.81 -18.93 2.82 C-20.96 2.82 -22.99 2.79 -25.02 2.74 C-35.79 2.01 -35.79 2.01 -45.73 5.14 C-48.65 7.98 -50.46 11.27 -52 15 C-52.33 14.34 -52.66 13.68 -53 13 C-52.06 10.88 -52.06 10.88 -51 9 C-50.34 9 -49.68 9 -49 9 C-49 7.35 -49 5.7 -49 4 C-48.01 3.67 -47.02 3.34 -46 3 C-45.67 2.34 -45.34 1.68 -45 1 C-38.75 0.86 -32.5 0.72 -26.26 0.57 C-24.13 0.52 -22 0.48 -19.87 0.43 C-16.82 0.36 -13.77 0.29 -10.72 0.22 C-9.29 0.19 -9.29 0.19 -7.82 0.15 C-6.94 0.13 -6.06 0.11 -5.15 0.09 C-4.37 0.07 -3.59 0.06 -2.79 0.04 C-1.86 0.02 -0.93 0 0 0 Z " fill="#FAAA31" transform="translate(269,16)"/>
<path d="M0 0 C0.33 0 0.66 0 1 0 C1.29 7.43 1.29 7.43 -1 11 C-1.66 11 -2.32 11 -3 11 C-3.09 12.21 -3.09 12.21 -3.19 13.44 C-4.25 18.09 -6.18 22.14 -9 26 C-9.99 26.33 -10.98 26.66 -12 27 C-11.67 25.02 -11.34 23.04 -11 21 C-10.01 21 -9.02 21 -8 21 C-8 20.34 -8 19.68 -8 19 C-10.97 19 -13.94 19 -17 19 C-17.33 18.01 -17.66 17.02 -18 16 C-20.02 15.27 -20.02 15.27 -22 15 C-20.68 15 -19.36 15 -18 15 C-18 14.34 -18 13.68 -18 13 C-16.49 11.65 -14.92 10.37 -13.31 9.12 C-12.01 8.11 -12.01 8.11 -10.68 7.07 C-9.35 6.05 -9.35 6.05 -8 5 C-6.33 3.67 -4.66 2.34 -3 1 C-3.65 3 -4.32 5 -5 7 C-5.23 7.71 -5.46 8.42 -5.7 9.14 C-5.94 9.86 -6.19 10.58 -6.44 11.31 C-6.66 11.99 -6.89 12.67 -7.12 13.36 C-8 15 -8 15 -11 16 C-9.35 16.33 -7.7 16.66 -6 17 C-6.06 16.13 -6.12 15.26 -6.19 14.37 C-5.97 10.49 -4.95 8.45 -3 5.12 C-2.44 4.16 -1.89 3.19 -1.31 2.2 C-0.88 1.47 -0.45 0.75 0 0 Z " fill="#D61E2D" transform="translate(208,107)"/>
<path d="M0 0 C0.92 0.01 1.83 0.01 2.78 0.02 C4.26 0.02 4.26 0.02 5.78 0.03 C6.82 0.03 7.86 0.04 8.93 0.05 C10.5 0.06 10.5 0.06 12.1 0.06 C14.69 0.08 17.28 0.09 19.87 0.11 C19.21 1.43 18.55 2.75 17.87 4.11 C17.37 2.63 17.37 2.63 16.87 1.11 C14.66 1.23 12.45 1.36 10.24 1.49 C8.4 1.59 8.4 1.59 6.52 1.7 C3.03 2.09 0.14 2.88 -3.13 4.11 C-3.46 6.09 -3.79 8.07 -4.13 10.11 C-5.12 10.11 -6.11 10.11 -7.13 10.11 C-7.36 10.67 -7.59 11.23 -7.82 11.8 C-9.49 14.74 -11.75 16.73 -14.13 19.11 C-15.43 21.28 -15.43 21.28 -16.13 23.11 C-16.79 23.11 -17.45 23.11 -18.13 23.11 C-18.46 25.09 -18.79 27.07 -19.13 29.11 C-19.79 29.11 -20.45 29.11 -21.13 29.11 C-21.13 30.1 -21.13 31.09 -21.13 32.11 C-15.85 31.78 -10.57 31.45 -5.13 31.11 C-4.8 30.12 -4.47 29.13 -4.13 28.11 C-2.07 27.43 -2.07 27.43 -0.13 27.11 C-1.21 30.03 -1.91 31.89 -4.13 34.11 C-6.56 34.34 -6.56 34.34 -9.58 34.31 C-10.65 34.3 -11.73 34.3 -12.84 34.29 C-14.53 34.26 -14.53 34.26 -16.26 34.24 C-17.39 34.23 -18.53 34.22 -19.7 34.21 C-22.51 34.19 -25.32 34.15 -28.13 34.11 C-24.56 29.34 -20.97 24.58 -17.32 19.86 C-13.11 14.41 -8.96 8.91 -4.85 3.38 C-2.39 0.13 -2.39 0.13 0 0 Z " fill="#C02D0D" transform="translate(297.133056640625,100.886474609375)"/>
<path d="M0 0 C19.47 0 38.94 0 59 0 C55.05 2.63 52.43 3.12 47.79 3.11 C46.2 3.11 46.2 3.11 44.58 3.11 C43.44 3.11 42.29 3.1 41.11 3.1 C39.94 3.1 38.77 3.09 37.56 3.09 C33.81 3.09 30.06 3.08 26.31 3.06 C23.77 3.06 21.23 3.05 18.69 3.05 C12.46 3.04 6.23 3.02 0 3 C0 2.01 0 1.02 0 0 Z " fill="#FFC42F" transform="translate(0,77)"/>
<path d="M0 0 C0.5 1.98 0.5 1.98 1 4 C0.38 4.19 -0.24 4.37 -0.88 4.56 C-4.02 6.69 -4.01 9.42 -5 13 C-7 15.44 -7 15.44 -9 17 C-9.66 17 -10.32 17 -11 17 C-11 18.65 -11 20.3 -11 22 C-14 23.73 -16.14 24.25 -19.58 24.23 C-20.49 24.23 -21.39 24.23 -22.31 24.23 C-23.28 24.22 -24.24 24.21 -25.23 24.2 C-26.72 24.19 -26.72 24.19 -28.24 24.19 C-31.41 24.18 -34.58 24.15 -37.75 24.12 C-39.9 24.11 -42.05 24.11 -44.2 24.1 C-49.47 24.08 -54.73 24.04 -60 24 C-60.33 22.35 -60.66 20.7 -61 19 C-60.01 19 -59.02 19 -58 19 C-58 19.66 -58 20.32 -58 21 C-43.81 21.33 -29.62 21.66 -15 22 C-14.34 20.35 -13.68 18.7 -13 17 C-11.4 14.75 -9.78 12.59 -8.06 10.44 C-7.18 9.31 -6.29 8.18 -5.41 7.06 C-4.61 6.05 -3.82 5.04 -3 4 C-1.99 2.67 -0.99 1.34 0 0 Z " fill="#F8A62C" transform="translate(236,63)"/>
<path d="M0 0 C0.99 0.33 1.98 0.66 3 1 C3.69 3.06 3.69 3.06 4 5 C6.31 5.33 8.62 5.66 11 6 C11 6.99 11 7.98 11 9 C9.55 8.9 9.55 8.9 8.08 8.79 C1.31 8.1 1.31 8.1 -4.75 10.34 C-5.9 12.17 -5.9 12.17 -7 15 C-7.66 15 -8.32 15 -9 15 C-9.33 16.65 -9.66 18.3 -10 20 C-5.71 20 -1.42 20 3 20 C2.67 20.99 2.34 21.98 2 23 C-3.28 23 -8.56 23 -14 23 C-14 22.01 -14 21.02 -14 20 C-13.34 20 -12.68 20 -12 20 C-11.67 18.02 -11.34 16.04 -11 14 C-10.34 14 -9.68 14 -9 14 C-8.92 13.44 -8.83 12.89 -8.75 12.31 C-7.76 9.26 -6.15 7.35 -4 5 C-3.34 5 -2.68 5 -2 5 C-1.34 3.35 -0.68 1.7 0 0 Z " fill="#D51832" transform="translate(290,110)"/>
<path d="M0 0 C17.16 0 34.32 0 52 0 C48.77 6.46 42.76 12.28 36.12 15.31 C35.07 15.65 35.07 15.65 34 16 C35.41 11.78 38.07 10.9 41.77 8.7 C44.33 6.75 45.43 4.77 47 2 C46.16 2.01 46.16 2.01 45.31 2.01 C39.5 2.06 33.69 2.09 27.88 2.11 C25.71 2.12 23.55 2.13 21.38 2.15 C18.26 2.18 15.15 2.19 12.04 2.2 C11.07 2.21 10.09 2.22 9.09 2.23 C8.19 2.23 7.29 2.23 6.36 2.23 C5.17 2.23 5.17 2.23 3.95 2.24 C2 2 2 2 0 0 Z " fill="#C42D0D" transform="translate(126,63)"/>
<path d="M0 0 C1.73 0 3.46 0.01 5.19 0.02 C6.1 0.02 7.01 0.02 7.94 0.02 C10.86 0.03 13.77 0.04 16.69 0.05 C18.66 0.06 20.63 0.06 22.6 0.06 C27.44 0.08 32.28 0.09 37.12 0.11 C37.12 1.43 37.12 2.75 37.12 4.11 C36.46 4.11 35.8 4.11 35.12 4.11 C34.92 4.79 34.71 5.47 34.5 6.18 C32.67 10.08 30.02 12.95 27.12 16.11 C27.12 13.11 27.12 13.11 28.12 10.11 C28.78 10.11 29.44 10.11 30.12 10.11 C30.12 9.12 30.12 8.13 30.12 7.11 C30.78 6.78 31.44 6.45 32.12 6.11 C32.77 4.09 32.77 4.09 33.12 2.11 C27.96 2.06 22.81 2.06 17.64 2.1 C15.89 2.11 14.14 2.1 12.38 2.08 C2.54 1.54 2.54 1.54 -6.29 4.89 C-7.76 6.91 -8.78 8.88 -9.88 11.11 C-10.87 11.77 -11.86 12.43 -12.88 13.11 C-11.48 10.11 -9.83 7.56 -7.81 4.93 C-7.29 4.23 -6.76 3.54 -6.22 2.82 C-4.1 0.12 -4.1 0.12 0 0 Z " fill="#C43215" transform="translate(96.877197265625,43.886474609375)"/>
<path d="M0 0 C0.97 -0 1.93 -0 2.93 -0 C6.11 0 9.29 0.06 12.47 0.13 C14.68 0.14 16.9 0.15 19.11 0.16 C24.92 0.19 30.73 0.27 36.54 0.36 C42.47 0.44 48.4 0.48 54.33 0.52 C65.97 0.6 77.6 0.74 89.23 0.91 C89.23 1.24 89.23 1.57 89.23 1.91 C88.01 1.91 86.8 1.9 85.54 1.9 C74.08 1.88 62.62 1.89 51.16 1.94 C45.26 1.96 39.37 1.97 33.48 1.95 C27.79 1.94 22.11 1.95 16.42 1.99 C14.25 2 12.08 2 9.91 1.98 C6.87 1.96 3.83 1.99 0.79 2.02 C-0.1 2.01 -1 1.99 -1.93 1.97 C-6.6 2.04 -6.6 2.04 -10.43 4.42 C-12.47 7.18 -13.68 9.65 -14.77 12.91 C-14.11 12.91 -13.45 12.91 -12.77 12.91 C-12.11 15.22 -11.45 17.53 -10.77 19.91 C-14.64 18.03 -14.64 18.03 -15.77 16.91 C-16.38 11.92 -16.21 8.9 -13.35 4.69 C-9.48 -0.19 -5.94 -0.19 0 0 Z " fill="#C53F08" transform="translate(322.76904296875,62.091796875)"/>
<path d="M0 0 C0.5 0.99 0.5 0.99 1 2 C-0.29 4.43 -0.29 4.43 -2.19 7.31 C-3.11 8.73 -3.11 8.73 -4.04 10.18 C-4.69 11.11 -5.33 12.04 -6 13 C-6.74 14.31 -6.74 14.31 -7.5 15.65 C-11.33 19.25 -14.94 18.63 -20.02 18.49 C-20.99 18.48 -21.96 18.47 -22.96 18.47 C-26.06 18.44 -29.15 18.38 -32.25 18.31 C-34.35 18.29 -36.45 18.26 -38.55 18.24 C-43.7 18.19 -48.85 18.1 -54 18 C-54 17.34 -54 16.68 -54 16 C-52.74 16.03 -51.49 16.07 -50.2 16.1 C-45.5 16.2 -40.82 16.23 -36.12 16.23 C-34.1 16.24 -32.07 16.28 -30.05 16.33 C-19.2 17.06 -19.2 17.06 -9.2 13.81 C-5.95 10.68 -3.96 7.05 -2 3 C-1.34 2.01 -0.68 1.02 0 0 Z " fill="#F9A030" transform="translate(294,69)"/>
<path d="M0 0 C0.96 0 1.91 0 2.9 0.01 C3.98 0.01 5.06 0.01 6.18 0.01 C7.94 0.01 7.94 0.01 9.74 0.02 C10.94 0.02 12.13 0.03 13.37 0.03 C17.21 0.03 21.05 0.05 24.89 0.06 C27.49 0.06 30.09 0.07 32.68 0.07 C39.07 0.08 45.45 0.1 51.83 0.12 C51.83 0.45 51.83 0.78 51.83 1.12 C34.34 1.45 16.85 1.78 -1.17 2.12 C-1.5 2.78 -1.83 3.44 -2.17 4.12 C15.65 4.12 33.47 4.12 51.83 4.12 C51.83 4.45 51.83 4.78 51.83 5.12 C33.02 5.12 14.21 5.12 -5.17 5.12 C-2.68 0.15 -2.68 0.15 0 0 Z " fill="#CA4612" transform="translate(422.17030334472656,62.87974548339844)"/>
<path d="M0 0 C0 1.98 0 3.96 0 6 C1.98 6 3.96 6 6 6 C6 6.33 6 6.66 6 7 C4.02 7 2.04 7 0 7 C-0.33 7.66 -0.66 8.32 -1 9 C-1.5 8.5 -1.5 8.5 -2 8 C-2.6 8.99 -3.2 9.98 -3.81 11 C-4.53 11.99 -5.26 12.98 -6 14 C-6.99 14 -7.98 14 -9 14 C-9.27 14.93 -9.54 15.86 -9.81 16.81 C-10.91 19.76 -11.62 21.06 -14 23 C-14.66 22.67 -15.32 22.34 -16 22 C-14.42 19.77 -12.83 17.54 -11.25 15.31 C-10.58 14.37 -10.58 14.37 -9.91 13.42 C-9.47 12.8 -9.03 12.18 -8.58 11.55 C-8.18 10.99 -7.78 10.43 -7.37 9.85 C-5.64 7.52 -3.81 5.27 -2 3 C-16.85 2.67 -31.7 2.34 -47 2 C-47 1.67 -47 1.34 -47 1 C-40.63 0.86 -34.26 0.71 -27.88 0.57 C-25.71 0.52 -23.55 0.48 -21.38 0.43 C-18.26 0.36 -15.15 0.29 -12.04 0.22 C-11.07 0.2 -10.09 0.18 -9.09 0.15 C-8.19 0.13 -7.29 0.11 -6.36 0.09 C-5.56 0.07 -4.77 0.06 -3.95 0.04 C-2.63 0.01 -1.32 0 0 0 Z " fill="#F69F28" transform="translate(393,17)"/>
<path d="M0 0 C-0.66 1.32 -1.32 2.64 -2 4 C-3.28 3.98 -4.56 3.96 -5.88 3.94 C-10.64 3.86 -15.4 3.82 -20.15 3.78 C-22.21 3.76 -24.27 3.73 -26.33 3.7 C-29.29 3.65 -32.24 3.63 -35.2 3.61 C-36.12 3.59 -37.04 3.57 -37.99 3.55 C-43.2 3.48 -43.2 3.48 -47.61 6.02 C-48.07 6.68 -48.53 7.33 -49 8 C-48.62 5.06 -48.62 5.06 -48 2 C-45.73 0.86 -44.4 0.85 -41.87 0.79 C-41.02 0.77 -40.17 0.75 -39.29 0.73 C-38.37 0.72 -37.45 0.7 -36.5 0.68 C-35.09 0.65 -35.09 0.65 -33.64 0.62 C-30.62 0.56 -27.59 0.5 -24.56 0.44 C-22.53 0.39 -20.49 0.35 -18.45 0.31 C-4.05 0 -4.05 0 0 0 Z " fill="#FAA52C" transform="translate(333,16)"/>
<path d="M0 0 C-0.54 3.38 -1.11 6.7 -2 10 C-2.66 10 -3.32 10 -4 10 C-4.02 11.26 -4.04 12.52 -4.06 13.81 C-4.32 16.02 -4.32 16.02 -5 18 C-8.38 19.94 -8.38 19.94 -12 21 C-12.99 21.33 -13.98 21.66 -15 22 C-13.54 17.5 -11.01 14.32 -7.94 10.81 C-4.63 7.14 -4.63 7.14 -2 3 C-8.89 4.35 -8.89 4.35 -14 9 C-14.06 6.75 -14.06 6.75 -13 4 C-8.76 1.31 -5.02 0 0 0 Z " fill="#F9B520" transform="translate(334,98)"/>
<path d="M0 0 C0.33 1.65 0.66 3.3 1 5 C-3.7 9.82 -3.7 9.82 -7.4 10.33 C-9.62 10.31 -11.79 10.22 -14 10 C-8.27 -0.47 -8.27 -0.47 0 0 Z " fill="#FDAB3A" transform="translate(177,107)"/>
<path d="M0 0 C1.86 0.15 1.86 0.15 3.75 0.31 C4.56 2 4.56 2 4.75 4.31 C2.21 7.34 0.52 9.05 -3.25 10.31 C-5.58 10.35 -7.92 10.36 -10.25 10.31 C-8.32 4.69 -6.49 0 0 0 Z " fill="#FAA238" transform="translate(237.25,106.6875)"/>
<path d="M0 0 C1.87 -0.36 1.87 -0.36 4.17 -0.34 C5.47 -0.34 5.47 -0.34 6.78 -0.34 C7.71 -0.32 8.64 -0.31 9.6 -0.29 C10.55 -0.29 11.5 -0.28 12.49 -0.28 C15.53 -0.26 18.58 -0.23 21.62 -0.19 C23.69 -0.17 25.75 -0.16 27.81 -0.15 C32.88 -0.11 37.94 -0.06 43 0 C43 0.66 43 1.32 43 2 C41.74 1.98 40.49 1.96 39.19 1.94 C34.54 1.86 29.88 1.82 25.22 1.78 C23.2 1.76 21.19 1.73 19.17 1.7 C16.27 1.65 13.38 1.63 10.48 1.61 C9.13 1.58 9.13 1.58 7.74 1.55 C2.87 1.4 2.87 1.4 -1.07 3.9 C-2.06 5.93 -2.06 5.93 -2.38 7.94 C-3.33 11.1 -5.64 12.76 -8 15 C-8.99 16.48 -8.99 16.48 -10 18 C-10.66 18 -11.32 18 -12 18 C-12 19.32 -12 20.64 -12 22 C-13.32 21.67 -14.64 21.34 -16 21 C-15.38 20.21 -15.38 20.21 -14.75 19.4 C-12.87 16.99 -11 14.59 -9.12 12.19 C-8.47 11.35 -7.82 10.52 -7.15 9.66 C-6.53 8.86 -5.9 8.06 -5.26 7.23 C-4.68 6.49 -4.11 5.75 -3.51 4.99 C-2.28 3.37 -1.13 1.69 0 0 Z " fill="#BF270A" transform="translate(288,19)"/>
<path d="M0 0 C0.66 0.33 1.32 0.66 2 1 C-2.95 7.93 -2.95 7.93 -8 15 C-2.06 15.33 3.88 15.66 10 16 C10 16.33 10 16.66 10 17 C6.69 17.03 3.38 17.05 0.06 17.06 C-0.88 17.07 -1.83 17.08 -2.8 17.09 C-4.15 17.09 -4.15 17.09 -5.53 17.1 C-6.78 17.11 -6.78 17.11 -8.05 17.11 C-10 17 -10 17 -11 16 C-11.04 14 -11.04 12 -11 10 C-10.34 10 -9.68 10 -9 10 C-8.67 8.68 -8.34 7.36 -8 6 C-7.01 6 -6.02 6 -5 6 C-4.6 4.79 -4.6 4.79 -4.19 3.56 C-3.8 2.72 -3.4 1.87 -3 1 C-2.01 0.67 -1.02 0.34 0 0 Z " fill="#CA301B" transform="translate(262,25)"/>
<path d="M0 0 C0.99 0 1.98 0 3 0 C3.33 1.32 3.66 2.64 4 4 C7.63 4 11.26 4 15 4 C15 4.66 15 5.32 15 6 C11.95 8.03 11.4 8.25 7.99 8.2 C7.23 8.19 6.47 8.18 5.69 8.18 C4.91 8.16 4.12 8.14 3.31 8.12 C2.52 8.12 1.72 8.11 0.9 8.1 C-1.07 8.07 -3.03 8.04 -5 8 C-4.67 7.01 -4.34 6.02 -4 5 C-3.01 4.67 -2.02 4.34 -1 4 C-0.27 1.98 -0.27 1.98 0 0 Z " fill="#D2192C" transform="translate(308,125)"/>
<path d="M0 0 C0.33 0.66 0.66 1.32 1 2 C0.22 3.95 0.22 3.95 -0.94 6.12 C-1.32 6.85 -1.7 7.57 -2.09 8.32 C-2.54 9.15 -2.54 9.15 -3 10 C2.23 10.07 7.47 10.13 12.7 10.16 C14.48 10.18 16.26 10.2 18.04 10.23 C20.6 10.26 23.15 10.28 25.71 10.29 C26.51 10.31 27.31 10.32 28.13 10.34 C30.61 10.38 30.61 10.38 34 10 C34.66 9.01 35.32 8.02 36 7 C36.66 7.33 37.32 7.66 38 8 C37.11 9.98 37.11 9.98 35 12 C31.77 12.6 28.57 12.46 25.3 12.39 C23.88 12.38 23.88 12.38 22.42 12.37 C19.38 12.35 16.35 12.3 13.31 12.25 C11.25 12.23 9.2 12.21 7.14 12.2 C2.09 12.15 -2.95 12.08 -8 12 C-5.58 7.68 -3.22 3.8 0 0 Z " fill="#BA2609" transform="translate(248,73)"/>
<path d="M0 0 C1.25 0.01 2.51 0.02 3.8 0.03 C4.75 0.04 5.71 0.05 6.69 0.06 C6.69 1.05 6.69 2.04 6.69 3.06 C1.08 3.06 -4.53 3.06 -10.31 3.06 C-10.97 4.38 -11.63 5.7 -12.31 7.06 C-12.97 7.72 -13.63 8.38 -14.31 9.06 C-15.31 6.06 -15.31 6.06 -14.19 3.44 C-10.67 -1.01 -5.32 -0.05 0 0 Z " fill="#D5192F" transform="translate(307.3125,101.9375)"/>
<path d="M0 0 C0.99 0.33 1.98 0.66 3 1 C2.01 2.48 2.01 2.48 1 4 C3.47 4.99 3.47 4.99 6 6 C5.67 6.99 5.34 7.98 5 9 C4.31 9.13 3.63 9.27 2.92 9.4 C1.57 9.67 1.57 9.67 0.19 9.94 C-0.71 10.11 -1.6 10.29 -2.52 10.46 C-5.11 10.98 -5.11 10.98 -8 12 C-7.25 9.62 -7.25 9.62 -6 7 C-4.67 6.32 -3.34 5.65 -2 5 C-1.27 2.98 -1.27 2.98 -1 1 C-0.67 0.67 -0.34 0.34 0 0 Z " fill="#D51E32" transform="translate(161,111)"/>
<path d="M0 0 C0.99 0 1.98 0 3 0 C2.34 1.32 1.68 2.64 1 4 C-17.15 4 -35.3 4 -54 4 C-54 3.67 -54 3.34 -54 3 C-36.51 2.67 -19.02 2.34 -1 2 C-0.67 1.34 -0.34 0.68 0 0 Z " fill="#B72201" transform="translate(54,81)"/>
<path d="M0 0 C0.33 0.66 0.66 1.32 1 2 C0.04 4.35 0.04 4.35 -1.38 7.06 C-1.84 7.96 -2.3 8.86 -2.77 9.79 C-4 12 -4 12 -5 13 C-7.33 13.04 -9.67 13.04 -12 13 C-10.45 9.12 -8 6.97 -4.88 4.25 C-3.96 3.45 -3.05 2.65 -2.12 1.83 C-1.07 0.92 -1.07 0.92 0 0 Z " fill="#FCAC3D" transform="translate(204,108)"/>
<path d="M0 0 C2.45 3.67 4 6.55 4 11 C-1.75 11.12 -1.75 11.12 -4 10 C-3.38 3.48 -3.38 3.48 -1.44 1.06 C-0.73 0.54 -0.73 0.54 0 0 Z " fill="#D9162E" transform="translate(249,122)"/>
<path d="M0 0 C1.65 0 3.3 0 5 0 C5 3.96 5 7.92 5 12 C3.68 12 2.36 12 1 12 C0.67 8.04 0.34 4.08 0 0 Z " fill="#DA1535" transform="translate(227,120)"/>
<path d="M0 0 C0.85 0.19 1.69 0.37 2.56 0.56 C2.28 2.21 1.99 3.86 1.69 5.5 C1.53 6.42 1.36 7.33 1.2 8.28 C0.99 9.03 0.78 9.79 0.56 10.56 C-0.43 11.06 -0.43 11.06 -1.44 11.56 C-1.44 9.25 -1.44 6.94 -1.44 4.56 C-4.8 5.96 -6.42 7.54 -8.44 10.56 C-9.1 10.23 -9.76 9.9 -10.44 9.56 C-4.52 0.74 -4.52 0.74 0 0 Z " fill="#FBAA34" transform="translate(224.4375,122.4375)"/>
<path d="M0 0 C0.99 0.01 1.99 0.02 3.01 0.03 C4.15 0.04 4.15 0.04 5.31 0.06 C5.64 1.38 5.97 2.7 6.31 4.06 C1.03 3.73 -4.25 3.4 -9.69 3.06 C-7.75 -0.81 -3.83 -0.05 0 0 Z " fill="#D91B2A" transform="translate(276.6875,101.9375)"/>
<path d="M0 0 C0.99 0.33 1.98 0.66 3 1 C2.09 1.56 1.19 2.11 0.25 2.69 C-2.85 4.89 -4.69 7.03 -7 10 C-7.66 10 -8.32 10 -9 10 C-10.5 13.37 -11 15.2 -11 19 C-9.68 19.66 -8.36 20.32 -7 21 C-8.98 21 -10.96 21 -13 21 C-13.84 18.14 -14.24 16.58 -13.07 13.79 C-9.44 8.57 -5.5 3.36 0 0 Z " fill="#FBA940" transform="translate(267,108)"/>
<path d="M0 0 C-1 3 -1 3 -3 4 C-3.33 4.99 -3.66 5.98 -4 7 C-5.85 8.61 -5.85 8.61 -8.06 10.19 C-8.8 10.72 -9.53 11.25 -10.29 11.79 C-10.85 12.19 -11.42 12.59 -12 13 C-11.47 8.96 -10.37 6.74 -7.69 3.69 C-6.8 2.64 -6.8 2.64 -5.89 1.57 C-4 0 -4 0 0 0 Z " fill="#D11D2C" transform="translate(264,107)"/>
<path d="M0 0 C1.45 0.03 1.45 0.03 2.94 0.06 C2.94 1.71 2.94 3.36 2.94 5.06 C1.62 5.06 0.3 5.06 -1.06 5.06 C-1.06 5.72 -1.06 6.38 -1.06 7.06 C-2.71 6.73 -4.36 6.4 -6.06 6.06 C-3.76 0.08 -3.76 0.08 0 0 Z " fill="#FDC316" transform="translate(237.0625,107.9375)"/>
<path d="M0 0 C0.25 2.31 0.25 2.31 0 5 C-2.24 7.4 -3.46 7.96 -6.75 8.19 C-7.49 8.13 -8.24 8.06 -9 8 C-7.08 2.53 -6.1 0 0 0 Z " fill="#FCC719" transform="translate(175,108)"/>
<path d="M0 0 C-0.61 3.68 -2.2 5.86 -4.5 8.75 C-5.13 9.55 -5.76 10.35 -6.41 11.17 C-6.93 11.78 -7.46 12.38 -8 13 C-8.33 13 -8.66 13 -9 13 C-9.57 8.18 -7.92 5.76 -5 2 C-2 0 -2 0 0 0 Z " fill="#D61A2A" transform="translate(326,105)"/>
<path d="M0 0 C0.99 0.33 1.98 0.66 3 1 C0.38 5.04 -2.38 8.97 -5.19 12.88 C-5.88 13.84 -6.58 14.81 -7.29 15.8 C-7.86 16.53 -8.42 17.25 -9 18 C-9.33 18 -9.66 18 -10 18 C-10 16.35 -10 14.7 -10 13 C-9.01 12.67 -8.02 12.34 -7 12 C-6.67 11.01 -6.34 10.02 -6 9 C-5.34 9 -4.68 9 -4 9 C-2.48 6.06 -1.2 3.08 0 0 Z " fill="#C8200F" transform="translate(316,35)"/>
<path d="M0 0 C0.66 0.33 1.32 0.66 2 1 C-2 6.33 -6 11.67 -10 17 C-10.33 16.01 -10.66 15.02 -11 14 C-9.86 11.96 -9.86 11.96 -8.19 9.81 C-7.64 9.1 -7.1 8.38 -6.54 7.64 C-6.03 7.1 -5.52 6.56 -5 6 C-4.34 6 -3.68 6 -3 6 C-2.69 5.2 -2.38 4.39 -2.06 3.56 C-1 1 -1 1 0 0 Z " fill="#FDB030" transform="translate(189,65)"/>
<path d="M0 0 C-1.62 3.59 -3.79 6.59 -6.12 9.75 C-6.85 10.73 -7.57 11.72 -8.32 12.73 C-8.87 13.48 -9.43 14.23 -10 15 C-10.33 13.68 -10.66 12.36 -11 11 C-10.34 11 -9.68 11 -9 11 C-7.9 8.95 -7.04 7.23 -6.62 4.94 C-5.61 1.78 -3.32 0 0 0 Z " fill="#FBB22E" transform="translate(284,24)"/>
<path d="M0 0 C1.45 0.04 2.91 0.11 4.36 0.21 C5.1 0.24 5.85 0.27 6.62 0.29 C8.45 0.36 10.28 0.47 12.11 0.59 C8.67 2.73 6.34 2.68 2.36 2.21 C1.37 2.1 0.39 1.99 -0.62 1.88 C-1.37 1.78 -2.12 1.68 -2.89 1.59 C-3.22 3.57 -3.55 5.55 -3.89 7.59 C-5.21 7.26 -6.53 6.93 -7.89 6.59 C-5.72 2.23 -4.95 0.75 0 0 Z " fill="#FDB13C" transform="translate(290.890625,120.4140625)"/>
<path d="M0 0 C0.66 0.66 1.32 1.32 2 2 C1.67 2.99 1.34 3.98 1 5 C0.01 5 -0.98 5 -2 5 C-1.67 5.99 -1.34 6.98 -1 8 C-3.47 9.49 -3.47 9.49 -6 11 C-6 7.39 -5.18 6.59 -3 3.81 C-2.44 3.1 -1.89 2.38 -1.31 1.64 C-0.88 1.1 -0.45 0.56 0 0 Z " fill="#D11C33" transform="translate(216,122)"/>
<path d="M0 0 C0.33 0.66 0.66 1.32 1 2 C-0.98 4.97 -0.98 4.97 -3 8 C-2.01 8.33 -1.02 8.66 0 9 C0 9.66 0 10.32 0 11 C-2.64 11 -5.28 11 -8 11 C-7.59 10.46 -7.18 9.91 -6.76 9.36 C-6.22 8.64 -5.68 7.92 -5.12 7.19 C-4.59 6.48 -4.06 5.77 -3.51 5.04 C-2.29 3.4 -1.14 1.7 0 0 Z " fill="#B73B06" transform="translate(149,124)"/>
<path d="M0 0 C1 2 1 2 0.38 4.5 C-1 7 -1 7 -3.62 8.31 C-4.8 8.65 -4.8 8.65 -6 9 C-6 9.99 -6 10.98 -6 12 C-6.66 12 -7.32 12 -8 12 C-6.49 7.02 -3.44 3.76 0 0 Z " fill="#FAA231" transform="translate(327,108)"/>
<path d="M0 0 C0.33 0.66 0.66 1.32 1 2 C-0.44 4.62 -0.44 4.62 -2 7 C0.64 7 3.28 7 6 7 C6 7.33 6 7.66 6 8 C2.37 8 -1.26 8 -5 8 C-2.25 2.25 -2.25 2.25 0 0 Z " fill="#FCB236" transform="translate(318,120)"/>
<path d="M0 0 C0 1.98 0 3.96 0 6 C-0.99 6 -1.98 6 -3 6 C-3 5.01 -3 4.02 -3 3 C-4.32 2.67 -5.64 2.34 -7 2 C-4.35 0.54 -3.11 0 0 0 Z " fill="#BD4207" transform="translate(267,126)"/>
<path d="M0 0 C0.85 2.39 1.1 3.67 0.38 6.12 C-1.41 8.56 -3.16 9.1 -6 10 C-4.07 6.59 -2.17 3.26 0 0 Z " fill="#FBAB35" transform="translate(132,48)"/>
<path d="M0 0 C0.62 1.88 0.62 1.88 1 4 C0.34 4.66 -0.32 5.32 -1 6 C-1.5 6.54 -1.99 7.07 -2.5 7.62 C-4 9 -4 9 -6 9 C-4.47 5.56 -2.4 2.88 0 0 Z " fill="#C3290F" transform="translate(255,64)"/>
<path d="M0 0 C0.33 0 0.66 0 1 0 C1.33 1.98 1.66 3.96 2 6 C0.35 6 -1.3 6 -3 6 C-3 6.66 -3 7.32 -3 8 C-3.66 7.67 -4.32 7.34 -5 7 C-4.19 5.83 -3.38 4.66 -2.56 3.5 C-2.11 2.85 -1.66 2.2 -1.19 1.53 C-0.8 1.03 -0.41 0.52 0 0 Z " fill="#B92717" transform="translate(83,57)"/>
<path d="M0 0 C0 0.66 0 1.32 0 2 C-1.53 3.29 -1.53 3.29 -3.5 4.62 C-4.15 5.07 -4.8 5.52 -5.47 5.98 C-5.97 6.31 -6.48 6.65 -7 7 C-6.02 2.51 -4.96 0 0 0 Z " fill="#D51D31" transform="translate(199,110)"/>
<path d="M0 0 C0.91 0.1 1.81 0.21 2.75 0.31 C-0.38 2.96 -3.34 4.16 -7.25 5.31 C-4.05 0.39 -4.05 0.39 0 0 Z " fill="#FCB730" transform="translate(268.25,99.6875)"/>
</svg>
