<?xml version="1.0" encoding="UTF-8"?>
<svg version="1.1" xmlns="http://www.w3.org/2000/svg" width="690" height="170">
<path d="M0 0 C2.41699472 1.65727176 4.75693268 3.36296855 7.05859375 5.17578125 C7.38859375 2.53578125 7.71859375 -0.10421875 8.05859375 -2.82421875 C19.60859375 -2.82421875 31.15859375 -2.82421875 43.05859375 -2.82421875 C43.05859375 34.79578125 43.05859375 72.41578125 43.05859375 111.17578125 C31.50859375 111.17578125 19.95859375 111.17578125 8.05859375 111.17578125 C7.56359375 107.21578125 7.56359375 107.21578125 7.05859375 103.17578125 C6.29289063 103.86414063 6.29289063 103.86414063 5.51171875 104.56640625 C-4.82512543 113.29040949 -17.57983354 116.19930005 -30.94140625 115.17578125 C-45.08658116 112.96885593 -57.93728581 107.09625064 -66.96875 95.59375 C-68.37651666 93.49038099 -69.70463104 91.38319017 -70.94140625 89.17578125 C-68.12219497 88.37855341 -65.60014601 88.04409767 -62.67382812 88.01806641 C-61.83775024 88.00780426 -61.00167236 87.99754211 -60.14025879 87.98696899 C-59.23932495 87.97966766 -58.33839111 87.97236633 -57.41015625 87.96484375 C-55.46353413 87.93671445 -53.5169197 87.90804983 -51.5703125 87.87890625 C-48.53239677 87.83816141 -45.49461487 87.80125128 -42.45654297 87.77441406 C-17.12609588 87.53177724 5.46596636 83.4764228 29.05859375 74.17578125 C28.10774902 74.34968384 28.10774902 74.34968384 27.13769531 74.52709961 C3.87942518 78.7533799 3.87942518 78.7533799 -5.94140625 79.17578125 C-5.19890625 78.45390625 -4.45640625 77.73203125 -3.69140625 76.98828125 C3.1298084 70.012039 7.0424247 63.07124015 7.05859375 53.17578125 C6.40778044 45.55534899 4.11916604 38.9042974 -1.61328125 33.640625 C-8.78368575 28.19936672 -16.09812851 27.25389515 -24.94140625 28.17578125 C-31.3287561 29.97435008 -37.59541411 33.38610164 -41.16015625 39.14453125 C-45.45627405 47.85951308 -45.6816274 56.04081905 -43.09765625 65.3359375 C-41.27212026 69.81960191 -38.42404165 72.89102286 -34.94140625 76.17578125 C-33.95140625 77.16578125 -32.96140625 78.15578125 -31.94140625 79.17578125 C-46.46140625 79.50578125 -60.98140625 79.83578125 -75.94140625 80.17578125 C-82.15913367 59.96816713 -83.15673481 41.84074556 -73.26538086 22.77490234 C-65.51643409 8.7685983 -53.42172303 -0.92951673 -38.05786133 -5.3684082 C-25.58349394 -8.05495151 -10.83942251 -6.72245725 0 0 Z " fill="#E41B2D" transform="translate(646.94140625,54.82421875)"/>
<path d="M0 0 C2.41699472 1.65727176 4.75693268 3.36296855 7.05859375 5.17578125 C7.38859375 2.53578125 7.71859375 -0.10421875 8.05859375 -2.82421875 C19.60859375 -2.82421875 31.15859375 -2.82421875 43.05859375 -2.82421875 C43.05859375 24.23578125 43.05859375 51.29578125 43.05859375 79.17578125 C25.89859375 79.50578125 8.73859375 79.83578125 -8.94140625 80.17578125 C-4.94140625 77.17578125 -4.94140625 77.17578125 -3.16015625 75.88671875 C2.98615539 71.10935834 5.74420156 65.38823559 6.93359375 57.73828125 C7.51779555 49.35498536 5.52926413 41.6398102 0.05859375 35.17578125 C-6.46247524 29.18797725 -13.18143464 27.69720371 -21.90625 27.859375 C-29.01828382 28.60078393 -35.02933497 32.03524154 -39.94140625 37.17578125 C-44.83976888 45.08852089 -45.76782492 53.28213006 -43.94140625 62.30078125 C-42.2919856 68.25403906 -39.38878241 71.99631931 -34.94140625 76.17578125 C-33.95140625 77.16578125 -33.95140625 77.16578125 -32.94140625 78.17578125 C-42.34802632 77.57299615 -51.61484756 76.50446112 -60.94140625 75.17578125 C-40.14934078 82.72727096 -19.75639279 87.15198507 2.39453125 87.45703125 C4.53125003 87.49478969 6.66796878 87.53255017 8.8046875 87.5703125 C12.135887 87.62409723 15.46710778 87.67630164 18.79833984 87.72802734 C22.03881331 87.77974965 25.2791574 87.8369526 28.51953125 87.89453125 C29.51745697 87.90810669 30.51538269 87.92168213 31.54354858 87.93566895 C32.93617416 87.96074524 32.93617416 87.96074524 34.35693359 87.98632812 C35.17060394 87.9988562 35.98427429 88.01138428 36.82260132 88.02429199 C39.05859375 88.17578125 39.05859375 88.17578125 43.05859375 89.17578125 C43.05859375 96.43578125 43.05859375 103.69578125 43.05859375 111.17578125 C31.50859375 111.17578125 19.95859375 111.17578125 8.05859375 111.17578125 C7.56359375 107.21578125 7.56359375 107.21578125 7.05859375 103.17578125 C6.29289062 103.86414063 6.29289062 103.86414063 5.51171875 104.56640625 C-4.82512543 113.29040949 -17.57983354 116.19930005 -30.94140625 115.17578125 C-46.21328973 112.79306724 -59.22892367 106.11996774 -68.65966797 93.56420898 C-79.62806071 78.02835342 -82.96999131 60.08956866 -79.94140625 41.48828125 C-76.87955292 25.14668801 -67.69742363 11.60620881 -54.41015625 1.7109375 C-38.63471936 -8.09878829 -16.08859842 -9.97792226 0 0 Z " fill="#E41B2D" transform="translate(403.94140625,54.82421875)"/>
<path d="M0 0 C13.06591016 10.09011463 20.58541649 23.55532458 23.375 39.8125 C24.30890944 47.56307558 23.96292871 55.26739067 23 63 C21.28012794 64.71987206 19.09122971 64.11974788 16.79867554 64.12442017 C15.68197983 64.11902725 15.68197983 64.11902725 14.54272461 64.11352539 C13.76229294 64.11367142 12.98186127 64.11381744 12.17778015 64.1139679 C9.5859402 64.11326858 6.99417122 64.10547536 4.40234375 64.09765625 C2.6101536 64.09579213 0.81796294 64.0943682 -0.97422791 64.09336853 C-5.70070797 64.08954284 -10.42715752 64.07971212 -15.15362549 64.06866455 C-19.9728555 64.05845153 -24.79209042 64.05387115 -29.61132812 64.04882812 C-39.07423219 64.03808989 -48.53711356 64.02101286 -58 64 C-57.22021696 65.29819659 -56.43387824 66.59245699 -55.64477539 67.88500977 C-55.20758682 68.6061647 -54.77039825 69.32731964 -54.31996155 70.07032776 C-52.67227561 72.47910536 -51.0497228 73.66091807 -48.4375 74.9375 C-47.69371094 75.31777344 -46.94992188 75.69804687 -46.18359375 76.08984375 C-38.07954498 79.46773886 -27.44731415 79.36383578 -19.3125 76.1875 C-16.86911375 75.08607718 -15.07179537 74.06233729 -13.04296875 72.30078125 C-11 71 -11 71 -8.73095703 71.22119141 C-5.55482659 72.12695362 -3.10191045 73.47426706 -0.26171875 75.16015625 C0.80498047 75.78857422 1.87167969 76.41699219 2.97070312 77.06445312 C4.07349609 77.72380859 5.17628906 78.38316406 6.3125 79.0625 C7.99569336 80.05733398 7.99569336 80.05733398 9.71289062 81.07226562 C12.4791287 82.70846602 15.2412485 84.35121864 18 86 C12.8467114 96.49014116 3.32225627 103.14345843 -7.4375 107.375 C-26.38132807 113.52630049 -46.89878901 112.16161111 -65 104 C-68.55104298 101.90579517 -71.77751447 99.56483542 -75 97 C-76.051875 96.236875 -77.10375 95.47375 -78.1875 94.6875 C-90.23858399 83.17201974 -95.8066727 66.99457194 -96.375 50.5625 C-95.70767612 32.57144825 -90.11905564 17.71865358 -77 5 C-76.43667969 4.42765625 -75.87335938 3.8553125 -75.29296875 3.265625 C-56.05613708 -14.89469297 -20.82167485 -15.36756232 0 0 Z M-55 29 C-57.77433354 33.23330846 -57.77433354 33.23330846 -59 38 C-43.49 38 -27.98 38 -12 38 C-13.33173042 31.34134791 -16.44055042 27.44329331 -22.04296875 23.59765625 C-33.22833388 17.87254222 -46.32775035 20.13065377 -55 29 Z " fill="#E41B2D" transform="translate(96,59)"/>
<path d="M0 0 C9.90336201 8.07692229 15.47214002 17.70595394 17.75 30.25 C18.26679808 36.42339014 18.10072039 42.6356799 18.04296875 48.82421875 C18.0373627 50.60211323 18.03309738 52.3800124 18.03010559 54.15791321 C18.01873615 58.80216619 17.98933846 63.44613075 17.95599365 68.090271 C17.91967813 73.68130281 17.90609393 79.2724319 17.88863373 84.86354828 C17.85969522 93.32589849 17.80215346 101.7876178 17.75 110.25 C6.2 110.25 -5.35 110.25 -17.25 110.25 C-17.27578125 105.30128906 -17.3015625 100.35257812 -17.328125 95.25390625 C-17.35331384 92.10476707 -17.37966222 88.95572201 -17.41015625 85.80664062 C-17.45836881 80.81648494 -17.50245915 75.82654732 -17.52099609 70.83618164 C-17.53622381 66.80938974 -17.57077611 62.7831712 -17.61830902 58.75663567 C-17.6330602 57.2262364 -17.6410374 55.69575524 -17.64188385 54.16528511 C-17.54239856 42.11486724 -17.54239856 42.11486724 -22.25 31.25 C-27.56209126 26.82325728 -32.21904347 25.93581099 -38.94140625 26.03515625 C-43.77472998 26.48495795 -47.22237221 28.45592398 -51 31.375 C-57.27668146 39.39520409 -56.71997893 49.05552913 -56.76171875 58.78515625 C-56.77859247 60.27446446 -56.79674628 61.76375866 -56.81611633 63.2530365 C-56.86333072 67.1441917 -56.89332367 71.03529009 -56.91955566 74.92663574 C-56.95478649 79.61089765 -57.01171674 84.29494151 -57.06494904 88.97902679 C-57.14312759 96.06932227 -57.19398552 103.15933894 -57.25 110.25 C-68.8 110.25 -80.35 110.25 -92.25 110.25 C-92.25 72.63 -92.25 35.01 -92.25 -3.75 C-80.7 -3.75 -69.15 -3.75 -57.25 -3.75 C-56.755 0.21 -56.755 0.21 -56.25 4.25 C-55.280625 3.3425 -54.31125 2.435 -53.3125 1.5 C-39.22783106 -10.58481737 -14.85820129 -10.29943498 0 0 Z " fill="#E41B2D" transform="translate(230.25,55.75)"/>
<path d="M0 0 C11.55 0 23.1 0 35 0 C35 54.78 35 109.56 35 166 C23.45 166 11.9 166 0 166 C0 111.22 0 56.44 0 0 Z " fill="#E41B2D" transform="translate(270,0)"/>
<path d="M0 0 C28.71 0 57.42 0 87 0 C87 27.57319425 87 27.57319425 79.83984375 35.125 C79.36401855 35.59292969 78.88819336 36.06085938 78.39794922 36.54296875 C76.01259661 39.02913438 74.1350291 41.8547304 72.1875 44.6875 C71.36243299 45.8554091 70.53555828 47.02204292 69.70703125 48.1875 C69.27600098 48.7959375 68.8449707 49.404375 68.40087891 50.03125 C65.74489074 53.76389004 63.05872258 57.47477728 60.375 61.1875 C59.86090576 61.8993042 59.34681152 62.6111084 58.81713867 63.34448242 C54.55723188 69.23882444 50.27756197 75.11835229 46 81 C67.78 81.495 67.78 81.495 90 82 C90 82.66 90 83.32 90 84 C89.31188232 84.1451001 88.62376465 84.2902002 87.91479492 84.43969727 C84.66905472 85.13291759 81.42776474 85.84410878 78.1875 86.5625 C77.00728271 86.82409912 75.82706543 87.08569824 74.61108398 87.35522461 C67.29425206 89.04524968 60.4927922 91.19567816 53.5625 94.0625 C45.84861101 97.12628575 41.75403127 97.29348522 34 94 C30.70656046 92.93546124 27.3838775 91.97324937 24.0625 91 C22.32938688 90.47669563 20.5963132 89.95326062 18.86328125 89.4296875 C13.28436391 87.76871386 7.67131768 86.3140858 2 85 C5.9629552 78.45193826 10.22500959 72.29046327 14.94799805 66.26757812 C20.57814287 59.04646606 25.76208233 51.50745135 31 44 C33.31 40.7 35.62 37.4 38 34 C25.46 33.67 12.92 33.34 0 33 C0 22.11 0 11.22 0 0 Z " fill="#E41B2D" transform="translate(470,52)"/>
<path d="M0 0 C4.1265242 0.67235655 8.25260329 1.34678906 12.37792969 2.02636719 C13.77812444 2.25640378 15.17851201 2.48527015 16.57910156 2.71289062 C23.79038439 3.88562421 30.94921442 5.05558233 38 7 C35.03786426 9.30465234 31.97847243 11.27590448 28.75 13.1875 C27.85796875 13.71730469 26.9659375 14.24710938 26.046875 14.79296875 C25.37140625 15.19128906 24.6959375 15.58960938 24 16 C24.52319824 15.81300537 25.04639648 15.62601074 25.58544922 15.43334961 C29.75525047 13.9658915 33.94096147 12.57057506 38.171875 11.2890625 C38.97206055 11.04623535 39.77224609 10.8034082 40.59667969 10.55322266 C45.04545628 9.52915442 48.64621632 9.75967791 53 11 C53.67933594 11.18626953 54.35867188 11.37253906 55.05859375 11.56445312 C60.07522521 12.94762217 65.02399728 14.45980868 70 16 C64.72 13.36 59.44 10.72 54 8 C56.98206146 6.01195902 58.71487824 5.46686459 62.15625 4.74609375 C63.17976562 4.53146484 64.20328125 4.31683594 65.2578125 4.09570312 C66.32773437 3.87849609 67.39765625 3.66128906 68.5 3.4375 C69.53898438 3.21642578 70.57796875 2.99535156 71.6484375 2.76757812 C78.43390188 1.36733579 85.09013169 0.50908798 92 0 C92 6.93 92 13.86 92 21 C61.64 21 31.28 21 0 21 C0 14.07 0 7.14 0 0 Z " fill="#E41B2D" transform="translate(468,145)"/>
</svg>
