<?xml version="1.0" encoding="UTF-8"?>
<svg version="1.1" xmlns="http://www.w3.org/2000/svg" width="500" height="154">
<path d="M0 0 C0.99 0.66 1.98 1.32 3 2 C3.66 0.68 4.32 -0.64 5 -2 C11.27 -2 17.54 -2 24 -2 C23.32289322 13.10615699 21.36154437 28.00892143 19.4375 43 C19.10435679 45.62494154 18.77167079 48.24994116 18.43945312 50.875 C17.63157177 57.25068172 16.81750721 63.62554569 16 70 C9.4 70 2.8 70 -4 70 C-4 68.35 -4 66.7 -4 65 C-4.7425 65.598125 -5.485 66.19625 -6.25 66.8125 C-13.28355421 71.44637101 -22.10178006 72.75606037 -30.3359375 71.62890625 C-38.88629315 69.61042053 -45.10788832 65.27311284 -50 58 C-55.19399617 48.51462285 -56.45408058 39.03647394 -53.8125 28.5 C-50.29699912 17.03430677 -44.73055203 7.9121216 -34.375 1.33203125 C-22.19272541 -5.00052307 -12.50250514 -5.61587936 0 0 Z M-29.375 22.375 C-33.31614238 27.42994349 -34.47695483 32.35118265 -34.31640625 38.6875 C-33.62713156 43.72516197 -31.57540066 47.68006972 -27.6875 50.9375 C-21.83794621 53.25011429 -17.56159853 53.39958778 -11.8515625 50.94140625 C-5.70108646 47.81426548 -2.64250882 43.38002351 -0.25 37 C0.5171547 30.8627624 0.03548193 26.46386748 -3 21 C-6.84182264 16.79228949 -10.11366871 15.11838056 -15.69921875 14.80859375 C-21.45894685 15.28775619 -25.54788874 18.20502405 -29.375 22.375 Z " fill="#FF5C08" transform="translate(457,69)"/>
<path d="M0 0 C0.66 -1.32 1.32 -2.64 2 -4 C8.27 -4 14.54 -4 21 -4 C20.32289322 11.10615699 18.36154437 26.00892143 16.4375 41 C16.10435679 43.62494154 15.77167079 46.24994116 15.43945312 48.875 C14.63157177 55.25068172 13.81750721 61.62554569 13 68 C6.4 68 -0.2 68 -7 68 C-7.33 66.68 -7.66 65.36 -8 64 C-9.134375 64.61875 -10.26875 65.2375 -11.4375 65.875 C-20.27430541 70.23139004 -29.21344391 71.29851243 -38.67578125 68.09375 C-47.47345466 64.14213948 -52.75411768 57.89830686 -56.2890625 49.015625 C-59.93492138 38.67901412 -58.27384399 27.16678027 -53.78125 17.33203125 C-47.82944534 6.66838123 -38.87941739 -1.87805458 -27 -5.3125 C-17.20719524 -7.30196527 -8.3884838 -5.59232254 0 0 Z M-32.375 20.375 C-36.49227782 25.66704459 -37.54090829 30.84207672 -37.37109375 37.46484375 C-36.73730287 41.7946362 -35.05377803 44.88678104 -32 48 C-27.77546924 50.95061461 -23.89131453 51.26941967 -18.875 50.5 C-12.56619434 48.90344642 -9.52751255 46.10549028 -5.6875 40.8125 C-2.75585439 35.1462942 -2.13313743 28.77417954 -4.0625 22.6875 C-5.88971685 18.63976403 -8.17418154 16.33800017 -12 14 C-20.30015228 11.3869891 -26.66355784 14.151879 -32.375 20.375 Z " fill="#FF5D09" transform="translate(317,71)"/>
<path d="M0 0 C6.5464214 5.02172069 10.5652082 12.67162332 12.015625 20.71484375 C12.30218242 27.22271363 12.29582898 33.31382387 11.015625 39.71484375 C-6.474375 40.04484375 -23.964375 40.37484375 -41.984375 40.71484375 C-38.96951812 48.50243371 -38.96951812 48.50243371 -34.734375 50.71484375 C-27.60951954 52.61480521 -23.1499015 52.27306366 -16.74609375 48.8828125 C-14.92906004 47.79580467 -14.92906004 47.79580467 -13.66601562 46.16015625 C-11.44853632 44.25430876 -10.20815983 44.36661856 -7.31640625 44.421875 C-6.42373047 44.43154297 -5.53105469 44.44121094 -4.61132812 44.45117188 C-3.21817383 44.48887695 -3.21817383 44.48887695 -1.796875 44.52734375 C-0.85650391 44.54087891 0.08386719 44.55441406 1.05273438 44.56835938 C3.37427538 44.60371279 5.69466153 44.65305701 8.015625 44.71484375 C7.10155276 51.83698996 2.1447519 57.107238 -3.234375 61.58984375 C-13.93651307 69.02188407 -25.69813133 71.39832807 -38.5859375 69.2890625 C-46.50247686 67.00921106 -53.55778154 61.50358162 -57.98828125 54.57421875 C-62.84945478 45.50002815 -63.48610811 35.4714048 -60.859375 25.52734375 C-56.28217349 12.39183988 -47.36621365 2.89531857 -35.04296875 -3.25390625 C-23.78828061 -7.86683346 -10.08576093 -6.53191997 0 0 Z M-37.984375 18.83984375 C-40.17472983 21.40477358 -40.17472983 21.40477358 -39.984375 23.71484375 C-29.094375 23.71484375 -18.204375 23.71484375 -6.984375 23.71484375 C-9.18831835 17.1030137 -9.76418588 16.44355027 -14.984375 12.71484375 C-23.68700272 9.81396784 -31.93573325 11.90769253 -37.984375 18.83984375 Z " fill="#FF5E0D" transform="translate(74.984375,70.28515625)"/>
<path d="M0 0 C7.27396462 3.96471039 10.25820047 9.41132015 12.77734375 16.96875 C13.7369726 28.4528329 12.24830221 39.8371459 10.83984375 51.21875 C10.7485318 51.95683899 10.65721985 52.69492798 10.56314087 53.4553833 C9.78758145 59.66244239 9.00491082 65.83091467 7.77734375 71.96875 C0.84734375 71.96875 -6.08265625 71.96875 -13.22265625 71.96875 C-12.66384766 67.56015625 -12.66384766 67.56015625 -12.09375 63.0625 C-11.73731633 60.19657275 -11.38424699 57.33024954 -11.03149414 54.46386719 C-10.78565695 52.48100676 -10.5363567 50.49857235 -10.28344727 48.51660156 C-9.9192947 45.657968 -9.567867 42.79800401 -9.21875 39.9375 C-9.10421982 39.06009155 -8.98968964 38.18268311 -8.87168884 37.27868652 C-7.7855313 28.3904574 -7.7855313 28.3904574 -10.34765625 20.03125 C-13.89412139 18.02158642 -17.30508489 17.66465753 -21.31640625 18.30078125 C-24.28994176 19.16066559 -26.54380919 20.04949905 -28.41902161 22.58879089 C-31.01452175 27.82637505 -32.07066801 32.60455813 -32.671875 38.39453125 C-32.77482376 39.26393845 -32.87777252 40.13334564 -32.98384094 41.02909851 C-33.30675847 43.77840155 -33.60922842 46.52946164 -33.91015625 49.28125 C-34.22594821 52.05026203 -34.54594916 54.81873981 -34.86860657 57.58695984 C-35.0671836 59.30255551 -35.26104108 61.01870561 -35.44963074 62.73542786 C-35.81163166 65.95489467 -36.19488382 68.8854327 -37.22265625 71.96875 C-43.82265625 71.96875 -50.42265625 71.96875 -57.22265625 71.96875 C-56.615179 62.65693865 -55.77368449 53.42789525 -54.62890625 44.16796875 C-54.47732056 42.92497513 -54.32573486 41.68198151 -54.16955566 40.40132141 C-53.85194133 37.80549869 -53.53254851 35.20989299 -53.21142578 32.61450195 C-52.80015855 29.28389476 -52.39415934 25.95273848 -51.99103546 22.62114239 C-51.60355594 19.42791796 -51.20967534 16.23548452 -50.81640625 13.04296875 C-50.67158813 11.84524338 -50.52677002 10.64751801 -50.37756348 9.41349792 C-50.17230042 7.76961845 -50.17230042 7.76961845 -49.96289062 6.0925293 C-49.84377319 5.1243779 -49.72465576 4.1562265 -49.60192871 3.15873718 C-49.22265625 0.96875 -49.22265625 0.96875 -48.22265625 -0.03125 C-46.80695502 -0.11776611 -45.38706125 -0.13829904 -43.96875 -0.12890625 C-42.68774414 -0.12407227 -42.68774414 -0.12407227 -41.38085938 -0.11914062 C-40.48302734 -0.11076172 -39.58519531 -0.10238281 -38.66015625 -0.09375 C-37.75845703 -0.08923828 -36.85675781 -0.08472656 -35.92773438 -0.08007812 C-33.69264311 -0.06825225 -31.45768188 -0.0517722 -29.22265625 -0.03125 C-28.89265625 0.95875 -28.56265625 1.94875 -28.22265625 2.96875 C-27.67996094 2.69160156 -27.13726562 2.41445312 -26.578125 2.12890625 C-25.86269531 1.76667969 -25.14726563 1.40445313 -24.41015625 1.03125 C-23.70246094 0.67160156 -22.99476562 0.31195313 -22.265625 -0.05859375 C-15.3262945 -3.36240502 -6.99388824 -3.08932487 0 0 Z " fill="#FF5E0C" transform="translate(145.22265625,67.03125)"/>
<path d="M0 0 C6.93 0 13.86 0 21 0 C27.23861152 26.72205266 27.23861152 26.72205266 29.79394531 39.38598633 C30.55594585 43.30299331 30.55594585 43.30299331 32 47 C32.48879639 45.93152832 32.97759277 44.86305664 33.48120117 43.76220703 C35.31522222 39.75440376 37.15154566 35.74765884 38.98852539 31.74121094 C39.77950722 30.0152567 40.56988505 28.28902551 41.35961914 26.5625 C45.44182042 17.63897843 49.52466315 8.73542704 54 0 C60.93 0 67.86 0 75 0 C73.39802091 4.00494773 71.68350331 7.75974322 69.75952148 11.61035156 C69.4389679 12.25321106 69.11841431 12.89607056 68.78814697 13.55841064 C67.73446462 15.67015538 66.67788315 17.78043364 65.62109375 19.890625 C64.88636266 21.36076102 64.15175033 22.83095639 63.41725159 24.3012085 C61.88111141 27.37496034 60.34353193 30.4479867 58.80493164 33.52050781 C56.82935826 37.46593951 54.85740091 41.41316568 52.88650417 45.36093521 C51.3721302 48.39328813 49.8558606 51.42469 48.33900642 54.45580292 C47.61076126 55.91162473 46.8831134 57.36774549 46.15606499 58.82416534 C45.14299918 60.85282435 44.12739458 62.88019162 43.11108398 64.90722656 C42.53309555 66.06240784 41.95510712 67.21758911 41.35960388 68.40777588 C40 71 40 71 39 72 C37.43827255 72.08685603 35.87270656 72.10702219 34.30859375 72.09765625 C33.45837646 72.09515869 32.60815918 72.09266113 31.73217773 72.09008789 C30.64493408 72.08098389 29.55769043 72.07187988 28.4375 72.0625 C26.57560428 72.05101163 24.71370629 72.03988539 22.85180664 72.02905273 C21.23453776 72.01936849 19.61726888 72.00968424 18 72 C13.88982656 57.91311351 10.04315438 43.77493357 6.42041016 29.55493164 C5.61020854 26.37952818 4.79158392 23.20636603 3.97265625 20.03320312 C3.45262112 18.00012882 2.93307071 15.96693045 2.4140625 13.93359375 C2.04856796 12.52127724 2.04856796 12.52127724 1.6756897 11.08042908 C1.45480682 10.20753738 1.23392395 9.33464569 1.00634766 8.43530273 C0.71372543 7.29121193 0.71372543 7.29121193 0.41519165 6.12400818 C0 4 0 4 0 0 Z " fill="#FF5E0C" transform="translate(159,67)"/>
<path d="M0 0 C6.6 0 13.2 0 20 0 C19.29556439 11.684519 17.95485765 23.22598677 16.49609375 34.8359375 C16.25058368 36.81129084 16.0053958 38.78668424 15.76051331 40.76211548 C15.12092718 45.91458721 14.47701949 51.06650956 13.83215332 56.21832275 C13.17255683 61.49417662 12.51712756 66.77054805 11.86132812 72.046875 C10.57825413 82.3650898 9.29022009 92.68267633 8 103 C1.07 103 -5.86 103 -13 103 C-10.83515015 82.95747318 -8.45161963 62.94604059 -5.98339844 42.93896484 C-5.46801932 38.76021245 -4.95705719 34.58093168 -4.44705772 30.40151978 C-4.04940904 27.1482749 -3.64896115 23.89537919 -3.24769974 20.64257812 C-3.057722 19.09891958 -2.86874171 17.55513793 -2.68079758 16.01123047 C-2.42083164 13.87820652 -2.15696715 11.74570008 -1.89208984 9.61328125 C-1.74347504 8.40454346 -1.59486023 7.19580566 -1.44174194 5.95043945 C-1 3 -1 3 0 0 Z " fill="#FF5D0A" transform="translate(353,36)"/>
<path d="M0 0 C6.6 0 13.2 0 20 0 C19.32289322 15.10615699 17.36154437 30.00892143 15.4375 45 C15.10435679 47.62494154 14.77167079 50.24994116 14.43945312 52.875 C13.63157177 59.25068172 12.81750721 65.62554569 12 72 C5.07 72 -1.86 72 -9 72 C-7.34289386 56.60103809 -5.574063 41.21738634 -3.71151733 25.8420105 C-3.4873722 23.99065342 -3.26408368 22.13919243 -3.04165649 20.28762817 C-2.72575253 17.66147227 -2.40637166 15.03576279 -2.0859375 12.41015625 C-1.99123672 11.61955811 -1.89653595 10.82895996 -1.79896545 10.0144043 C-1.37703273 6.58876447 -0.83890468 3.35561872 0 0 Z " fill="#FF5E0C" transform="translate(237,67)"/>
<path d="M0 0 C6.6 0 13.2 0 20 0 C20 5.58993636 19.96654271 10.38377126 19.265625 15.80493164 C19.10545898 17.06555923 18.94529297 18.32618683 18.78027344 19.62501526 C18.60363834 20.97007838 18.42687768 22.31512501 18.25 23.66015625 C18.07014372 25.05970524 17.89079018 26.45931893 17.71191406 27.85899353 C17.24344129 31.51411711 16.76821582 35.16833082 16.29150391 38.8223877 C15.8047803 42.56269963 15.32455141 46.3038449 14.84375 50.04492188 C13.90213177 57.36410751 12.95276695 64.6822557 12 72 C5.07 72 -1.86 72 -9 72 C-7.97632139 63.35038529 -6.95094671 54.70097625 -5.92260075 46.05191517 C-5.44514558 42.03562979 -4.96842863 38.01925968 -4.4934082 34.00268555 C-4.03479852 30.12510812 -3.5742374 26.24776699 -3.1123333 22.37058067 C-2.93661697 20.89272973 -2.76159906 19.41479558 -2.58729744 17.93677711 C-2.34269088 15.86363137 -2.09558298 13.79079776 -1.84790039 11.71801758 C-1.70800186 10.53887283 -1.56810333 9.35972809 -1.42396545 8.14485168 C-1.05573564 5.41343065 -0.54052162 2.70260808 0 0 Z " fill="#FF5E0C" transform="translate(380,67)"/>
<path d="M0 0 C7.10982933 0.5170785 13.58649832 2.08848386 19.125 6.8125 C20.58412203 10.46030508 20.24907408 12.25277777 19 16 C3.7997662 34.49063735 -28.04442175 38.94152273 -50.4375 41.25 C-63.91977868 42.4914145 -78.93915576 43.35361475 -92 39 C-92 38.34 -92 37.68 -92 37 C-90.70642578 37.03480469 -90.70642578 37.03480469 -89.38671875 37.0703125 C-60.37443784 37.49921634 -23.69909677 32.76892077 -1 13 C1.02766854 9.82331928 2.0939524 8.03347635 1.75 4.25 C1.05892557 2 1.05892557 2 0 0 Z " fill="#FF6215" transform="translate(331,16)"/>
<path d="M0 0 C6.6 0 13.2 0 20 0 C19.855625 2.3925 19.71125 4.785 19.5625 7.25 C19.49784546 8.37003418 19.49784546 8.37003418 19.43188477 9.51269531 C19.22036831 12.83793079 18.81233611 15.75065557 18 19 C11.4 19 4.8 19 -2 19 C-1.855625 16.6075 -1.71125 14.215 -1.5625 11.75 C-1.51939697 11.00331055 -1.47629395 10.25662109 -1.43188477 9.48730469 C-1.22036831 6.16206921 -0.81233611 3.24934443 0 0 Z " fill="#FF6317" transform="translate(384,36)"/>
<path d="M0 0 C-0.99 0 -1.98 0 -3 0 C-3.33 0.66 -3.66 1.32 -4 2 C-5.65 2 -7.3 2 -9 2 C-8.505 2.99 -8.505 2.99 -8 4 C-6.10466658 4.46523063 -6.10466658 4.46523063 -3.9375 4.625 C-2.638125 4.74875 -1.33875 4.8725 0 5 C0 5.33 0 5.66 0 6 C-14.20783877 7.43358373 -30.19117373 8.60294209 -44 4 C-44 3.34 -44 2.68 -44 2 C-43.13761719 2.02320313 -42.27523437 2.04640625 -41.38671875 2.0703125 C-29.71199604 2.24290608 -18.10338971 1.41089947 -6.58984375 -0.59375 C-4.00126208 -0.99980203 -2.45227786 -0.84886541 0 0 Z " fill="#FF9661" transform="translate(283,51)"/>
<path d="M0 0 C0.33 0 0.66 0 1 0 C0.29756498 12.4016114 -1.40000138 24.68919219 -3 37 C-3.33 37 -3.66 37 -4 37 C-4.19406478 35.35492782 -4.38007935 33.70890406 -4.5625 32.0625 C-4.66691406 31.14597656 -4.77132812 30.22945312 -4.87890625 29.28515625 C-4.91886719 28.53105469 -4.95882812 27.77695313 -5 27 C-4.67 26.67 -4.34 26.34 -4 26 C-3.92851801 24.64756083 -3.91600546 23.29165633 -3.9375 21.9375 C-3.958125 20.638125 -3.97875 19.33875 -4 18 C-3.67 18 -3.34 18 -3 18 C-3.020625 16.9275 -3.04125 15.855 -3.0625 14.75 C-3.01273132 11.76387944 -2.80944356 9.78808337 -2 7 C-1.835 5.948125 -1.67 4.89625 -1.5 3.8125 C-1 1 -1 1 0 0 Z " fill="#FF8753" transform="translate(113,91)"/>
<path d="M0 0 C0.66 0.66 1.32 1.32 2 2 C0.35 2.33 -1.3 2.66 -3 3 C-3 2.34 -3 1.68 -3 1 C-2.01 0.67 -1.02 0.34 0 0 Z M-4 2 C-3.34 2.66 -2.68 3.32 -2 4 C0.21072977 4.24253813 0.21072977 4.24253813 2.625 4.125 C3.44226563 4.10695312 4.25953125 4.08890625 5.1015625 4.0703125 C5.72804688 4.04710937 6.35453125 4.02390625 7 4 C7 4.33 7 4.66 7 5 C2.14270355 5.97299156 -2.4500625 6.12038805 -7.375 6.0625 C-8.11105469 6.05798828 -8.84710938 6.05347656 -9.60546875 6.04882812 C-11.40368158 6.03715142 -13.20185197 6.01922011 -15 6 C-15.33 5.01 -15.66 4.02 -16 3 C-7.63741339 1.68822171 -7.63741339 1.68822171 -4 2 Z " fill="#FF4800" transform="translate(283,50)"/>
<path d="M0 0 C13.365 0.495 13.365 0.495 27 1 C27 1.33 27 1.66 27 2 C21.89259717 3.03628463 16.99717539 3.15022956 11.8125 3.125 C10.60303711 3.13080078 10.60303711 3.13080078 9.36914062 3.13671875 C8.59376953 3.13542969 7.81839844 3.13414063 7.01953125 3.1328125 C6.31932861 3.13168457 5.61912598 3.13055664 4.89770508 3.12939453 C3 3 3 3 0 2 C0 1.34 0 0.68 0 0 Z " fill="#FF4807" transform="translate(239,53)"/>
<path d="M0 0 C0.33 0 0.66 0 1 0 C0.67 4.62 0.34 9.24 0 14 C-6.93 14 -13.86 14 -21 14 C-20.67 13.01 -20.34 12.02 -20 11 C-20 11.66 -20 12.32 -20 13 C-13.73 13 -7.46 13 -1 13 C-1.33 10.36 -1.66 7.72 -2 5 C-1.0625 2 -1.0625 2 0 0 Z " fill="#FFA375" transform="translate(361,125)"/>
<path d="M0 0 C6.27 0 12.54 0 19 0 C19 2.64 19 5.28 19 8 C18.67 8 18.34 8 18 8 C18 5.69 18 3.38 18 1 C10.08 1.495 10.08 1.495 2 2 C1.67 3.65 1.34 5.3 1 7 C0.01 7.33 -0.98 7.66 -2 8 C-1.47731534 5.23723823 -0.89130413 2.6739124 0 0 Z " fill="#FF8A58" transform="translate(462,67)"/>
<path d="M0 0 C6.6 0 13.2 0 20 0 C18.875 5.625 18.875 5.625 16 8 C16.33 6.02 16.66 4.04 17 2 C11.39 1.67 5.78 1.34 0 1 C0 0.67 0 0.34 0 0 Z " fill="#FF7843" transform="translate(63,115)"/>
<path d="M0 0 C1.32 0.66 2.64 1.32 4 2 C-3.04335384 3.96290189 -8.77466796 3.99939172 -16 3 C-16 2.67 -16 2.34 -16 2 C-10.47032059 1.28966569 -5.50016964 0.69732824 0 2 C0 1.34 0 0.68 0 0 Z " fill="#FF8C55" transform="translate(440,137)"/>
<path d="M0 0 C0.33 0 0.66 0 1 0 C0.03644647 15.74487472 0.03644647 15.74487472 -1 23 C-1.33 23 -1.66 23 -2 23 C-2.33 19.7 -2.66 16.4 -3 13 C-2.34 13 -1.68 13 -1 13 C-1.20625 11.783125 -1.4125 10.56625 -1.625 9.3125 C-2.09963844 5.65193227 -1.76581384 3.32388488 0 0 Z " fill="#FF9969" transform="translate(399,69)"/>
<path d="M0 0 C6.93 0 13.86 0 21 0 C20.67 0.66 20.34 1.32 20 2 C14.06 2 8.12 2 2 2 C2.33 2.66 2.66 3.32 3 4 C2.0625 6.125 2.0625 6.125 1 8 C0.67 5.36 0.34 2.72 0 0 Z " fill="#FF8C5B" transform="translate(159,67)"/>
<path d="M0 0 C0.33 0 0.66 0 1 0 C0.5140207 7.3620694 0.02325928 14.69100518 -1 22 C-1.33 22 -1.66 22 -2 22 C-2.33 18.37 -2.66 14.74 -3 11 C-2.67 11 -2.34 11 -2 11 C-2.04125 9.9275 -2.0825 8.855 -2.125 7.75 C-2.0114175 4.34252515 -1.78726636 2.79260369 0 0 Z " fill="#FF9C6D" transform="translate(475,110)"/>
<path d="M0 0 C0.33 0 0.66 0 1 0 C0.85775413 2.52108103 0.71129879 5.04180403 0.5625 7.5625 C0.52318359 8.26697266 0.48386719 8.97144531 0.44335938 9.69726562 C0.17481721 14.1798541 -0.30616197 18.56293497 -1 23 C-1.33 23 -1.66 23 -2 23 C-2.19412181 21.52168779 -2.38012131 20.04230684 -2.5625 18.5625 C-2.66691406 17.73878906 -2.77132812 16.91507813 -2.87890625 16.06640625 C-2.91886719 15.38449219 -2.95882812 14.70257813 -3 14 C-2.67 13.67 -2.34 13.34 -2 13 C-1.92851801 11.64756083 -1.91600546 10.29165633 -1.9375 8.9375 C-1.958125 7.638125 -1.97875 6.33875 -2 5 C-1.67 5 -1.34 5 -1 5 C-0.67 3.35 -0.34 1.7 0 0 Z " fill="#FF9666" transform="translate(253,92)"/>
<path d="M0 0 C1.25180279 4.21919103 0.67252421 7.96088565 0.0625 12.25 C-0.03740234 12.99507812 -0.13730469 13.74015625 -0.24023438 14.5078125 C-0.48680156 16.33945442 -0.74250391 18.16986251 -1 20 C-1.33 20 -1.66 20 -2 20 C-2.19406478 18.35492782 -2.38007935 16.70890406 -2.5625 15.0625 C-2.66691406 14.14597656 -2.77132813 13.22945312 -2.87890625 12.28515625 C-2.91886719 11.53105469 -2.95882813 10.77695313 -3 10 C-2.67 9.67 -2.34 9.34 -2 9 C-1.92851801 7.64756083 -1.91600546 6.29165633 -1.9375 4.9375 C-1.958125 3.638125 -1.97875 2.33875 -2 1 C-1.34 0.67 -0.68 0.34 0 0 Z " fill="#FF9B6C" transform="translate(364,104)"/>
<path d="M0 0 C0.66 0.33 1.32 0.66 2 1 C0 4 0 4 -3 5 C-4.38576923 6.62332967 -5.72641268 8.28724465 -7 10 C-7.99 9.67 -8.98 9.34 -10 9 C-8.89902432 7.87187697 -7.79408444 6.74762189 -6.6875 5.625 C-6.07261719 4.99851562 -5.45773437 4.37203125 -4.82421875 3.7265625 C-3 2 -3 2 0 0 Z " fill="#FF6B37" transform="translate(423,70)"/>
<path d="M0 0 C0.99 0.33 1.98 0.66 3 1 C1.71451591 2.33929505 0.42141845 3.67128643 -0.875 5 C-1.59429687 5.7425 -2.31359375 6.485 -3.0546875 7.25 C-5 9 -5 9 -7 9 C-5.44499019 5.18315774 -2.96404505 2.80804268 0 0 Z " fill="#FF5E25" transform="translate(274,75)"/>
<path d="M0 0 C0 0.33 0 0.66 0 1 C-11.52164009 2.33257403 -11.52164009 2.33257403 -17 1 C-17 0.67 -17 0.34 -17 0 C-11.06975197 -0.97040422 -5.93609666 -0.89316269 0 0 Z " fill="#FF9460" transform="translate(298,139)"/>
<path d="M0 0 C-0.33 0.99 -0.66 1.98 -1 3 C-3.06640625 3.94921875 -3.06640625 3.94921875 -5.5625 4.6875 C-6.38878906 4.93886719 -7.21507812 5.19023438 -8.06640625 5.44921875 C-8.70449219 5.63097656 -9.34257812 5.81273437 -10 6 C-10.33 5.34 -10.66 4.68 -11 4 C-9.5437455 3.32880451 -8.08492133 2.66318193 -6.625 2 C-5.81289063 1.62875 -5.00078125 1.2575 -4.1640625 0.875 C-2 0 -2 0 0 0 Z " fill="#FF713E" transform="translate(337,40)"/>
<path d="M0 0 C0.33 0 0.66 0 1 0 C1.144375 0.928125 1.28875 1.85625 1.4375 2.8125 C1.92100111 6.00725111 1.92100111 6.00725111 3 9 C2.72428861 11.00875442 2.39764263 13.01178687 2 15 C1.67 15 1.34 15 1 15 C-0.32286246 10.03926578 -0.08893197 5.08888488 0 0 Z " fill="#FFAC83" transform="translate(402,103)"/>
<path d="M0 0 C0.33 0 0.66 0 1 0 C1.06058594 0.67546875 1.12117188 1.3509375 1.18359375 2.046875 C1.26738281 2.93890625 1.35117187 3.8309375 1.4375 4.75 C1.51871094 5.63171875 1.59992188 6.5134375 1.68359375 7.421875 C1.96238465 9.69350452 2.38790577 11.79851823 3 14 C2.01 13.67 1.02 13.34 0 13 C0 8.71 0 4.42 0 0 Z " fill="#FF8F63" transform="translate(279,101)"/>
<path d="M0 0 C0.33 0 0.66 0 1 0 C0.67 4.62 0.34 9.24 0 14 C-0.33 14 -0.66 14 -1 14 C-1.22226864 12.23086176 -1.42733873 10.45955629 -1.625 8.6875 C-1.74101562 7.70136719 -1.85703125 6.71523437 -1.9765625 5.69921875 C-2 3 -2 3 0 0 Z " fill="#FF9D70" transform="translate(334,93)"/>
<path d="M0 0 C2.08995502 3.44227886 2.08995502 3.44227886 1.6875 5.9375 C1.460625 6.618125 1.23375 7.29875 1 8 C0.65939189 9.66519519 0.32441604 11.33157466 0 13 C-0.33 13 -0.66 13 -1 13 C-1.07654536 8.48382401 -1.10228696 4.40914783 0 0 Z " fill="#FF8348" transform="translate(138,92)"/>
<path d="M0 0 C0.33 0 0.66 0 1 0 C0.67 4.62 0.34 9.24 0 14 C-0.33 14 -0.66 14 -1 14 C-1.22331199 12.41870971 -1.42804644 10.83478911 -1.625 9.25 C-1.74101562 8.36828125 -1.85703125 7.4865625 -1.9765625 6.578125 C-2.00207817 3.77140122 -1.44843844 2.36615134 0 0 Z " fill="#FF9E72" transform="translate(369,61)"/>
<path d="M0 0 C6.15234375 0.5859375 6.15234375 0.5859375 8 1 C8.33 1.66 8.66 2.32 9 3 C6.03 2.67 3.06 2.34 0 2 C0 1.34 0 0.68 0 0 Z " fill="#FFA377" transform="translate(239,53)"/>
<path d="M0 0 C0.33 0 0.66 0 1 0 C0.67 4.95 0.34 9.9 0 15 C-0.33 15 -0.66 15 -1 15 C-1.91457003 9.43842552 -2.32086397 5.324335 0 0 Z " fill="#FF9C6D" transform="translate(394,109)"/>
<path d="M0 0 C0.33 0 0.66 0 1 0 C0.67 4.62 0.34 9.24 0 14 C-0.33 14 -0.66 14 -1 14 C-1.33 10.7 -1.66 7.4 -2 4 C-1.34 4 -0.68 4 0 4 C0 2.68 0 1.36 0 0 Z " fill="#FF9F71" transform="translate(332,109)"/>
<path d="M0 0 C1.41623216 -0.05447047 2.83308191 -0.09300508 4.25 -0.125 C5.03890625 -0.14820312 5.8278125 -0.17140625 6.640625 -0.1953125 C9.20731941 0.0171622 10.7916067 0.71345895 13 2 C10.69 2.33 8.38 2.66 6 3 C6 2.34 6 1.68 6 1 C4.02 1 2.04 1 0 1 C0 0.67 0 0.34 0 0 Z " fill="#FFAA7F" transform="translate(437,65)"/>
<path d="M0 0 C1.41623216 -0.05447047 2.83308191 -0.09300508 4.25 -0.125 C5.03890625 -0.14820312 5.8278125 -0.17140625 6.640625 -0.1953125 C9.20731941 0.0171622 10.7916067 0.71345895 13 2 C10.69 2.33 8.38 2.66 6 3 C6 2.34 6 1.68 6 1 C4.02 1 2.04 1 0 1 C0 0.67 0 0.34 0 0 Z " fill="#FFAB81" transform="translate(294,65)"/>
<path d="M0 0 C1.53166168 4.08443115 0.63081652 7.79455657 0 12 C-0.33 12 -0.66 12 -1 12 C-1.33 8.37 -1.66 4.74 -2 1 C-1.34 0.67 -0.68 0.34 0 0 Z " fill="#FF9F73" transform="translate(250,120)"/>
</svg>
