<?xml version="1.0" standalone="no"?>
<!DOCTYPE svg PUBLIC "-//W3C//DTD SVG 20010904//EN"
 "http://www.w3.org/TR/2001/REC-SVG-20010904/DTD/svg10.dtd">
<svg version="1.0" xmlns="http://www.w3.org/2000/svg"
 width="600.000000pt" height="268.000000pt" viewBox="0 0 600.000000 268.000000"
 preserveAspectRatio="xMidYMid meet">

<g transform="translate(0.000000,268.000000) scale(0.100000,-0.100000)"
fill="#000000" stroke="none">
<path d="M1895 2005 c-203 -32 -370 -154 -454 -330 -45 -95 -56 -150 -56 -270
1 -103 3 -114 33 -176 94 -194 317 -271 592 -202 69 17 165 57 175 72 3 5 -2
29 -12 53 -31 77 -19 301 18 342 20 22 2 26 -126 26 l-135 0 -6 -25 c-3 -14
-7 -49 -8 -78 l-1 -52 63 -3 c70 -3 68 0 50 -97 l-11 -63 -45 -13 c-61 -17
-179 -15 -222 4 -144 63 -181 255 -86 450 31 63 81 114 151 153 45 24 60 28
145 28 97 1 138 -9 192 -46 50 -34 80 -25 141 44 l55 62 -27 24 c-98 87 -260
124 -426 97z"/>
<path d="M4420 1938 c-1 -2 -7 -39 -15 -83 -8 -44 -15 -83 -15 -87 0 -5 45 -8
99 -8 l100 0 10 53 c5 28 12 69 16 90 l6 37 -101 0 c-55 0 -100 -1 -100 -2z"/>
<path d="M2527 1719 c-181 -43 -316 -225 -317 -426 0 -119 53 -214 147 -260
53 -25 68 -28 158 -27 78 1 113 6 156 23 62 24 149 78 149 92 0 15 -50 87 -64
92 -7 3 -45 -8 -85 -24 -86 -35 -152 -38 -198 -9 -40 24 -54 50 -56 103 l-2
42 220 5 c121 4 221 7 222 8 25 33 31 193 9 246 -48 115 -188 171 -339 135z
m118 -143 c40 -17 55 -42 55 -90 l0 -36 -130 0 c-71 0 -130 3 -130 6 0 18 47
86 69 100 51 34 89 39 136 20z"/>
<path d="M3294 1712 c-28 -10 -63 -28 -79 -40 -36 -28 -45 -28 -45 3 0 35 -29
46 -108 43 l-67 -3 -17 -100 c-9 -55 -35 -206 -57 -336 -23 -129 -41 -243 -41
-252 0 -15 13 -17 99 -17 l99 0 6 28 c3 15 22 124 41 242 20 118 40 222 44
230 23 44 135 75 181 50 33 -18 32 -61 -9 -303 -23 -130 -41 -238 -41 -241 0
-3 45 -6 100 -6 72 0 102 4 105 13 3 6 23 120 46 252 44 262 45 318 6 376 -49
73 -157 98 -263 61z"/>
<path d="M3915 1716 c-112 -28 -217 -113 -267 -216 -100 -206 -40 -428 131
-483 124 -40 305 -5 405 77 l28 24 -27 46 c-32 54 -51 58 -123 24 -28 -13 -74
-23 -113 -26 -59 -4 -68 -2 -97 23 -30 25 -52 76 -52 123 l0 22 221 0 220 0
15 35 c16 39 19 153 4 206 -34 122 -184 185 -345 145z m120 -140 c40 -17 55
-42 55 -90 l0 -36 -130 0 c-86 0 -130 4 -130 11 0 9 57 99 63 99 1 0 20 7 42
15 51 18 58 18 100 1z"/>
<path d="M4380 1711 c0 -11 -105 -623 -116 -673 l-6 -28 105 0 104 0 6 43 c4
23 16 94 27 157 11 63 34 194 50 290 17 96 33 185 35 198 5 22 4 22 -100 22
-58 0 -105 -4 -105 -9z"/>
<path d="M2158 899 c-11 -6 -18 -22 -18 -40 0 -26 6 -33 45 -50 25 -11 45 -26
45 -33 0 -25 -28 -39 -65 -32 -35 7 -49 -6 -19 -18 56 -21 112 12 100 59 -5
18 -19 30 -47 41 -31 13 -39 21 -37 38 2 17 9 21 41 20 38 -1 49 9 21 20 -22
9 -46 7 -66 -5z"/>
<path d="M2290 815 c0 -57 4 -95 10 -95 6 0 10 24 10 54 0 46 3 56 20 61 32
10 40 -3 40 -61 0 -31 4 -54 10 -54 7 0 10 24 8 63 l-3 62 -38 0 c-35 0 -37 2
-37 33 0 17 -4 32 -10 32 -6 0 -10 -38 -10 -95z"/>
<path d="M2440 895 c0 -8 5 -15 10 -15 6 0 10 7 10 15 0 8 -4 15 -10 15 -5 0
-10 -7 -10 -15z"/>
<path d="M2817 904 c-8 -8 1 -24 14 -24 5 0 9 7 9 15 0 15 -12 20 -23 9z"/>
<path d="M3306 894 c-18 -18 -20 -32 -6 -54 6 -10 3 -21 -11 -36 -27 -28 -21
-64 12 -83 23 -13 29 -12 60 3 21 10 35 13 37 6 2 -5 11 -10 19 -10 15 0 15 2
0 18 -11 12 -13 22 -6 35 6 10 8 23 5 30 -3 7 -8 2 -11 -10 -10 -31 -17 -29
-59 17 -39 44 -44 61 -21 80 12 10 20 9 40 -4 14 -9 25 -12 25 -7 0 12 -33 31
-54 31 -8 0 -22 -7 -30 -16z m49 -114 c25 -26 27 -32 15 -40 -47 -30 -104 7
-78 50 17 27 29 25 63 -10z"/>
<path d="M3550 815 l0 -95 58 2 c56 2 56 2 10 5 l-48 4 0 90 c0 53 -4 89 -10
89 -6 0 -10 -38 -10 -95z"/>
<path d="M3975 900 c-3 -5 1 -10 9 -10 9 0 16 5 16 10 0 6 -4 10 -9 10 -6 0
-13 -4 -16 -10z"/>
<path d="M4270 900 c0 -5 7 -10 16 -10 8 0 12 5 9 10 -3 6 -10 10 -16 10 -5 0
-9 -4 -9 -10z"/>
<path d="M4181 878 c0 -16 -6 -28 -13 -28 -9 0 -9 -3 0 -12 7 -7 12 -35 12
-64 0 -53 13 -71 39 -54 9 5 6 9 -9 13 -18 5 -21 11 -18 54 3 48 3 48 38 48
l35 0 3 -57 c4 -79 22 -73 22 7 l0 65 -49 0 c-46 0 -50 2 -54 28 l-4 27 -2
-27z"/>
<path d="M2440 785 c0 -37 4 -65 10 -65 6 0 10 28 10 65 0 37 -4 65 -10 65 -6
0 -10 -28 -10 -65z"/>
<path d="M2510 760 c0 -53 4 -90 10 -90 6 0 10 13 10 28 0 26 3 28 33 24 22
-2 38 2 47 13 18 21 18 78 1 99 -16 19 -52 21 -69 4 -9 -9 -12 -9 -12 0 0 7
-4 12 -10 12 -6 0 -10 -37 -10 -90z m78 68 c17 -17 15 -73 -3 -88 -8 -6 -23
-9 -35 -5 -27 8 -29 79 -2 94 22 13 26 13 40 -1z"/>
<path d="M2660 760 c0 -53 4 -90 10 -90 6 0 10 13 10 28 0 26 3 28 30 24 37
-5 57 10 65 49 13 56 -46 104 -83 67 -9 -9 -12 -9 -12 0 0 7 -4 12 -10 12 -6
0 -10 -37 -10 -90z m84 64 c21 -21 20 -47 -3 -75 -16 -20 -23 -22 -38 -13 -25
15 -30 74 -7 91 23 17 29 16 48 -3z"/>
<path d="M2820 785 c0 -37 4 -65 10 -65 6 0 10 28 10 65 0 37 -4 65 -10 65 -6
0 -10 -28 -10 -65z"/>
<path d="M2886 840 c-9 -16 -6 -120 3 -120 6 0 11 20 11 44 0 37 18 76 35 76
26 0 35 -17 35 -66 0 -31 4 -54 10 -54 7 0 10 24 8 63 l-3 62 -48 0 c-27 1
-50 -2 -51 -5z"/>
<path d="M3045 834 c-9 -10 -13 -24 -10 -33 10 -25 12 -72 3 -77 -14 -9 -9
-42 8 -48 52 -20 122 16 95 48 -7 8 -26 16 -43 18 -38 4 -51 28 -16 28 29 0
48 17 48 42 0 10 6 18 13 19 17 1 -33 17 -60 18 -12 1 -29 -6 -38 -15z m63
-22 c4 -28 -24 -40 -45 -19 -14 13 -14 19 -3 32 18 22 44 15 48 -13z m10 -104
c4 -21 -31 -32 -58 -18 -17 9 -19 14 -9 26 16 19 63 14 67 -8z"/>
<path d="M3687 832 c-20 -22 -22 -71 -3 -97 16 -23 71 -24 92 -3 22 22 21 88
-2 105 -25 19 -68 16 -87 -5z m77 -8 c34 -33 12 -94 -33 -94 -31 0 -41 14 -41
59 0 48 42 68 74 35z"/>
<path d="M3842 838 c-14 -14 -16 -44 -4 -52 11 -6 3 -64 -9 -72 -18 -11 -8
-32 21 -43 43 -14 90 3 90 34 0 23 -22 35 -67 35 -14 0 -23 6 -23 15 0 10 10
15 29 15 31 0 45 12 53 47 4 16 0 23 -16 27 -34 9 -61 7 -74 -6z m63 -28 c0
-18 -6 -26 -23 -28 -24 -4 -38 18 -28 44 3 9 15 14 28 12 17 -2 23 -10 23 -28z
m20 -110 c0 -24 -79 -21 -83 3 -3 16 2 18 40 15 30 -2 43 -7 43 -18z"/>
<path d="M3980 785 c0 -37 4 -65 10 -65 6 0 10 28 10 65 0 37 -4 65 -10 65 -6
0 -10 -28 -10 -65z"/>
<path d="M4050 835 c-17 -20 -6 -43 25 -55 52 -20 39 -65 -15 -54 -23 4 -23 4
-3 -5 28 -13 61 -3 68 21 8 23 -9 46 -38 50 -34 5 -30 43 5 43 14 -1 24 3 22
7 -9 13 -51 9 -64 -7z"/>
<path d="M4347 832 c-17 -19 -22 -57 -11 -87 8 -21 45 -35 73 -28 30 8 26 21
-4 15 -33 -6 -55 14 -55 49 0 37 26 62 57 54 16 -4 22 -2 18 5 -10 17 -61 11
-78 -8z"/>
<path d="M4477 843 c-4 -3 -7 -17 -7 -30 0 -17 9 -27 35 -37 53 -23 42 -51
-20 -48 -30 1 -30 1 -5 -9 63 -26 100 44 38 72 -44 19 -44 44 -1 43 18 -1 30
2 27 7 -6 10 -57 12 -67 2z"/>
</g>
</svg>
