<?xml version="1.0" encoding="UTF-8"?>
<svg version="1.1" xmlns="http://www.w3.org/2000/svg" width="137" height="50">
<path d="M0 0 C3.0538034 2.33053417 4.45440934 4.18086537 5 8 C5.66 7.01 6.32 6.02 7 5 C7.66 5 8.32 5 9 5 C9.33 4.01 9.66 3.02 10 2 C14.95106566 -0.78497444 20.41737839 -1.58686354 25.984375 -0.7109375 C29.65421666 0.58346401 30.95402752 2.73923135 33 6 C33.495 7.98 33.495 7.98 34 10 C34.66 6.7 35.32 3.4 36 0 C39.3 0 42.6 0 46 0 C44.87791788 10.16474394 43.33636384 20.03151427 41 30 C37.7 30 34.4 30 31 30 C31.33 25.38 31.66 20.76 32 16 C31.505 16.495 31.505 16.495 31 17 C29.65732587 17.08631874 28.31025678 17.10706473 26.96484375 17.09765625 C26.15595703 17.09443359 25.34707031 17.09121094 24.51367188 17.08789062 C23.66353516 17.07951172 22.81339844 17.07113281 21.9375 17.0625 C21.08349609 17.05798828 20.22949219 17.05347656 19.34960938 17.04882812 C17.23304337 17.03700373 15.11651315 17.01906769 13 17 C13.495 18.98 13.495 18.98 14 21 C16.3260857 21.38063221 18.66055264 21.71269945 21 22 C21.495 21.505 21.495 21.505 22 21 C24.9375 20.8125 24.9375 20.8125 28 21 C28.66 21.66 29.32 22.32 30 23 C29.91015625 24.953125 29.91015625 24.953125 29 27 C26.93359375 28.484375 26.93359375 28.484375 24.4375 29.75 C23.61121094 30.17796875 22.78492188 30.6059375 21.93359375 31.046875 C21.29550781 31.36140625 20.65742187 31.6759375 20 32 C22.64 31.34 25.28 30.68 28 30 C28 30.66 28 31.32 28 32 C32.29 32 36.58 32 41 32 C41 33.65 41 35.3 41 37 C29.45 37 17.9 37 6 37 C6.33 36.01 6.66 35.02 7 34 C6.01 33.505 6.01 33.505 5 33 C5 34.65 5 36.3 5 38 C0.25 38.125 0.25 38.125 -2 37 C-4.21138855 37.08811445 -6.42042185 37.2429784 -8.625 37.4375 C-10.40777344 37.59025391 -10.40777344 37.59025391 -12.2265625 37.74609375 C-13.14179687 37.82988281 -14.05703125 37.91367187 -15 38 C-15 36.02 -15 34.04 -15 32 C-12.03 32 -9.06 32 -6 32 C-6 31.34 -6 30.68 -6 30 C-7.32 30 -8.64 30 -10 30 C-9.7834375 28.74703125 -9.566875 27.4940625 -9.34375 26.203125 C-9.06232745 24.55211274 -8.78108697 22.90106943 -8.5 21.25 C-8.28537109 20.0125 -8.28537109 20.0125 -8.06640625 18.75 C-7.93105469 17.95078125 -7.79570313 17.1515625 -7.65625 16.328125 C-7.46772461 15.22839355 -7.46772461 15.22839355 -7.27539062 14.10644531 C-6.91357736 11.69302054 -6.91357736 11.69302054 -7 8 C-8.98 8.33 -10.96 8.66 -13 9 C-13.69676279 12.31062241 -14.38084992 15.62373573 -15.0625 18.9375 C-15.36124023 20.35579102 -15.36124023 20.35579102 -15.66601562 21.80273438 C-15.84970703 22.70185547 -16.03339844 23.60097656 -16.22265625 24.52734375 C-16.39547119 25.35999756 -16.56828613 26.19265137 -16.74633789 27.05053711 C-16.83004639 27.69385986 -16.91375488 28.33718262 -17 29 C-16.67 29.33 -16.34 29.66 -16 30 C-15.95907063 32.33297433 -15.95758277 34.66705225 -16 37 C-19.63 37 -23.26 37 -27 37 C-27.78994056 24.33900818 -25.40547635 12.37604786 -23 0 C-20.03 0 -17.06 0 -14 0 C-14 0.66 -14 1.32 -14 2 C-12.989375 1.484375 -11.97875 0.96875 -10.9375 0.4375 C-6.97831137 -1.2455559 -4.19529099 -1.18734651 0 0 Z M17 7 C15.515 8.98 15.515 8.98 14 11 C17.3 11 20.6 11 24 11 C23.67 9.68 23.34 8.36 23 7 C20.12586875 6.66602213 20.12586875 6.66602213 17 7 Z M3 13 C4 15 4 15 4 15 Z M2 18 C0.6728739 21.9813783 0.93084087 25.85045227 1 30 C-0.65 30 -2.3 30 -4 30 C-4 30.66 -4 31.32 -4 32 C1.12839994 33.81975482 5.17684382 31.8599099 10 30 C9.21625 29.319375 8.4325 28.63875 7.625 27.9375 C4.54149479 24.48691084 3.95642485 22.43433338 3 18 C2.67 18 2.34 18 2 18 Z M-20 30 C-20 30.66 -20 31.32 -20 32 C-19.34 32 -18.68 32 -18 32 C-18 31.34 -18 30.68 -18 30 C-18.66 30 -19.32 30 -20 30 Z M10 30 C10.33 30.66 10.66 31.32 11 32 C13.52733235 32.65555119 13.52733235 32.65555119 16 33 C16 32.34 16 31.68 16 31 C13.03 30.505 13.03 30.505 10 30 Z M-9 33 C-8 36 -8 36 -8 36 Z M13 33 C14 36 14 36 14 36 Z " fill="#1E3B77" transform="translate(90,12)"/>
<path d="M0 0 C1.10698242 -0.03673828 1.10698242 -0.03673828 2.23632812 -0.07421875 C7.60774853 -0.10286633 10.37070851 1.0135951 14.5625 4.375 C13.96322174 7.73095828 12.71627564 9.75301226 10.5625 12.375 C5.6875 11.5 5.6875 11.5 4.5625 10.375 C-3.44166028 9.51454271 -3.44166028 9.51454271 -10.5625 12.5625 C-14.22336388 18.05379582 -14.85079914 21.86553862 -14.4375 28.375 C-13.80341978 30.60179968 -13.80341978 30.60179968 -12.4375 32.375 C-10.35822133 33.11296999 -10.35822133 33.11296999 -8 33.1875 C-7.21753906 33.25582031 -6.43507813 33.32414062 -5.62890625 33.39453125 C-3.25698017 33.48580464 -3.25698017 33.48580464 -0.4375 32.375 C0.29573796 30.35991642 0.29573796 30.35991642 0.5625 28.375 C-1.0875 28.375 -2.7375 28.375 -4.4375 28.375 C-4.53515625 22.22265625 -4.53515625 22.22265625 -4.4375 20.375 C-3.4375 19.375 -3.4375 19.375 -0.53125 19.2421875 C0.6546875 19.24476562 1.840625 19.24734375 3.0625 19.25 C4.2484375 19.24742188 5.434375 19.24484375 6.65625 19.2421875 C9.5625 19.375 9.5625 19.375 10.5625 20.375 C11.325625 19.42625 12.08875 18.4775 12.875 17.5 C15.73897257 13.93938545 18.29418618 12.1629885 22.875 11.625 C26.93289449 11.26927548 29.86173542 11.48158556 33.5625 13.375 C36.64969496 16.46219496 38.34777067 18.97304864 38.5625 23.375 C37.9025 25.355 37.2425 27.335 36.5625 29.375 C30.6225 29.705 24.6825 30.035 18.5625 30.375 C19.2225 31.695 19.8825 33.015 20.5625 34.375 C26.9975 33.88 26.9975 33.88 33.5625 33.375 C34.2225 35.025 34.8825 36.675 35.5625 38.375 C29.41715418 41.90101809 24.7114313 44.52805343 17.5625 43.375 C10.35082952 39.95165904 10.35082952 39.95165904 8.5625 36.375 C8.5625 37.365 8.5625 38.355 8.5625 39.375 C0.58229731 42.77341331 -6.63291956 45.34336422 -15.14453125 42.45703125 C-20.58843035 39.99412521 -23.56069732 37.77463635 -26.4375 32.375 C-27.66907693 24.6542867 -27.47451581 16.88527949 -23.0625 10.2421875 C-16.5983434 2.81462294 -9.64222347 0.01675452 0 0 Z M21.5625 19.375 C20.9025 20.695 20.2425 22.015 19.5625 23.375 C22.5325 23.375 25.5025 23.375 28.5625 23.375 C28.5625 22.055 28.5625 20.735 28.5625 19.375 C26.2525 19.375 23.9425 19.375 21.5625 19.375 Z M8.5625 21.375 C8.2325 23.355 7.9025 25.335 7.5625 27.375 C8.2225 26.385 8.8825 25.395 9.5625 24.375 C9.2325 23.385 8.9025 22.395 8.5625 21.375 Z " fill="#1F74B9" transform="translate(26.4375,-0.375)"/>
<path d="M0 0 C2.67195867 3.0040229 4.31345763 5.74533639 4.4140625 9.76953125 C3.7540625 11.74953125 3.0940625 13.72953125 2.4140625 15.76953125 C-3.5259375 16.09953125 -9.4659375 16.42953125 -15.5859375 16.76953125 C-14.9259375 18.08953125 -14.2659375 19.40953125 -13.5859375 20.76953125 C-7.1509375 20.27453125 -7.1509375 20.27453125 -0.5859375 19.76953125 C0.0740625 21.41953125 0.7340625 23.06953125 1.4140625 24.76953125 C-4.73128332 28.29554934 -9.4370062 30.92258468 -16.5859375 29.76953125 C-20.89558336 27.96620426 -23.85752702 26.08067011 -26.1484375 21.95703125 C-27.00860656 15.69008525 -26.18095511 10.68297058 -22.81640625 5.375 C-20.04288281 1.75621227 -17.16327585 -0.75040925 -12.7109375 -2.10546875 C-3.20385804 -2.48575193 -3.20385804 -2.48575193 0 0 Z M-12.5859375 5.76953125 C-13.2459375 7.08953125 -13.9059375 8.40953125 -14.5859375 9.76953125 C-11.6159375 9.76953125 -8.6459375 9.76953125 -5.5859375 9.76953125 C-5.5859375 8.44953125 -5.5859375 7.12953125 -5.5859375 5.76953125 C-7.8959375 5.76953125 -10.2059375 5.76953125 -12.5859375 5.76953125 Z " fill="#1E3C78" transform="translate(60.5859375,13.23046875)"/>
<path d="M0 0 C0.33 -0.66 0.66 -1.32 1 -2 C1.66 -2 2.32 -2 3 -2 C3 -1.34 3 -0.68 3 0 C3.721875 -0.144375 4.44375 -0.28875 5.1875 -0.4375 C7.0625 -0.8125 8.9375 -1.1875 10.8125 -1.5625 C11.534375 -1.706875 12.25625 -1.85125 13 -2 C13 -1.34 13 -0.68 13 0 C17.29 0 21.58 0 26 0 C26 1.65 26 3.3 26 5 C14.45 5 2.9 5 -9 5 C-9 3 -9 1 -9 -1 C-5.79937313 -2.60031344 -3.27728194 -1.03173691 0 0 Z M-2 1 C-1 4 -1 4 -1 4 Z " fill="#1E73B8" transform="translate(105,44)"/>
<path d="M0 0 C3.46679688 0.04882812 3.46679688 0.04882812 6.93359375 0.09765625 C6.93359375 3.06765625 6.93359375 6.03765625 6.93359375 9.09765625 C3.30359375 9.09765625 -0.32640625 9.09765625 -4.06640625 9.09765625 C-3.07168497 0.1451647 -3.07168497 0.1451647 0 0 Z " fill="#1F74B9" transform="translate(130.06640625,1.90234375)"/>
<path d="" fill="#1E3C78" transform="translate(0,0)"/>
<path d="" fill="#1F74B9" transform="translate(0,0)"/>
</svg>
