<?xml version="1.0" encoding="utf-8"?>
<!-- Generator: Adobe Illustrator 26.0.3, SVG Export Plug-In . SVG Version: 6.00 Build 0)  -->
<svg version="1.0" id="katman_1" xmlns="http://www.w3.org/2000/svg" xmlns:xlink="http://www.w3.org/1999/xlink" x="0px" y="0px"
	 viewBox="0 0 600 450" style="enable-background:new 0 0 600 450;" xml:space="preserve">
<style type="text/css">
	.st0{fill:#223A8F;}
	.st1{fill:#FFD103;}
	.st2{fill:#FFFFFF;}
</style>
<g id="Gruppe_366">
	<circle id="Ellipse_44" class="st0" cx="300.1" cy="225.4" r="168"/>
	<circle class="st1" cx="416.2" cy="254.2" r="14.7"/>
	<path class="st2" d="M210.6,221.7v19.2h16c-2.3,3.7-7.6,5.6-11.2,5.6c-12,0-18-6.8-18-20.7c0-15.3,7.9-23.1,23.7-23.1
		c6.2,0,14.4,1.6,23.2,4.3v-22.9c-2.5-1.1-6.4-1.9-11.3-2.8c-4.4-0.8-8.9-1.2-13.3-1.2c-15.6,0-28,4.2-37.2,12.6
		c-9.2,8.4-13.9,19.7-13.9,34c0,13.1,3.6,23.4,10.8,31c7.2,7.7,16.9,11.5,29.2,11.5c12.3,0,23.6-6.4,27.2-14.5l-0.1,13h17.8v-46.2
		H210.6z"/>
	<path class="st2" d="M262.2,267.8v-86.2h27.6v63.8h30.1v22.5H262.2z"/>
	<path class="st2" d="M328.7,265.7v-23.5c4.7,1.4,9.5,2.6,14.3,3.4c4.6,0.9,9.3,1.4,14.1,1.4c6.7,0,10.2-1.7,10.2-4.7
		c0-1.9-1.1-2.9-6-4l-9.6-2.2c-16.4-3.7-24.1-12-24.1-26.1c0-9.2,3.2-16.6,9.6-22c6.4-5.3,15.3-7.9,26.4-7.9
		c7.7,0,19.5,1.6,26.7,3.4V206c-3.7-0.9-8.2-1.9-13.6-2.8c-4.2-0.7-8.5-1.1-12.7-1.2c-5.9,0-9.2,1.7-9.2,4.7c0,1.8,1.6,3,4.8,3.8
		l11.2,2.6c16.3,3.8,23.9,12.3,23.9,26.5c0,9.1-3.4,16.3-10,21.6c-6.6,5.3-15.7,7.9-27.4,7.9C346.1,269.3,335,267.7,328.7,265.7z"/>
</g>
</svg>
