<?xml version="1.0" standalone="no"?>
<!DOCTYPE svg PUBLIC "-//W3C//DTD SVG 20010904//EN" "http://www.w3.org/TR/2001/REC-SVG-20010904/DTD/svg10.dtd">
<svg xmlns="http://www.w3.org/2000/svg" version="1.0" width="600.000000pt" height="172.000000pt" viewBox="0 0 600.000000 172.000000" preserveAspectRatio="xMidYMid meet">
<metadata>
Created by potrace 1.16, written by Peter Selinger 2001-2019
<meta name="Producer" content="Online-Convert"/></metadata>
<g transform="translate(0.000000,172.000000) scale(0.100000,-0.100000)" fill="#000000" stroke="none">
<path d="M2721 1669 c-126 -9 -313 -36 -361 -51 -52 -16 -96 -53 -127 -106 l-28 -47 0 -600 c0 -596 0 -600 22 -640 25 -46 65 -86 110 -109 35 -18 170 -40 343 -55 321 -30 871 4 982 60 45 23 92 79 107 128 8 27 11 213 11 622 0 658 3 628 -77 700 -49 44 -76 54 -218 73 -246 35 -522 44 -764 25z m283 -150 c37 -29 37 -89 0 -118 -35 -27 -66 -26 -100 2 -35 31 -37 77 -4 112 29 31 68 32 104 4z m76 -259 l0 -70 -44 0 c-33 0 -49 -6 -70 -26 -26 -26 -26 -28 -26 -175 0 -81 -3 -150 -7 -152 -5 -2 -39 16 -77 40 l-68 44 4 117 c3 96 8 126 27 165 38 78 118 126 214 127 l47 0 0 -70z m160 0 l0 -70 -65 0 -65 0 0 63 c0 35 3 67 7 70 3 4 33 7 65 7 l58 0 0 -70z m-652 -707 c3 -30 1 -33 -24 -33 -53 0 -64 -23 -64 -127 l0 -94 -31 3 -32 3 2 105 c2 74 7 112 17 128 19 28 70 53 104 49 20 -2 26 -8 28 -34z m230 0 l3 -32 -63 -3 c-54 -3 -63 -6 -63 -22 0 -16 8 -19 50 -20 49 -1 50 -2 53 -33 l3 -33 -56 0 c-48 0 -56 -3 -53 -17 3 -15 16 -19 66 -21 l62 -3 0 -34 0 -35 -54 0 c-62 0 -103 13 -122 38 -9 11 -13 49 -14 108 0 81 2 93 23 111 27 26 49 32 112 30 49 -2 50 -3 53 -34z m120 -75 l3 -108 54 0 c30 0 55 -2 55 -4 0 -1 -5 -18 -11 -36 -12 -32 -12 -32 -67 -28 -45 4 -60 10 -79 32 -21 25 -23 36 -23 135 0 59 3 111 7 115 4 4 19 6 33 4 25 -3 25 -4 28 -110z m301 93 c10 -10 35 -70 56 -132 21 -63 40 -120 43 -126 3 -9 -7 -13 -30 -13 -28 0 -35 5 -45 30 -10 28 -15 30 -61 30 -48 0 -51 -2 -57 -30 -6 -26 -11 -30 -42 -30 -24 0 -34 4 -31 13 3 6 22 63 43 126 37 112 60 151 90 151 8 0 23 -8 34 -19z m173 -39 l26 -52 29 52 c24 45 33 53 61 56 17 2 32 0 32 -5 0 -4 -21 -46 -45 -92 -37 -69 -45 -92 -45 -137 0 -53 0 -54 -30 -54 -29 0 -30 1 -30 51 0 43 -8 67 -45 135 -25 45 -45 87 -45 94 0 7 13 10 33 8 28 -3 36 -10 59 -56z"/>
</g>
</svg>
