<?xml version="1.0" standalone="no"?>
<!DOCTYPE svg PUBLIC "-//W3C//DTD SVG 20010904//EN"
 "http://www.w3.org/TR/2001/REC-SVG-20010904/DTD/svg10.dtd">
<svg version="1.0" xmlns="http://www.w3.org/2000/svg"
 width="398.000000pt" height="97.000000pt" viewBox="0 0 398.000000 97.000000"
 preserveAspectRatio="xMidYMid meet">

<g transform="translate(0.000000,97.000000) scale(0.100000,-0.100000)"
fill="#000000" stroke="none">
<path d="M42 883 c4 -24 83 -76 156 -103 80 -30 169 -35 280 -16 130 22 187 7
212 -55 20 -47 7 -143 -30 -233 -70 -167 -165 -266 -257 -266 -125 0 -125 144
0 399 l42 86 -94 -1 -94 -1 -30 -59 c-60 -118 -90 -222 -91 -314 -1 -76 2 -90
27 -132 69 -118 249 -150 413 -72 84 40 171 132 222 236 106 215 110 405 10
481 -75 58 -95 61 -446 65 -309 3 -324 3 -320 -15z"/>
<path d="M1815 859 c-53 -13 -81 -42 -106 -111 l-22 -58 -47 0 -46 0 -17 -53
c-9 -30 -17 -57 -17 -60 0 -4 18 -7 40 -7 22 0 40 -3 40 -7 0 -5 -22 -71 -49
-148 -65 -187 -70 -248 -23 -295 33 -33 96 -46 169 -35 34 5 56 16 81 41 44
44 32 64 -38 64 -80 0 -80 6 -14 202 l59 173 69 5 69 5 18 45 c28 69 27 70
-46 70 -36 0 -65 1 -65 3 0 4 46 136 55 160 6 14 2 17 -31 16 -22 -1 -57 -5
-79 -10z"/>
<path d="M2158 854 c-105 -57 -15 -173 95 -123 56 25 60 97 7 124 -36 19 -67
19 -102 -1z"/>
<path d="M3862 704 c-27 -18 -29 -55 -4 -77 23 -21 46 -22 66 -1 21 21 20 58
-1 75 -16 13 -17 12 -5 -3 29 -37 -8 -95 -45 -72 -10 6 -19 23 -21 37 -2 20 3
29 25 41 15 8 23 15 18 16 -6 0 -21 -7 -33 -16z"/>
<path d="M1295 696 c-52 -16 -98 -41 -114 -60 -29 -35 -35 -16 -14 42 4 9 -17
12 -84 12 l-89 0 -96 -277 c-53 -153 -100 -286 -104 -296 -6 -16 1 -18 92 -15
l99 3 58 169 c79 229 114 276 205 276 36 0 44 -4 54 -26 10 -22 4 -49 -52
-212 -34 -103 -65 -193 -68 -200 -3 -10 17 -12 93 -10 l98 3 68 200 c56 163
69 212 69 262 0 54 -4 67 -27 93 -42 46 -113 60 -188 36z"/>
<path d="M2650 701 c-41 -13 -105 -48 -119 -65 -23 -28 -32 -17 -17 19 l15 35
-92 0 -92 0 -101 -293 -101 -292 95 -3 c52 -1 97 -1 99 2 3 3 32 82 65 176 78
227 108 270 186 270 70 0 68 -41 -12 -268 l-63 -182 87 0 88 0 63 182 c55 159
68 187 104 225 35 37 48 43 81 43 46 0 64 -14 64 -49 0 -15 -29 -111 -65 -214
l-64 -188 91 3 91 3 58 165 c62 174 93 297 83 327 -19 58 -30 76 -58 90 -66
34 -176 12 -261 -53 -20 -15 -37 -25 -38 -23 -2 2 -8 16 -15 31 -6 15 -23 34
-37 44 -29 19 -99 27 -135 15z"/>
<path d="M2075 678 c-29 -78 -195 -561 -195 -569 0 -5 42 -9 95 -9 52 0 95 2
95 4 0 3 186 543 197 574 4 9 -18 12 -91 12 -68 0 -98 -4 -101 -12z"/>
<path d="M3501 674 c-119 -32 -242 -128 -283 -221 -26 -58 -34 -154 -19 -211
14 -52 69 -115 125 -145 82 -42 271 -18 366 48 21 15 41 34 45 43 11 31 -12
35 -87 16 -40 -10 -103 -18 -140 -19 -61 0 -70 3 -95 27 -24 24 -28 36 -28 85
l0 58 217 3 217 2 12 54 c16 73 8 169 -17 204 -35 48 -98 72 -184 71 -41 0
-99 -7 -129 -15z m153 -96 c25 -22 31 -44 28 -100 l-2 -28 -130 0 c-71 0 -130
4 -130 9 0 22 68 106 100 123 48 25 103 23 134 -4z"/>
<path d="M3870 663 c0 -22 2 -25 10 -13 5 8 10 11 10 5 0 -5 4 -3 9 5 12 17 5
30 -15 30 -9 0 -14 -10 -14 -27z"/>
</g>
</svg>
