<?xml version="1.0" standalone="no"?>
<!DOCTYPE svg PUBLIC "-//W3C//DTD SVG 20010904//EN" "http://www.w3.org/TR/2001/REC-SVG-20010904/DTD/svg10.dtd">
<svg xmlns="http://www.w3.org/2000/svg" version="1.0" width="241.000000pt" height="54.000000pt" viewBox="0 0 241.000000 54.000000" preserveAspectRatio="xMidYMid meet">
<metadata>
Created by potrace 1.16, written by Peter Selinger 2001-2019
<meta name="Producer" content="Online-Convert"/></metadata>
<g transform="translate(0.000000,54.000000) scale(0.100000,-0.100000)" fill="#000000" stroke="none">
<path d="M50 261 l0 -241 60 0 60 0 0 80 0 80 58 0 c75 1 135 28 158 72 25 48 23 141 -3 176 -41 55 -77 67 -210 71 l-123 3 0 -241z"/>
<path d="M525 468 c-38 -93 -165 -428 -165 -437 0 -7 24 -11 60 -11 l59 0 20 45 20 45 81 0 81 0 20 -45 20 -45 59 0 c37 0 60 4 60 11 0 9 -107 300 -165 452 -6 14 -19 17 -72 17 -63 0 -64 -1 -78 -32z"/>
<path d="M895 488 c-3 -7 -4 -115 -3 -238 l3 -225 133 -3 132 -3 0 56 0 55 -76 0 -75 0 2 183 2 182 -57 3 c-40 2 -58 -1 -61 -10z"/>
<path d="M1220 260 l0 -241 133 3 132 3 0 50 0 50 -72 3 -73 3 -2 182 -3 182 -57 3 -58 3 0 -241z"/>
<path d="M1590 453 c0 -46 3 -50 72 -120 l72 -73 -72 -73 c-69 -70 -72 -74 -72 -120 l0 -48 133 3 132 3 0 50 0 50 -72 3 -73 3 0 39 0 40 70 0 70 0 0 50 0 50 -70 0 -70 0 0 40 0 39 73 3 72 3 0 50 0 50 -132 3 -133 3 0 -48z"/>
<path d="M1930 494 c0 -3 29 -48 65 -100 36 -51 68 -100 71 -108 4 -10 -24 -57 -76 -128 -45 -61 -84 -117 -87 -125 -4 -10 10 -13 65 -13 l70 0 51 75 c29 41 55 75 59 75 4 0 28 -34 54 -75 l47 -75 71 0 c38 0 70 2 70 5 0 3 -35 56 -78 118 -43 62 -81 117 -85 123 -4 6 25 57 63 113 39 56 70 106 70 111 0 6 -31 10 -70 10 l-69 0 -33 -60 c-18 -33 -36 -60 -40 -60 -4 0 -21 27 -40 60 l-33 60 -72 0 c-40 0 -73 -3 -73 -6z"/>
<path d="M1510 267 c0 -103 3 -187 8 -187 4 0 48 41 97 90 l90 90 -98 98 -97 97 0 -188z"/>
</g>
</svg>
