<?xml version="1.0" standalone="no"?>
<!DOCTYPE svg PUBLIC "-//W3C//DTD SVG 20010904//EN" "http://www.w3.org/TR/2001/REC-SVG-20010904/DTD/svg10.dtd">
<svg xmlns="http://www.w3.org/2000/svg" version="1.0" width="480.000000pt" height="320.000000pt" viewBox="0 0 480.000000 320.000000" preserveAspectRatio="xMidYMid meet">
<metadata>
Created by potrace 1.16, written by Peter Selinger 2001-2019
<meta name="Producer" content="Online-Convert"/></metadata>
<g transform="translate(0.000000,320.000000) scale(0.100000,-0.100000)" fill="#000000" stroke="none">
<path d="M927 2305 l-167 -72 64 -7 c75 -7 135 -27 177 -57 17 -12 32 -20 34 -18 4 4 73 183 82 212 3 10 0 17 -8 16 -8 -1 -89 -34 -182 -74z"/>
<path d="M310 2256 c0 -18 6 -48 35 -173 5 -22 6 -22 52 13 58 44 110 71 193 99 l65 22 -100 17 c-55 10 -133 23 -172 30 -71 13 -73 12 -73 -8z"/>
<path d="M1050 2070 c0 -46 -26 -93 -77 -141 l-45 -41 34 7 c18 3 80 17 138 30 58 13 131 29 163 36 31 7 57 15 57 19 0 5 -185 89 -257 117 -9 4 -13 -5 -13 -27z"/>
<path d="M157 1894 c-81 -53 -147 -97 -145 -99 6 -4 367 20 372 26 3 3 -5 12 -19 19 -33 18 -68 90 -59 124 3 14 5 26 2 26 -2 0 -70 -43 -151 -96z"/>
<path d="M765 1818 c-37 -12 -103 -23 -169 -27 l-110 -6 75 -87 c41 -48 76 -87 79 -87 3 0 49 52 103 115 54 63 95 114 90 113 -4 -1 -35 -10 -68 -21z"/>
<path d="M1657 1783 c-3 -16 -26 -122 -51 -237 -26 -116 -46 -211 -46 -213 0 -2 24 -3 52 -1 l53 3 45 210 c26 116 49 222 53 238 7 27 7 27 -47 27 -50 0 -54 -2 -59 -27z"/>
<path d="M1805 1733 c-10 -43 -32 -147 -51 -231 -19 -85 -34 -158 -34 -163 0 -5 22 -9 50 -9 58 0 48 -25 111 270 22 107 43 198 46 202 2 5 -21 8 -51 8 l-55 0 -16 -77z"/>
<path d="M906 1764 c-12 -46 -96 -424 -96 -429 0 -3 26 -5 57 -3 l58 3 13 71 14 72 72 4 c138 7 216 71 216 178 0 105 -42 130 -221 130 -106 0 -107 0 -113 -26z m200 -79 c30 -30 26 -58 -12 -92 -32 -30 -114 -33 -114 -5 0 15 14 75 25 110 8 22 74 14 101 -13z"/>
<path d="M2386 1763 c-2 -10 -7 -33 -11 -50 -5 -26 -12 -33 -30 -33 -35 0 -51 -76 -17 -82 18 -3 18 -7 6 -63 -41 -188 -30 -215 89 -215 63 0 72 6 80 49 7 32 6 33 -19 27 -37 -10 -64 2 -64 27 0 12 8 57 17 100 l18 77 48 0 c49 0 55 4 59 50 3 23 -1 25 -44 28 l-46 3 10 35 c14 52 6 64 -46 64 -34 0 -46 -4 -50 -17z"/>
<path d="M1338 1680 c-63 -11 -68 -15 -68 -57 0 -32 2 -35 23 -28 12 4 47 9 78 12 50 5 58 3 72 -18 9 -12 14 -25 12 -29 -3 -4 -35 -10 -72 -14 -126 -13 -184 -55 -185 -136 -1 -84 80 -117 174 -69 34 17 40 18 35 5 -5 -13 2 -16 47 -16 l53 0 27 128 c33 153 32 180 -9 204 -37 21 -123 30 -187 18z"/>
<path d="M2085 1685 c-5 -2 -22 -6 -37 -9 -37 -8 -95 -61 -119 -107 -23 -47 -25 -138 -4 -179 32 -61 154 -89 255 -59 33 10 40 17 49 52 5 23 9 43 7 44 -2 2 -19 -4 -39 -12 -54 -22 -138 -20 -165 5 -12 12 -22 30 -22 40 0 19 7 20 124 20 l125 0 6 44 c9 58 -1 98 -29 125 -33 31 -110 50 -151 36z"/>
<path d="M3248 1680 c-62 -11 -65 -14 -70 -56 -4 -34 -3 -35 21 -29 101 24 161 15 161 -25 0 -14 -13 -19 -66 -24 -131 -13 -184 -53 -184 -137 0 -39 4 -51 26 -68 35 -27 93 -27 146 0 34 17 40 18 35 5 -5 -13 2 -16 47 -16 l53 0 22 103 c33 159 34 165 27 191 -12 48 -115 75 -218 56z"/>
<path d="M3993 1680 c-53 -11 -90 -35 -109 -71 -35 -69 -3 -118 96 -146 65 -18 81 -33 60 -58 -23 -27 -130 -13 -172 22 -19 17 -25 9 -34 -45 -6 -40 -6 -40 32 -51 66 -18 172 -14 220 9 74 36 95 129 39 166 -13 9 -47 22 -75 29 -66 17 -83 31 -69 56 13 25 94 26 144 2 19 -9 37 -14 39 -12 3 3 8 23 12 45 l6 41 -58 11 c-64 13 -71 13 -131 2z"/>
<path d="M2593 1643 c3 -21 11 -100 18 -175 l13 -138 56 0 56 0 54 111 c33 69 56 105 61 97 3 -7 10 -57 14 -110 l7 -98 57 0 56 0 88 176 87 175 -56 -3 -57 -3 -32 -75 c-18 -41 -41 -93 -51 -115 l-17 -40 -8 45 c-4 25 -8 68 -8 95 -2 86 -7 95 -57 95 l-44 0 -58 -117 -59 -116 -6 63 c-4 35 -7 87 -7 116 l0 54 -56 0 -57 0 6 -37z"/>
<path d="M3506 1672 c-2 -4 7 -73 20 -152 13 -80 24 -156 24 -170 0 -14 -16 -51 -35 -83 -19 -32 -35 -60 -35 -63 0 -2 24 -4 54 -4 l55 0 140 234 c78 129 141 237 141 241 0 3 -24 5 -52 3 l-53 -3 -59 -108 c-33 -59 -63 -104 -67 -100 -4 5 -12 50 -17 101 -6 51 -14 97 -17 102 -7 12 -92 14 -99 2z"/>
<path d="M3265 1078 c-8 -28 -44 -195 -47 -223 -3 -27 0 -30 27 -30 30 0 30 0 50 100 12 55 25 115 29 133 7 31 6 32 -24 32 -17 0 -32 -6 -35 -12z"/>
<path d="M2073 1003 c4 -38 7 -94 7 -126 l0 -58 41 3 41 3 35 90 c19 50 37 92 40 95 3 3 3 -38 2 -90 l-3 -95 42 0 43 0 45 105 c63 149 62 142 23 138 -30 -3 -33 -7 -63 -88 l-31 -85 -3 88 -3 88 -41 -3 -41 -3 -31 -77 c-17 -42 -35 -80 -40 -85 -5 -4 -5 30 -1 80 l7 87 -38 0 -37 0 6 -67z"/>
<path d="M2742 958 c-12 -62 -22 -119 -22 -127 0 -21 159 -10 194 13 82 53 89 179 11 211 -19 8 -63 15 -97 15 l-63 0 -23 -112z"/>
<path d="M2444 992 c-50 -40 -59 -108 -19 -148 22 -21 33 -25 78 -22 43 2 52 6 55 23 2 18 -3 20 -45 20 -37 0 -48 4 -51 18 -3 15 5 17 62 17 l66 0 0 35 c0 49 -29 75 -82 75 -26 0 -52 -8 -64 -18z"/>
<path d="M3029 979 c-40 -43 -41 -108 -2 -139 37 -29 126 -26 131 5 2 18 -3 20 -45 20 -37 0 -48 4 -51 18 -3 15 5 17 62 17 l66 0 0 35 c0 50 -28 75 -86 75 -39 0 -51 -5 -75 -31z"/>
<path d="M3460 1003 c0 -12 20 -135 25 -160 4 -18 12 -23 40 -23 32 0 37 5 76 73 23 39 49 82 57 95 14 21 13 22 -21 22 -34 0 -37 -3 -63 -60 -15 -33 -31 -60 -35 -60 -5 0 -9 17 -9 38 0 65 -9 82 -41 82 -16 0 -29 -3 -29 -7z"/>
<path d="M3698 981 c-28 -25 -33 -36 -33 -76 0 -61 27 -85 96 -85 38 0 51 4 59 19 14 27 15 27 -30 23 -38 -4 -70 9 -70 29 0 4 30 9 68 11 l67 3 -2 35 c-3 72 -94 96 -155 41z"/>
<path d="M3906 998 c-7 -26 -36 -163 -36 -170 0 -5 13 -8 29 -8 31 0 33 4 46 70 9 44 31 70 60 70 21 0 35 17 35 41 0 15 -42 10 -62 -8 -17 -15 -18 -15 -18 0 0 20 -49 24 -54 5z"/>
</g>
</svg>
