<?xml version="1.0" encoding="UTF-8"?>
<svg version="1.1" xmlns="http://www.w3.org/2000/svg" width="248" height="130">
<path d="M0 0 C81.84 0 163.68 0 248 0 C248 42.9 248 85.8 248 130 C166.16 130 84.32 130 0 130 C0 87.1 0 44.2 0 0 Z " fill="#FEFEFC" transform="translate(0,0)"/>
<path d="M0 0 C0.90128632 -0.00953201 1.80257263 -0.01906403 2.73117065 -0.02888489 C4.18126022 -0.02751778 4.18126022 -0.02751778 5.66064453 -0.02612305 C6.66177277 -0.03040817 7.662901 -0.0346933 8.69436646 -0.03910828 C10.81088505 -0.04484765 12.92742338 -0.04535474 15.04394531 -0.04101562 C18.27459576 -0.03786022 21.50432633 -0.06130437 24.73486328 -0.08666992 C26.79345588 -0.08894347 28.85205093 -0.08964615 30.91064453 -0.08862305 C31.87332245 -0.09783279 32.83600037 -0.10704254 33.82785034 -0.11653137 C40.48854877 -0.07081903 44.82711715 0.7524889 49.76904297 5.5625 C51.77823792 8.86625173 51.88197301 10.82419015 51.80908203 14.66918945 C51.79619141 15.87124023 51.78330078 17.07329102 51.77001953 18.31176758 C51.73650391 19.55764648 51.70298828 20.80352539 51.66845703 22.0871582 C51.65041016 23.35237305 51.63236328 24.61758789 51.61376953 25.92114258 C51.56669619 29.03975155 51.50094797 32.15681794 51.41845703 35.2746582 C52.51311279 35.25894775 53.60776855 35.2432373 54.7355957 35.22705078 C58.80762334 35.1726371 62.879619 35.13826665 66.9519043 35.10986328 C68.71237599 35.09480267 70.47281033 35.07434994 72.2331543 35.04833984 C74.76767206 35.01183592 77.30169255 34.99490466 79.83642578 34.98168945 C80.61994919 34.9662056 81.4034726 34.95072174 82.21073914 34.93476868 C88.34817939 34.93289034 91.1974514 36.32556875 95.69775391 40.27490234 C98.31072799 44.83018222 97.9904194 49.10592702 97.94970703 54.27075195 C97.95353394 55.33705338 97.95736084 56.4033548 97.96130371 57.50196838 C97.96402189 59.75376328 97.95666738 62.0055898 97.93994141 64.25732422 C97.91855276 67.69676468 97.93973668 71.13411118 97.96533203 74.57348633 C97.96268833 76.76424613 97.95756247 78.95500464 97.94970703 81.14575195 C97.95780396 82.17091415 97.96590088 83.19607635 97.97424316 84.25230408 C97.89858156 90.0396009 97.56385512 93.86347406 93.41845703 98.2746582 C88.23956241 101.96628302 83.06429853 101.71181814 76.94580078 101.6730957 C75.94513077 101.67596588 74.94446075 101.67883606 73.91346741 101.68179321 C71.80469189 101.68382886 69.69589728 101.67833405 67.5871582 101.66577148 C64.36317714 101.64969421 61.14044647 101.66564626 57.91650391 101.68481445 C55.86376677 101.68283226 53.81103041 101.67898909 51.75830078 101.6730957 C50.31595314 101.68220474 50.31595314 101.68220474 48.84446716 101.6914978 C43.8878149 101.63948723 40.42262105 101.53045811 36.41845703 98.2746582 C31.93825937 93.6268341 31.99687055 89.31961472 32.05810547 83.18920898 C32.09452148 81.93865723 32.1309375 80.68810547 32.16845703 79.3996582 C32.25095703 75.3984082 32.33345703 71.3971582 32.41845703 67.2746582 C24.16845703 67.2746582 15.91845703 67.2746582 7.41845703 67.2746582 C7.47066406 70.09383789 7.47066406 70.09383789 7.52392578 72.9699707 C7.55206844 75.44652425 7.57936808 77.92308748 7.60595703 80.3996582 C7.63109375 81.6371582 7.65623047 82.8746582 7.68212891 84.1496582 C7.69179687 85.34848633 7.70146484 86.54731445 7.71142578 87.7824707 C7.72713623 88.88220215 7.74284668 89.98193359 7.7590332 91.11499023 C7.27281761 95.62581616 5.79666124 99.02566064 2.41845703 102.0871582 C-0.80748857 104.0025634 -3.46842715 104.40922773 -7.14135742 104.4675293 C-8.06274002 104.48359222 -8.98412262 104.49965515 -9.9334259 104.51620483 C-14.14188805 104.56077267 -18.35019488 104.60171187 -22.55883789 104.62475586 C-24.77704355 104.64131812 -26.99519579 104.66861148 -29.21313477 104.70678711 C-32.41564546 104.76160422 -35.61690731 104.7834369 -38.81982422 104.7980957 C-40.30135735 104.83209976 -40.30135735 104.83209976 -41.81282043 104.86679077 C-46.25982126 104.85317498 -49.54801345 104.81359258 -53.12915039 101.99194336 C-56.59198621 98.15507301 -57.82539766 95.5817426 -57.87207031 90.41772461 C-57.88483002 89.45637604 -57.89758972 88.49502747 -57.91073608 87.50454712 C-57.91407455 85.95602554 -57.91407455 85.95602554 -57.91748047 84.3762207 C-57.92413727 83.30850433 -57.93079407 82.24078796 -57.93765259 81.14071655 C-57.94777349 78.88297243 -57.95246978 76.62519843 -57.95214844 74.36743164 C-57.95651803 70.91933702 -57.99283517 67.4725261 -58.03076172 64.0246582 C-58.03663072 61.82935007 -58.04059956 59.63403587 -58.04248047 57.4387207 C-58.0568515 56.41042145 -58.07122253 55.38212219 -58.08602905 54.32266235 C-58.04121143 47.27470552 -56.72508689 43.66856103 -51.86181641 38.41796875 C-48.37486597 36.66964017 -44.90680186 36.9068968 -41.09716797 36.98168945 C-40.2815741 36.9859343 -39.46598022 36.99017914 -38.62567139 36.99455261 C-36.02728913 37.01131105 -33.42968978 37.04895723 -30.83154297 37.0871582 C-29.06723127 37.10220874 -27.30290739 37.11589651 -25.53857422 37.12817383 C-21.21926332 37.16120519 -16.90053577 37.21296734 -12.58154297 37.2746582 C-12.60249023 36.39205322 -12.6234375 35.50944824 -12.64501953 34.60009766 C-12.71338392 31.31060252 -12.76343246 28.02186726 -12.80126953 24.73193359 C-12.82132718 23.31091363 -12.84858074 21.88997561 -12.88330078 20.46923828 C-12.93208308 18.42109926 -12.95456836 16.37405545 -12.97216797 14.32543945 C-12.99311523 13.0947876 -13.0140625 11.86413574 -13.03564453 10.59619141 C-12.49221514 6.62126837 -11.42107753 5.06155111 -8.58154297 2.2746582 C-5.62773023 0.49009037 -3.43244624 0.02001331 0 0 Z " fill="#99C606" transform="translate(108.58154296875,3.725341796875)"/>
<path d="M0 0 C4.87461475 -0.09924823 9.74863497 -0.17164581 14.62402344 -0.21972656 C16.28070325 -0.23978009 17.93731282 -0.26703029 19.59375 -0.30175781 C21.98194758 -0.35055512 24.36920547 -0.37303064 26.7578125 -0.390625 C27.85973434 -0.42159271 27.85973434 -0.42159271 28.98391724 -0.45318604 C32.50416665 -0.4547048 35.18259874 0.07045958 38.46972656 1.33886719 C42.39758556 5.46986517 41.82414831 9.46616965 41.7265625 14.96875 C41.72755951 16.04120972 41.72855652 17.11366943 41.72958374 18.21862793 C41.7249052 20.48485734 41.70546458 22.75109736 41.67236328 25.01708984 C41.62516865 28.48759797 41.63124091 31.95503376 41.64453125 35.42578125 C41.63337747 37.6276225 41.61915754 39.8294508 41.6015625 42.03125 C41.60429672 43.58918274 41.60429672 43.58918274 41.60708618 45.17858887 C41.52916118 49.13452787 41.46046752 52.11459839 39.62060547 55.65234375 C35.37028898 57.83808504 31.17860195 57.56958179 26.46875 57.53125 C25.44068237 57.5350769 24.41261475 57.53890381 23.35339355 57.54284668 C21.18138652 57.54556674 19.00934677 57.53819906 16.83740234 57.52148438 C13.51195271 57.50007695 10.18866365 57.52128378 6.86328125 57.546875 C4.7525994 57.54423174 2.64191889 57.53910681 0.53125 57.53125 C-0.46362427 57.53934692 -1.45849854 57.54744385 -2.48352051 57.55578613 C-9.26135527 57.4636728 -9.26135527 57.4636728 -12.63378906 55.34667969 C-14.38357717 52.34114658 -14.4586675 50.3920423 -14.390625 46.921875 C-14.37773437 45.76171875 -14.36484375 44.6015625 -14.3515625 43.40625 C-14.31804687 42.1996875 -14.28453125 40.993125 -14.25 39.75 C-14.22292969 37.91695312 -14.22292969 37.91695312 -14.1953125 36.046875 C-14.148181 33.03045922 -14.08239413 30.01562509 -14 27 C-12.35644531 26.58234375 -12.35644531 26.58234375 -10.6796875 26.15625 C-6.51598101 24.84790911 -4.79467245 23.28784994 -2 20 C-0.88176185 17.76352369 -0.80603939 16.35108471 -0.68359375 13.8671875 C-0.64169922 13.06152344 -0.59980469 12.25585938 -0.55664062 11.42578125 C-0.51732422 10.58402344 -0.47800781 9.74226563 -0.4375 8.875 C-0.39431641 8.02550781 -0.35113281 7.17601562 -0.30664062 6.30078125 C-0.20045764 4.20071777 -0.09971503 2.10038052 0 0 Z " fill="#86714A" transform="translate(160,43)"/>
<path d="M0 0 C1.5077167 0.00063221 3.01552712 0.02316954 4.52270508 0.06347656 C5.31751785 0.06913635 6.11233063 0.07479614 6.93122864 0.08062744 C9.46884498 0.10301153 12.00504713 0.15320894 14.54223633 0.20410156 C16.26291905 0.22416406 17.98362392 0.24241527 19.7043457 0.25878906 C23.92168715 0.30288262 28.13797201 0.37192191 32.35473633 0.45410156 C32.44126465 1.78997314 32.44126465 1.78997314 32.52954102 3.15283203 C32.61107422 4.32217285 32.69260742 5.49151367 32.77661133 6.69628906 C32.85492188 7.85499512 32.93323242 9.01370117 33.01391602 10.20751953 C33.55040501 15.31799993 34.51865973 18.92403773 38.60473633 22.32910156 C41.84121055 23.65311375 44.89798675 24.0078076 48.35473633 24.45410156 C48.4708176 28.87054754 48.54194953 33.28660174 48.60473633 37.70410156 C48.65500977 39.58548828 48.65500977 39.58548828 48.70629883 41.50488281 C48.71918945 42.71015625 48.73208008 43.91542969 48.74536133 45.15722656 C48.76630859 46.26743164 48.78725586 47.37763672 48.80883789 48.52148438 C48.35473633 51.45410156 48.35473633 51.45410156 46.99072266 53.81884766 C42.79011332 56.42472719 38.63220051 55.98478919 33.78833008 55.91503906 C32.75789078 55.91412262 31.72745148 55.91320618 30.66578674 55.91226196 C28.48954659 55.90622466 26.31331479 55.8904749 24.13720703 55.86572266 C20.80120329 55.82919973 17.4663098 55.82470343 14.13012695 55.82519531 C12.01618504 55.81536475 9.90225066 55.80370801 7.78833008 55.79003906 C6.78829453 55.78781342 5.78825897 55.78558777 4.75791931 55.78329468 C3.83008133 55.77053497 2.90224335 55.75777527 1.94628906 55.74462891 C1.13006577 55.73700531 0.31384247 55.72938171 -0.52711487 55.7215271 C-2.64526367 55.45410156 -2.64526367 55.45410156 -5.64526367 53.45410156 C-6.58397816 50.63795811 -6.78144392 48.8722689 -6.80639648 45.9543457 C-6.81600403 45.04652847 -6.82561157 44.13871124 -6.83551025 43.2033844 C-6.83976013 42.22522263 -6.84401001 41.24706085 -6.84838867 40.23925781 C-6.85408875 39.23197128 -6.85978882 38.22468475 -6.86566162 37.18687439 C-6.87510861 35.05599009 -6.88164441 32.92509121 -6.88549805 30.79418945 C-6.89521546 27.53278215 -6.92624678 24.27200189 -6.95776367 21.01074219 C-6.96429266 18.94108447 -6.96954354 16.87142225 -6.97338867 14.80175781 C-6.98573547 13.82562027 -6.99808228 12.84948273 -7.01080322 11.84376526 C-7.00780212 10.93279587 -7.00480103 10.02182648 -7.00170898 9.08325195 C-7.00535461 8.28399796 -7.00900024 7.48474396 -7.01275635 6.66127014 C-6.24564174 2.05396399 -4.55448586 0.56736613 0 0 Z " fill="#87714B" transform="translate(62.645263671875,46.5458984375)"/>
<path d="M0 0 C0.97988892 -0.00241196 1.95977783 -0.00482391 2.96936035 -0.00730896 C5.03706924 -0.0063313 7.10480457 0.007043 9.17236328 0.03198242 C12.33326333 0.06629242 15.49136709 0.05263637 18.65234375 0.03320312 C20.66407437 0.0401018 22.6757978 0.04977438 24.6875 0.0625 C25.63032837 0.05754013 26.57315674 0.05258026 27.54455566 0.04747009 C31.6650123 0.12125076 34.26526007 0.32039345 37.94799805 2.28442383 C40.37721556 5.28864479 40.42599247 6.87341333 40.33203125 10.70703125 C40.31591797 11.8671875 40.29980469 13.02734375 40.28320312 14.22265625 C40.22036133 16.0325 40.22036133 16.0325 40.15625 17.87890625 C40.13369141 19.1009375 40.11113281 20.32296875 40.08789062 21.58203125 C40.02896758 24.59889127 39.94674265 27.6132814 39.84375 30.62890625 C36.83776855 31.28808594 36.83776855 31.28808594 33.83178711 31.94726562 C30.1091963 33.22363472 28.52403769 36.26833086 26.84375 39.62890625 C26.61088087 42.50958362 26.4242906 45.36903144 26.28125 48.25390625 C26.136875 51.01765625 25.9925 53.78140625 25.84375 56.62890625 C17.59375 56.62890625 9.34375 56.62890625 0.84375 56.62890625 C0.68098958 53.14583333 0.51822917 49.66276042 0.35546875 46.1796875 C-0.31780462 41.50788985 -1.6812939 38.77609433 -5.40625 35.87890625 C-8.65083995 34.40409264 -11.63593725 34.07514308 -15.15625 33.62890625 C-15.30157035 29.0667416 -15.39033477 24.50517263 -15.46875 19.94140625 C-15.51064453 18.64783203 -15.55253906 17.35425781 -15.59570312 16.02148438 C-15.61181641 14.77431641 -15.62792969 13.52714844 -15.64453125 12.2421875 C-15.67071533 11.09532471 -15.69689941 9.94846191 -15.72387695 8.7668457 C-15.15625 5.62890625 -15.15625 5.62890625 -13.26049805 2.75488281 C-8.84489969 -0.26918565 -5.23934976 -0.07367661 0 0 Z " fill="#867149" transform="translate(115.15625,8.37109375)"/>
<path d="M0 0 C0.99 0.33 1.98 0.66 3 1 C3 1.33 3 1.66 3 2 C3.33 2 3.66 2 4 2 C4 10.91 4 19.82 4 29 C6.31 29 8.62 29 11 29 C15.44285126 31.30686508 17.85640633 33.50032816 20 38 C20.38794986 42.70195227 20.13255734 47.2721214 20 52 C28.25 52 36.5 52 45 52 C45 52.33 45 52.66 45 53 C36.42 53 27.84 53 19 53 C19 49.04 19 45.08 19 41 C18.34 41 17.68 41 17 41 C16.80438131 43.0825867 16.61880687 45.16611856 16.4375 47.25 C16.33308594 48.41015625 16.22867188 49.5703125 16.12109375 50.765625 C15.84547919 53.79450265 15.84547919 53.79450265 16.5 55.82226562 C17.14871948 58.64774304 17.00663065 61.18303867 16.87890625 64.078125 C16.83056641 65.23828125 16.78222656 66.3984375 16.73242188 67.59375 C16.67634766 68.8003125 16.62027344 70.006875 16.5625 71.25 C16.51029297 72.47203125 16.45808594 73.6940625 16.40429688 74.953125 C16.27470786 77.96901481 16.13974424 80.98456646 16 84 C15.67 84 15.34 84 15 84 C15 75.42 15 66.84 15 58 C12.69 58 10.38 58 8 58 C3.75111017 55.9572645 1.14323179 53.76563668 -0.55029297 49.26977539 C-1.15208658 46.23238386 -1.10513701 43.33967116 -1.0703125 40.24609375 C-1.06016113 39.07618896 -1.05000977 37.90628418 -1.03955078 36.70092773 C-1.02649902 35.80962158 -1.01344727 34.91831543 -1 34 C-6.09049582 34.11809221 -11.18079005 34.24232913 -16.27099609 34.37231445 C-18.00337626 34.4156808 -19.73579963 34.45735463 -21.46826172 34.49731445 C-23.95553627 34.55497594 -26.44259293 34.61868198 -28.9296875 34.68359375 C-29.70682098 34.70030624 -30.48395447 34.71701874 -31.28463745 34.73423767 C-35.27274216 34.76473429 -35.27274216 34.76473429 -39 36 C-39.66 35.34 -40.32 34.68 -41 34 C-39.53027344 31.03662109 -39.53027344 31.03662109 -37 28 C-33.90136014 27.45186373 -31.59839431 27.29301753 -28.515625 27.4140625 C-27.29223419 27.42679703 -27.29223419 27.42679703 -26.04412842 27.43978882 C-23.44472902 27.47331881 -20.84845779 27.54858891 -18.25 27.625 C-16.48572196 27.65510051 -14.72139518 27.68247618 -12.95703125 27.70703125 C-8.63585317 27.76800742 -4.32141676 27.88538482 0 28 C0 18.76 0 9.52 0 0 Z " fill="#98C205" transform="translate(96,13)"/>
<path d="M0 0 C0.99829834 -0.00145523 1.99659668 -0.00291046 3.02514648 -0.00440979 C5.12974983 -0.00275439 7.23436573 0.00876655 9.33886719 0.02954102 C12.55195782 0.05849874 15.76339737 0.05014104 18.9765625 0.03710938 C21.02604965 0.04334731 23.07553161 0.05173868 25.125 0.0625 C26.08140381 0.05956436 27.03780762 0.05662872 28.02319336 0.05360413 C34.64667764 0.14683477 39.00035432 1.00233937 43.91308594 5.78393555 C45.92228089 9.08768728 46.02601598 11.0456257 45.953125 14.890625 C45.94023437 16.09267578 45.92734375 17.29472656 45.9140625 18.53320312 C45.88054687 19.77908203 45.84703125 21.02496094 45.8125 22.30859375 C45.79445313 23.57380859 45.77640625 24.83902344 45.7578125 26.14257812 C45.71073916 29.2611871 45.64499094 32.37825348 45.5625 35.49609375 C46.65715576 35.4803833 47.75181152 35.46467285 48.87963867 35.44848633 C52.95166631 35.39407265 57.02366197 35.35970219 61.09594727 35.33129883 C62.85641896 35.31623822 64.6168533 35.29578549 66.37719727 35.26977539 C68.91171503 35.23327146 71.44573552 35.21634021 73.98046875 35.203125 C74.76399216 35.18764114 75.54751556 35.17215729 76.3547821 35.15620422 C82.4940623 35.15432533 85.3322473 36.55925778 89.85058594 40.4831543 C92.4785433 45.10831427 92.05628063 49.47663187 91.953125 54.703125 C91.94746521 55.78365646 91.94180542 56.86418793 91.93597412 57.97746277 C91.91362043 61.42162764 91.86342391 64.8647444 91.8125 68.30859375 C91.79243379 70.64646933 91.77418323 72.98436125 91.7578125 75.32226562 C91.71375895 81.04723136 91.64685621 86.77158767 91.5625 92.49609375 C91.2325 92.49609375 90.9025 92.49609375 90.5625 92.49609375 C90.2325 91.17609375 89.9025 89.85609375 89.5625 88.49609375 C89.2325 90.14609375 88.9025 91.79609375 88.5625 93.49609375 C88.2325 93.49609375 87.9025 93.49609375 87.5625 93.49609375 C87.55441315 92.91615662 87.54632629 92.33621948 87.53799438 91.7387085 C87.45195308 85.70400012 87.35244956 79.66962038 87.24511719 73.63525391 C87.20682843 71.38303139 87.17197539 69.13074775 87.140625 66.87841797 C87.09497263 63.64137928 87.03697785 60.40476139 86.9765625 57.16796875 C86.96501129 56.16054626 86.95346008 55.15312378 86.94155884 54.11517334 C86.92168915 53.17450012 86.90181946 52.2338269 86.88134766 51.26464844 C86.86802399 50.43858093 86.85470032 49.61251343 86.8409729 48.76141357 C86.53401754 46.26439481 85.86233996 44.63879093 84.5625 42.49609375 C80.89709035 39.65817467 76.29070175 40.14518176 71.859375 40.08203125 C71.02158508 40.0626651 70.18379517 40.04329895 69.32061768 40.02334595 C66.65134787 39.96368651 63.98203461 39.91721962 61.3125 39.87109375 C59.49998146 39.83290139 57.68748082 39.79384893 55.875 39.75390625 C51.43764585 39.65799623 47.00020675 39.57391495 42.5625 39.49609375 C42.72097412 38.79395752 42.87944824 38.09182129 43.04272461 37.3684082 C43.58140592 34.39161834 43.77041726 31.56125572 43.87890625 28.5390625 C43.94174805 26.87133789 43.94174805 26.87133789 44.00585938 25.16992188 C44.04517578 24.01943359 44.08449219 22.86894531 44.125 21.68359375 C44.18977539 19.92885742 44.18977539 19.92885742 44.25585938 18.13867188 C44.36168279 15.25792344 44.46376825 12.37709252 44.5625 9.49609375 C43.5725 9.82609375 42.5825 10.15609375 41.5625 10.49609375 C41.5625 9.83609375 41.5625 9.17609375 41.5625 8.49609375 C40.634375 8.27953125 40.634375 8.27953125 39.6875 8.05859375 C37.5625 7.49609375 37.5625 7.49609375 35.5625 6.49609375 C34.13945047 6.38174368 32.71137796 6.32676099 31.28393555 6.30322266 C30.39929123 6.28715973 29.51464691 6.2710968 28.60319519 6.25454712 C24.55553948 6.2100966 20.50804778 6.16903234 16.46020508 6.14599609 C14.32532857 6.12943534 12.19050754 6.10214387 10.0559082 6.06396484 C6.9783857 6.00920042 3.90216289 5.98732262 0.82421875 5.97265625 C-0.12802078 5.94998688 -1.08026031 5.9273175 -2.06135559 5.90396118 C-6.53891693 5.91823386 -8.77574825 6.03741622 -12.53466797 8.64282227 C-14.73470785 11.94175299 -15.0863491 13.73488262 -15.14453125 17.671875 C-15.17353516 18.82880859 -15.20253906 19.98574219 -15.23242188 21.17773438 C-15.23822266 22.37591797 -15.24402344 23.57410156 -15.25 24.80859375 C-15.27513672 26.02611328 -15.30027344 27.24363281 -15.32617188 28.49804688 C-15.38498901 31.49772062 -15.42131039 34.49593673 -15.4375 37.49609375 C-15.7675 37.49609375 -16.0975 37.49609375 -16.4375 37.49609375 C-17.94211426 28.46840819 -17.07397596 19.57322008 -16.4375 10.49609375 C-17.0975 10.16609375 -17.7575 9.83609375 -18.4375 9.49609375 C-17.34846066 5.57555213 -15.82373484 3.50406615 -12.36914062 1.32321167 C-8.42574898 -0.365327 -4.22237059 -0.04959623 0 0 Z " fill="#9CCF07" transform="translate(114.4375,3.50390625)"/>
<path d="M0 0 C1.65 0.33 3.3 0.66 5 1 C5.05819473 5.06243957 5.09366215 9.12477146 5.125 13.1875 C5.14175781 14.33798828 5.15851563 15.48847656 5.17578125 16.67382812 C5.18222656 17.78564453 5.18867188 18.89746094 5.1953125 20.04296875 C5.20578613 21.06414795 5.21625977 22.08532715 5.22705078 23.13745117 C4.98999632 26.12612167 4.25617102 28.29423369 3 31 C3.99 31 4.98 31 6 31 C6.10852923 33.87602455 6.1875515 36.74790832 6.25 39.625 C6.30027344 40.83736328 6.30027344 40.83736328 6.3515625 42.07421875 C6.44082239 47.56370226 5.70307411 50.6708666 2 55 C-1.67346771 57.44897847 -3.66356399 57.31537716 -8 57 C-12.56769017 52.43230983 -12.39485787 50.0894626 -12.4375 43.75 C-12.47037109 42.90308594 -12.50324219 42.05617187 -12.53710938 41.18359375 C-12.57434154 36.83081466 -12.40387854 33.90598506 -9.59765625 30.453125 C-5.44643038 26.5328696 -5.32802106 27 1 27 C0.67 18.09 0.34 9.18 0 0 Z " fill="#98C503" transform="translate(154,12)"/>
<path d="M0 0 C2.97 0 5.94 0 9 0 C10.35439668 2.70879335 10.06501451 5.00933268 10 8 C10.78375 7.95875 11.5675 7.9175 12.375 7.875 C15 8 15 8 17 10 C17 13.96 17 17.92 17 22 C8.75 22 0.5 22 -8 22 C-8.16276042 18.51692708 -8.32552083 15.03385417 -8.48828125 11.55078125 C-9.01289182 7.91054453 -9.97802002 6.00857611 -12 3 C-12 2.34 -12 1.68 -12 1 C-10.35 1 -8.7 1 -7 1 C-5.875 4.75 -5.875 4.75 -7 7 C-5.35 7 -3.7 7 -2 7 C-1.34 4.69 -0.68 2.38 0 0 Z " fill="#86704A" transform="translate(124,43)"/>
<path d="M0 0 C0.66 0.33 1.32 0.66 2 1 C1.484375 1.5775 0.96875 2.155 0.4375 2.75 C-1.2639046 4.82873952 -1.2639046 4.82873952 -0.59693909 6.83111572 C-0.39994919 7.54684753 -0.20295929 8.26257935 0 9 C0.08469708 10.64897611 0.11778092 12.30100408 0.11352539 13.95214844 C0.11341209 15.42322052 0.11341209 15.42322052 0.11329651 16.92401123 C0.10813522 17.97518127 0.10297394 19.02635132 0.09765625 20.109375 C0.0962413 21.19132141 0.09482635 22.27326782 0.09336853 23.38800049 C0.08777318 26.8420285 0.0752215 30.29599159 0.0625 33.75 C0.0574844 36.09244698 0.0529216 38.43489498 0.04882812 40.77734375 C0.03780528 46.5182513 0.02107174 52.25912101 0 58 C1.32 58.66 2.64 59.32 4 60 C3.505 62.475 3.505 62.475 3 65 C18.18 65 33.36 65 49 65 C49 65.33 49 65.66 49 66 C42.41655123 66.12701465 35.83341962 66.21444094 29.24902344 66.2746582 C27.01029655 66.29976693 24.77165136 66.33386086 22.53320312 66.37719727 C19.31099266 66.43800719 16.08986806 66.46624677 12.8671875 66.48828125 C11.37153763 66.52699089 11.37153763 66.52699089 9.84567261 66.56648254 C5.37456115 66.56827786 2.04898637 66.55873285 -1.55419922 63.71948242 C-5.00816573 59.87902195 -6.24387823 57.30447959 -6.29052734 52.14306641 C-6.30328705 51.18171783 -6.31604675 50.22036926 -6.32919312 49.22988892 C-6.33141876 48.1975412 -6.33364441 47.16519348 -6.3359375 46.1015625 C-6.3425943 45.03384613 -6.3492511 43.96612976 -6.35610962 42.86605835 C-6.36623052 40.60831423 -6.37092681 38.35054022 -6.37060547 36.09277344 C-6.37497506 32.64467881 -6.4112922 29.1978679 -6.44921875 25.75 C-6.45508775 23.55469187 -6.45905659 21.35937767 -6.4609375 19.1640625 C-6.47530853 18.13576324 -6.48967957 17.10746399 -6.50448608 16.04800415 C-6.45773738 8.69636877 -5.24407686 5.24407686 0 0 Z " fill="#A3CE1A" transform="translate(57,42)"/>
<path d="M0 0 C1.65 0 3.3 0 5 0 C6.5053109 3.95633425 8.00334593 7.91538367 9.5 11.875 C9.92925781 13.00292969 10.35851562 14.13085938 10.80078125 15.29296875 C11.40986328 16.90751953 11.40986328 16.90751953 12.03125 18.5546875 C12.40830078 19.54968262 12.78535156 20.54467773 13.17382812 21.56982422 C14 24 14 24 14 26 C12.35 26 10.7 26 9 26 C8.34 23.69 7.68 21.38 7 19 C4.03 19 1.06 19 -2 19 C-2.66 21.31 -3.32 23.62 -4 26 C-5.65 26 -7.3 26 -9 26 C-6.80839923 17.10887166 -4.1075706 8.2151412 0 0 Z " fill="#9AC107" transform="translate(126,24)"/>
<path d="M0 0 C2.5 1 2.5 1 4 2 C4 3.32 4 4.64 4 6 C0.7 5.67 -2.6 5.34 -6 5 C-6.33 6.32 -6.66 7.64 -7 9 C-6.39671875 9.17015625 -5.7934375 9.3403125 -5.171875 9.515625 C3.45856354 12.13259669 3.45856354 12.13259669 6 16 C6.25 19.25 6.25 19.25 6 22 C5.34 22 4.68 22 4 22 C3.67 22.99 3.34 23.98 3 25 C-0.97031971 27.21870807 -4.51871401 27.32591171 -9 27 C-11.4375 26 -11.4375 26 -13 25 C-13 23.02 -13 21.04 -13 19 C-12.43796875 19.32742187 -11.8759375 19.65484375 -11.296875 19.9921875 C-8.73140036 21.11785494 -7.03157723 21.2068111 -4.25 21.125 C-3.05117187 21.09792969 -3.05117187 21.09792969 -1.828125 21.0703125 C-1.22484375 21.04710938 -0.6215625 21.02390625 0 21 C0 19.68 0 18.36 0 17 C-0.60328125 16.81824219 -1.2065625 16.63648437 -1.828125 16.44921875 C-10.85631068 13.60970874 -10.85631068 13.60970874 -13 11 C-13.5625 7.5625 -13.5625 7.5625 -13 4 C-9.16154426 -0.67811794 -5.64477487 -0.53759761 0 0 Z " fill="#9AC505" transform="translate(85,58)"/>
<path d="M0 0 C0.99 0.495 0.99 0.495 2 1 C1.01 1.495 1.01 1.495 0 2 C0 1.34 0 0.68 0 0 Z M-2 2 C-1.34 2.33 -0.68 2.66 0 3 C-0.33 3.66 -0.66 4.32 -1 5 C1.64738916 6.4606285 2.89448334 7 6 7 C6.66 7 7.32 7 8 7 C6.98323353 14.45628743 6.98323353 14.45628743 5 17 C2.33517159 17.46709352 0.04929034 17.69572473 -2.625 17.75 C-3.33140625 17.77964844 -4.0378125 17.80929688 -4.765625 17.83984375 C-6.50980047 17.91055357 -8.25490827 17.95754035 -10 18 C-10 17.34 -10 16.68 -10 16 C-12.31 16.33 -14.62 16.66 -17 17 C-17.75 14.8125 -17.75 14.8125 -18 12 C-15.99884104 8.47796023 -14.78058176 7.23417453 -10.875 6.0625 C-9.451875 6.0315625 -9.451875 6.0315625 -8 6 C-7.34 6.66 -6.68 7.32 -6 8 C-5.71125 7.195625 -5.4225 6.39125 -5.125 5.5625 C-4 3 -4 3 -2 2 Z " fill="#E5EFBC" transform="translate(56,106)"/>
<path d="M0 0 C0.33 0 0.66 0 1 0 C1.495 8.415 1.495 8.415 2 17 C2.33 12.05 2.66 7.1 3 2 C3.33 2 3.66 2 4 2 C4.495 11.405 4.495 11.405 5 21 C6.98 21 8.96 21 11 21 C11 21.33 11 21.66 11 22 C3.25 23.125 3.25 23.125 1 22 C1 30.58 1 39.16 1 48 C0.67 48 0.34 48 0 48 C0 39.75 0 31.5 0 23 C-8.25 23 -16.5 23 -25 23 C-25.33 22.01 -25.66 21.02 -26 20 C-26.66 20.33 -27.32 20.66 -28 21 C-28.66 20.34 -29.32 19.68 -30 19 C-29.9765625 15.7421875 -29.9765625 15.7421875 -29.625 11.875 C-29.51414062 10.59367187 -29.40328125 9.31234375 -29.2890625 7.9921875 C-29.19367188 7.00476562 -29.09828125 6.01734375 -29 5 C-28.01 5.33 -27.02 5.66 -26 6 C-26 9.96 -26 13.92 -26 18 C-17.42 18 -8.84 18 0 18 C0 12.06 0 6.12 0 0 Z " fill="#9CD20E" transform="translate(141,48)"/>
<path d="M0 0 C0.99 0 1.98 0 3 0 C3.33 1.65 3.66 3.3 4 5 C5.65 5 7.3 5 9 5 C10.1875 6.625 10.1875 6.625 11 9 C9.625 12.25 9.625 12.25 8 15 C6.02 15 4.04 15 2 15 C1.67 14.01 1.34 13.02 1 12 C0.34 12 -0.32 12 -1 12 C-1.33 13.32 -1.66 14.64 -2 16 C-2.66 16 -3.32 16 -4 16 C-4 14.68 -4 13.36 -4 12 C-4.99 13.485 -4.99 13.485 -6 15 C-9.125 15.1875 -9.125 15.1875 -12 15 C-12.32728047 11.39991481 -12.40422813 9.58388508 -10.3125 6.5625 C-8 5 -8 5 -5.25 5.25 C-4.5075 5.4975 -3.765 5.745 -3 6 C-3 6.66 -3 7.32 -3 8 C-2.34 8 -1.68 8 -1 8 C-0.67 5.36 -0.34 2.72 0 0 Z " fill="#ECF3CB" transform="translate(77,108)"/>
<path d="M0 0 C3.68141088 0.28318545 6.31445156 0.544442 9.421875 2.609375 C11.61228136 5.92751533 11.3957864 8.3137672 11.25 12.25 C11.21390625 13.51328125 11.1778125 14.7765625 11.140625 16.078125 C11.07101563 17.52445313 11.07101563 17.52445313 11 19 C4.76624294 19.47951977 4.76624294 19.47951977 1.578125 17.484375 C-0.57227109 14.09909799 -0.44015456 11.11891398 -0.25 7.25 C-0.23195313 6.55261719 -0.21390625 5.85523438 -0.1953125 5.13671875 C-0.14838554 3.42388461 -0.07664605 1.71176176 0 0 Z " fill="#867248" transform="translate(100,46)"/>
<path d="M0 0 C0.10806144 2.91765891 0.18732877 5.83131125 0.25 8.75 C0.30027344 9.9875 0.30027344 9.9875 0.3515625 11.25 C0.44945968 17.31962525 0.44945968 17.31962525 -1.703125 20.578125 C-4.3800051 22.23524125 -5.9065725 22.34371417 -9 22 C-9.13548815 19.26916098 -9.23429855 16.54508193 -9.3125 13.8125 C-9.35439453 13.04357422 -9.39628906 12.27464844 -9.43945312 11.48242188 C-9.5312995 7.20238072 -9.37150544 5.49939028 -6.73046875 1.94921875 C-4 0 -4 0 0 0 Z " fill="#867147" transform="translate(155,43)"/>
<path d="M0 0 C6.6 0 13.2 0 20 0 C20 1.32 20 2.64 20 4 C17.36 4 14.72 4 12 4 C12 10.6 12 17.2 12 24 C10.68 24 9.36 24 8 24 C8 17.4 8 10.8 8 4 C5.36 4 2.72 4 0 4 C0 2.68 0 1.36 0 0 Z " fill="#9CC703" transform="translate(165,60)"/>
<path d="M0 0 C1.76923828 0.04060547 1.76923828 0.04060547 3.57421875 0.08203125 C4.47785156 0.11683594 5.38148438 0.15164062 6.3125 0.1875 C7.30280231 4.30798864 7.18375129 6.33492381 5.3125 10.1875 C-0.02083333 10.1875 -5.35416667 10.1875 -10.6875 10.1875 C-10.08431568 3.79374617 -10.08431568 3.79374617 -8.5625 1.46875 C-5.73978578 -0.46010472 -3.36831983 -0.1000491 0 0 Z " fill="#E4EEB8" transform="translate(212.6875,112.8125)"/>
<path d="M0 0 C1.37665643 0.04268067 2.75255305 0.11866708 4.12597656 0.22216797 C4.85278625 0.2528537 5.57959595 0.28353943 6.32843018 0.31515503 C8.64361006 0.41950774 10.95384632 0.56629298 13.26660156 0.71435547 C14.83807859 0.79268656 16.40969671 0.86823974 17.98144531 0.94091797 C21.82887562 1.12490118 25.67242733 1.34695858 29.51660156 1.58935547 C30.01160156 3.56935547 30.01160156 3.56935547 30.51660156 5.58935547 C29.56817383 5.6091748 28.61974609 5.62899414 27.64257812 5.64941406 C24.11627792 5.72761307 20.59039795 5.81430913 17.06445312 5.90673828 C15.53979498 5.94496813 14.01504849 5.97983147 12.49023438 6.01123047 C10.29557775 6.05701209 8.10152616 6.11498313 5.90722656 6.17529297 C4.88825287 6.19261978 4.88825287 6.19261978 3.84869385 6.21029663 C0.25822796 6.32170463 -2.41958332 6.64893922 -5.48339844 8.58935547 C-6.14339844 7.92935547 -6.80339844 7.26935547 -7.48339844 6.58935547 C-4.49905903 0.76119488 -4.49905903 0.76119488 0 0 Z " fill="#99CF02" transform="translate(62.4833984375,40.41064453125)"/>
<path d="M0 0 C0.495 1.485 0.495 1.485 1 3 C-2.02960993 4.74890971 -4.19166675 5.24619963 -7.67675781 5.22705078 C-8.59741028 5.22689972 -9.51806274 5.22674866 -10.46661377 5.22659302 C-11.45216248 5.21627045 -12.43771118 5.20594788 -13.453125 5.1953125 C-14.97616241 5.19106766 -14.97616241 5.19106766 -16.52996826 5.18673706 C-19.77009916 5.17555001 -23.00995276 5.15044791 -26.25 5.125 C-28.44791267 5.1149683 -30.64582968 5.10584278 -32.84375 5.09765625 C-38.22926114 5.07561551 -43.61461076 5.04215251 -49 5 C-49 4.01 -49 3.02 -49 2 C-48.43037033 1.98969254 -47.86074066 1.97938507 -47.27384949 1.96876526 C-41.35294092 1.86070723 -35.43218475 1.74610855 -29.51147461 1.62768555 C-27.30089502 1.58433448 -25.09028191 1.54265954 -22.87963867 1.50268555 C-19.70481251 1.44498734 -16.53015514 1.38129138 -13.35546875 1.31640625 C-12.36475876 1.29969376 -11.37404877 1.28298126 -10.35331726 1.26576233 C-9.43258926 1.24581711 -8.51186127 1.22587189 -7.56323242 1.20532227 C-6.7527092 1.18977798 -5.94218597 1.1742337 -5.10710144 1.15821838 C-2.80853317 1.07190279 -2.80853317 1.07190279 0 0 Z " fill="#A0D015" transform="translate(199,100)"/>
<path d="M0 0 C0.928125 0.0825 1.85625 0.165 2.8125 0.25 C2.8125 1.24 2.8125 2.23 2.8125 3.25 C3.369375 2.755 3.92625 2.26 4.5 1.75 C7.19412983 0.00245633 8.66625007 -0.01218749 11.8125 0.25 C12.1425 0.91 12.4725 1.57 12.8125 2.25 C10.8325 2.58 8.8525 2.91 6.8125 3.25 C8.1325 3.91 9.4525 4.57 10.8125 5.25 C10.4825 6.9 10.1525 8.55 9.8125 10.25 C4.5325 10.25 -0.7475 10.25 -6.1875 10.25 C-6.1875 4.25 -6.1875 4.25 -5.0625 1.875 C-3.1875 0.25 -3.1875 0.25 0 0 Z " fill="#DEEBA7" transform="translate(106.1875,112.75)"/>
<path d="M0 0 C0.89203125 0.10183594 1.7840625 0.20367187 2.703125 0.30859375 C3.37859375 0.39238281 4.0540625 0.47617188 4.75 0.5625 C5.90837626 4.61681692 5.58691257 6.78062119 3.75 10.5625 C2.76879536 7.50986336 2.76879536 5.61513664 3.75 2.5625 C1.73567734 3.06506112 1.73567734 3.06506112 -0.25 4.5625 C-1.54920746 8.10838501 -1.54920746 8.10838501 -2.25 11.5625 C-2.765625 11.3975 -3.28125 11.2325 -3.8125 11.0625 C-6.98363876 10.41201 -10.02218334 10.5004266 -13.25 10.5625 C-13.57693436 6.96622208 -13.72194463 5.18614112 -11.5 2.25 C-7.68029587 -0.61477809 -4.64860714 -0.55049295 0 0 Z " fill="#F1F7DA" transform="translate(138.25,112.4375)"/>
<path d="M0 0 C0.66 0 1.32 0 2 0 C2.33 1.98 2.66 3.96 3 6 C3.99 5.34 4.98 4.68 6 4 C8.6875 4.375 8.6875 4.375 11 5 C10.25 11.75 10.25 11.75 8 14 C5.1796875 14.1953125 5.1796875 14.1953125 1.875 14.125 C0.77929688 14.10695313 -0.31640625 14.08890625 -1.4453125 14.0703125 C-2.28835937 14.04710938 -3.13140625 14.02390625 -4 14 C-3.00956295 9.16371695 -2.04301154 4.52381127 0 0 Z " fill="#B9D347" transform="translate(154,109)"/>
<path d="M0 0 C1.36732013 3.69176436 0.46632841 5.4635609 -1 9 C-1.16798262 11.70886941 -1.16798262 11.70886941 -1 14 C-2.65 14 -4.3 14 -6 14 C-6 13.34 -6 12.68 -6 12 C-8.31 12.33 -10.62 12.66 -13 13 C-13.75 10.8125 -13.75 10.8125 -14 8 C-11.99884104 4.47796023 -10.78058176 3.23417453 -6.875 2.0625 C-5.451875 2.0315625 -5.451875 2.0315625 -4 2 C-3.34 2.66 -2.68 3.32 -2 4 C-1.34 2.68 -0.68 1.36 0 0 Z " fill="#B7D045" transform="translate(52,110)"/>
<path d="M0 0 C0.33 0 0.66 0 1 0 C1.33 5.61 1.66 11.22 2 17 C2.33 12.05 2.66 7.1 3 2 C3.33 2 3.66 2 4 2 C4.33 8.27 4.66 14.54 5 21 C6.98 21 8.96 21 11 21 C11 21.33 11 21.66 11 22 C3.25 23.125 3.25 23.125 1 22 C1 30.58 1 39.16 1 48 C0.67 48 0.34 48 0 48 C0 39.42 0 30.84 0 22 C-1.32 21.67 -2.64 21.34 -4 21 C-4 20.01 -4 19.02 -4 18 C-2.68 18 -1.36 18 0 18 C0 12.06 0 6.12 0 0 Z " fill="#A4CA24" transform="translate(141,48)"/>
<path d="M0 0 C1.32 0 2.64 0 4 0 C4 8.25 4 16.5 4 25 C3.34 24.34 2.68 23.68 2 23 C1.34 23.99 0.68 24.98 0 26 C0 17.42 0 8.84 0 0 Z " fill="#97C801" transform="translate(142,70)"/>
<path d="M0 0 C3 1 3 1 4.1328125 3.109375 C4.46023437 3.98078125 4.78765625 4.8521875 5.125 5.75 C5.45757812 6.61109375 5.79015625 7.4721875 6.1328125 8.359375 C6.96617277 10.89699457 7.53680766 13.37209246 8 16 C5.59454362 17.20272819 4.05003047 17.10071472 1.375 17.0625 C0.14910156 17.04896484 0.14910156 17.04896484 -1.1015625 17.03515625 C-1.72804688 17.02355469 -2.35453125 17.01195313 -3 17 C-3.33 16.34 -3.66 15.68 -4 15 C-4.66 15 -5.32 15 -6 15 C-5.125 9.25 -5.125 9.25 -4 7 C-3.01 7 -2.02 7 -1 7 C-1.33 9.31 -1.66 11.62 -2 14 C-0.02 14 1.96 14 4 14 C3.79503906 13.40832031 3.59007812 12.81664062 3.37890625 12.20703125 C2.0002429 8.16339184 0.68249153 4.23144751 0 0 Z " fill="#99CD02" transform="translate(127,25)"/>
<path d="M0 0 C0.33 0 0.66 0 1 0 C1 1.65 1 3.3 1 5 C-0.32 5.33 -1.64 5.66 -3 6 C-2.01 6.33 -1.02 6.66 0 7 C0 8.65 0 10.3 0 12 C-3.96 10.35 -7.92 8.7 -12 7 C-11 3 -11 3 -10 2 C-6.50265772 2.38859359 -3.34211739 2.88596087 0 4 C0 2.68 0 1.36 0 0 Z " fill="#877C3B" transform="translate(89,60)"/>
<path d="M0 0 C1.1446875 0.3403125 1.1446875 0.3403125 2.3125 0.6875 C1.84449289 4.74356165 1.43296792 8.15338679 -0.6875 11.6875 C-1.0175 11.0275 -1.3475 10.3675 -1.6875 9.6875 C-4.21483235 9.03194881 -4.21483235 9.03194881 -6.6875 8.6875 C-6.09018456 3.31166107 -6.09018456 3.31166107 -4.4375 0.75 C-2.6875 -0.3125 -2.6875 -0.3125 0 0 Z " fill="#B7D23F" transform="translate(172.6875,113.3125)"/>
<path d="M0 0 C0 0.66 0 1.32 0 2 C-0.66 2 -1.32 2 -2 2 C-2.33 3.65 -2.66 5.3 -3 7 C-2.443125 6.649375 -1.88625 6.29875 -1.3125 5.9375 C1.53886783 4.78154007 3.08517222 5.19032562 6 6 C6 6.33 6 6.66 6 7 C4.35 7.33 2.7 7.66 1 8 C2.32 8.66 3.64 9.32 5 10 C4.125 13.875 4.125 13.875 3 15 C1.00041636 15.04080783 -1.00045254 15.04254356 -3 15 C-2.67 14.34 -2.34 13.68 -2 13 C-0.68 13 0.64 13 2 13 C2.33 12.34 2.66 11.68 3 11 C1.35 10.67 -0.3 10.34 -2 10 C-2 9.34 -2 8.68 -2 8 C-2.66 8 -3.32 8 -4 8 C-4.66 10.31 -5.32 12.62 -6 15 C-6.66 15 -7.32 15 -8 15 C-7.5758071 13.05954312 -7.13514005 11.12268239 -6.6875 9.1875 C-6.44386719 8.10855469 -6.20023438 7.02960938 -5.94921875 5.91796875 C-4.85007124 2.53910787 -3.83862427 0 0 0 Z " fill="#C4D969" transform="translate(184,108)"/>
<path d="M0 0 C0.66 0 1.32 0 2 0 C3.80878388 5.42635165 3.05200784 11.33114562 3 17 C11.25 17 19.5 17 28 17 C28 17.33 28 17.66 28 18 C19.42 18 10.84 18 2 18 C2 14.04 2 10.08 2 6 C1.34 6 0.68 6 0 6 C-0.33 9.63 -0.66 13.26 -1 17 C-1.33 17 -1.66 17 -2 17 C-2.05383848 14.54137599 -2.09359038 12.0839245 -2.125 9.625 C-2.14175781 8.92632812 -2.15851563 8.22765625 -2.17578125 7.5078125 C-2.19344267 5.67102514 -2.10303261 3.83398037 -2 2 C-1.34 1.34 -0.68 0.68 0 0 Z " fill="#97AF0C" transform="translate(113,48)"/>
<path d="M0 0 C1.8125 0.9375 1.8125 0.9375 2.8125 3.9375 C1.375 7.125 1.375 7.125 -0.1875 9.9375 C-2.1675 9.9375 -4.1475 9.9375 -6.1875 9.9375 C-6.51852914 6.2961795 -6.60769439 4.52277075 -4.4375 1.5 C-2.1875 -0.0625 -2.1875 -0.0625 0 0 Z " fill="#B7D141" transform="translate(85.1875,113.0625)"/>
<path d="M0 0 C0.66 0 1.32 0 2 0 C2.33 1.32 2.66 2.64 3 4 C2.01 4 1.02 4 0 4 C0 5.32 0 6.64 0 8 C1.99983534 7.20882096 1.99983534 7.20882096 4 6 C4.33 5.01 4.66 4.02 5 3 C5.66 3 6.32 3 7 3 C6.34 6.3 5.68 9.6 5 13 C4.01 13.33 3.02 13.66 2 14 C1.67 13.34 1.34 12.68 1 12 C-0.32 12 -1.64 12 -3 12 C-2.49202991 7.6822542 -1.80317221 3.96697886 0 0 Z " fill="#DDEAA3" transform="translate(194,111)"/>
<path d="M0 0 C0.33 0 0.66 0 1 0 C1 1.65 1 3.3 1 5 C15.52 5 30.04 5 45 5 C45 5.33 45 5.66 45 6 C38.36148394 6.07596686 31.72307965 6.12856456 25.08422852 6.16479492 C22.82507132 6.17989602 20.56594351 6.20037842 18.30688477 6.22631836 C15.06258907 6.26264308 11.81868044 6.27971308 8.57421875 6.29296875 C7.56163498 6.30845261 6.54905121 6.32393646 5.50578308 6.33988953 C4.09465996 6.34022942 4.09465996 6.34022942 2.6550293 6.34057617 C1.82674118 6.34723801 0.99845306 6.35389984 0.14506531 6.36076355 C-2.47210321 5.92060026 -3.34755537 5.0209846 -5 3 C-3.35 3 -1.7 3 0 3 C0 2.01 0 1.02 0 0 Z " fill="#84743E" transform="translate(62,96)"/>
<path d="M0 0 C0.66 0 1.32 0 2 0 C2.67595315 1.41225926 3.34040059 2.83002905 4 4.25 C4.37125 5.03890625 4.7425 5.8278125 5.125 6.640625 C6 9 6 9 6 13 C4.02 13 2.04 13 0 13 C0.33 10.69 0.66 8.38 1 6 C0.01 6 -0.98 6 -2 6 C-1.34 4.02 -0.68 2.04 0 0 Z " fill="#96BA09" transform="translate(125,26)"/>
<path d="M0 0 C0.66 0 1.32 0 2 0 C2.83888043 4.9284225 2.83888043 8.0715775 2 13 C0.02 13.33 -1.96 13.66 -4 14 C-3.00956295 9.16371695 -2.04301154 4.52381127 0 0 Z " fill="#DCEAA4" transform="translate(154,109)"/>
<path d="M0 0 C2.125 0.375 2.125 0.375 4 1 C3.125 7.75 3.125 7.75 2 10 C-0.31 10 -2.62 10 -5 10 C-4.125 5.125 -4.125 5.125 -3 4 C-1.00041636 3.95919217 1.00045254 3.95745644 3 4 C3 3.34 3 2.68 3 2 C1.35 2 -0.3 2 -2 2 C-1.34 1.34 -0.68 0.68 0 0 Z " fill="#C6DB69" transform="translate(216,113)"/>
<path d="M0 0 C3.5514328 1.9196934 5.93362286 3.50460595 8 7 C8.34057617 9.93261719 8.34057617 9.93261719 8.29296875 13.296875 C8.28330078 14.50214844 8.27363281 15.70742188 8.26367188 16.94921875 C8.23853516 18.20347656 8.21339844 19.45773438 8.1875 20.75 C8.17396484 22.01972656 8.16042969 23.28945313 8.14648438 24.59765625 C8.1111324 27.73219844 8.06178248 30.86588545 8 34 C7.67 34 7.34 34 7 34 C7 25.42 7 16.84 7 8 C6.01 8.33 5.02 8.66 4 9 C4 8.34 4 7.68 4 7 C3.34 6.67 2.68 6.34 2 6 C0.75230162 3.85118612 0 2.50320403 0 0 Z " fill="#A8D424" transform="translate(152,5)"/>
<path d="M0 0 C1.36732013 3.69176436 0.46632841 5.4635609 -1 9 C-1.16798262 11.70886941 -1.16798262 11.70886941 -1 14 C-2.65 14 -4.3 14 -6 14 C-7.24674659 10.25976024 -6.76679965 7.83399823 -6 4 C-5.34 3.34 -4.68 2.68 -4 2 C-3.34 2.66 -2.68 3.32 -2 4 C-1.34 2.68 -0.68 1.36 0 0 Z " fill="#DCEAA2" transform="translate(52,110)"/>
<path d="M0 0 C1.65 0.33 3.3 0.66 5 1 C5 2.65 5 4.3 5 6 C2.69 6 0.38 6 -2 6 C-1.67 6.66 -1.34 7.32 -1 8 C0.32 8 1.64 8 3 8 C3 8.66 3 9.32 3 10 C1.02 10 -0.96 10 -3 10 C-3.36923077 4.58461538 -3.36923077 4.58461538 -1.5 1.625 C-1.005 1.08875 -0.51 0.5525 0 0 Z " fill="#C5DB64" transform="translate(103,113)"/>
<path d="M0 0 C0.86625 0.37125 0.86625 0.37125 1.75 0.75 C1.75 2.4 1.75 4.05 1.75 5.75 C-0.56 5.75 -2.87 5.75 -5.25 5.75 C-5.25 6.74 -5.25 7.73 -5.25 8.75 C-3.27 9.245 -3.27 9.245 -1.25 9.75 C-2.9 9.75 -4.55 9.75 -6.25 9.75 C-6.58102914 6.1086795 -6.67019439 4.33527075 -4.5 1.3125 C-2.25 -0.25 -2.25 -0.25 0 0 Z " fill="#C3DB61" transform="translate(131.25,113.25)"/>
<path d="M0 0 C3 2 3 2 4 5 C6.01508358 5.73323796 6.01508358 5.73323796 8 6 C7.67 7.65 7.34 9.3 7 11 C3.15837998 9.75406918 0.8854141 8.66608297 -1 5 C-0.6875 2.25 -0.6875 2.25 0 0 Z " fill="#9CD00E" transform="translate(53,96)"/>
<path d="M0 0 C-0.39753821 1.46366342 -0.81881384 2.9208935 -1.25 4.375 C-1.59804687 5.59316406 -1.59804687 5.59316406 -1.953125 6.8359375 C-3.2214892 9.45785454 -4.32423308 9.99382318 -7 11 C-6.34 9.02 -5.68 7.04 -5 5 C-6.65 4.67 -8.3 4.34 -10 4 C-7.93026888 -0.13946223 -4.25879356 -0.23659964 0 0 Z " fill="#F7FAEA" transform="translate(194,113)"/>
<path d="M0 0 C1.134375 0.020625 2.26875 0.04125 3.4375 0.0625 C3.4375 0.3925 3.4375 0.7225 3.4375 1.0625 C1.7359375 1.495625 1.7359375 1.495625 0 1.9375 C-1.175625 2.30875 -2.35125 2.68 -3.5625 3.0625 C-3.8925 3.7225 -4.2225 4.3825 -4.5625 5.0625 C-1.5925 5.5575 -1.5925 5.5575 1.4375 6.0625 C1.5625 8.4375 1.5625 8.4375 1.4375 11.0625 C-0.5625 13.0625 -0.5625 13.0625 -4.1875 13.1875 C-5.30125 13.14625 -6.415 13.105 -7.5625 13.0625 C-7.8925 12.4025 -8.2225 11.7425 -8.5625 11.0625 C-5.9225 11.0625 -3.2825 11.0625 -0.5625 11.0625 C-1.23118314 7.94917752 -1.23118314 7.94917752 -3.625 6.875 C-4.264375 6.606875 -4.90375 6.33875 -5.5625 6.0625 C-4.48849278 0.07874549 -4.48849278 0.07874549 0 0 Z " fill="#B6D03F" transform="translate(34.5625,109.9375)"/>
<path d="M0 0 C1.99954746 -0.04254356 4.00041636 -0.04080783 6 0 C6.33 0.33 6.66 0.66 7 1 C6.94921875 2.8125 6.94921875 2.8125 6.6875 5 C6.56955078 6.0828125 6.56955078 6.0828125 6.44921875 7.1875 C6.30097656 7.785625 6.15273437 8.38375 6 9 C5.01 9.495 5.01 9.495 4 10 C4.33 7.36 4.66 4.72 5 2 C3.00136244 2.57944932 3.00136244 2.57944932 1 4 C-0.29231642 7.04199472 -0.29231642 7.04199472 -1 10 C-1.66 10 -2.32 10 -3 10 C-2.01 6.7 -1.02 3.4 0 0 Z " fill="#BED758" transform="translate(91,113)"/>
<path d="M0 0 C2 3 2 3 2.9375 5 C4.04407247 7.08295994 5.26406866 8.4218806 7 10 C4.69 9.67 2.38 9.34 0 9 C-0.33 9.99 -0.66 10.98 -1 12 C-1.66 12 -2.32 12 -3 12 C-2.67 10.35 -2.34 8.7 -2 7 C-2.66 7 -3.32 7 -4 7 C-4 6.34 -4 5.68 -4 5 C-2.68 4.67 -1.36 4.34 0 4 C0 2.68 0 1.36 0 0 Z M-5 12 C-4.01 12.495 -4.01 12.495 -3 13 C-3.99 13.495 -3.99 13.495 -5 14 C-5 13.34 -5 12.68 -5 12 Z " fill="#857641" transform="translate(95,60)"/>
<path d="M0 0 C-0.75 6.75 -0.75 6.75 -3 9 C-2.67 6.36 -2.34 3.72 -2 1 C-3.99863756 1.57944932 -3.99863756 1.57944932 -6 3 C-7.29231642 6.04199472 -7.29231642 6.04199472 -8 9 C-8.66 9 -9.32 9 -10 9 C-9.57742724 7.5164999 -9.13643678 6.03823576 -8.6875 4.5625 C-8.32205078 3.32693359 -8.32205078 3.32693359 -7.94921875 2.06640625 C-7.63597656 1.38449219 -7.32273438 0.70257813 -7 0 C-3.86650268 -1.04449911 -3.01031744 -0.93423645 0 0 Z " fill="#BAD449" transform="translate(144,114)"/>
<path d="M0 0 C5.94 0 11.88 0 18 0 C18 0.66 18 1.32 18 2 C12.06 2.33 6.12 2.66 0 3 C0 2.01 0 1.02 0 0 Z " fill="#96D100" transform="translate(166,61)"/>
<path d="M0 0 C1.32 0.33 2.64 0.66 4 1 C3.01 3.97 2.02 6.94 1 10 C1.66 10.33 2.32 10.66 3 11 C1.35 11 -0.3 11 -2 11 C-1.34 7.37 -0.68 3.74 0 0 Z " fill="#F2F8DC" transform="translate(175,113)"/>
<path d="M0 0 C2.475 0.495 2.475 0.495 5 1 C5 1.99 5 2.98 5 4 C4.34 4 3.68 4 3 4 C3 11.26 3 18.52 3 26 C2.67 26 2.34 26 2 26 C1.97494385 25.31897217 1.9498877 24.63794434 1.92407227 23.9362793 C1.80809048 20.85316245 1.68537384 17.77034954 1.5625 14.6875 C1.52318359 13.61564453 1.48386719 12.54378906 1.44335938 11.43945312 C1.40146484 10.41142578 1.35957031 9.38339844 1.31640625 8.32421875 C1.26141968 6.9024231 1.26141968 6.9024231 1.20532227 5.4519043 C1.08569813 2.863829 1.08569813 2.863829 0 0 Z " fill="#9DCF01" transform="translate(154,12)"/>
<path d="M0 0 C-0.3125 1.875 -0.3125 1.875 -1 4 C-4.6441774 6.4294516 -6.71241272 6.16179575 -11 6 C-11.33 5.01 -11.66 4.02 -12 3 C-10.9171875 3.37125 -10.9171875 3.37125 -9.8125 3.75 C-6.83172517 4.32409662 -6.83172517 4.32409662 -4.3125 2.0625 C-2 0 -2 0 0 0 Z " fill="#9ACD02" transform="translate(157,63)"/>
<path d="M0 0 C1.98 0 3.96 0 6 0 C6 0.66 6 1.32 6 2 C6.66 2.33 7.32 2.66 8 3 C7.67 3.66 7.34 4.32 7 5 C4.69 5 2.38 5 0 5 C0 3.35 0 1.7 0 0 Z " fill="#D1E38A" transform="translate(165,125)"/>
<path d="M0 0 C1.32 0 2.64 0 4 0 C3.25 4.75 3.25 4.75 1 7 C0.01 7 -0.98 7 -2 7 C-2.125 4.625 -2.125 4.625 -2 2 C-1.34 1.34 -0.68 0.68 0 0 Z " fill="#F5FAE3" transform="translate(42,115)"/>
<path d="M0 0 C0.66 0 1.32 0 2 0 C2.33 0.66 2.66 1.32 3 2 C5.02463255 2.65213292 5.02463255 2.65213292 7 3 C6.67 3.99 6.34 4.98 6 6 C0.25 7.125 0.25 7.125 -2 6 C-1.34 4.02 -0.68 2.04 0 0 Z " fill="#F8FBEA" transform="translate(180,116)"/>
<path d="M0 0 C1.32 0 2.64 0 4 0 C3.67 1.98 3.34 3.96 3 6 C1.35 6.33 -0.3 6.66 -2 7 C-1.125 2.25 -1.125 2.25 0 0 Z " fill="#F5F9E3" transform="translate(82,115)"/>
<path d="M0 0 C-0.556875 0.12375 -1.11375 0.2475 -1.6875 0.375 C-4.22114364 1.05976855 -6.57921032 1.99133763 -9 3 C-8.01 4.485 -8.01 4.485 -7 6 C-9 5 -11 4 -13 3 C-12.67 2.01 -12.34 1.02 -12 0 C-7.74433453 -1.16063604 -4.3164922 -0.76173392 0 0 Z " fill="#847540" transform="translate(85,74)"/>
<path d="M0 0 C0.66 0.33 1.32 0.66 2 1 C1.484375 1.5775 0.96875 2.155 0.4375 2.75 C-1.26505193 4.87827523 -1.26505193 4.87827523 -0.6875 7.25 C-0.3471875 8.11625 -0.3471875 8.11625 0 9 C-0.99 9.66 -1.98 10.32 -3 11 C-3 10.34 -3 9.68 -3 9 C-3.66 9 -4.32 9 -5 9 C-4.5206753 4.68607774 -3.2542015 2.83430453 0 0 Z " fill="#A0CE13" transform="translate(57,42)"/>
<path d="M0 0 C0.99 0 1.98 0 3 0 C3.125 2.375 3.125 2.375 3 5 C2.34 5.66 1.68 6.32 1 7 C0.01 7 -0.98 7 -2 7 C-2.125 4.625 -2.125 4.625 -2 2 C-1.34 1.34 -0.68 0.68 0 0 Z " fill="#F7FBE8" transform="translate(170,115)"/>
<path d="M0 0 C0.99 0 1.98 0 3 0 C3.125 2.375 3.125 2.375 3 5 C2.34 5.66 1.68 6.32 1 7 C0.01 7 -0.98 7 -2 7 C-2.125 4.625 -2.125 4.625 -2 2 C-1.34 1.34 -0.68 0.68 0 0 Z " fill="#F8FBEB" transform="translate(160,115)"/>
<path d="M0 0 C0.33 0 0.66 0 1 0 C1.76681614 8.77578475 1.76681614 8.77578475 -0.11328125 11.77734375 C-1.5 13.125 -1.5 13.125 -4 15 C-3.53293148 12.82034689 -3.04200607 11.07412835 -1.9375 9.125 C-0.71438444 6.35260474 -0.93336959 3.99836851 -1 1 C-0.67 0.67 -0.34 0.34 0 0 Z " fill="#9BCE10" transform="translate(204,88)"/>
<path d="M0 0 C1.65 0 3.3 0 5 0 C5.33 0.99 5.66 1.98 6 3 C3.64561267 4.42944945 2.51967567 5.08661261 -0.25 4.625 C-0.8275 4.41875 -1.405 4.2125 -2 4 C-1.34 2.68 -0.68 1.36 0 0 Z " fill="#867246" transform="translate(79,62)"/>
<path d="M0 0 C0.66 0 1.32 0 2 0 C2.33 1.32 2.66 2.64 3 4 C2.01 4 1.02 4 0 4 C0 6.64 0 9.28 0 12 C-0.99 12 -1.98 12 -3 12 C-2.49202991 7.6822542 -1.80317221 3.96697886 0 0 Z " fill="#BAD548" transform="translate(194,111)"/>
<path d="M0 0 C0.7425 0.2475 1.485 0.495 2.25 0.75 C2.25 1.41 2.25 2.07 2.25 2.75 C0.27 2.75 -1.71 2.75 -3.75 2.75 C-4.41 4.73 -5.07 6.71 -5.75 8.75 C-3.77 9.245 -3.77 9.245 -1.75 9.75 C-3.4 9.75 -5.05 9.75 -6.75 9.75 C-7.07728047 6.14991481 -7.15422813 4.33388508 -5.0625 1.3125 C-2.75 -0.25 -2.75 -0.25 0 0 Z " fill="#B9D149" transform="translate(71.75,113.25)"/>
<path d="M0 0 C2.29013653 3.4352048 2.17842973 4.985331 2 9 C-1 10 -1 10 -4 10 C-3.67 9.01 -3.34 8.02 -3 7 C-2.67 7.33 -2.34 7.66 -2 8 C-1.34 5.36 -0.68 2.72 0 0 Z " fill="#F4F9DC" transform="translate(98,114)"/>
<path d="M0 0 C0.33 0 0.66 0 1 0 C0.67 2.97 0.34 5.94 0 9 C-1.32 8.67 -2.64 8.34 -4 8 C-4 6.68 -4 5.36 -4 4 C-3.01 4 -2.02 4 -1 4 C-0.67 2.68 -0.34 1.36 0 0 Z " fill="#FAFCEF" transform="translate(198,111)"/>
<path d="M0 0 C0.33 0 0.66 0 1 0 C0.67 2.31 0.34 4.62 0 7 C-1.65 7 -3.3 7 -5 7 C-4.67 6.01 -4.34 5.02 -4 4 C-3.34 4 -2.68 4 -2 4 C-2 3.34 -2 2.68 -2 2 C-1.34 2 -0.68 2 0 2 C0 1.34 0 0.68 0 0 Z " fill="#9AC606" transform="translate(122,43)"/>
<path d="M0 0 C0.99 0.33 1.98 0.66 3 1 C2.67 2.65 2.34 4.3 2 6 C1.34 6 0.68 6 0 6 C0 6.66 0 7.32 0 8 C-0.99 7.67 -1.98 7.34 -3 7 C-2.01 4.69 -1.02 2.38 0 0 Z " fill="#F1F8DA" transform="translate(63,116)"/>
<path d="M0 0 C0.66 0.33 1.32 0.66 2 1 C2 2.98 2 4.96 2 7 C0.68 7 -0.64 7 -2 7 C-1.125 1.125 -1.125 1.125 0 0 Z " fill="#85783C" transform="translate(128,31)"/>
<path d="M0 0 C1.0625 1.875 1.0625 1.875 2 4 C1.67 4.66 1.34 5.32 1 6 C-0.32 6 -1.64 6 -3 6 C-1.125 1.125 -1.125 1.125 0 0 Z " fill="#A0D016" transform="translate(99,7)"/>
</svg>
