<svg width="633" height="139" viewBox="0 0 633 139" fill="none" xmlns="http://www.w3.org/2000/svg">
<g clip-path="url(#clip0_4675_73464)">
<path d="M242.468 117.216C237.503 117.216 232.687 116.561 228.021 115.25C223.415 113.881 219.706 112.123 216.895 109.979L221.83 99.0791C224.522 101.045 227.722 102.623 231.431 103.814C235.14 105.006 238.849 105.601 242.557 105.601C246.685 105.601 249.736 105.006 251.71 103.814C253.684 102.564 254.671 100.926 254.671 98.9004C254.671 97.4113 254.073 96.1903 252.876 95.2373C251.74 94.2247 250.244 93.4206 248.39 92.825C246.595 92.2294 244.143 91.5742 241.032 90.8594C236.246 89.7277 232.328 88.596 229.277 87.4643C226.227 86.3326 223.594 84.5159 221.381 82.0143C219.228 79.5127 218.151 76.1771 218.151 72.0077C218.151 68.3744 219.138 65.0984 221.112 62.1798C223.086 59.2017 226.047 56.8489 229.995 55.1216C234.003 53.3943 238.879 52.5306 244.621 52.5306C248.629 52.5306 252.547 53.0071 256.376 53.9601C260.204 54.9131 263.554 56.2831 266.426 58.07L261.939 69.0593C256.137 65.7834 250.334 64.1454 244.532 64.1454C240.464 64.1454 237.443 64.8006 235.469 66.111C233.555 67.4214 232.597 69.1487 232.597 71.293C232.597 73.4372 233.704 75.0454 235.917 76.1176C238.191 77.1301 241.63 78.1427 246.236 79.1553C251.022 80.287 254.94 81.4187 257.991 82.5504C261.042 83.6821 263.644 85.469 265.798 87.911C268.011 90.3531 269.118 93.6589 269.118 97.8283C269.118 101.402 268.101 104.678 266.067 107.656C264.093 110.575 261.102 112.898 257.094 114.625C253.086 116.352 248.21 117.216 242.468 117.216Z" fill="#323232"/>
<path d="M325.351 92.2889C325.351 92.4676 325.262 93.7184 325.082 96.0414H288.562C289.22 99.0195 290.775 101.372 293.228 103.1C295.68 104.827 298.731 105.691 302.38 105.691C304.893 105.691 307.106 105.333 309.02 104.618C310.994 103.844 312.819 102.653 314.494 101.045L321.941 109.086C317.395 114.268 310.755 116.859 302.021 116.859C296.578 116.859 291.762 115.816 287.575 113.732C283.387 111.587 280.157 108.639 277.884 104.887C275.611 101.134 274.474 96.8753 274.474 92.1102C274.474 87.4048 275.581 83.1758 277.794 79.4233C280.067 75.6113 283.148 72.6629 287.036 70.5782C290.985 68.4339 295.381 67.3618 300.227 67.3618C304.953 67.3618 309.23 68.3744 313.058 70.3995C316.887 72.4247 319.878 75.3432 322.031 79.1553C324.245 82.9077 325.351 87.2856 325.351 92.2889ZM300.316 77.9045C297.146 77.9045 294.484 78.7979 292.33 80.5848C290.177 82.3717 288.861 84.8138 288.382 87.911H312.161C311.682 84.8733 310.366 82.461 308.213 80.6741C306.059 78.8277 303.427 77.9045 300.316 77.9045Z" fill="#323232"/>
<path d="M364.012 67.3618C369.994 67.3618 374.81 69.1487 378.459 72.7225C382.168 76.2963 384.022 81.5974 384.022 88.6258V116.144H370.024V90.7701C370.024 86.958 369.187 84.1288 367.512 82.2823C365.837 80.3763 363.414 79.4233 360.244 79.4233C356.714 79.4233 353.903 80.5252 351.809 82.7291C349.715 84.8733 348.669 88.0897 348.669 92.3783V116.144H334.671V68.0766H348.04V73.7053C349.895 71.6801 352.198 70.1315 354.95 69.0593C357.701 67.9277 360.722 67.3618 364.012 67.3618Z" fill="#323232"/>
<path d="M446.409 49.8503V116.144H433.039V110.605C429.569 114.774 424.544 116.859 417.964 116.859C413.418 116.859 409.29 115.846 405.581 113.821C401.932 111.796 399.061 108.907 396.967 105.155C394.874 101.402 393.827 97.054 393.827 92.1102C393.827 87.1665 394.874 82.8184 396.967 79.0659C399.061 75.3135 401.932 72.4247 405.581 70.3995C409.29 68.3744 413.418 67.3618 417.964 67.3618C424.126 67.3618 428.941 69.2976 432.411 73.1692V49.8503H446.409ZM420.387 105.423C423.916 105.423 426.847 104.231 429.18 101.849C431.513 99.4067 432.68 96.1605 432.68 92.1102C432.68 88.0599 431.513 84.8435 429.18 82.461C426.847 80.0189 423.916 78.7979 420.387 78.7979C416.798 78.7979 413.837 80.0189 411.504 82.461C409.171 84.8435 408.004 88.0599 408.004 92.1102C408.004 96.1605 409.171 99.4067 411.504 101.849C413.837 104.231 416.798 105.423 420.387 105.423Z" fill="#323232"/>
<path d="M459.364 68.0766H473.362V116.144H459.364V68.0766ZM466.363 61.3757C463.791 61.3757 461.697 60.6312 460.082 59.1421C458.467 57.653 457.659 55.8066 457.659 53.6027C457.659 51.3989 458.467 49.5525 460.082 48.0634C461.697 46.5743 463.791 45.8298 466.363 45.8298C468.935 45.8298 471.029 46.5445 472.644 47.974C474.259 49.4036 475.067 51.1904 475.067 53.3347C475.067 55.6577 474.259 57.5935 472.644 59.1421C471.029 60.6312 468.935 61.3757 466.363 61.3757Z" fill="#323232"/>
<path d="M499.723 74.42C501.398 72.0971 503.641 70.34 506.453 69.1487C509.324 67.9574 512.615 67.3618 516.323 67.3618V80.2274C514.768 80.1083 513.721 80.0487 513.183 80.0487C509.175 80.0487 506.034 81.1804 503.761 83.4438C501.488 85.6476 500.351 88.9832 500.351 93.4504V116.144H486.353V68.0766H499.723V74.42Z" fill="#323232"/>
<path d="M547.179 116.859C542.095 116.859 537.518 115.816 533.451 113.732C529.443 111.587 526.302 108.639 524.029 104.887C521.756 101.134 520.619 96.8753 520.619 92.1102C520.619 87.3452 521.756 83.0864 524.029 79.334C526.302 75.5815 529.443 72.6629 533.451 70.5782C537.518 68.4339 542.095 67.3618 547.179 67.3618C552.264 67.3618 556.81 68.4339 560.818 70.5782C564.826 72.6629 567.967 75.5815 570.24 79.334C572.513 83.0864 573.65 87.3452 573.65 92.1102C573.65 96.8753 572.513 101.134 570.24 104.887C567.967 108.639 564.826 111.587 560.818 113.732C556.81 115.816 552.264 116.859 547.179 116.859ZM547.179 105.423C550.769 105.423 553.7 104.231 555.973 101.849C558.306 99.4067 559.472 96.1605 559.472 92.1102C559.472 88.0599 558.306 84.8435 555.973 82.461C553.7 80.0189 550.769 78.7979 547.179 78.7979C543.59 78.7979 540.629 80.0189 538.296 82.461C535.963 84.8435 534.797 88.0599 534.797 92.1102C534.797 96.1605 535.963 99.4067 538.296 101.849C540.629 104.231 543.59 105.423 547.179 105.423Z" fill="#323232"/>
<path d="M605.977 116.859C600.893 116.859 596.316 115.816 592.249 113.732C588.241 111.587 585.1 108.639 582.827 104.887C580.554 101.134 579.417 96.8753 579.417 92.1102C579.417 87.3452 580.554 83.0864 582.827 79.334C585.1 75.5815 588.241 72.6629 592.249 70.5782C596.316 68.4339 600.893 67.3618 605.977 67.3618C611.062 67.3618 615.608 68.4339 619.616 70.5782C623.624 72.6629 626.765 75.5815 629.038 79.334C631.311 83.0864 632.448 87.3452 632.448 92.1102C632.448 96.8753 631.311 101.134 629.038 104.887C626.765 108.639 623.624 111.587 619.616 113.732C615.608 115.816 611.062 116.859 605.977 116.859ZM605.977 105.423C609.566 105.423 612.498 104.231 614.771 101.849C617.104 99.4067 618.27 96.1605 618.27 92.1102C618.27 88.0599 617.104 84.8435 614.771 82.461C612.498 80.0189 609.566 78.7979 605.977 78.7979C602.388 78.7979 599.427 80.0189 597.094 82.461C594.761 84.8435 593.594 88.0599 593.594 92.1102C593.594 96.1605 594.761 99.4067 597.094 101.849C599.427 104.231 602.388 105.423 605.977 105.423Z" fill="#323232"/>
<path d="M26.0098 28.8209C15.8171 23.9887 7.99232 13.369 5.78054 14.8767C1.35398 17.8942 9.09683 29.1658 18.5586 34.2201C44.5698 49.2377 96.5393 52.7803 122.164 62.4614C150.725 71.1443 139.281 111.225 140.756 115.384C140.88 115.735 141.307 115.622 141.607 115.4C159.246 102.319 161.453 60.5287 131.624 48.9348C100.075 36.6734 51.2727 40.7974 26.0098 28.8209Z" fill="#323232"/>
<path d="M181.641 38.1605C186.988 39.9826 193.404 43.3786 193.043 46.0228C192.841 47.4967 183.079 64.8617 197.138 52.7385C209.87 41.76 204.928 38.4842 192.197 35.2643C183.34 33.0246 162.258 31.555 181.641 38.1605Z" fill="#323232"/>
<path d="M144.809 43.2321C164.493 55.9337 158.134 71.3128 165.085 71.7289C165.476 71.7523 165.819 71.4963 165.946 71.1261C166.016 70.9217 166.086 70.7127 166.154 70.4994C166.782 68.9808 167.431 66.168 168.103 63.7925C171.347 52.3346 181.814 49.6677 183.157 47.9576C183.381 47.6723 183.019 47.4154 182.656 47.422C178.73 47.4938 171.932 47.9782 166.762 50.9869C164.643 43.2834 159.104 35.8111 147.224 31.7685C116.605 21.3491 78.8992 24.7793 104.133 30.0556C112.258 32.0661 129.622 33.4318 144.809 43.2321Z" fill="#323232"/>
</g>
<defs>
<clipPath id="clip0_4675_73464">
<rect width="631.896" height="137.737" fill="white" transform="translate(0.552246 0.474731)"/>
</clipPath>
</defs>
</svg>
