<?xml version="1.0" encoding="UTF-8"?>
<svg version="1.1" xmlns="http://www.w3.org/2000/svg" width="175" height="50">
<path d="M0 0 C11.55 0 23.1 0 35 0 C35 8.25 35 16.5 35 25 C23.45 25 11.9 25 0 25 C0 16.75 0 8.5 0 0 Z " fill="#FDC600" transform="translate(140,14)"/>
<path d="M0 0 C3.5 0.1875 3.5 0.1875 5.5 1.1875 C5.5 2.5075 5.5 3.8275 5.5 5.1875 C4.18 5.1875 2.86 5.1875 1.5 5.1875 C1.5 4.5275 1.5 3.8675 1.5 3.1875 C0.51 3.5175 -0.48 3.8475 -1.5 4.1875 C1.78704716 5.47235606 1.78704716 5.47235606 5.5 6.1875 C7.63344768 4.7958124 7.63344768 4.7958124 9.5 3.1875 C12.125 3.5 12.125 3.5 14.5 4.1875 C17.22779718 4.1875 19.84434536 3.66228302 22.52734375 3.2109375 C24.5 3.1875 24.5 3.1875 27.5 5.1875 C28.49 4.5275 29.48 3.8675 30.5 3.1875 C31.49 3.1875 32.48 3.1875 33.5 3.1875 C34.16 2.1975 34.82 1.2075 35.5 0.1875 C37.4453125 -0.10546875 37.4453125 -0.10546875 39.625 0 C40.90375 0.061875 42.1825 0.12375 43.5 0.1875 C43.5 1.5075 43.5 2.8275 43.5 4.1875 C44.593125 4.0225 45.68625 3.8575 46.8125 3.6875 C50.12205593 3.23874665 52.67847951 3.01898298 55.9375 3.6875 C59.35521095 4.35437043 62.17027116 4.26152076 65.5625 3.5 C68.5 3.1875 68.5 3.1875 70.375 4.3125 C71.92262829 6.89188048 72.07746989 8.22796681 71.5 11.1875 C69.03233491 13.79617453 67.45621977 15.05089718 63.875 15.5625 C61.5 15.1875 61.5 15.1875 58.5 13.1875 C57.51 13.8475 56.52 14.5075 55.5 15.1875 C52.9375 15.4375 52.9375 15.4375 50.5 15.1875 C48.5 13.1875 48.5 13.1875 48.375 10.5625 C48.41625 9.77875 48.4575 8.995 48.5 8.1875 C46.27810176 10.40939824 45.57401108 12.27232708 44.5 15.1875 C41.72890693 15.24142397 38.95886182 15.28113455 36.1875 15.3125 C35.40181641 15.32925781 34.61613281 15.34601562 33.80664062 15.36328125 C33.04931641 15.36972656 32.29199219 15.37617187 31.51171875 15.3828125 C30.46697388 15.39852295 30.46697388 15.39852295 29.40112305 15.41455078 C27.5 15.1875 27.5 15.1875 24.5 13.1875 C24.5 13.8475 24.5 14.5075 24.5 15.1875 C23.18 15.1875 21.86 15.1875 20.5 15.1875 C21.16 12.5475 21.82 9.9075 22.5 7.1875 C21.51 7.1875 20.52 7.1875 19.5 7.1875 C19.17 9.8275 18.84 12.4675 18.5 15.1875 C17.819375 15.001875 17.13875 14.81625 16.4375 14.625 C12.93351488 14.10312988 9.98938504 14.67055407 6.5 15.1875 C5.51 14.8575 4.52 14.5275 3.5 14.1875 C2.51 14.6825 2.51 14.6825 1.5 15.1875 C-2 15.375 -2 15.375 -5.5 15.1875 C-6.16 14.5275 -6.82 13.8675 -7.5 13.1875 C-7.5 11.8675 -7.5 10.5475 -7.5 9.1875 C-6.901875 9.3525 -6.30375 9.5175 -5.6875 9.6875 C-3.38655664 10.2989124 -3.38655664 10.2989124 -0.5 10.1875 C-2.48 9.1975 -4.46 8.2075 -6.5 7.1875 C-5.72988171 2.31008414 -5.38771874 0.28862779 0 0 Z M37.5 5.1875 C38.5 8.1875 38.5 8.1875 38.5 8.1875 Z M30.5 7.1875 C30.17 8.5075 29.84 9.8275 29.5 11.1875 C30.49 11.1875 31.48 11.1875 32.5 11.1875 C32.83 9.8675 33.16 8.5475 33.5 7.1875 C32.51 7.1875 31.52 7.1875 30.5 7.1875 Z M41.5 7.1875 C42.5 10.1875 42.5 10.1875 42.5 10.1875 Z M53.5 7.1875 C53.17 8.8375 52.84 10.4875 52.5 12.1875 C53.82 11.5275 55.14 10.8675 56.5 10.1875 C56.5 9.1975 56.5 8.2075 56.5 7.1875 C55.51 7.1875 54.52 7.1875 53.5 7.1875 Z M64.5 7.1875 C64.17 8.5075 63.84 9.8275 63.5 11.1875 C64.49 11.1875 65.48 11.1875 66.5 11.1875 C66.83 9.8675 67.16 8.5475 67.5 7.1875 C66.51 7.1875 65.52 7.1875 64.5 7.1875 Z M36.5 9.1875 C37.5 12.1875 37.5 12.1875 37.5 12.1875 Z " fill="#009F4D" transform="translate(62.5,19.8125)"/>
<path d="M0 0 C6.94490614 0.17683789 11.42262143 1.88155424 17 6 C16.01 6.99 15.02 7.98 14 9 C16.475 9.495 16.475 9.495 19 10 C17.90931332 13.77545388 17.0916909 16.47043472 14 19 C11.69 18.34 9.38 17.68 7 17 C7 16.34 7 15.68 7 15 C-6.19157175 17.47600637 -6.19157175 17.47600637 -16.58984375 25.16015625 C-17.05519531 25.76730469 -17.52054688 26.37445313 -18 27 C-18.99 27 -19.98 27 -21 27 C-18.46908549 21.0945328 -14.57701635 18.56515318 -8.90234375 16.02734375 C-6.87542252 14.93272305 -5.54268845 13.6964767 -4 12 C-3.34 12.33 -2.68 12.66 -2 13 C-2.33 13.66 -2.66 14.32 -3 15 C-1.70359622 14.40606618 -0.41301161 13.79942011 0.875 13.1875 C1.59429687 12.85105469 2.31359375 12.51460937 3.0546875 12.16796875 C5.30542806 11.00532903 5.30542806 11.00532903 7 8 C-2.52013316 7.04622043 -10.30056167 8.89192061 -19.3112793 11.77783203 C-25.21990771 13.64076673 -30.81417788 14.6234717 -37 15 C-36.67 14.01 -36.34 13.02 -36 12 C-34.05859375 11.2265625 -34.05859375 11.2265625 -31.4375 10.625 C-27.96399701 9.77802391 -24.55314381 8.88108931 -21.16796875 7.734375 C-12.71857501 4.88019757 -5.00846427 3.16967998 4 3 C2.68 2.67 1.36 2.34 0 2 C0 1.34 0 0.68 0 0 Z M12 13 C12 13.66 12 14.32 12 15 C12.99 14.67 13.98 14.34 15 14 C14.01 13.67 13.02 13.34 12 13 Z " fill="#009F4D" transform="translate(37,8)"/>
<path d="M0 0 C1.32 0 2.64 0 4 0 C4 1.32 4 2.64 4 4 C5.093125 3.835 6.18625 3.67 7.3125 3.5 C10.62205593 3.05124665 13.17847951 2.83148298 16.4375 3.5 C19.85521095 4.16687043 22.67027116 4.07402076 26.0625 3.3125 C29 3 29 3 30.875 4.125 C32.42262829 6.70438048 32.57746989 8.04046681 32 11 C29.53233491 13.60867453 27.95621977 14.86339718 24.375 15.375 C22 15 22 15 19 13 C18.01 13.66 17.02 14.32 16 15 C13.4375 15.25 13.4375 15.25 11 15 C9 13 9 13 8.875 10.375 C8.91625 9.59125 8.9575 8.8075 9 8 C6.77810176 10.22189824 6.07401108 12.08482708 5 15 C2.36 15 -0.28 15 -3 15 C-2.68917128 13.24970238 -2.37626821 11.49977306 -2.0625 9.75 C-1.88847656 8.77546875 -1.71445313 7.8009375 -1.53515625 6.796875 C-1.09620271 4.50278205 -0.59651408 2.25708029 0 0 Z M2 7 C3 10 3 10 3 10 Z M14 7 C13.67 8.65 13.34 10.3 13 12 C14.32 11.34 15.64 10.68 17 10 C17 9.01 17 8.02 17 7 C16.01 7 15.02 7 14 7 Z M25 7 C24.67 8.32 24.34 9.64 24 11 C24.99 11 25.98 11 27 11 C27.33 9.68 27.66 8.36 28 7 C27.01 7 26.02 7 25 7 Z " fill="#007EA8" transform="translate(102,20)"/>
<path d="M0 0 C11.55 0 23.1 0 35 0 C35 1.98 35 3.96 35 6 C23.45 6 11.9 6 0 6 C0 4.02 0 2.04 0 0 Z " fill="#C50A1E" transform="translate(140,33)"/>
<path d="M0 0 C11.55 0 23.1 0 35 0 C35 1.98 35 3.96 35 6 C23.45 6 11.9 6 0 6 C0 4.02 0 2.04 0 0 Z " fill="#C4081E" transform="translate(140,14)"/>
<path d="M0 0 C0.79921875 0.00902344 1.5984375 0.01804687 2.421875 0.02734375 C3.02515625 0.03894531 3.6284375 0.05054687 4.25 0.0625 C3.15931332 3.83795388 2.3416909 6.53293472 -0.75 9.0625 C-3.06 8.4025 -5.37 7.7425 -7.75 7.0625 C-7.75 6.4025 -7.75 5.7425 -7.75 5.0625 C-20.94157175 7.53850637 -20.94157175 7.53850637 -31.33984375 15.22265625 C-32.03787109 16.13337891 -32.03787109 16.13337891 -32.75 17.0625 C-33.74 17.0625 -34.73 17.0625 -35.75 17.0625 C-33.21908549 11.1570328 -29.32701635 8.62765318 -23.65234375 6.08984375 C-21.62542252 4.99522305 -20.29268845 3.7589767 -18.75 2.0625 C-18.09 2.3925 -17.43 2.7225 -16.75 3.0625 C-17.08 3.7225 -17.41 4.3825 -17.75 5.0625 C-17.14671875 4.78535156 -16.5434375 4.50820313 -15.921875 4.22265625 C-15.12265625 3.86042969 -14.3234375 3.49820312 -13.5 3.125 C-12.71109375 2.76535156 -11.9221875 2.40570312 -11.109375 2.03515625 C-7.28843278 0.45996649 -4.13010818 -0.06073689 0 0 Z M-2.75 3.0625 C-2.75 3.7225 -2.75 4.3825 -2.75 5.0625 C-1.76 4.7325 -0.77 4.4025 0.25 4.0625 C-0.74 3.7325 -1.73 3.4025 -2.75 3.0625 Z " fill="#007EA8" transform="translate(51.75,17.9375)"/>
<path d="M0 0 C11.55 0 23.1 0 35 0 C35 0.66 35 1.32 35 2 C28.4 2 21.8 2 15 2 C15 4.97 15 7.94 15 11 C12.69 11.33 10.38 11.66 8 12 C8 9.69 8 7.38 8 5 C8.66 5 9.32 5 10 5 C10 4.01 10 3.02 10 2 C6.7 2 3.4 2 0 2 C0 1.34 0 0.68 0 0 Z " fill="#F0AA08" transform="translate(140,20)"/>
<path d="M0 0 C3.3 0 6.6 0 10 0 C10 0.99 10 1.98 10 3 C9.34 3 8.68 3 8 3 C8 5.31 8 7.62 8 10 C8.76570312 9.82597656 9.53140625 9.65195312 10.3203125 9.47265625 C15.22891303 8.84214599 19.94622699 9.14698289 24.875 9.4375 C25.84953125 9.48970703 26.8240625 9.54191406 27.828125 9.59570312 C30.21913402 9.72463008 32.60964426 9.85955944 35 10 C35 10.33 35 10.66 35 11 C23.45 11 11.9 11 0 11 C0 7.37 0 3.74 0 0 Z " fill="#F8BD03" transform="translate(140,22)"/>
<path d="M0 0 C1.65 0 3.3 0 5 0 C5 2.64 5 5.28 5 8 C2.69 8.33 0.38 8.66 -2 9 C-2 6.69 -2 4.38 -2 2 C-1.34 2 -0.68 2 0 2 C0 1.34 0 0.68 0 0 Z " fill="#AD6D31" transform="translate(150,23)"/>
</svg>
