<?xml version="1.0" encoding="UTF-8"?>
<svg version="1.1" xmlns="http://www.w3.org/2000/svg" width="477" height="169">
<path d="M0 0 C16.15196705 -0.11730431 32.30379388 -0.20521684 48.45608521 -0.25906086 C55.95752281 -0.28473689 63.45869428 -0.31968159 70.95996094 -0.37719727 C77.50545321 -0.42736024 84.05075255 -0.45936785 90.59643173 -0.47044247 C94.05574208 -0.47690634 97.51450096 -0.49186952 100.97363281 -0.52865028 C137.94056989 -0.90627955 137.94056989 -0.90627955 151 11 C156.49167926 17.23631373 157.35313107 22.48642566 157.28125 30.58203125 C156.86690668 35.61745349 155.28300742 39.53877894 153 44 C152.63777344 44.74765625 152.27554688 45.4953125 151.90234375 46.265625 C148.70665654 52.46200833 144.44510732 57.66233634 140 63 C139.30003906 63.92296875 138.60007812 64.8459375 137.87890625 65.796875 C137.25886719 66.52390625 136.63882813 67.2509375 136 68 C135.34 68 134.68 68 134 68 C134 68.66 134 69.32 134 70 C116.54625846 86.85912509 90.67220352 99.49295586 66.15234375 99.1953125 C64.80638878 99.19106766 64.80638878 99.19106766 63.4332428 99.18673706 C60.60118586 99.17564979 57.76945939 99.15056747 54.9375 99.125 C53.00325981 99.11495537 51.06901461 99.10583213 49.13476562 99.09765625 C44.4230521 99.07574814 39.71158184 99.04129901 35 99 C36.32 96.03 37.64 93.06 39 90 C39.66 90 40.32 90 41 90 C41.33 88.783125 41.66 87.56625 42 86.3125 C43.82841203 80.78393662 46.8413813 76.2105113 49.95703125 71.32421875 C51.83193025 68.27347487 53.44600945 65.22293382 55 62 C57.69988047 56.42319773 60.87275971 51.24209163 64.16796875 46 C66.35191685 42.42372678 68.1857165 38.77370967 70 35 C71 34 71 34 74.05102539 33.88647461 C75.39991271 33.88663366 76.74880614 33.89232388 78.09765625 33.90234375 C79.16094398 33.90446617 79.16094398 33.90446617 80.24571228 33.90663147 C82.51801712 33.91224557 84.79022475 33.92480037 87.0625 33.9375 C88.59960796 33.94251319 90.13671745 33.94707641 91.67382812 33.95117188 C95.44925642 33.96221958 99.22461171 33.97949359 103 34 C99.61103088 41.05179433 95.71683158 47.75961138 91.75 54.5 C91.1003125 55.60859375 90.450625 56.7171875 89.78125 57.859375 C88.18976689 60.57425794 86.59596602 63.28775079 85 66 C100.13403723 63.30255767 114.93173932 51.17315083 123.765625 39.015625 C125.3357242 36.45179212 126.32462439 33.92662766 127 31 C122.94022776 28.10601581 120.13863748 27.63188142 115.19018555 27.65942383 C114.52621262 27.65898575 113.86223969 27.65854767 113.17814636 27.65809631 C110.99736471 27.66017577 108.81736504 27.68346539 106.63671875 27.70703125 C105.1192924 27.71263024 103.6018606 27.71689891 102.08442688 27.71989441 C98.100951 27.73131942 94.11780606 27.76076605 90.13446045 27.79400635 C86.06559729 27.82475803 81.99668038 27.83841061 77.92773438 27.85351562 C69.95167147 27.88563833 61.97587697 27.93680591 54 28 C53.44021706 28.99110275 53.44021706 28.99110275 52.86912537 30.00222778 C51.16165841 33.02504151 49.45387861 36.04767837 47.74609375 39.0703125 C47.15904663 40.10969971 46.57199951 41.14908691 45.96716309 42.2199707 C43.01367026 47.44689623 40.05349724 52.66944254 37.0625 57.875 C33.23396517 64.56261234 29.45853766 71.27982366 25.6875 78 C25.07592041 79.08780762 24.46434082 80.17561523 23.83422852 81.29638672 C23.25342529 82.3329541 22.67262207 83.36952148 22.07421875 84.4375 C21.55432373 85.36433594 21.03442871 86.29117188 20.4987793 87.24609375 C18.92844583 90.13147598 17.45271601 93.05389085 16 96 C15.34 96 14.68 96 14 96 C13.505 97.485 13.505 97.485 13 99 C2.11 99 -8.78 99 -20 99 C-19.34 97.68 -18.68 96.36 -18 95 C-17.63215869 93.6757713 -17.28797019 92.34386088 -17 91 C-16.34 91 -15.68 91 -15 91 C-14.76925781 90.35546875 -14.53851563 89.7109375 -14.30078125 89.046875 C-12.54980555 84.94549047 -10.37641106 81.13136806 -8.1875 77.25 C-7.76146484 76.48945312 -7.33542969 75.72890625 -6.89648438 74.9453125 C-6.03325836 73.40430388 -5.16858443 71.86410548 -4.30249023 70.32470703 C-2.99773611 67.99595937 -1.7095857 65.65851755 -0.421875 63.3203125 C1.59475434 59.68634722 3.725447 56.14438085 5.9375 52.625 C8.98738518 47.70842427 11.85738796 42.73819554 14.578125 37.6328125 C16.32901705 34.39077613 18.17191666 31.19914584 20 28 C9.11 28 -1.78 28 -13 28 C-13.33 26.35 -13.66 24.7 -14 23 C-13.34 23 -12.68 23 -12 23 C-11.690625 21.824375 -11.690625 21.824375 -11.375 20.625 C-9.86185034 16.63578725 -7.8774507 13.27390623 -5.6328125 9.66015625 C-4.34872408 7.5681366 -3.11200073 5.46621688 -1.89794922 3.33374023 C-1.27162598 2.23360596 -0.64530273 1.13347168 0 0 Z " fill="#090B09" transform="translate(197,36)"/>
<path d="M0 0 C1.66361572 0.029729 1.66361572 0.029729 3.36083984 0.06005859 C4.56482422 0.07166016 5.76880859 0.08326172 7.00927734 0.09521484 C8.26740234 0.13259766 9.52552734 0.16998047 10.82177734 0.20849609 C12.08763672 0.22267578 13.35349609 0.23685547 14.65771484 0.25146484 C24.01535184 0.40207059 24.01535184 0.40207059 25.19677734 1.58349609 C25.49993398 4.46262779 25.74485947 7.32584202 25.95068359 10.21240234 C26.01585678 11.07663315 26.08102997 11.94086395 26.1481781 12.83128357 C26.35616922 15.60255364 26.55778703 18.37424651 26.75927734 21.14599609 C26.89883304 23.02037624 27.03880154 24.8947257 27.17919922 26.76904297 C27.52319004 31.37351774 27.86146419 35.97838158 28.19677734 40.58349609 C30.62799421 36.97197893 32.93303381 33.35298657 35.07177734 29.56005859 C38.69574424 23.19295008 42.50431489 16.98571643 46.70458984 10.98193359 C48.77531483 7.65359553 50.44373791 4.08957495 52.19677734 0.58349609 C66.05677734 0.58349609 79.91677734 0.58349609 94.19677734 0.58349609 C92.57719756 7.06181523 89.21962202 12.80678191 86.14550781 18.703125 C85.37420353 20.23183976 84.68128865 21.79991331 84.01318359 23.37646484 C82.9296125 25.69117509 82.25196605 27.04927383 80.19677734 28.58349609 C76.83488878 29.03490057 73.57137493 29.08399419 70.18115234 29.11083984 C67.13113124 29.28474753 67.13113124 29.28474753 65.46240234 31.39990234 C64.47695387 33.45292 63.73542368 35.37353591 63.19677734 37.58349609 C62.53677734 37.58349609 61.87677734 37.58349609 61.19677734 37.58349609 C61.08720703 38.32212891 60.97763672 39.06076172 60.86474609 39.82177734 C60.16249284 42.72524546 59.23427932 44.35780436 57.50927734 46.77099609 C52.65955679 53.76712407 48.44207609 61.08362709 44.36083984 68.54833984 C43.30043167 70.40227495 42.16693207 72.14476683 40.94677734 73.89599609 C39.41026735 76.25563645 38.61916366 77.83798501 38.19677734 80.58349609 C37.53677734 80.58349609 36.87677734 80.58349609 36.19677734 80.58349609 C35.82939453 81.59476563 35.82939453 81.59476563 35.45458984 82.62646484 C33.92403269 86.22470013 32.03805024 89.52223983 30.07177734 92.89599609 C28.15365234 96.20630859 28.15365234 96.20630859 26.19677734 99.58349609 C17.28677734 99.58349609 8.37677734 99.58349609 -0.80322266 99.58349609 C-1.00818359 97.35470703 -1.21314453 95.12591797 -1.42431641 92.82958984 C-1.62580326 90.65173512 -1.82788812 88.47393665 -2.0300293 86.29614258 C-2.1693256 84.7919685 -2.30800804 83.28773744 -2.44604492 81.78344727 C-2.64548813 79.61117227 -2.84719725 77.43911729 -3.04931641 75.26708984 C-3.16976318 73.96312256 -3.29020996 72.65915527 -3.41430664 71.31567383 C-3.78930874 67.71701901 -4.26674113 64.16071441 -4.80322266 60.58349609 C-7.03397908 64.39506796 -9.26253429 68.2079225 -11.49072266 72.02099609 C-12.1165625 73.09027344 -12.74240234 74.15955078 -13.38720703 75.26123047 C-16.52162262 80.62748124 -19.62675399 85.99979235 -22.57592773 91.47045898 C-22.98093506 92.16776123 -23.38594238 92.86506348 -23.80322266 93.58349609 C-24.64228149 95.17689819 -24.64228149 95.17689819 -25.49829102 96.80249023 C-27.80322266 99.58349609 -27.80322266 99.58349609 -31.10302734 100.26464844 C-32.38081055 100.23322754 -33.65859375 100.20180664 -34.97509766 100.16943359 C-35.65751526 100.16094391 -36.33993286 100.15245422 -37.04302979 100.14370728 C-39.21472646 100.11021666 -41.38265649 100.03496851 -43.55322266 99.95849609 C-45.02842928 99.92838984 -46.50369436 99.90101515 -47.97900391 99.87646484 C-51.58829309 99.81044694 -55.19539008 99.70696527 -58.80322266 99.58349609 C-55.08900093 91.99934458 -51.36587847 84.69587134 -46.80322266 77.58349609 C-46.47322266 76.59349609 -46.14322266 75.60349609 -45.80322266 74.58349609 C-45.14322266 74.58349609 -44.48322266 74.58349609 -43.80322266 74.58349609 C-43.70396484 73.86419922 -43.60470703 73.14490234 -43.50244141 72.40380859 C-42.70895637 69.20327119 -41.45890976 67.18462272 -39.61572266 64.45849609 C-37.19443175 60.7773465 -34.93564898 57.09813787 -32.86572266 53.20849609 C-30.66323217 49.0795606 -28.29236363 45.1087841 -25.80322266 41.14599609 C-22.58199532 35.97848226 -19.75892967 30.72892506 -17.12744141 25.23974609 C-15.80785309 22.59278428 -14.34790994 20.10479927 -12.80322266 17.58349609 C-11.63391326 15.58504003 -10.4673487 13.58497596 -9.30322266 11.58349609 C-8.13909661 9.58201623 -6.97253206 7.58195216 -5.80322266 5.58349609 C-5.39990723 4.70870605 -4.9965918 3.83391602 -4.58105469 2.93261719 C-2.80322266 0.58349609 -2.80322266 0.58349609 0 0 Z " fill="#080A08" transform="translate(379.80322265625,35.41650390625)"/>
<path d="M0 0 C1.14597656 0.36609375 2.29195313 0.7321875 3.47265625 1.109375 C13.81093355 4.80549938 23.92024492 10.46466261 32 18 C32 18.66 32 19.32 32 20 C32.66 20 33.32 20 34 20 C38 24.47058824 38 24.47058824 38 27 C38.66 27 39.32 27 40 27 C42.29648649 29.5614657 43 30.47967572 43 34 C43.66 34 44.32 34 45 34 C55.43412724 53.92918303 61.0079892 74.48818945 55.4375 96.9375 C52.29098211 106.94812987 48.34527369 117.5613061 42 126 C41.34 126 40.68 126 40 126 C39.67 127.32 39.34 128.64 39 130 C36 130 36 130 33.73828125 128.03125 C32.93777344 127.1959375 32.13726562 126.360625 31.3125 125.5 C30.50425781 124.6646875 29.69601563 123.829375 28.86328125 122.96875 C28.24839844 122.3190625 27.63351563 121.669375 27 121 C27.99414851 118.10040017 28.98262692 116.02134708 30.9296875 113.62890625 C33.31134257 110.60465367 34.73984076 107.49079412 36.125 103.9375 C36.38361816 103.2762915 36.64223633 102.61508301 36.90869141 101.93383789 C43.69619828 83.90113008 42.07494112 65.24091119 34.37890625 47.78125 C32.28174802 43.55128779 29.84212597 39.76351344 27 36 C26.53464844 35.34644531 26.06929687 34.69289062 25.58984375 34.01953125 C18.23604906 24.59689406 6.30012256 17.52429565 -5 14 C-5.82242188 13.70480469 -6.64484375 13.40960937 -7.4921875 13.10546875 C-20.95390622 8.73140881 -33.84749375 10.6460669 -47 15 C-47.91523437 15.28875 -48.83046875 15.5775 -49.7734375 15.875 C-58.72253882 19.0368276 -66.6748741 24.97208234 -73 32 C-73.55171875 32.58265625 -74.1034375 33.1653125 -74.671875 33.765625 C-79.0009189 38.46467265 -82.14121916 43.30201901 -85 49 C-85.50660156 49.9384375 -86.01320313 50.876875 -86.53515625 51.84375 C-93.22996597 66.26883334 -92.68020174 85.15906289 -88 100 C-85.36405796 106.35727197 -82.29009253 111.63965183 -78 117 C-77.375 119.375 -77.375 119.375 -78 122 C-80.34739123 125.66536172 -82.38355126 128.58014318 -86.70703125 129.703125 C-87.46371094 129.80109375 -88.22039062 129.8990625 -89 130 C-93.48917014 123.1950908 -97.49708814 116.36005076 -101 109 C-101.35320312 108.34257813 -101.70640625 107.68515625 -102.0703125 107.0078125 C-103.09997266 104.78409265 -103.59017009 102.71384112 -104.0625 100.3125 C-104.47713272 97.37233881 -104.47713272 97.37233881 -106 95 C-107.89785162 83.19114547 -108.01208431 70.60059497 -105 59 C-104.62058697 57.29264136 -104.24544247 55.5843274 -103.875 53.875 C-103.58625 52.59625 -103.2975 51.3175 -103 50 C-102.34 50 -101.68 50 -101 50 C-100.91492188 48.98292969 -100.82984375 47.96585938 -100.7421875 46.91796875 C-99.9226026 42.5914232 -98.50407398 39.99440021 -96.125 36.3125 C-95.07699219 34.66701172 -95.07699219 34.66701172 -94.0078125 32.98828125 C-90.4806358 27.73868946 -90.4806358 27.73868946 -89 26 C-88.34 26 -87.68 26 -87 26 C-86.773125 25.443125 -86.54625 24.88625 -86.3125 24.3125 C-84.62449964 21.33840412 -82.53323483 19.27991135 -80 17 C-79.34 17 -78.68 17 -78 17 C-78 16.34 -78 15.68 -78 15 C-57.12873552 -3.22628857 -26.03491848 -8.53159877 0 0 Z " fill="#0F3D71" transform="translate(109,7)"/>
<path d="M0 0 C2.64256512 2.11405209 4.98607306 4.17118558 7.1875 6.75 C7.1875 8.07 7.1875 9.39 7.1875 10.75 C7.8475 10.75 8.5075 10.75 9.1875 10.75 C9.76745227 21.61873508 9.76745227 21.61873508 6.1875 26.75 C4.27617821 28.67151551 2.40336759 30.14703196 0.1875 31.75 C-0.4725 31.75 -1.1325 31.75 -1.8125 31.75 C-1.3175 36.205 -1.3175 36.205 -0.8125 40.75 C3.4775 41.08 7.7675 41.41 12.1875 41.75 C12.3828125 48.5859375 12.3828125 48.5859375 12.1875 50.75 C10.1875 52.75 10.1875 52.75 8.12890625 52.98046875 C7.34386719 52.96628906 6.55882813 52.95210937 5.75 52.9375 C4.96753906 52.93105469 4.18507813 52.92460938 3.37890625 52.91796875 C1.1875 52.75 1.1875 52.75 -1.8125 51.75 C-1.8125 70.56 -1.8125 89.37 -1.8125 108.75 C10.66681054 105.63017237 19.32211512 103.19615604 29.1875 95.8125 C30.1775 95.131875 31.1675 94.45125 32.1875 93.75 C35.64031166 94.90093722 36.56832163 96.0705993 38.875 98.8125 C39.80892578 99.91271484 39.80892578 99.91271484 40.76171875 101.03515625 C41.23222656 101.60105469 41.70273438 102.16695313 42.1875 102.75 C40.515625 106.59375 40.515625 106.59375 37.5625 108 C36.77875 108.2475 35.995 108.495 35.1875 108.75 C35.1875 109.41 35.1875 110.07 35.1875 110.75 C14.16851485 121.81916969 -7.40181037 127.21199393 -30.9375 121.1875 C-42.0903713 117.62117488 -52.80391083 112.25715764 -61.8125 104.75 C-58.98727391 100.07751069 -56.13489956 97.09003602 -51.8125 93.75 C-51.1834375 94.20890625 -50.554375 94.6678125 -49.90625 95.140625 C-39.92169385 102.29822851 -30.3842381 107.75 -17.8125 107.75 C-17.8125 89.27 -17.8125 70.79 -17.8125 51.75 C-18.8025 52.08 -19.7925 52.41 -20.8125 52.75 C-22.33111755 52.84203743 -23.85360426 52.88001284 -25.375 52.875 C-26.16003906 52.87757812 -26.94507813 52.88015625 -27.75390625 52.8828125 C-29.8125 52.75 -29.8125 52.75 -31.8125 51.75 C-31.8125 48.45 -31.8125 45.15 -31.8125 41.75 C-28.79759443 40.74503148 -26.77068308 40.64664697 -23.625 40.6875 C-22.72394531 40.69652344 -21.82289062 40.70554688 -20.89453125 40.71484375 C-20.20746094 40.72644531 -19.52039063 40.73804688 -18.8125 40.75 C-18.4825 37.78 -18.1525 34.81 -17.8125 31.75 C-18.555 31.523125 -19.2975 31.29625 -20.0625 31.0625 C-24.10207423 29.13452139 -25.86675725 26.32623792 -28.125 22.5625 C-29.5174675 16.86604204 -28.74436903 11.54717598 -26.0625 6.375 C-18.96491407 -1.90551692 -10.17724992 -4.52322219 0 0 Z M-15.8125 9.75 C-18.29288907 13.4705836 -18.27587203 15.34796571 -17.8125 19.75 C-15.79029734 22.70552697 -14.28653861 23.57481182 -10.9375 24.8125 C-7.38476608 24.74144532 -5.55040294 23.85529882 -2.94921875 21.41796875 C-0.73967626 18.17578785 -1.26000493 15.55607717 -1.8125 11.75 C-2.72916667 9.66666667 -2.72916667 9.66666667 -4.8125 8.75 C-9.06392962 7.74511664 -12.17106045 7.05263737 -15.8125 9.75 Z " fill="#154274" transform="translate(93.8125,43.25)"/>
</svg>
