<?xml version="1.0" encoding="UTF-8"?>
<svg version="1.1" xmlns="http://www.w3.org/2000/svg" width="446" height="129">
<path d="M0 0 C1.02867187 -0.03287109 2.05734375 -0.06574219 3.1171875 -0.09960938 C11.60079382 -0.15973803 11.60079382 -0.15973803 15.1640625 2.46484375 C20.18314899 8.52758156 21.55254247 16.59191999 23.359375 24.10546875 C23.60165833 25.10330887 23.84394165 26.10114899 24.09356689 27.12922668 C24.60039231 29.22539383 25.10447991 31.32222466 25.60595703 33.41967773 C26.37579842 36.62832777 27.16214129 39.83264976 27.94921875 43.03710938 C28.44111726 45.08048555 28.9320369 47.12409767 29.421875 49.16796875 C29.65823669 50.12325974 29.89459839 51.07855072 30.13812256 52.06278992 C30.34874329 52.95754532 30.55936401 53.85230072 30.77636719 54.77416992 C30.964953 55.55612228 31.15353882 56.33807465 31.34783936 57.14372253 C31.67008907 59.81065645 31.32515605 61.85426438 30.625 64.4375 C28.68163221 66.38086779 25.3329005 65.74383393 22.75 65.8125 C21.49445313 65.86148438 20.23890625 65.91046875 18.9453125 65.9609375 C15.625 65.4375 15.625 65.4375 13.8046875 63.4140625 C12.40118236 59.87276806 11.54888543 56.13304173 10.625 52.4375 C-0.265 51.9425 -0.265 51.9425 -11.375 51.4375 C-11.705 54.0775 -12.035 56.7175 -12.375 59.4375 C-13.9233871 63.9858871 -13.9233871 63.9858871 -15.375 65.4375 C-17.68493382 65.56307162 -19.99918536 65.61325729 -22.3125 65.625 C-23.57964844 65.63917969 -24.84679687 65.65335937 -26.15234375 65.66796875 C-29.375 65.4375 -29.375 65.4375 -31.375 63.4375 C-30.99320308 56.76856182 -29.58773087 50.43680324 -28.01171875 43.9609375 C-27.7784639 42.99145172 -27.54520905 42.02196594 -27.30488586 41.02310181 C-26.81273178 38.98701713 -26.31758436 36.95165387 -25.81958008 34.91699219 C-25.06365108 31.81722013 -24.32540743 28.71357219 -23.58789062 25.609375 C-23.10524133 23.62213452 -22.62155243 21.63514618 -22.13671875 19.6484375 C-21.91988937 18.72847992 -21.70306 17.80852234 -21.47966003 16.86068726 C-18.45585951 4.7018262 -18.45585951 4.7018262 -13.45068359 1.02319336 C-9.05689264 -0.21659781 -4.53300177 0.02537128 0 0 Z M-3.375 16.4375 C-5.82350745 22.81285902 -6.89514751 28.62359459 -7.375 35.4375 C-2.425 35.4375 2.525 35.4375 7.625 35.4375 C7.29801578 25.30551861 7.29801578 25.30551861 3.625 16.4375 C1.29202567 16.39657063 -1.04205225 16.39508277 -3.375 16.4375 Z " fill="#0E1D61" transform="translate(232.375,13.5625)"/>
<path d="M0 0 C0.72670395 -0.00287018 1.4534079 -0.00574036 2.20213318 -0.00869751 C3.74291765 -0.01073895 5.28372799 -0.00520339 6.82446289 0.00732422 C9.15116616 0.02321601 11.47608906 0.00756489 13.80273438 -0.01171875 C22.98666641 -0.02461346 31.54197993 0.2645162 39.55859375 5.2109375 C45.9486878 11.98830998 45.91909407 20.05507069 45.8359375 28.87890625 C45.462055 35.00378133 44.15697869 39.43591785 40.37109375 44.2734375 C32.83966412 50.09317858 24.86290545 50.56137695 15.74609375 50.4609375 C14.96234375 50.45642578 14.17859375 50.45191406 13.37109375 50.44726562 C11.45439361 50.43557843 9.53773327 50.41764658 7.62109375 50.3984375 C7.64429687 51.31367187 7.6675 52.22890625 7.69140625 53.171875 C7.71847656 54.95464844 7.71847656 54.95464844 7.74609375 56.7734375 C7.76929687 57.95679688 7.7925 59.14015625 7.81640625 60.359375 C7.62109375 63.3984375 7.62109375 63.3984375 5.62109375 65.3984375 C2.6875 65.69921875 2.6875 65.69921875 -0.81640625 65.7109375 C-2.54697266 65.73607422 -2.54697266 65.73607422 -4.3125 65.76171875 C-7.37890625 65.3984375 -7.37890625 65.3984375 -9.04629517 64.23254395 C-10.91180588 61.66499422 -10.75979007 59.84701906 -10.76708984 56.68945312 C-10.77654633 55.51813843 -10.78600281 54.34682373 -10.79574585 53.14001465 C-10.78967316 51.87435669 -10.78360046 50.60869873 -10.77734375 49.3046875 C-10.78021393 48.00648071 -10.78308411 46.70827393 -10.78604126 45.37072754 C-10.790463 42.62350759 -10.78403884 39.87658043 -10.77001953 37.12939453 C-10.75292717 33.60846909 -10.76276923 30.08822967 -10.78073692 26.56732941 C-10.79418582 23.20889379 -10.78476889 19.85064261 -10.77734375 16.4921875 C-10.78341644 15.22652954 -10.78948914 13.96087158 -10.79574585 12.65686035 C-10.78628937 11.48554565 -10.77683289 10.31423096 -10.76708984 9.10742188 C-10.76470306 8.07500366 -10.76231628 7.04258545 -10.75985718 5.97888184 C-10.37890625 3.3984375 -10.37890625 3.3984375 -9.06108093 1.56588745 C-6.29653636 -0.35274054 -3.24543203 -0.02828212 0 0 Z M7.62109375 16.3984375 C7.62109375 22.3384375 7.62109375 28.2784375 7.62109375 34.3984375 C10.93140625 34.49125 10.93140625 34.49125 14.30859375 34.5859375 C15.54996094 34.62074219 16.79132813 34.65554687 18.0703125 34.69140625 C21.85050291 34.37950935 23.67498983 33.74329572 26.62109375 31.3984375 C27.83370252 27.76061118 28.01653927 25.22107751 27.62109375 21.3984375 C25.65705591 18.53741448 25.65705591 18.53741448 22.62109375 16.3984375 C19.73737924 16.02489935 17.63819413 15.91130897 14.80859375 16.0859375 C12.43671875 16.1890625 10.06484375 16.2921875 7.62109375 16.3984375 Z " fill="#0E1D61" transform="translate(97.37890625,13.6015625)"/>
<path d="M0 0 C1.95969727 -0.0309375 1.95969727 -0.0309375 3.95898438 -0.0625 C10.60152643 -0.08951593 15.85935254 -0.1005235 21.6875 3.25 C21.71435412 5.56243792 21.73382841 7.8749627 21.75 10.1875 C21.76160156 11.47527344 21.77320313 12.76304688 21.78515625 14.08984375 C21.6875 17.25 21.6875 17.25 20.6875 18.25 C19.2528041 18.34894455 17.81309603 18.37970735 16.375 18.375 C15.20517578 18.37886719 15.20517578 18.37886719 14.01171875 18.3828125 C11.6875 18.25 11.6875 18.25 9.79907227 17.74780273 C7.64046362 17.23891118 5.79135993 17.13557682 3.578125 17.15234375 C2.44697266 17.15717773 2.44697266 17.15717773 1.29296875 17.16210938 C0.51566406 17.17048828 -0.26164062 17.17886719 -1.0625 17.1875 C-1.85527344 17.19201172 -2.64804688 17.19652344 -3.46484375 17.20117188 C-5.41409508 17.21291435 -7.36330738 17.23084854 -9.3125 17.25 C-9.1376939 19.22265328 -9.1376939 19.22265328 -8.3125 21.25 C-6.45697177 22.27610383 -6.45697177 22.27610383 -4.12109375 22.77734375 C-3.25806641 23.01259766 -2.39503906 23.24785156 -1.50585938 23.49023438 C-0.59642578 23.72033203 0.31300781 23.95042969 1.25 24.1875 C8.95043462 26.16182619 16.11814974 28.33522875 21.625 34.375 C24.95234253 40.24678093 24.75509676 48.35784723 23.00390625 54.7421875 C20.88781278 59.39583704 18.41545459 62.09338914 13.6875 64.25 C2.99951731 66.70344194 -15.37187455 69.17866407 -25.23828125 63.0546875 C-26.8157948 60.40446474 -26.67330019 58.24527365 -26.625 55.1875 C-26.62113281 54.12402344 -26.61726562 53.06054688 -26.61328125 51.96484375 C-26.3125 49.25 -26.3125 49.25 -24.3125 47.25 C-17.53828171 46.92221524 -17.53828171 46.92221524 -14.42626953 47.75439453 C-11.01092727 48.55517355 -7.55040259 48.35255542 -4.0625 48.3125 C-3.31742188 48.30798828 -2.57234375 48.30347656 -1.8046875 48.29882812 C0.0260764 48.28709246 1.85679873 48.2691585 3.6875 48.25 C3.6875 46.93 3.6875 45.61 3.6875 44.25 C3.02741943 44.03907715 2.36733887 43.8281543 1.68725586 43.61083984 C-1.33938795 42.63282555 -4.35694557 41.62919234 -7.375 40.625 C-8.41333984 40.29371094 -9.45167969 39.96242187 -10.52148438 39.62109375 C-16.75438793 37.52367223 -21.94255041 35.31364622 -26.3125 30.25 C-29.36624363 24.01527343 -28.49851928 16.9278042 -27.3125 10.25 C-25.60811252 5.78652981 -22.59066157 3.28212674 -18.3125 1.25 C-12.47921486 -0.62094629 -6.05234551 0.02367666 0 0 Z " fill="#0E1D61" transform="translate(175.3125,13.75)"/>
<path d="M0 0 C1.07451416 -0.00630432 2.14902832 -0.01260864 3.25610352 -0.019104 C5.00298462 -0.01303131 5.00298462 -0.01303131 6.78515625 -0.00683594 C7.97616943 -0.00874939 9.16718262 -0.01066284 10.39428711 -0.01263428 C12.91618053 -0.01399724 15.43808094 -0.0102931 17.95996094 -0.00195312 C21.83153974 0.00874453 25.70265447 -0.00184499 29.57421875 -0.01464844 C32.01953228 -0.01332686 34.46484552 -0.01076451 36.91015625 -0.00683594 C38.07474365 -0.0108844 39.23933105 -0.01493286 40.43920898 -0.019104 C42.05098022 -0.00964752 42.05098022 -0.00964752 43.6953125 0 C45.11855835 0.00238678 45.11855835 0.00238678 46.57055664 0.00482178 C48.84765625 0.25878906 48.84765625 0.25878906 50.84765625 2.25878906 C51.11328125 5.00878906 51.11328125 5.00878906 51.09765625 8.25878906 C51.10539062 9.86753906 51.10539062 9.86753906 51.11328125 11.50878906 C50.84765625 14.25878906 50.84765625 14.25878906 48.84765625 16.25878906 C46.96826172 16.48583984 46.96826172 16.48583984 44.71484375 16.45410156 C43.90917969 16.44765625 43.10351562 16.44121094 42.2734375 16.43457031 C41.43167969 16.4178125 40.58992188 16.40105469 39.72265625 16.38378906 C38.44841797 16.37025391 38.44841797 16.37025391 37.1484375 16.35644531 C35.04805741 16.33284554 32.94782181 16.29697389 30.84765625 16.25878906 C30.85209747 16.84316742 30.8565387 17.42754578 30.8611145 18.02963257 C30.90526387 24.09622764 30.93548759 30.16277729 30.95751953 36.22949219 C30.96759484 38.49546155 30.98125543 40.76141787 30.99853516 43.02734375 C31.02271636 46.27900407 31.03412388 49.53049294 31.04296875 52.78222656 C31.05329132 53.79997162 31.06361389 54.81771667 31.07424927 55.86630249 C31.07447586 57.27753891 31.07447586 57.27753891 31.07470703 58.71728516 C31.07914825 59.54779388 31.08358948 60.37830261 31.08816528 61.23397827 C30.84765625 63.25878906 30.84765625 63.25878906 28.84765625 65.25878906 C25.66015625 65.52441406 25.66015625 65.52441406 21.84765625 65.50878906 C20.58953125 65.51394531 19.33140625 65.51910156 18.03515625 65.52441406 C14.84765625 65.25878906 14.84765625 65.25878906 12.84765625 63.25878906 C12.60714722 61.23397827 12.60714722 61.23397827 12.62060547 58.71728516 C12.62075653 57.77646088 12.62090759 56.8356366 12.62106323 55.86630249 C12.6313858 54.84855743 12.64170837 53.83081238 12.65234375 52.78222656 C12.65517365 51.74184235 12.65800354 50.70145813 12.66091919 49.62954712 C12.67213921 46.29751212 12.6972471 42.9657432 12.72265625 39.63378906 C12.73268369 37.3785846 12.74180995 35.12337594 12.75 32.86816406 C12.77208447 27.33161452 12.80557986 21.79522079 12.84765625 16.25878906 C11.57148438 16.28199219 10.2953125 16.30519531 8.98046875 16.32910156 C7.31120375 16.34785735 5.64193245 16.36605775 3.97265625 16.38378906 C2.71001953 16.40892578 2.71001953 16.40892578 1.421875 16.43457031 C0.21337891 16.44423828 0.21337891 16.44423828 -1.01953125 16.45410156 C-1.76315918 16.4645752 -2.50678711 16.47504883 -3.27294922 16.48583984 C-5.15234375 16.25878906 -5.15234375 16.25878906 -7.15234375 14.25878906 C-7.41796875 11.50878906 -7.41796875 11.50878906 -7.40234375 8.25878906 C-7.4075 7.18628906 -7.41265625 6.11378906 -7.41796875 5.00878906 C-6.92954485 -0.04783483 -4.44765744 0.00745871 0 0 Z " fill="#0E1D61" transform="translate(7.15234375,13.7412109375)"/>
<path d="M0 0 C2.02844287 -0.01718404 4.05524251 -0.06106773 6.08325195 -0.10522461 C7.36651367 -0.11360352 8.64977539 -0.12198242 9.97192383 -0.13061523 C11.73596558 -0.15248901 11.73596558 -0.15248901 13.53564453 -0.17480469 C17.37058544 0.38876973 18.99465517 1.60930216 21.73364258 4.29516602 C23.83454619 8.49697323 23.00151739 13.93928412 23.02880859 18.56152344 C23.04599263 20.58996631 23.08987633 22.61676595 23.1340332 24.64477539 C23.14241211 25.92803711 23.15079102 27.21129883 23.15942383 28.53344727 C23.17400635 29.7094751 23.18858887 30.88550293 23.20361328 32.09716797 C22.64003887 35.93210887 21.41950644 37.55617861 18.73364258 40.29516602 C15.30009403 42.01194029 11.12641181 41.58226703 7.31958008 41.63696289 C3.87753508 41.78263999 2.10597854 41.9636962 -0.50854492 44.29125977 C-1.08862305 44.95254883 -1.66870117 45.61383789 -2.26635742 46.29516602 C-6.01635742 47.04516602 -6.01635742 47.04516602 -9.26635742 47.29516602 C-9.26635742 45.31516602 -9.26635742 43.33516602 -9.26635742 41.29516602 C-10.19448242 41.06829102 -11.12260742 40.84141602 -12.07885742 40.60766602 C-15.92240241 39.02502984 -16.52438372 37.99497851 -18.26635742 34.29516602 C-18.88047944 29.64639218 -18.72999154 24.9803003 -18.70385742 20.29516602 C-18.72383789 19.02415039 -18.74381836 17.75313477 -18.7644043 16.44360352 C-18.76375977 15.21899414 -18.76311523 13.99438477 -18.76245117 12.73266602 C-18.7643042 11.61762695 -18.76615723 10.50258789 -18.76806641 9.35375977 C-18.15771696 5.63285571 -16.86499503 3.97591051 -14.26635742 1.29516602 C-10.06455021 -0.80573759 -4.62223932 0.02729121 0 0 Z " fill="#E16913" transform="translate(279.266357421875,-0.295166015625)"/>
<path d="M0 0 C1.258125 -0.01675781 2.51625 -0.03351562 3.8125 -0.05078125 C4.864375 0.06910156 5.91625 0.18898438 7 0.3125 C9.28545742 3.74068613 9.25257598 4.99021393 9.25878906 9.02148438 C9.26509338 10.19279907 9.27139771 11.36411377 9.27789307 12.57092285 C9.2738446 13.83658081 9.26979614 15.10223877 9.265625 16.40625 C9.26753845 17.70445679 9.2694519 19.00266357 9.27142334 20.34020996 C9.2743711 23.08736938 9.27008825 25.83439868 9.26074219 28.58154297 C9.2493477 32.10233671 9.25590905 35.62282553 9.26788712 39.14360809 C9.27685297 42.50201317 9.27057503 45.86033626 9.265625 49.21875 C9.26967346 50.48440796 9.27372192 51.75006592 9.27789307 53.05407715 C9.27158875 54.22539185 9.26528442 55.39670654 9.25878906 56.60351562 C9.25640228 58.15214294 9.25640228 58.15214294 9.25396729 59.73205566 C9 62.3125 9 62.3125 7 65.3125 C3.8125 65.67578125 3.8125 65.67578125 0 65.625 C-1.8871875 65.61919922 -1.8871875 65.61919922 -3.8125 65.61328125 C-7 65.3125 -7 65.3125 -9 63.3125 C-9.25396729 60.76965332 -9.25396729 60.76965332 -9.25878906 57.51757812 C-9.26509338 56.3029187 -9.27139771 55.08825928 -9.27789307 53.83679199 C-9.2738446 52.51908813 -9.26979614 51.20138428 -9.265625 49.84375 C-9.26697176 48.48376394 -9.26891239 47.12377835 -9.27142334 45.76379395 C-9.27437409 42.91230693 -9.27007864 40.06094513 -9.26074219 37.20947266 C-9.24934754 33.55067223 -9.25590729 29.8921652 -9.26788712 26.23337555 C-9.27510712 23.42472108 -9.27281717 20.61613641 -9.26763153 17.80747986 C-9.26564461 15.80105398 -9.27172863 13.7946254 -9.27789307 11.78820801 C-9.27158875 10.57354858 -9.26528442 9.35888916 -9.25878906 8.10742188 C-9.25719788 7.03423706 -9.25560669 5.96105225 -9.25396729 4.85534668 C-8.68997837 -0.79159062 -4.72151947 0.01451287 0 0 Z " fill="#0E1D61" transform="translate(71,13.6875)"/>
<path d="M0 0 C3.85402129 -0.08770383 7.70778291 -0.14062735 11.5625 -0.1875 C12.64853516 -0.21263672 13.73457031 -0.23777344 14.85351562 -0.26367188 C20.96410034 -0.31939149 25.77230831 -0.34712609 31 3 C35.2250442 9.08268122 34.75903101 15.88197584 34 23 C32.82657336 26.50766244 31.15280011 28.40301423 27.8125 30.1328125 C24.32667679 31.20760799 21.3289195 31.19306392 17.6875 31.125 C16.43324219 31.10695313 15.17898438 31.08890625 13.88671875 31.0703125 C12.93410156 31.04710938 11.98148437 31.02390625 11 31 C11.061875 32.918125 11.061875 32.918125 11.125 34.875 C11.1953125 37.0546875 11.1953125 37.0546875 11 39 C9 41 9 41 7.125 41.265625 C6.42375 41.26046875 5.7225 41.2553125 5 41.25 C4.29875 41.25515625 3.5975 41.2603125 2.875 41.265625 C1 41 1 41 -1 39 C-1.18757906 36.22646923 -1.25560698 33.55459356 -1.23046875 30.78125 C-1.23001053 29.96756958 -1.22955231 29.15388916 -1.2290802 28.31555176 C-1.22605711 26.59397932 -1.2181691 24.87240964 -1.20581055 23.15087891 C-1.18757352 20.51064398 -1.18530072 17.87076004 -1.18554688 15.23046875 C-1.18063094 13.55989279 -1.1748023 11.88931922 -1.16796875 10.21875 C-1.16685593 9.42601685 -1.1657431 8.63328369 -1.16459656 7.81652832 C-1.11606827 2.23213654 -1.11606827 2.23213654 0 0 Z M11 10 C11 13.63 11 17.26 11 21 C16.67675932 21.38435046 16.67675932 21.38435046 22 20 C23.01370127 17.17037671 23.01370127 17.17037671 23 14 C21.69138543 11.44014926 21.69138543 11.44014926 19 10 C16.24105503 9.67418174 13.79568665 9.81362089 11 10 Z " fill="#0E1D61" transform="translate(307,0)"/>
<path d="M0 0 C0.90621094 0.00064453 1.81242187 0.00128906 2.74609375 0.00195312 C9.45248724 0.04666241 9.45248724 0.04666241 12.875 1.1875 C14.26050197 3.95850394 14.0627467 6.1209706 13.875 9.1875 C12.885 10.6725 12.885 10.6725 11.875 12.1875 C10.740625 12.0225 9.60625 11.8575 8.4375 11.6875 C3.90439706 11.11173916 -0.56247238 11.09244734 -5.125 11.1875 C-5.125 11.8475 -5.125 12.5075 -5.125 13.1875 C-4.08859375 13.50203125 -3.0521875 13.8165625 -1.984375 14.140625 C-0.61437869 14.57226767 0.75540186 15.0045956 2.125 15.4375 C2.80691406 15.64246094 3.48882812 15.84742188 4.19140625 16.05859375 C8.35583604 17.39282854 11.22457554 18.65579297 13.875 22.1875 C15.31418642 26.44214399 15.32187286 30.83086538 13.8125 35.0625 C11.45313039 38.86793486 10.03103139 39.59662955 5.875 41.1875 C2.82014855 41.55146726 -0.17813066 41.5176793 -3.25 41.4375 C-4.04792969 41.43234375 -4.84585937 41.4271875 -5.66796875 41.421875 C-12.76531212 41.32708577 -12.76531212 41.32708577 -16.125 40.1875 C-17.75151522 36.93446956 -17.23953156 33.79524398 -17.125 30.1875 C-16.795 29.8575 -16.465 29.5275 -16.125 29.1875 C-13.29991253 29.27882191 -10.50523571 29.42585865 -7.6875 29.625 C-2.41046799 30.02255633 -2.41046799 30.02255633 2.875 30.1875 C0.33583439 27.09672255 -2.2152418 26.34956192 -6 25.25 C-10.44163451 23.84822659 -13.81762469 22.60892274 -17.125 19.1875 C-18.85449757 15.72850486 -18.47522524 11.97630029 -18.125 8.1875 C-16.95508882 4.80091501 -16.27691737 2.85547575 -13.14453125 1.0390625 C-8.7542358 -0.19908033 -4.5373216 -0.06184298 0 0 Z " fill="#0E1D61" transform="translate(431.125,-0.1875)"/>
<path d="M0 0 C0.8146875 0.00257812 1.629375 0.00515625 2.46875 0.0078125 C3.2834375 0.00523438 4.098125 0.00265625 4.9375 0 C6.96875 0.1328125 6.96875 0.1328125 7.96875 1.1328125 C8.11400913 2.69528406 8.19590661 4.26375465 8.25 5.83203125 C8.28738281 6.79431641 8.32476562 7.75660156 8.36328125 8.74804688 C8.39808594 9.76189453 8.43289063 10.77574219 8.46875 11.8203125 C8.73389672 20.52432118 8.73389672 20.52432118 9.96875 29.1328125 C14.58382774 30.17495941 14.58382774 30.17495941 18.96875 29.1328125 C18.98856934 28.32537598 19.00838867 27.51793945 19.02880859 26.68603516 C19.12380899 23.04295375 19.23358912 19.40046564 19.34375 15.7578125 C19.39015625 13.85128906 19.39015625 13.85128906 19.4375 11.90625 C19.47617187 10.69453125 19.51484375 9.4828125 19.5546875 8.234375 C19.5861084 7.11369629 19.6175293 5.99301758 19.64990234 4.83837891 C19.96875 2.1328125 19.96875 2.1328125 21.96875 0.1328125 C24.09765625 -0.09765625 24.09765625 -0.09765625 26.53125 -0.0546875 C27.73974609 -0.04501953 27.73974609 -0.04501953 28.97265625 -0.03515625 C30.96875 0.1328125 30.96875 0.1328125 31.96875 1.1328125 C32.21206462 5.15635152 32.19733055 9.18358449 32.20898438 13.21386719 C32.21861209 15.22894817 32.24958261 17.24297463 32.28125 19.2578125 C32.33059025 31.51886567 32.33059025 31.51886567 28.96875 37.1328125 C24.62660526 41.2035732 20.43235552 41.31425338 14.65625 41.3828125 C13.36074219 41.40859375 12.06523437 41.434375 10.73046875 41.4609375 C5.91253241 41.04068137 2.4854015 39.75406065 -0.84375 36.1953125 C-3.22663072 32.05662494 -3.15958316 28.15002144 -3.1640625 23.43359375 C-3.16535156 22.14259766 -3.16664063 20.85160156 -3.16796875 19.52148438 C-3.16587402 18.8530249 -3.1637793 18.18456543 -3.16162109 17.49584961 C-3.15624085 15.44182035 -3.16159208 13.38800711 -3.16796875 11.33398438 C-3.16667969 10.04685547 -3.16539062 8.75972656 -3.1640625 7.43359375 C-3.16293457 6.24934814 -3.16180664 5.06510254 -3.16064453 3.8449707 C-2.98652084 0.19527252 -2.98652084 0.19527252 0 0 Z " fill="#0E1D61" transform="translate(378.03125,-0.1328125)"/>
<path d="M0 0 C3.3 0 6.6 0 10 0 C11.36839363 2.73678725 11.21634818 5.04264424 11.31640625 8.1015625 C11.35830078 9.31328125 11.40019531 10.525 11.44335938 11.7734375 C11.48267578 13.04445313 11.52199219 14.31546875 11.5625 15.625 C11.60568359 16.90375 11.64886719 18.1825 11.69335938 19.5 C11.79969886 22.66655348 11.90172833 25.83318753 12 29 C12.97582031 29.03738281 13.95164062 29.07476563 14.95703125 29.11328125 C16.22933594 29.17902344 17.50164062 29.24476562 18.8125 29.3125 C20.07707031 29.37050781 21.34164063 29.42851562 22.64453125 29.48828125 C26 30 26 30 27.9296875 31.3515625 C29.59509797 33.91653775 29.3160368 36.02925408 29 39 C26.20203951 41.79796049 24.18689309 41.28935504 20.36328125 41.32226562 C19.50089844 41.31904297 18.63851563 41.31582031 17.75 41.3125 C16.47962891 41.33666992 16.47962891 41.33666992 15.18359375 41.36132812 C10.12532261 41.36526146 6.15363646 41.19074801 2 38 C-1.98157798 30.9569566 -1.37947957 23.53134649 -1.25 15.625 C-1.24484375 14.34238281 -1.2396875 13.05976563 -1.234375 11.73828125 C-1.15472274 2.30944549 -1.15472274 2.30944549 0 0 Z " fill="#0E1D61" transform="translate(345,0)"/>
<path d="M0 0 C3.5 0.125 3.5 0.125 4.5 1.125 C4.54092937 3.45797433 4.54241723 5.79205225 4.5 8.125 C5.634375 8.104375 6.76875 8.08375 7.9375 8.0625 C11.5 8.125 11.5 8.125 12.5 9.125 C12.625 12.625 12.625 12.625 12.5 16.125 C11.5 17.125 11.5 17.125 7.9375 17.1875 C6.803125 17.166875 5.66875 17.14625 4.5 17.125 C4.520625 18.259375 4.54125 19.39375 4.5625 20.5625 C4.5 24.125 4.5 24.125 3.5 25.125 C0 25.25 0 25.25 -3.5 25.125 C-4.5 24.125 -4.5 24.125 -4.5625 20.5625 C-4.541875 19.428125 -4.52125 18.29375 -4.5 17.125 C-6.2015625 17.1559375 -6.2015625 17.1559375 -7.9375 17.1875 C-11.5 17.125 -11.5 17.125 -12.5 16.125 C-12.625 12.625 -12.625 12.625 -12.5 9.125 C-11.5 8.125 -11.5 8.125 -7.9375 8.0625 C-6.803125 8.083125 -5.66875 8.10375 -4.5 8.125 C-4.520625 6.990625 -4.54125 5.85625 -4.5625 4.6875 C-4.4830721 0.16010972 -4.4830721 0.16010972 0 0 Z " fill="#FDF5EF" transform="translate(281.5,7.875)"/>
<path d="M0 0 C1.05445313 -0.03287109 2.10890625 -0.06574219 3.1953125 -0.09960938 C10.85171543 -0.15304874 10.85171543 -0.15304874 14.3359375 2.5078125 C15.93416042 6.14013732 16.02291662 8.79323039 15.875 12.75 C15.83890625 14.00425781 15.8028125 15.25851563 15.765625 16.55078125 C15.69601562 17.97970703 15.69601562 17.97970703 15.625 19.4375 C13.6875 20 13.6875 20 11.625 20.4375 C9.74675109 18.55925109 10.23397603 15.39814724 10.0625 12.875 C9.93681641 11.07869141 9.93681641 11.07869141 9.80859375 9.24609375 C9.74800781 8.31925781 9.68742187 7.39242187 9.625 6.4375 C7.645 5.7775 5.665 5.1175 3.625 4.4375 C3.625 9.3875 3.625 14.3375 3.625 19.4375 C2.305 19.7675 0.985 20.0975 -0.375 20.4375 C-1.375 19.4375 -1.375 19.4375 -1.47265625 16.05859375 C-1.46598369 14.66402923 -1.45402532 13.26948257 -1.4375 11.875 C-1.43298828 11.16408203 -1.42847656 10.45316406 -1.42382812 9.72070312 C-1.41200864 7.95959987 -1.39407263 6.19853964 -1.375 4.4375 C-3.355 4.7675 -5.335 5.0975 -7.375 5.4375 C-7.705 10.3875 -8.035 15.3375 -8.375 20.4375 C-10.025 20.1075 -11.675 19.7775 -13.375 19.4375 C-13.42880578 16.64557795 -13.46857669 13.8546859 -13.5 11.0625 C-13.51675781 10.2684375 -13.53351563 9.474375 -13.55078125 8.65625 C-13.56835473 6.58257985 -13.47835168 4.50866759 -13.375 2.4375 C-9.87380291 -1.06369709 -4.74266644 0.02590048 0 0 Z " fill="#0E1D61" transform="translate(320.375,102.5625)"/>
<path d="M0 0 C0.69738281 0.01804687 1.39476562 0.03609375 2.11328125 0.0546875 C3.82611539 0.10161446 5.53823824 0.17335395 7.25 0.25 C7.25 1.9 7.25 3.55 7.25 5.25 C3.29 5.25 -0.67 5.25 -4.75 5.25 C-6.96614886 9.68229772 -7.26387226 12.42750646 -6.75 17.25 C-5.88734032 19.65557853 -5.88734032 19.65557853 -4.75 21.25 C-2.11 21.25 0.53 21.25 3.25 21.25 C3.58 19.27 3.91 17.29 4.25 15.25 C2.6 14.92 0.95 14.59 -0.75 14.25 C-0.42 13.26 -0.09 12.27 0.25 11.25 C6.40234375 11.15234375 6.40234375 11.15234375 8.25 11.25 C10.06119819 13.06119819 9.46518878 15.74781392 9.5 18.1875 C9.52578125 19.26902344 9.5515625 20.35054687 9.578125 21.46484375 C9.46984375 22.38394531 9.3615625 23.30304688 9.25 24.25 C5.60594748 26.67936835 3.651183 26.57947342 -0.6875 26.625 C-1.91339844 26.65335938 -3.13929687 26.68171875 -4.40234375 26.7109375 C-7.75 26.25 -7.75 26.25 -10.16015625 24.7890625 C-12.52920506 21.00556931 -12.33390002 17.62678442 -12.25 13.25 C-12.26546875 12.44304687 -12.2809375 11.63609375 -12.296875 10.8046875 C-12.27272344 7.14572631 -12.12672092 4.87025767 -10.203125 1.703125 C-6.82353204 -0.29879949 -3.80119541 -0.18682624 0 0 Z " fill="#0E1D61" transform="translate(11.75,96.75)"/>
<path d="M0 0 C1.1446875 -0.01933594 2.289375 -0.03867188 3.46875 -0.05859375 C6.5 0.4375 6.5 0.4375 8.3828125 2.08984375 C9.77988849 5.02565729 9.89934089 7.1920478 9.875 10.4375 C9.88273437 11.46875 9.89046875 12.5 9.8984375 13.5625 C9.44484614 16.83547298 8.96260697 18.23218032 6.5 20.4375 C3.80078125 20.828125 3.80078125 20.828125 0.8125 20.6875 C-0.18136719 20.65140625 -1.17523438 20.6153125 -2.19921875 20.578125 C-3.33810547 20.50851563 -3.33810547 20.50851563 -4.5 20.4375 C-4.5 22.0875 -4.5 23.7375 -4.5 25.4375 C-6.4375 26 -6.4375 26 -8.5 26.4375 C-10.92136374 24.01613626 -9.73368095 17.81407032 -9.75 14.5625 C-9.770625 13.54285156 -9.79125 12.52320312 -9.8125 11.47265625 C-9.81765625 10.49425781 -9.8228125 9.51585938 -9.828125 8.5078125 C-9.8374707 7.60820801 -9.84681641 6.70860352 -9.85644531 5.78173828 C-9.5 3.4375 -9.5 3.4375 -8.16894531 1.64770508 C-5.54803599 -0.25279924 -3.18373836 0.00358529 0 0 Z M-4.5 5.4375 C-4.59823937 7.10179051 -4.62973631 8.77031931 -4.625 10.4375 C-4.62757813 11.345 -4.63015625 12.2525 -4.6328125 13.1875 C-4.75173779 15.40716611 -4.75173779 15.40716611 -3.5 16.4375 C-0.54182893 16.68755386 -0.54182893 16.68755386 2.5 16.4375 C4.65705515 14.6810669 4.65705515 14.6810669 4.765625 12.5625 C4.76046875 11.86125 4.7553125 11.16 4.75 10.4375 C4.75515625 9.73625 4.7603125 9.035 4.765625 8.3125 C4.65705515 6.1939331 4.65705515 6.1939331 2.5 4.4375 C-1.30011859 3.91957372 -1.30011859 3.91957372 -4.5 5.4375 Z " fill="#0E1D61" transform="translate(347.5,102.5625)"/>
<path d="M0 0 C1.06089844 -0.03738281 2.12179688 -0.07476562 3.21484375 -0.11328125 C6.0625 0.3125 6.0625 0.3125 7.92578125 2.1015625 C9.539748 5.24075556 9.3243777 7.84262054 9.0625 11.3125 C8.0625 12.3125 8.0625 12.3125 5.12109375 12.41015625 C3.32865234 12.39275391 3.32865234 12.39275391 1.5 12.375 C-0.29630859 12.36146484 -0.29630859 12.36146484 -2.12890625 12.34765625 C-3.05574219 12.33605469 -3.98257812 12.32445313 -4.9375 12.3125 C-3.9475 13.7975 -3.9475 13.7975 -2.9375 15.3125 C-0.50056689 15.67666047 -0.50056689 15.67666047 2.1875 15.5 C3.55261719 15.45939453 3.55261719 15.45939453 4.9453125 15.41796875 C5.64398438 15.38316406 6.34265625 15.34835938 7.0625 15.3125 C7.625 17.25 7.625 17.25 8.0625 19.3125 C6.19333206 21.18166794 3.18805426 20.52938008 0.6875 20.5625 C-0.47523437 20.58828125 -1.63796875 20.6140625 -2.8359375 20.640625 C-5.9375 20.3125 -5.9375 20.3125 -7.80078125 19.09765625 C-10.05637978 15.5553589 -9.95024372 11.41597633 -9.9375 7.3125 C-9.125 3.75 -9.125 3.75 -7.9375 1.3125 C-5.23707819 -0.0377109 -3.01298373 0.06938993 0 0 Z M-2.9375 4.3125 C-3.5975 5.6325 -4.2575 6.9525 -4.9375 8.3125 C-1.9675 8.3125 1.0025 8.3125 4.0625 8.3125 C3.7325 6.9925 3.4025 5.6725 3.0625 4.3125 C1.0825 4.3125 -0.8975 4.3125 -2.9375 4.3125 Z " fill="#0E1D61" transform="translate(32.9375,102.6875)"/>
<path d="M0 0 C1.051875 0.00128906 2.10375 0.00257812 3.1875 0.00390625 C6 0.4375 6 0.4375 7.859375 1.70703125 C9.92726118 4.84426953 9.23650515 7.7716701 9 11.4375 C8 12.4375 8 12.4375 5.27734375 12.53515625 C3.62412109 12.51775391 3.62412109 12.51775391 1.9375 12.5 C0.28041016 12.48646484 0.28041016 12.48646484 -1.41015625 12.47265625 C-2.26480469 12.46105469 -3.11945313 12.44945313 -4 12.4375 C-3.67 13.4275 -3.34 14.4175 -3 15.4375 C0.63 15.4375 4.26 15.4375 8 15.4375 C7.67 17.0875 7.34 18.7375 7 20.4375 C4.89695523 20.5455023 2.79233091 20.62308987 0.6875 20.6875 C-1.07013672 20.75710937 -1.07013672 20.75710937 -2.86328125 20.828125 C-6 20.4375 -6 20.4375 -7.89453125 18.796875 C-9.27232133 15.85629122 -9.39931597 13.67962957 -9.375 10.4375 C-9.38273437 9.40625 -9.39046875 8.375 -9.3984375 7.3125 C-8.54155217 1.12948427 -5.99368093 -0.11017796 0 0 Z M-3 4.4375 C-3.33 5.7575 -3.66 7.0775 -4 8.4375 C-1.36 8.4375 1.28 8.4375 4 8.4375 C3.67 7.1175 3.34 5.7975 3 4.4375 C1.02 4.4375 -0.96 4.4375 -3 4.4375 Z " fill="#0E1D61" transform="translate(296,102.5625)"/>
<path d="M0 0 C0.95003906 0.00128906 1.90007812 0.00257812 2.87890625 0.00390625 C5.4375 0.4375 5.4375 0.4375 7.265625 1.671875 C9.45926576 4.97696042 8.60471203 8.59162342 8.4375 12.4375 C4.1475 12.4375 -0.1425 12.4375 -4.5625 12.4375 C-4.2325 13.4275 -3.9025 14.4175 -3.5625 15.4375 C0.0675 15.4375 3.6975 15.4375 7.4375 15.4375 C7.4375 16.7575 7.4375 18.0775 7.4375 19.4375 C5.63957025 21.23542975 3.05364796 20.69420277 0.625 20.75 C-0.96248047 20.80607422 -0.96248047 20.80607422 -2.58203125 20.86328125 C-5.5625 20.4375 -5.5625 20.4375 -7.91796875 18.79296875 C-9.99106474 15.82366499 -10.09848768 14.03626795 -10.0625 10.4375 C-10.0728125 9.40625 -10.083125 8.375 -10.09375 7.3125 C-9.00727801 1.43276921 -5.65282995 -0.11536388 0 0 Z M-3.5625 4.4375 C-3.8925 5.7575 -4.2225 7.0775 -4.5625 8.4375 C-1.5925 8.4375 1.3775 8.4375 4.4375 8.4375 C3.7775 7.1175 3.1175 5.7975 2.4375 4.4375 C0.4575 4.4375 -1.5225 4.4375 -3.5625 4.4375 Z " fill="#0E1D61" transform="translate(226.5625,102.5625)"/>
<path d="M0 0 C0.96808594 -0.01417969 1.93617188 -0.02835937 2.93359375 -0.04296875 C5.5625 0.1875 5.5625 0.1875 8.5625 2.1875 C8.97644695 5.55426852 8.69337567 8.78473255 8.5625 12.1875 C4.2725 12.1875 -0.0175 12.1875 -4.4375 12.1875 C-4.4375 13.1775 -4.4375 14.1675 -4.4375 15.1875 C-0.4775 15.1875 3.4825 15.1875 7.5625 15.1875 C7.5625 16.5075 7.5625 17.8275 7.5625 19.1875 C5.76345222 20.98654778 3.11186549 20.36046543 0.6875 20.375 C-0.91738281 20.39626953 -0.91738281 20.39626953 -2.5546875 20.41796875 C-5.4375 20.1875 -5.4375 20.1875 -8.4375 18.1875 C-9.4077889 15.27663331 -9.60217847 13.28526315 -9.625 10.25 C-9.63917969 9.39535156 -9.65335937 8.54070312 -9.66796875 7.66015625 C-9.42107294 5.01125715 -8.86163681 3.42114615 -7.4375 1.1875 C-4.84996844 -0.10626578 -2.88791015 0.01917603 0 0 Z M-3.4375 4.1875 C-3.7675 5.5075 -4.0975 6.8275 -4.4375 8.1875 C-1.4675 8.1875 1.5025 8.1875 4.5625 8.1875 C4.2325 6.8675 3.9025 5.5475 3.5625 4.1875 C1.2525 4.1875 -1.0575 4.1875 -3.4375 4.1875 Z " fill="#0E1D61" transform="translate(409.4375,102.8125)"/>
<path d="M0 0 C1.06992187 -0.03738281 2.13984375 -0.07476562 3.2421875 -0.11328125 C6.125 0.3125 6.125 0.3125 7.98828125 1.88671875 C9.52996535 5.17670441 9.48663252 7.81681101 9.4375 11.4375 C9.43363281 12.67757812 9.42976563 13.91765625 9.42578125 15.1953125 C9.125 18.3125 9.125 18.3125 7.125 20.3125 C4.19140625 20.6484375 4.19140625 20.6484375 0.6875 20.6875 C-0.46621094 20.71585938 -1.61992187 20.74421875 -2.80859375 20.7734375 C-5.875 20.3125 -5.875 20.3125 -7.7890625 18.515625 C-9.44886968 15.14824641 -8.85860337 12.85347213 -7.875 9.3125 C-4.72391918 6.52500543 -0.8929289 7.15796427 3.125 7.3125 C3.125 6.6525 3.125 5.9925 3.125 5.3125 C-0.175 5.3125 -3.475 5.3125 -6.875 5.3125 C-6.875 -0.722319 -5.52298064 0.1258233 0 0 Z M-2.875 11.3125 C-3.46570014 13.25853274 -3.46570014 13.25853274 -3.875 15.3125 C-2.69075674 16.72827477 -2.69075674 16.72827477 0.6875 16.375 C2.3890625 16.3440625 2.3890625 16.3440625 4.125 16.3125 C3.795 14.6625 3.465 13.0125 3.125 11.3125 C1.145 11.3125 -0.835 11.3125 -2.875 11.3125 Z " fill="#0E1D61" transform="translate(428.875,102.6875)"/>
<path d="M0 0 C2.10304477 -0.1080023 4.20766909 -0.18558987 6.3125 -0.25 C8.07013672 -0.31960937 8.07013672 -0.31960937 9.86328125 -0.390625 C13 0 13 0 14.89453125 1.60546875 C16.33188825 4.71889575 16.39836086 7.14013339 16.375 10.5625 C16.38273437 11.69816406 16.39046875 12.83382812 16.3984375 14.00390625 C16 17 16 17 14.8515625 18.87890625 C12.19193943 20.48926874 10.087699 20.39770367 7 20.375 C5.948125 20.38273437 4.89625 20.39046875 3.8125 20.3984375 C1 20 1 20 -0.85546875 18.6640625 C-2.62269392 16.0946498 -2.31576498 14.03134385 -2 11 C0 8 0 8 3 7 C5.33299825 6.96045766 7.66708189 6.95598268 10 7 C10 6.34 10 5.68 10 5 C6.7 5 3.4 5 0 5 C-0.33 4.01 -0.66 3.02 -1 2 C-0.67 1.34 -0.34 0.68 0 0 Z M4 11 C3.40929986 12.94603274 3.40929986 12.94603274 3 15 C4.18424326 16.41577477 4.18424326 16.41577477 7.5625 16.0625 C9.2640625 16.0315625 9.2640625 16.0315625 11 16 C10.67 14.35 10.34 12.7 10 11 C8.02 11 6.04 11 4 11 Z " fill="#0E1D61" transform="translate(184,103)"/>
<path d="M0 0 C1.051875 0.00128906 2.10375 0.00257812 3.1875 0.00390625 C6 0.4375 6 0.4375 7.82421875 1.6953125 C10.02024578 4.94922631 10.01310443 8.59790061 10 12.4375 C9.14988074 16.0341584 8.60417425 17.83332575 6 20.4375 C3.28515625 20.7734375 3.28515625 20.7734375 0.0625 20.8125 C-0.99839844 20.84085938 -2.05929688 20.86921875 -3.15234375 20.8984375 C-6 20.4375 -6 20.4375 -7.85546875 18.7890625 C-9.28656589 15.84871957 -9.39947542 13.70088929 -9.375 10.4375 C-9.38273438 9.40625 -9.39046875 8.375 -9.3984375 7.3125 C-8.54155217 1.12948427 -5.99368093 -0.11017796 0 0 Z M-4 5.4375 C-4.09823937 7.10179051 -4.12973631 8.77031931 -4.125 10.4375 C-4.12757813 11.345 -4.13015625 12.2525 -4.1328125 13.1875 C-4.25173779 15.40716611 -4.25173779 15.40716611 -3 16.4375 C-0.04195427 16.77090471 -0.04195427 16.77090471 3 16.4375 C5.31332486 12.96751271 5.33957563 11.51240752 5 7.4375 C4.34 6.4475 3.68 5.4575 3 4.4375 C-0.7978531 3.87546817 -0.7978531 3.87546817 -4 5.4375 Z " fill="#0E1D61" transform="translate(156,102.5625)"/>
<path d="M0 0 C1.051875 -0.00773437 2.10375 -0.01546875 3.1875 -0.0234375 C6 0.375 6 0.375 7.8515625 1.4609375 C9.61762064 4.40436773 9.39622648 6.97876387 9.375 10.375 C9.38273437 11.6125 9.39046875 12.85 9.3984375 14.125 C9 17.375 9 17.375 7.8515625 19.2890625 C5.18856952 20.85090226 3.06745182 20.77255479 0 20.75 C-1.051875 20.75773437 -2.10375 20.76546875 -3.1875 20.7734375 C-6 20.375 -6 20.375 -7.8515625 19.2890625 C-9.61762064 16.34563227 -9.39622648 13.77123613 -9.375 10.375 C-9.38273437 9.1375 -9.39046875 7.9 -9.3984375 6.625 C-9 3.375 -9 3.375 -7.8515625 1.4609375 C-5.18856952 -0.10090226 -3.06745182 -0.02255479 0 0 Z M-3 4.375 C-4.95143115 7.24475169 -4.98930952 8.50114763 -4.6875 12.0625 C-4.35080266 15.20708283 -4.35080266 15.20708283 -3 16.375 C-1.00041636 16.41580783 1.00045254 16.41754356 3 16.375 C4.95143115 13.50524831 4.98930952 12.24885237 4.6875 8.6875 C4.35080266 5.54291717 4.35080266 5.54291717 3 4.375 C1.00041636 4.33419217 -1.00045254 4.33245644 -3 4.375 Z " fill="#0E1D61" transform="translate(94,102.625)"/>
<path d="M0 0 C1.051875 0.00128906 2.10375 0.00257812 3.1875 0.00390625 C6 0.4375 6 0.4375 7.8515625 1.52734375 C9.61950986 4.46790925 9.39621484 7.04312639 9.375 10.4375 C9.38273437 11.675 9.39046875 12.9125 9.3984375 14.1875 C9 17.4375 9 17.4375 7.8515625 19.34765625 C5.19248149 20.91281153 3.06723289 20.87124114 0 20.875 C-1.5778125 20.90400391 -1.5778125 20.90400391 -3.1875 20.93359375 C-6 20.4375 -6 20.4375 -7.8515625 18.78515625 C-9.28912048 15.84647481 -9.39948389 13.70201924 -9.375 10.4375 C-9.38273437 9.40625 -9.39046875 8.375 -9.3984375 7.3125 C-8.54155217 1.12948427 -5.99368093 -0.11017796 0 0 Z M-3 4.4375 C-4.8000988 9.34153962 -4.8000988 9.34153962 -4.125 14.375 C-3.75375 15.055625 -3.3825 15.73625 -3 16.4375 C-0.08365871 16.6877157 -0.08365871 16.6877157 3 16.4375 C5.31332486 12.96751271 5.33957563 11.51240752 5 7.4375 C4.34 6.4475 3.68 5.4575 3 4.4375 C-0.08365871 4.1872843 -0.08365871 4.1872843 -3 4.4375 Z " fill="#0E1D61" transform="translate(368,102.5625)"/>
<path d="M0 0 C2.93359375 -0.43359375 2.93359375 -0.43359375 6.4375 -0.4375 C8.16806641 -0.46650391 8.16806641 -0.46650391 9.93359375 -0.49609375 C13 0 13 0 14.8984375 1.54296875 C16.42245818 4.94229146 16.32187912 8.10453575 16.1875 11.75 C16.16719727 12.79607422 16.16719727 12.79607422 16.14648438 13.86328125 C16.1112945 15.57585541 16.05749155 17.28802941 16 19 C14.0625 19.5625 14.0625 19.5625 12 20 C10.12175109 18.12175109 10.60897603 14.96064724 10.4375 12.4375 C10.35371094 11.23996094 10.26992187 10.04242188 10.18359375 8.80859375 C10.12300781 7.88175781 10.06242188 6.95492187 10 6 C8.02 5.34 6.04 4.68 4 4 C3.67 9.28 3.34 14.56 3 20 C1.35 19.67 -0.3 19.34 -2 19 C-2.05394705 16.39555652 -2.09364469 13.79223002 -2.125 11.1875 C-2.14175781 10.44951172 -2.15851563 9.71152344 -2.17578125 8.95117188 C-2.21074628 5.08753574 -2.19397555 3.29096332 0 0 Z " fill="#0E1D61" transform="translate(239,103)"/>
<path d="M0 0 C2.93359375 -0.43359375 2.93359375 -0.43359375 6.4375 -0.4375 C8.16806641 -0.46650391 8.16806641 -0.46650391 9.93359375 -0.49609375 C13 0 13 0 14.8984375 1.54296875 C16.42245818 4.94229146 16.32187912 8.10453575 16.1875 11.75 C16.16719727 12.79607422 16.16719727 12.79607422 16.14648438 13.86328125 C16.1112945 15.57585541 16.05749155 17.28802941 16 19 C14.0625 19.5625 14.0625 19.5625 12 20 C10.12175109 18.12175109 10.60897603 14.96064724 10.4375 12.4375 C10.35371094 11.23996094 10.26992187 10.04242188 10.18359375 8.80859375 C10.12300781 7.88175781 10.06242187 6.95492187 10 6 C8.02 5.34 6.04 4.68 4 4 C3.67 9.28 3.34 14.56 3 20 C1.35 19.67 -0.3 19.34 -2 19 C-2.05394705 16.39555652 -2.09364469 13.79223002 -2.125 11.1875 C-2.14175781 10.44951172 -2.15851563 9.71152344 -2.17578125 8.95117188 C-2.21074628 5.08753574 -2.19397555 3.29096332 0 0 Z " fill="#0E1D61" transform="translate(107,103)"/>
<path d="M0 0 C1.09054688 0.02320312 2.18109375 0.04640625 3.3046875 0.0703125 C4.40039062 0.08835937 5.49609375 0.10640625 6.625 0.125 C7.46804687 0.14820312 8.31109375 0.17140625 9.1796875 0.1953125 C9.8396875 1.5153125 10.4996875 2.8353125 11.1796875 4.1953125 C7.19772293 5.24936195 4.19773441 5.03629906 0.1796875 4.1953125 C0.1796875 5.1853125 0.1796875 6.1753125 0.1796875 7.1953125 C0.88996094 7.32808594 1.60023437 7.46085937 2.33203125 7.59765625 C3.25113281 7.77425781 4.17023437 7.95085937 5.1171875 8.1328125 C6.03371094 8.30683594 6.95023438 8.48085937 7.89453125 8.66015625 C10.1796875 9.1953125 10.1796875 9.1953125 11.1796875 10.1953125 C11.55054843 16.0363721 11.55054843 16.0363721 11.1796875 18.1953125 C7.65289651 20.54650649 6.15089265 20.40974702 1.9921875 20.3203125 C0.90550781 20.30226563 -0.18117188 20.28421875 -1.30078125 20.265625 C-2.54794922 20.23082031 -2.54794922 20.23082031 -3.8203125 20.1953125 C-4.1503125 18.5453125 -4.4803125 16.8953125 -4.8203125 15.1953125 C-1.1903125 15.1953125 2.4396875 15.1953125 6.1796875 15.1953125 C5.36230894 13.00795148 5.36230894 13.00795148 3.1484375 12.37890625 C2.33375 12.13269531 1.5190625 11.88648437 0.6796875 11.6328125 C-3.72919633 10.28642867 -3.72919633 10.28642867 -4.8203125 9.1953125 C-5.0078125 5.7578125 -5.0078125 5.7578125 -4.8203125 2.1953125 C-2.8203125 0.1953125 -2.8203125 0.1953125 0 0 Z " fill="#0E1D61" transform="translate(48.8203125,102.8046875)"/>
<path d="M0 0 C1.32 0.33 2.64 0.66 4 1 C4 2.32 4 3.64 4 5 C5.98 5 7.96 5 10 5 C10 6.32 10 7.64 10 9 C8.02 9 6.04 9 4 9 C4.33 12.63 4.66 16.26 5 20 C6.65 20 8.3 20 10 20 C10.5625 21.9375 10.5625 21.9375 11 24 C9.13077346 25.86922654 6.50248831 25.29230229 4.0078125 25.42578125 C2 25 2 25 0.25390625 23.37109375 C-1.35650592 20.32585952 -1.29920094 18.17549536 -1.1875 14.75 C-1.16042969 13.67234375 -1.13335937 12.5946875 -1.10546875 11.484375 C-1.07066406 10.66453125 -1.03585937 9.8446875 -1 9 C-1.99 8.67 -2.98 8.34 -4 8 C-3.67 7.01 -3.34 6.02 -3 5 C-2.34 5 -1.68 5 -1 5 C-0.67 3.35 -0.34 1.7 0 0 Z " fill="#0E1D61" transform="translate(267,98)"/>
<path d="M0 0 C1.32 0.33 2.64 0.66 4 1 C4 2.32 4 3.64 4 5 C5.98 5 7.96 5 10 5 C10 6.32 10 7.64 10 9 C8.02 9 6.04 9 4 9 C4.33 12.63 4.66 16.26 5 20 C6.65 20 8.3 20 10 20 C10.5625 21.9375 10.5625 21.9375 11 24 C9.13077346 25.86922654 6.50248831 25.29230229 4.0078125 25.42578125 C2 25 2 25 0.25390625 23.37109375 C-1.35650592 20.32585952 -1.29920094 18.17549536 -1.1875 14.75 C-1.16042969 13.67234375 -1.13335937 12.5946875 -1.10546875 11.484375 C-1.07066406 10.66453125 -1.03585938 9.8446875 -1 9 C-1.99 8.67 -2.98 8.34 -4 8 C-3.67 7.01 -3.34 6.02 -3 5 C-2.34 5 -1.68 5 -1 5 C-0.67 3.35 -0.34 1.7 0 0 Z " fill="#0E1D61" transform="translate(170,98)"/>
<path d="M0 0 C1.32 0.33 2.64 0.66 4 1 C4 2.32 4 3.64 4 5 C5.98 5 7.96 5 10 5 C10 6.32 10 7.64 10 9 C8.02 9 6.04 9 4 9 C4.33 12.63 4.66 16.26 5 20 C6.65 20 8.3 20 10 20 C10.5625 21.9375 10.5625 21.9375 11 24 C9.13077346 25.86922654 6.50248831 25.29230229 4.0078125 25.42578125 C2 25 2 25 0.25390625 23.37109375 C-1.35650592 20.32585952 -1.29920094 18.17549536 -1.1875 14.75 C-1.16042969 13.67234375 -1.13335937 12.5946875 -1.10546875 11.484375 C-1.07066406 10.66453125 -1.03585938 9.8446875 -1 9 C-1.99 8.67 -2.98 8.34 -4 8 C-3.67 7.01 -3.34 6.02 -3 5 C-2.34 5 -1.68 5 -1 5 C-0.67 3.35 -0.34 1.7 0 0 Z " fill="#0E1D61" transform="translate(135,98)"/>
<path d="M0 0 C1.32 0.66 2.64 1.32 4 2 C4 2.99 4 3.98 4 5 C5.98 5 7.96 5 10 5 C10 6.32 10 7.64 10 9 C8.02 9 6.04 9 4 9 C4.33 12.63 4.66 16.26 5 20 C6.65 20 8.3 20 10 20 C10.5625 21.9375 10.5625 21.9375 11 24 C9.12735324 25.87264676 6.50240053 25.23607378 4.0078125 25.328125 C2 25 2 25 0.25390625 23.90234375 C-1.62367481 21.05380178 -1.28746941 18.6781368 -1.1875 15.3125 C-1.16042969 14.13300781 -1.13335937 12.95351562 -1.10546875 11.73828125 C-1.07066406 10.83464844 -1.03585938 9.93101563 -1 9 C-1.99 8.67 -2.98 8.34 -4 8 C-3.67 7.01 -3.34 6.02 -3 5 C-2.34 5 -1.68 5 -1 5 C-0.67 3.35 -0.34 1.7 0 0 Z " fill="#0E1D61" transform="translate(65,98)"/>
<path d="M0 0 C1.51400391 0.01740234 1.51400391 0.01740234 3.05859375 0.03515625 C4.07050781 0.04417969 5.08242188 0.05320312 6.125 0.0625 C7.29869141 0.07990234 7.29869141 0.07990234 8.49609375 0.09765625 C8.82609375 1.41765625 9.15609375 2.73765625 9.49609375 4.09765625 C6.49609375 5.09765625 6.49609375 5.09765625 2.49609375 5.09765625 C2.16609375 9.71765625 1.83609375 14.33765625 1.49609375 19.09765625 C-0.15390625 19.42765625 -1.80390625 19.75765625 -3.50390625 20.09765625 C-3.53279139 16.95184202 -3.55066548 13.80606156 -3.56640625 10.66015625 C-3.57478516 9.76232422 -3.58316406 8.86449219 -3.59179688 7.93945312 C-3.59501953 7.08544922 -3.59824219 6.23144531 -3.6015625 5.3515625 C-3.60941772 4.16542358 -3.60941772 4.16542358 -3.61743164 2.95532227 C-3.4390318 0.03608708 -2.92971854 0.11426359 0 0 Z " fill="#0E1D61" transform="translate(390.50390625,102.90234375)"/>
<path d="M0 0 C0.99 0.33 1.98 0.66 3 1 C3 9.58 3 18.16 3 27 C1.68 27 0.36 27 -1 27 C-1.02886537 22.68751391 -1.04675255 18.37505238 -1.0625 14.0625 C-1.07087891 12.83080078 -1.07925781 11.59910156 -1.08789062 10.33007812 C-1.09111328 9.16025391 -1.09433594 7.99042969 -1.09765625 6.78515625 C-1.10289307 5.70113525 -1.10812988 4.61711426 -1.11352539 3.50024414 C-1 1 -1 1 0 0 Z " fill="#0E1D61" transform="translate(442,96)"/>
<path d="M0 0 C0.99 0.33 1.98 0.66 3 1 C3 9.58 3 18.16 3 27 C1.68 27 0.36 27 -1 27 C-1.02886537 22.68751391 -1.04675255 18.37505238 -1.0625 14.0625 C-1.07087891 12.83080078 -1.07925781 11.59910156 -1.08789062 10.33007812 C-1.09111328 9.16025391 -1.09433594 7.99042969 -1.09765625 6.78515625 C-1.10289307 5.70113525 -1.10812988 4.61711426 -1.11352539 3.50024414 C-1 1 -1 1 0 0 Z " fill="#0E1D61" transform="translate(204,96)"/>
<path d="M0 0 C2.475 0.495 2.475 0.495 5 1 C5 6.94 5 12.88 5 19 C3.35 19.33 1.7 19.66 0 20 C0 13.4 0 6.8 0 0 Z " fill="#0E1D61" transform="translate(280,103)"/>
<path d="M0 0 C1.32 0 2.64 0 4 0 C4 6.6 4 13.2 4 20 C2.68 20 1.36 20 0 20 C0 13.4 0 6.8 0 0 Z " fill="#0E1D61" transform="translate(78,103)"/>
<path d="M0 0 C-0.33 1.32 -0.66 2.64 -1 4 C-4.67410785 5.17571451 -8.16929183 5.07366746 -12 5 C-11.5 3.125 -11.5 3.125 -10 1 C-6.66341121 -0.35018741 -3.32402981 -1.66201491 0 0 Z " fill="#0E1D61" transform="translate(100,96)"/>
<path d="M0 0 C1.32 0.66 2.64 1.32 4 2 C3.67 3.32 3.34 4.64 3 6 C1.68 5.67 0.36 5.34 -1 5 C-0.67 3.35 -0.34 1.7 0 0 Z " fill="#0E1D61" transform="translate(281,96)"/>
<path d="M0 0 C0.99 0.33 1.98 0.66 3 1 C2.67 2.65 2.34 4.3 2 6 C1.01 6 0.02 6 -1 6 C-1.042721 4.33388095 -1.04063832 2.66617115 -1 1 C-0.67 0.67 -0.34 0.34 0 0 Z " fill="#0E1D61" transform="translate(79,96)"/>
</svg>
