<?xml version="1.0" standalone="no"?>
<!DOCTYPE svg PUBLIC "-//W3C//DTD SVG 20010904//EN" "http://www.w3.org/TR/2001/REC-SVG-20010904/DTD/svg10.dtd">
<svg xmlns="http://www.w3.org/2000/svg" version="1.0" width="400.000000pt" height="105.000000pt" viewBox="0 0 400.000000 105.000000" preserveAspectRatio="xMidYMid meet">
<metadata>
Created by potrace 1.16, written by Peter Selinger 2001-2019
<meta name="Producer" content="Online-Convert"/></metadata>
<g transform="translate(0.000000,105.000000) scale(0.100000,-0.100000)" fill="#000000" stroke="none">
<path d="M287 1023 c-3 -5 -8 -29 -11 -55 l-7 -48 71 0 72 0 -6 -27 c-5 -23 -37 -210 -71 -410 l-6 -33 54 0 54 0 37 218 c20 119 40 225 42 235 4 14 17 17 69 17 35 0 66 3 68 8 3 4 8 28 12 55 l7 47 -190 0 c-105 0 -193 -3 -195 -7z"/>
<path d="M2436 1003 c-3 -16 -24 -136 -46 -268 -23 -132 -44 -250 -47 -262 -5 -22 -2 -23 49 -23 l55 0 13 88 c19 131 38 194 67 224 30 31 70 37 80 12 5 -14 -25 -218 -44 -302 -5 -22 -3 -23 48 -20 l53 3 23 125 c12 69 22 153 23 188 0 54 -4 66 -25 87 -31 32 -95 34 -143 5 l-32 -20 4 23 c36 171 37 167 -23 167 -46 0 -50 -2 -55 -27z"/>
<path d="M785 869 c-11 -7 -27 -21 -36 -32 -17 -20 -17 -20 -12 6 5 26 4 27 -44 27 l-49 0 -33 -192 c-18 -106 -34 -201 -37 -210 -5 -16 2 -18 48 -18 l54 0 13 78 c27 172 63 242 123 242 24 0 32 7 44 36 8 20 14 43 12 52 -4 21 -54 27 -83 11z"/>
<path d="M965 866 c-38 -17 -72 -54 -80 -88 -7 -26 -6 -27 42 -30 40 -2 50 0 58 17 8 14 21 20 45 20 32 0 35 -3 38 -32 3 -34 5 -33 -98 -49 -25 -3 -58 -13 -73 -21 -77 -39 -74 -201 4 -233 33 -14 85 -7 110 16 15 13 17 13 22 -1 5 -11 21 -15 57 -15 l50 0 -6 38 c-3 22 3 75 15 132 35 156 26 216 -34 245 -40 18 -109 19 -150 1z"/>
<path d="M1407 860 c-31 -17 -37 -17 -37 -5 0 11 -12 15 -48 15 l-47 0 -36 -210 -35 -210 52 0 52 0 12 73 c32 194 48 237 95 259 35 16 55 4 55 -32 0 -29 -35 -245 -46 -282 -5 -16 2 -18 49 -18 l54 0 17 103 c33 192 36 221 25 259 -18 68 -87 88 -162 48z"/>
<path d="M1724 866 c-47 -21 -74 -61 -74 -113 0 -70 20 -96 99 -131 38 -17 73 -37 77 -43 10 -16 -32 -49 -62 -49 -24 0 -58 26 -66 50 -7 21 -98 4 -98 -18 0 -29 37 -80 70 -97 117 -61 260 4 260 118 0 62 -25 92 -104 128 -77 34 -91 46 -74 66 16 20 69 15 94 -8 18 -17 30 -20 63 -14 33 5 41 11 41 29 0 31 -28 66 -66 82 -42 18 -119 17 -160 0z"/>
<path d="M2093 865 c-34 -14 -73 -67 -73 -97 0 -28 91 -26 108 2 23 37 82 23 82 -20 0 -25 -4 -29 -40 -34 -22 -3 -58 -9 -81 -12 -24 -4 -54 -17 -72 -33 -25 -23 -31 -37 -35 -86 -5 -67 14 -115 54 -134 35 -16 54 -14 96 9 30 16 37 17 42 5 4 -10 21 -15 54 -15 l50 0 -5 43 c-3 24 4 84 16 140 30 140 29 171 -13 213 -31 31 -39 34 -92 34 -33 -1 -74 -7 -91 -15z"/>
<path d="M2875 869 c-76 -44 -115 -122 -115 -229 0 -59 5 -84 23 -115 60 -108 214 -106 275 4 25 43 24 45 -29 55 -32 6 -41 3 -67 -24 -17 -16 -36 -30 -42 -30 -19 0 -60 48 -60 70 0 19 6 20 115 20 l115 0 0 76 c0 80 -15 128 -51 160 -24 22 -134 30 -164 13z"/>
<path d="M3296 859 c-21 -17 -26 -18 -26 -5 0 12 -11 16 -48 16 l-47 0 -33 -192 c-18 -106 -32 -201 -32 -210 0 -15 9 -18 48 -18 l49 0 17 103 c10 56 27 123 37 148 21 48 66 83 93 73 12 -4 21 6 36 41 11 26 18 51 14 56 -10 17 -81 10 -108 -12z"/>
</g>
</svg>
