<?xml version="1.0" encoding="UTF-8"?>
<svg version="1.1" xmlns="http://www.w3.org/2000/svg" width="820" height="175">
<path d="M0 0 C33.33 0 66.66 0 101 0 C101 19.46489692 101 19.46489692 94.9375 26.6875 C93.64345389 28.37578301 92.35187386 30.06595851 91.0625 31.7578125 C90.39089844 32.61407227 89.71929687 33.47033203 89.02734375 34.35253906 C85.63182393 38.78666923 82.54984657 43.42746151 79.4375 48.0625 C78.18205466 49.91088012 76.92555146 51.75854218 75.66796875 53.60546875 C75.05614746 54.50571777 74.44432617 55.4059668 73.81396484 56.33349609 C70.96664483 60.51901819 68.10904426 64.69748105 65.25 68.875 C64.71842285 69.65206299 64.1868457 70.42912598 63.63916016 71.22973633 C61.13112786 74.89415979 58.61894786 78.55562266 56.09765625 82.2109375 C55.6274707 82.8930127 55.15728516 83.57508789 54.67285156 84.27783203 C53.82561585 85.50611094 52.97747012 86.73376325 52.12792969 87.96044922 C47.32960647 94.91626382 42.68941161 101.96588258 38 109 C59.12 109 80.24 109 102 109 C102 116.92 102 124.84 102 133 C68.34 133 34.68 133 0 133 C0 111.24861307 0 111.24861307 5.6875 105 C6.8962719 103.50636356 8.10190929 102.01018594 9.3046875 100.51171875 C9.92311523 99.76841309 10.54154297 99.02510742 11.17871094 98.25927734 C14.12612063 94.60306699 16.70451465 90.7142874 19.3125 86.8125 C20.39426125 85.21898374 21.47762946 83.62655733 22.5625 82.03515625 C23.11808594 81.21934082 23.67367188 80.40352539 24.24609375 79.56298828 C27.40915839 74.94079276 30.61116419 70.34573508 33.8125 65.75 C34.47515869 64.79851074 35.13781738 63.84702148 35.82055664 62.86669922 C37.87987414 59.91078618 39.93990545 56.95537152 42 54 C44.91757322 49.8131307 47.83401831 45.62547783 50.75 41.4375 C51.41749268 40.48004883 52.08498535 39.52259766 52.77270508 38.53613281 C53.39943115 37.63604492 54.02615723 36.73595703 54.671875 35.80859375 C55.49316895 34.62994751 55.49316895 34.62994751 56.33105469 33.42749023 C58.2491206 30.6376527 60.12201661 27.81697509 62 25 C41.54 24.67 21.08 24.34 0 24 C0 16.08 0 8.16 0 0 Z " fill="#9AE41A" transform="translate(248,9)"/>
<path d="M0 0 C10.96848563 9.14799009 16.06765286 20.11315224 17.6875 34.25 C17.6875 40.85 17.6875 47.45 17.6875 54.25 C-2.4425 54.58 -22.5725 54.91 -43.3125 55.25 C-38.85808535 64.89169224 -38.85808535 64.89169224 -31.3125 70.25 C-23.4737033 72.86293223 -14.90473348 71.85172617 -7.48046875 68.47265625 C-4.36948891 66.71817573 -1.90341989 64.70455569 0.6875 62.25 C4.44581734 63.78944806 6.66538832 66.0752091 9.375 69.0625 C10.16261719 69.91457031 10.95023438 70.76664062 11.76171875 71.64453125 C13.76942755 74.36084315 14.61047537 75.88292326 14.6875 79.25 C9.81930496 87.38709135 -0.86496621 92.15024127 -9.59399414 94.64794922 C-14.10886108 95.64782905 -18.51550196 95.73908219 -23.125 95.6875 C-24.08768799 95.67920166 -25.05037598 95.67090332 -26.04223633 95.66235352 C-39.29663114 95.3491347 -50.36091202 91.34361317 -60.33984375 82.44140625 C-71.78220745 70.39813067 -73.85966967 56.03932125 -73.5546875 40.19921875 C-73.04694545 26.95519477 -68.67929804 14.6593907 -59.5625 4.8125 C-44.14154723 -9.32337337 -17.44295889 -12.1140853 0 0 Z M-39.8515625 22.34375 C-42.50256134 26.78676482 -43.3125 28.87980088 -43.3125 34.25 C-32.4225 34.25 -21.5325 34.25 -10.3125 34.25 C-11.05359777 26.56341939 -11.05359777 26.56341939 -14.3125 20.25 C-19.07890814 16.55360185 -22.86881743 15.57755459 -28.88671875 15.87890625 C-33.81943175 16.63350808 -36.879974 18.3011829 -39.8515625 22.34375 Z " fill="#9BE51A" transform="translate(587.3125,47.75)"/>
<path d="M0 0 C10.31614846 7.79920694 14.22349477 18.55497383 16.6875 30.875 C16.6875 38.465 16.6875 46.055 16.6875 53.875 C-3.4425 53.875 -23.5725 53.875 -44.3125 53.875 C-40.0896666 63.69401037 -40.0896666 63.69401037 -32.25 69.6875 C-25.04085225 72.43608574 -16.45590142 71.61183593 -9.34765625 68.94140625 C-6.4242516 67.40956466 -4.15357217 65.39838324 -1.8203125 63.08203125 C-0.3125 61.875 -0.3125 61.875 2.6875 61.875 C4.84375 64.17578125 4.84375 64.17578125 7.1875 67.1875 C10.7192947 71.72721141 10.7192947 71.72721141 14.6875 75.875 C12.62324929 82.26751834 8.15083455 85.27878909 2.6875 88.875 C-11.242439 95.8228985 -27.50188727 97.5785869 -42.625 93.25 C-55.392202 88.49554717 -64.43135754 80.00530635 -70.12890625 67.69921875 C-76.43909539 52.64223278 -75.50735868 35.41268477 -70.1875 20.1875 C-65.44562777 8.72682338 -57.69077525 1.11445759 -46.7109375 -4.44140625 C-31.69069596 -10.51296867 -13.52122566 -8.54929515 0 0 Z M-40.5625 22.0625 C-43.0045201 25.64071591 -43.0045201 25.64071591 -44.3125 33.875 C-33.4225 33.875 -22.5325 33.875 -11.3125 33.875 C-11.82540046 24.12463813 -11.82540046 24.12463813 -17.3125 17.875 C-25.5426389 12.70176984 -34.199626 15.8763725 -40.5625 22.0625 Z " fill="#9BE51A" transform="translate(435.3125,48.125)"/>
<path d="M0 0 C1.36644653 0.01135986 1.36644653 0.01135986 2.76049805 0.02294922 C15.24238023 0.32472595 25.45545484 3.1930318 34.45703125 12.1328125 C40.20644192 18.37183236 41.68553424 23.92177394 42.75 32.4375 C33.18 32.4375 23.61 32.4375 13.75 32.4375 C12.76 29.4675 11.77 26.4975 10.75 23.4375 C6.53419763 20.98645211 1.54844902 20.80662822 -3.25 21.4375 C-7.2726217 23.00185288 -8.84149109 23.82473663 -11.25 27.4375 C-11.57026414 30.95055609 -11.57026414 30.95055609 -10.25 34.4375 C-5.13382042 38.27257636 1.38513876 39.52129259 7.5 40.875 C19.26920374 43.68325349 30.84218764 46.57363258 38.75 56.4375 C43.04096255 64.41473661 43.81124317 71.61808456 41.75 80.375 C38.9672334 88.7232998 33.43131384 93.86440251 25.75 97.875 C12.78586653 104.05762343 -3.77485779 104.72388786 -17.5625 100.8125 C-27.81316968 96.99860854 -35.77762962 90.94569486 -40.5625 81 C-42.52611488 76.63364961 -42.60199775 73.62151803 -43.25 68.4375 C-34.34 68.4375 -25.43 68.4375 -16.25 68.4375 C-13.775 73.3875 -13.775 73.3875 -11.25 78.4375 C-5.81073018 81.5197529 -0.45699751 82.29798949 5.75 81.4375 C9.81662662 79.88478802 11.32519602 79.07470598 13.75 75.4375 C14.33350505 72.98040625 14.33350505 72.98040625 13.75 70.4375 C10.36597897 67.24894589 7.38589312 65.73915444 2.9375 64.5 C1.80183594 64.17 0.66617188 63.84 -0.50390625 63.5 C-1.74011719 63.149375 -2.97632813 62.79875 -4.25 62.4375 C-17.79349788 58.53330424 -30.25426381 54.9146314 -38.1875 42.375 C-40.82199522 35.14241063 -40.51352993 25.16230663 -37.27734375 18.16796875 C-31.72898538 8.82225484 -23.19996821 3.97935343 -12.93066406 1.03955078 C-8.60815281 0.06875727 -4.4163998 -0.0519722 0 0 Z " fill="#9BE51A" transform="translate(777.25,40.5625)"/>
<path d="M0 0 C1.39899359 1.03070277 2.77563283 2.09263037 4.125 3.1875 C5.06279297 3.93966797 5.06279297 3.93966797 6.01953125 4.70703125 C13.18418133 11.12243688 17.78446574 20.55472841 18.36328125 30.12890625 C18.67770082 43.1957305 17.01955561 53.0927152 8.125 63.1875 C7.60035156 63.80496094 7.07570313 64.42242187 6.53515625 65.05859375 C-0.67148754 72.9435099 -9.98491225 76.40211607 -20.42578125 77.44140625 C-31.55014581 77.94047326 -42.38846765 74.43641305 -50.875 67.1875 C-59.00276787 59.36452342 -64.19059941 50.85119493 -65.2109375 39.42578125 C-65.34158671 26.29553573 -63.13653808 16.0575991 -53.875 6.1875 C-53.27816406 5.54941406 -52.68132812 4.91132812 -52.06640625 4.25390625 C-37.95042431 -9.39252119 -16.25460767 -10.31117119 0 0 Z " fill="#9BE51A" transform="translate(132.875,41.8125)"/>
<path d="M0 0 C9.24 0 18.48 0 28 0 C28 46.53 28 93.06 28 141 C18.76 141 9.52 141 0 141 C0 94.47 0 47.94 0 0 Z " fill="#9AE51A" transform="translate(468,1)"/>
<path d="M0 0 C-0.33 8.91 -0.66 17.82 -1 27 C-4.96 27.12375 -4.96 27.12375 -9 27.25 C-15.56431837 27.56226076 -20.47234325 28.16448307 -26 32 C-28.36246505 35.54369758 -28.27004845 37.10250808 -28.31884766 41.30737305 C-28.33871735 42.60849533 -28.35858704 43.90961761 -28.37905884 45.25016785 C-28.39093531 46.67068309 -28.40259816 48.09120012 -28.4140625 49.51171875 C-28.43277235 50.96475833 -28.45234562 52.41778703 -28.4727478 53.87080383 C-28.52409464 57.69297877 -28.56370653 61.51518895 -28.60089111 65.33752441 C-28.64795325 69.92483203 -28.70956196 74.51196446 -28.76873779 79.09912872 C-28.85698123 86.06601521 -28.92672266 93.03286759 -29 100 C-38.57 100 -48.14 100 -58 100 C-58 67.33 -58 34.66 -58 1 C-49.09 1 -40.18 1 -31 1 C-30.67 3.31 -30.34 5.62 -30 8 C-29.67 8.33 -29.34 8.66 -29 9 C-28.34 8.0925 -27.68 7.185 -27 6.25 C-20.77622572 -1.02543697 -8.97208467 -4.48604234 0 0 Z " fill="#9AE41A" transform="translate(677,42)"/>
<path d="M0 0 C6.65405323 4.52194463 11.63929119 10.53099728 13.609375 18.44921875 C15.07258805 28.00399999 14.08911085 36.26732401 8.38671875 44.26171875 C2.69496073 51.08930431 -3.52224133 55.48175221 -12.55078125 56.3359375 C-23.72568999 56.45198017 -30.94120269 54.71787815 -39.20703125 47.0625 C-45.06901277 40.31930558 -47.36814042 32.6139845 -46.875 23.8125 C-46.10284497 15.37599136 -43.47972232 9.0175687 -37.3125 3.125 C-26.3648561 -5.51465181 -12.24039595 -7.08433875 0 0 Z " fill="#9BE51A" transform="translate(47,96)"/>
<path d="M0 0 C9.57 0 19.14 0 29 0 C29.02254906 12.76034185 29.04091395 25.52067057 29.05181217 38.28102779 C29.05704149 44.20550715 29.06414001 50.12997222 29.07543945 56.05444336 C29.08626661 61.76672571 29.09227647 67.47899428 29.09487724 73.19128609 C29.0967318 75.37588277 29.100353 77.56047865 29.10573006 79.7450695 C29.11293821 82.79352349 29.11399104 85.84191979 29.11352539 88.89038086 C29.11712067 89.80315796 29.12071594 90.71593506 29.12442017 91.65637207 C29.11405216 97.88594784 29.11405216 97.88594784 28 99 C18.76 99 9.52 99 0 99 C0 66.33 0 33.66 0 0 Z " fill="#99E51A" transform="translate(690,43)"/>
<path d="M0 0 C5.46895322 5.1328723 8.04094399 11.6555758 8.3125 19.0625 C7.99103921 26.01855425 5.85954437 30.42885264 1.4375 35.6875 C-5.45966019 41.46186667 -9.81162469 42.61973306 -18.875 42.3125 C-26.62131238 41.45179862 -31.01591712 37.91521318 -35.83984375 31.9375 C-39.72586659 26.42602163 -39.90620143 20.46922811 -39.25 13.9375 C-37.83951455 8.01757934 -35.35607776 2.96046208 -30.1328125 -0.44140625 C-19.75725671 -6.4116031 -10.26434026 -6.51390824 0 0 Z " fill="#9AE51A" transform="translate(163.25,133.0625)"/>
<path d="M0 0 C4.0672317 3.90643416 5.99439273 8.03031821 6.21484375 13.67578125 C5.79371601 20.10067879 3.42161984 24.01276245 -1.0625 28.625 C-6.00112543 31.69792249 -11.22562116 32.97381384 -17 31.875 C-22.04814589 30.32017107 -26.17095586 26.98786768 -29.046875 22.578125 C-30.85656638 17.76366304 -30.38375845 12.41861776 -29.875 7.375 C-27.08526595 1.48556146 -23.20579416 -1.77037547 -17.125 -4 C-10.75977088 -5.31859737 -5.1392783 -3.95994917 0 0 Z " fill="#9BE51A" transform="translate(191.875,27.625)"/>
<path d="M0 0 C3.14971874 3.38594765 4.24705059 5.9673041 4.4375 10.5 C4.15029783 16.01242879 2.55119761 19.44880239 -1.375 23.375 C-7.12037261 25.95051186 -14.06147894 26.45650967 -20.0703125 24.234375 C-24.60085921 21.36578763 -26.67552331 18.39061438 -27.875 13.25 C-28.27497689 8.68856145 -27.40871461 4.90766291 -25 1 C-17.19590562 -5.47573789 -8.33731271 -5.80537392 0 0 Z " fill="#9BE41A" transform="translate(716,7)"/>
<path d="M0 0 C3.56008428 3.47108217 5.33889823 6.63530565 5.62890625 11.6796875 C5.30723523 17.46976592 3.72652763 20.49914471 -0.5 24.4375 C-4.51499754 26.82479583 -8.92400731 27.17324784 -13.5 26.4375 C-17.33669597 24.41056628 -20.49766408 22.33678574 -22.5 18.4375 C-23.82118526 13.60272783 -23.97594285 9.67266609 -21.875 5.0625 C-17.0954354 -3.01609067 -8.18414852 -3.65363773 0 0 Z " fill="#9BE51A" transform="translate(78.5,1.5625)"/>
</svg>
